<?xml version="1.0" standalone="no"?>
<!DOCTYPE svg PUBLIC "-//W3C//DTD SVG 1.1//EN" "http://www.w3.org/Graphics/SVG/1.1/DTD/svg11.dtd" >
<svg xmlns="http://www.w3.org/2000/svg">
<metadata></metadata>
<defs>
<font id="soberana_sansbold" horiz-adv-x="1331" >
<font-face units-per-em="2048" ascent="1577" descent="-471" />
<missing-glyph horiz-adv-x="532" />
<glyph horiz-adv-x="0" />
<glyph horiz-adv-x="682" />
<glyph unicode=" "  horiz-adv-x="532" />
<glyph unicode="&#x09;" horiz-adv-x="532" />
<glyph unicode="&#xa0;" horiz-adv-x="532" />
<glyph unicode="!" horiz-adv-x="796" d="M184 1524l424 35l-47 -1082h-315zM186 164q0 88 61 138t156 50q93 0 152 -50t59 -138q0 -87 -59 -137t-152 -50q-97 0 -157 47.5t-60 139.5z" />
<glyph unicode="&#x22;" horiz-adv-x="997" d="M119 1530l315 29l-63 -523h-199zM563 1530l316 29l-64 -523h-199z" />
<glyph unicode="#" d="M61 344v231h242l27 205l-228 -2v236l256 -2l41 319h238l-39 -319h217l41 319h236l-39 -319l215 2v-236l-246 2l-25 -205h230v-231h-258l-39 -324h-240l41 324h-219l-39 -324h-237l38 324h-213zM543 575h217l26 205h-219z" />
<glyph unicode="$" d="M100 106l58 304q101 -60 233 -97t240 -37q103 0 160 34t57 102q0 34 -25 62.5t-73 52t-97 41.5t-118 43.5t-115 47.5q-49 23 -89 47.5t-80 60t-67 76.5t-44 97t-17 121q0 190 131 302t354 130l37 268l293 -26l-35 -258q140 -23 266 -78l-102 -289q-179 84 -352 84 q-195 0 -195 -119q0 -30 25 -57t74.5 -53t102 -48.5t129.5 -56t134 -63.5q115 -60 177.5 -143t62.5 -214q0 -93 -26.5 -168t-72.5 -126.5t-112 -87.5t-140.5 -54t-162.5 -24l-31 -275l-297 23l35 270q-181 29 -318 108z" />
<glyph unicode="%" horiz-adv-x="2019" d="M80 1139q0 169 93.5 263.5t272.5 94.5q178 0 270.5 -94t92.5 -268q0 -180 -97.5 -269.5t-265.5 -89.5q-170 0 -268 90.5t-98 272.5zM315 1137q0 -189 131 -189q60 0 93.5 48.5t33.5 138.5q0 192 -127 192q-131 0 -131 -190zM459 139l841 1358l275 -162l-842 -1358z M1210 340q0 174 96 266t267 92q174 0 270 -92t96 -270q0 -174 -96 -266.5t-270 -92.5t-268.5 92.5t-94.5 270.5zM1444 340q0 -193 131 -193q129 0 129 191q0 92 -34 140t-95 48q-66 0 -98.5 -48.5t-32.5 -137.5z" />
<glyph unicode="&#x26;" horiz-adv-x="1603" d="M49 393q0 138 75 248t202 207q-82 158 -82 297q0 132 61.5 227t163 141t229.5 46q114 0 226.5 -35t189.5 -90l-102 -250q-57 40 -127 66t-137 26q-76 0 -121 -38t-45 -110q0 -106 119 -255.5t303 -301.5q65 109 145 289h336q-93 -231 -246 -467q35 -26 92 -59 q107 -64 195 -64h49v-270q-59 -23 -141 -23q-75 0 -158.5 29t-151.5 74l-92 63q-207 -166 -483 -166q-227 0 -363.5 111t-136.5 305zM395 406q0 -68 47.5 -115t132.5 -47q111 0 224 78q-190 157 -301 284q-103 -103 -103 -200z" />
<glyph unicode="'" horiz-adv-x="552" d="M119 1530l315 29l-63 -523h-199z" />
<glyph unicode="(" horiz-adv-x="888" d="M100 684q0 162 44 308t127.5 264t210.5 202.5t286 120.5v-293q-299 -191 -299 -602q0 -410 299 -604v-291q-211 48 -363.5 179t-228.5 314.5t-76 401.5z" />
<glyph unicode=")" horiz-adv-x="888" d="M121 80q299 194 299 604q0 411 -299 602v293q212 -48 364.5 -179.5t227.5 -315t75 -400.5q0 -218 -75 -401.5t-227.5 -314.5t-364.5 -179v291z" />
<glyph unicode="*" horiz-adv-x="931" d="M80 1067l295 88l-295 88l94 191l242 -201l-66 301h232l-66 -301l240 201l96 -193l-295 -88l295 -88l-94 -191l-242 201l66 -301h-232l66 301l-240 -201z" />
<glyph unicode="+" d="M127 492v247h414v424h250v-424h413v-247h-413v-424h-250v424h-414z" />
<glyph unicode="," horiz-adv-x="602" d="M74 -211q47 63 72.5 136t25.5 132q0 110 -76 217l330 52q74 -102 74 -215q0 -170 -172 -369z" />
<glyph unicode="-" horiz-adv-x="876" d="M49 449v235l778 47v-235z" />
<glyph unicode="." horiz-adv-x="602" d="M100 162q0 85 55 137.5t144 52.5q90 0 146.5 -53t56.5 -137q0 -82 -57 -133.5t-146 -51.5t-144 51.5t-55 133.5z" />
<glyph unicode="/" horiz-adv-x="1210" d="M59 57l793 1573l299 -135l-801 -1589z" />
<glyph unicode="0" d="M61 748q0 358 154.5 553.5t452.5 195.5q297 0 449.5 -192.5t152.5 -546.5q0 -781 -604 -781q-288 0 -446.5 188.5t-158.5 582.5zM440 739q0 -475 228 -475q223 0 223 488q0 452 -223 452q-114 0 -171 -119.5t-57 -345.5z" />
<glyph unicode="1" d="M154 0v295h360v827l-360 -20v248q277 26 604 125h141v-1180h346v-295h-1091z" />
<glyph unicode="2" d="M92 231q131 99 224 174.5t184 160t146.5 153.5t89.5 141t34 137q0 82 -47.5 132.5t-142.5 50.5q-89 0 -185 -34.5t-172 -88.5l-119 282q99 66 242 112t301 46q108 0 201.5 -24.5t171.5 -76t123 -141.5t45 -211q0 -84 -28.5 -170t-70.5 -155.5t-108 -147t-122 -131.5 t-132 -121l2 -12h508v-307h-1106z" />
<glyph unicode="3" d="M90 127l96 287q78 -58 190.5 -98t207.5 -40q115 0 178 47t63 140q0 95 -105.5 140.5t-285.5 45.5v187q69 17 120 34.5t104.5 44.5t82.5 64.5t29 83.5q0 65 -49 95t-127 30q-96 0 -195 -36t-166 -93l-104 262q100 80 243 128t300 48q232 0 371 -93t139 -263 q0 -111 -70 -194.5t-180 -127.5v-14q133 -39 215 -128t82 -237q0 -92 -32.5 -169.5t-89 -131t-133.5 -90.5t-164.5 -54.5t-182.5 -17.5q-307 0 -537 150z" />
<glyph unicode="4" d="M59 301v221q142 185 294 376t307.5 384t168.5 209l287 -25v-880h141l-22 -285h-119v-301h-352v301h-705zM440 592l4 -12h324v405l-12 4q-173 -207 -316 -397z" />
<glyph unicode="5" d="M90 125l94 293q81 -56 207 -96.5t232 -40.5q100 0 156.5 42.5t56.5 129.5q0 51 -33 91t-88.5 67.5t-143 48.5t-181.5 33.5t-220 23.5q50 290 96 758h914v-293h-564q-13 -157 -26 -240q130 -17 226 -41t177 -63.5t131 -94.5t77.5 -133t27.5 -180q0 -141 -79.5 -245 t-213.5 -156t-305 -52q-147 0 -287 39t-254 109z" />
<glyph unicode="6" d="M90 590q0 173 74 327.5t203.5 269.5t303.5 195t376 115l75 -278q-226 -59 -388.5 -159t-233.5 -235l14 -6q132 84 285 84q201 0 321.5 -112.5t120.5 -327.5q0 -119 -44.5 -213t-123 -153t-181 -89.5t-222.5 -30.5q-96 0 -182 23.5t-159 73t-126 121t-83 172.5t-30 223z M451 569q14 -329 221 -329q99 0 152 59.5t53 157.5q0 100 -51.5 155.5t-141.5 55.5q-122 0 -233 -99z" />
<glyph unicode="7" d="M98 1178v297h1094l61 -132q-22 -54 -136.5 -305.5t-259 -568t-212.5 -469.5h-471q124 232 345.5 657t268.5 521h-690z" />
<glyph unicode="8" d="M94 395q0 255 273 387q-105 61 -167.5 138t-62.5 190q0 190 138.5 288.5t390.5 98.5q266 0 397 -102.5t131 -284.5q0 -61 -19.5 -113t-55.5 -91t-74.5 -67.5t-88.5 -54.5q61 -31 106.5 -63.5t87 -79t63.5 -109t22 -139.5q0 -102 -47.5 -183t-128 -131t-181.5 -76 t-214 -26q-161 0 -288.5 46.5t-204.5 142.5t-77 229zM465 401q0 -74 58 -116.5t141 -42.5q93 0 146.5 44t53.5 120q0 75 -50.5 122t-156.5 88q-96 -40 -144 -87.5t-48 -127.5zM489 1096q0 -106 177 -181q174 78 174 183q0 75 -50 109t-124 34q-34 0 -63.5 -7t-56 -22.5 t-42 -45.5t-15.5 -70z" />
<glyph unicode="9" d="M86 1014q0 156 77.5 267t204 163.5t287.5 52.5q122 0 225 -35.5t184 -106t127 -187.5t46 -269q0 -173 -72 -326.5t-199.5 -269.5t-300 -199.5t-376.5 -126.5l-76 281q489 169 616 404l-10 8q-128 -86 -301 -86q-198 0 -315 112t-117 318zM451 1018q0 -97 47.5 -148 t138.5 -51q131 0 237 101q-2 65 -14.5 119.5t-37.5 100t-67.5 71.5t-99.5 26q-101 0 -152.5 -63t-51.5 -156z" />
<glyph unicode=":" horiz-adv-x="602" d="M100 162q0 85 55 137.5t144 52.5q90 0 146.5 -53t56.5 -137q0 -82 -57 -133.5t-146 -51.5t-144 51.5t-55 133.5zM100 821q0 85 55 138t144 53t146 -53t57 -138q0 -83 -56.5 -134.5t-146.5 -51.5q-89 0 -144 51.5t-55 134.5z" />
<glyph unicode=";" horiz-adv-x="602" d="M74 -211q47 63 72.5 136t25.5 132q0 110 -76 217l330 52q74 -102 74 -215q0 -170 -172 -369zM100 821q0 85 55 138t144 53q91 0 147 -53t56 -138q0 -83 -56 -134.5t-147 -51.5q-89 0 -144 51.5t-55 134.5z" />
<glyph unicode="&#x3c;" d="M164 526v185l995 471v-279l-612 -287l612 -282v-279z" />
<glyph unicode="=" d="M127 254v248h1077v-248h-1077zM127 729v248h1077v-248h-1077z" />
<glyph unicode="&#x3e;" d="M172 55v279l612 282l-612 287v279l995 -471v-185z" />
<glyph unicode="?" horiz-adv-x="1089" d="M80 1446q81 49 199 81t231 32q226 0 352.5 -99t126.5 -280q0 -78 -37.5 -150.5t-90.5 -126t-106 -102t-90.5 -99.5t-37.5 -98q0 -67 30 -129h-348q-20 34 -33.5 82.5t-13.5 89.5q0 58 24.5 109.5t61.5 87.5t80 73t80 66.5t61.5 67t24.5 75.5q0 61 -44 95t-114 34 q-59 0 -134 -22.5t-124 -54.5zM270 164q0 88 61 138t156 50q93 0 152 -50t59 -138q0 -87 -59 -137t-152 -50q-97 0 -157 47.5t-60 139.5z" />
<glyph unicode="@" horiz-adv-x="1660" d="M80 496q0 145 35.5 274.5t105.5 235t168.5 182.5t231 119t286.5 43q100 0 195 -22t182.5 -70t153 -117.5t104.5 -173t39 -228.5q0 -87 -21.5 -171.5t-64 -157.5t-100 -128.5t-134.5 -87.5t-163 -32q-73 0 -117 30.5t-61 98.5l-13 2q-115 -119 -248 -119q-120 0 -181.5 89 t-61.5 229q0 95 25.5 180t76.5 155.5t136.5 112t195.5 41.5q70 0 125 -18.5t112 -57.5l64 60h82q-82 -566 -82 -592q0 -54 47 -54q42 0 87.5 27t85.5 77t65.5 133t25.5 183q0 103 -30 188t-82.5 144.5t-124 100.5t-153 60t-171.5 19q-215 -1 -377.5 -96.5t-249 -265 t-86.5 -389.5q0 -293 172 -469t449 -176q135 0 279.5 52t250.5 138l58 -84q-123 -100 -278 -154.5t-310 -54.5q-166 0 -304 57t-230.5 156.5t-143.5 236t-51 294.5zM668 516q0 -149 90 -149q75 0 149 88l47 299q-41 28 -98 28q-60 0 -103.5 -39.5t-64 -98.5t-20.5 -128z" />
<glyph unicode="A" horiz-adv-x="1671" d="M39 0q109 287 309.5 789t304.5 747h359q92 -218 309.5 -754t310.5 -782h-407l-138 377h-516q-23 -60 -69.5 -200.5t-57.5 -176.5h-405zM666 651h327q-18 49 -83.5 225t-73.5 197h-13q-40 -104 -157 -422z" />
<glyph unicode="B" horiz-adv-x="1404" d="M131 0v1536h596q90 0 164 -9.5t146 -35t120.5 -67.5t78.5 -111.5t30 -161.5q0 -121 -62.5 -203.5t-169.5 -120.5v-14q312 -83 312 -379q0 -95 -32.5 -172.5t-98.5 -137t-176 -92t-257 -32.5h-651zM522 250h170q124 0 187 60t63 157q0 100 -69 151.5t-199 51.5h-152v-420z M522 899h109q105 0 168 58t63 151q0 180 -205 180h-135v-389z" />
<glyph unicode="C" horiz-adv-x="1435" d="M70 750q0 166 41 301t114 228.5t174.5 157t220 93t254.5 29.5q123 0 254 -27.5t224 -81.5l-68 -291q-176 88 -352 88q-207 0 -326 -124t-119 -363q0 -117 36 -208t100 -147t146.5 -84t180.5 -28q201 0 371 82l45 -293q-221 -105 -481 -105q-127 0 -243 26.5t-221.5 86.5 t-182.5 148.5t-122.5 219.5t-45.5 292z" />
<glyph unicode="D" horiz-adv-x="1624" d="M131 0v1536h627q391 0 588.5 -199t197.5 -571t-201 -569t-571 -197h-641zM524 293h193q201 0 303 125.5t102 353.5q0 249 -106.5 359t-308.5 110h-183v-948z" />
<glyph unicode="E" horiz-adv-x="1155" d="M131 0v1536h936v-293h-541v-338h406l-35 -258h-371v-352h549v-295h-944z" />
<glyph unicode="F" horiz-adv-x="1146" d="M131 0v1536h965v-293h-570v-360h461l-35 -262h-426v-621h-395z" />
<glyph unicode="G" horiz-adv-x="1593" d="M80 752q0 173 44 310t121 229t185.5 153t232 88t267.5 27q142 0 280 -29t236 -80l-68 -293q-188 90 -405 90q-80 0 -149 -16t-130 -52.5t-104.5 -91.5t-68.5 -138.5t-25 -188.5q0 -226 122 -347.5t324 -121.5q108 0 182 35v264h-135v239h494v-725q-240 -127 -594 -127 q-135 0 -255.5 30t-222 92.5t-175 153t-115 218t-41.5 281.5z" />
<glyph unicode="H" horiz-adv-x="1671" d="M131 0v1536h393v-598h625v598h391v-1536h-391v643h-625v-643h-393z" />
<glyph unicode="I" horiz-adv-x="655" d="M131 0v1536h393v-1536h-393z" />
<glyph unicode="J" horiz-adv-x="901" d="M59 295q52 -14 125 -14q105 0 150 55.5t45 171.5v733h-156v295h557v-1108q0 -232 -118.5 -342.5t-329.5 -110.5q-103 0 -248 27z" />
<glyph unicode="K" horiz-adv-x="1519" d="M131 0v1536h393v-596h129q85 115 367 596h426q-187 -329 -455 -723q60 -113 154.5 -258.5t173.5 -232.5q31 -34 67.5 -47t94.5 -15v-260q-103 -23 -193 -23q-102 0 -169 31t-130 113q-54 66 -164.5 237t-173.5 287h-127v-645h-393z" />
<glyph unicode="L" horiz-adv-x="1167" d="M131 0v1536h395v-1241h582v-295h-977z" />
<glyph unicode="M" horiz-adv-x="2043" d="M111 0l63 1536h401q189 -354 441 -909h14q97 179 221.5 453.5t192.5 455.5h416l73 -1536h-374l-43 926h-13q-85 -191 -217 -458.5t-178 -352.5q-23 -4 -91.5 -12.5t-86.5 -8.5q-29 60 -106 224t-152 319t-150 299l-14 -2l-33 -934h-364z" />
<glyph unicode="N" horiz-adv-x="1712" d="M131 0v1536h334q134 -146 345 -394t374 -458l12 2v850h385v-1536l-248 -23q-219 274 -452 556.5t-355 420.5h-14v-954h-381z" />
<glyph unicode="O" horiz-adv-x="1712" d="M80 768q0 372 197.5 581.5t578.5 209.5q378 0 577 -208t199 -573q0 -384 -205 -592.5t-571 -208.5q-364 0 -570 209t-206 582zM489 768q0 -243 91.5 -373.5t273.5 -130.5t275.5 129t93.5 379q0 504 -369 504q-365 0 -365 -508z" />
<glyph unicode="P" horiz-adv-x="1378" d="M131 0v1536h621q282 0 423.5 -127.5t141.5 -359.5q0 -255 -167.5 -404t-481.5 -149q-52 0 -142 4v-500h-395zM526 803q46 -6 107 -6q144 0 216.5 56t72.5 183q0 112 -67 159.5t-193 47.5h-136v-440z" />
<glyph unicode="Q" horiz-adv-x="1714" d="M80 768q0 372 197.5 581.5t578.5 209.5q378 0 577 -208t199 -573q0 -293 -121 -488t-350 -259q208 -150 404 -150q59 0 94 4v-241q-91 -31 -203 -31q-124 0 -281.5 61.5t-289 145t-242.5 178.5q-270 52 -416.5 254t-146.5 516zM489 768q0 -243 91.5 -373.5t273.5 -130.5 t275.5 129t93.5 379q0 504 -369 504q-365 0 -365 -508z" />
<glyph unicode="R" horiz-adv-x="1445" d="M131 0v1536h565q281 0 428.5 -117t147.5 -346q0 -153 -59.5 -249.5t-184.5 -164.5q110 -190 225 -335q34 -37 66.5 -49.5t73.5 -12.5h26v-262q-90 -23 -190 -23q-84 0 -140.5 19t-107.5 74q-53 59 -140.5 195.5t-170.5 289.5h-146v-555h-393zM524 838h99q254 0 254 213 q0 103 -60.5 147.5t-179.5 44.5h-113v-405z" />
<glyph unicode="S" horiz-adv-x="1284" d="M70 109l57 303q94 -58 220 -97t241 -39q109 0 169 36.5t60 107.5q0 32 -18 60.5t-46 49t-72 43t-86.5 40.5t-99.5 44t-100 50q-57 31 -95.5 56t-81 62.5t-68 77t-42 95t-16.5 120.5q0 217 151.5 329t418.5 112q114 0 247 -28t230 -73l-70 -287q-77 36 -182.5 60 t-198.5 24q-196 0 -196 -129q0 -36 28 -67t80 -58t108 -51t130.5 -58t128.5 -67q110 -67 168.5 -152.5t58.5 -221.5q0 -103 -31.5 -184.5t-85.5 -135t-130 -89t-160.5 -50.5t-182.5 -15q-153 0 -293 36t-241 96z" />
<glyph unicode="T" horiz-adv-x="1464" d="M59 1243v293h1346v-293h-475v-1243h-395v1243h-476z" />
<glyph unicode="U" horiz-adv-x="1626" d="M111 668v868h395v-885q0 -188 83.5 -278t225.5 -90q64 0 117.5 19.5t97 61t68 115t24.5 172.5v885h394v-895q0 -172 -50 -300.5t-144 -207.5t-221.5 -117.5t-289.5 -38.5q-161 0 -286.5 38t-219.5 118.5t-144 215.5t-50 319z" />
<glyph unicode="V" horiz-adv-x="1593" d="M29 1536h413q173 -589 346 -1090h13q189 506 352 1090h412q-85 -275 -290 -820.5t-282 -715.5h-401q-84 192 -277 714t-286 822z" />
<glyph unicode="W" horiz-adv-x="2347" d="M35 1536h411q122 -482 304 -1071h10q171 407 272 668q-36 83 -61.5 108t-77.5 25v268q83 12 164 12q39 0 69.5 -3.5t63.5 -15.5t57.5 -31.5t46.5 -54t37 -81.5l277 -883h12q178 580 274 1059h408q-76 -303 -240.5 -842.5t-230.5 -693.5h-397q-40 107 -240 690h-2 q-123 -322 -285 -690h-385q-70 176 -238 704.5t-249 831.5z" />
<glyph unicode="X" horiz-adv-x="1591" d="M29 0q297 469 499 774q-28 42 -83 127.5t-96 148t-73 107.5q-37 52 -74 73t-85 21v283q78 10 178 10q101 0 162.5 -35.5t130.5 -138.5q15 -23 97 -158.5t112 -183.5h10q36 54 74.5 120t109.5 193.5t109 194.5h428q-315 -524 -463 -745q220 -346 303 -451q38 -47 80 -63.5 t100 -16.5v-262q-22 -6 -91.5 -13.5t-102.5 -7.5q-100 0 -160.5 27t-120.5 117q-28 28 -268 409h-12q-112 -180 -320 -530h-444z" />
<glyph unicode="Y" horiz-adv-x="1472" d="M43 1243v291q63 8 154 8q101 0 171.5 -38.5t133.5 -139.5q3 -6 56 -93t102.5 -170.5t58.5 -99.5h10q19 29 41 67.5t40 70.5t47.5 89t46 89t55.5 108t57 111h428q-110 -201 -266.5 -462.5t-259.5 -422.5v-651h-392v647q-253 396 -333 504q-38 50 -72.5 71t-77.5 21z" />
<glyph unicode="Z" horiz-adv-x="1458" d="M66 0v158q190 302 737 1071l-2 12h-680v295h1202l51 -152q-29 -41 -171 -241.5t-207.5 -294.5t-175 -254.5t-191.5 -286.5l4 -12h756v-295h-1323z" />
<glyph unicode="[" horiz-adv-x="954" d="M203 -201v1770h610v-285h-250v-1202h250v-283h-610z" />
<glyph unicode="\" horiz-adv-x="1210" d="M59 1495l299 135l793 -1573l-291 -151z" />
<glyph unicode="]" horiz-adv-x="954" d="M141 82h250v1202h-250v285h611v-1770h-611v283z" />
<glyph unicode="^" d="M113 524l450 987h205l451 -987h-281l-272 598l-273 -598h-280z" />
<glyph unicode="_" d="M-20 -211h1372v-235h-1372v235z" />
<glyph unicode="`" horiz-adv-x="1064" d="M254 1708l264 154l293 -519l-147 -73z" />
<glyph unicode="a" horiz-adv-x="1325" d="M70 305q0 110 62 168t196 92q80 21 244 56t204 45v47q0 81 -40 121t-140 40q-175 0 -401 -96l-70 223q115 62 256.5 98t249.5 36q55 0 101 -3.5t102 -14.5t100 -29.5t87 -51.5t72 -77t46.5 -109t17.5 -145v-398q0 -34 11 -49.5t44 -15.5q18 0 41.5 2t24.5 2l16 -213 q-174 -56 -293 -56q-96 0 -144 36t-66 116l-13 4q-93 -81 -177 -118.5t-183 -37.5q-139 0 -243.5 92.5t-104.5 235.5zM457 346q0 -54 39 -93.5t98 -39.5q43 0 92.5 25t89.5 71v197q-111 -24 -229 -60q-43 -12 -66.5 -34t-23.5 -66z" />
<glyph unicode="b" horiz-adv-x="1353" d="M121 0v1577h379v-385l-6 -203l10 -4q67 71 140 110.5t179 39.5q141 0 247 -74t160 -199.5t54 -283.5q0 -139 -33 -248t-101 -189t-178 -122t-257 -42q-246 0 -430 93l-56 -70h-108zM500 283q84 -43 168 -43q118 0 174.5 85.5t56.5 233.5q0 134 -49 220.5t-143 86.5 q-61 0 -114.5 -31.5t-92.5 -89.5v-462z" />
<glyph unicode="c" horiz-adv-x="1095" d="M80 541q0 101 14.5 184t53 161.5t99.5 131.5t159.5 85t228.5 32q97 0 206.5 -21t182.5 -55l-53 -275q-56 25 -133.5 43.5t-135.5 18.5q-121 0 -179 -72t-58 -221q0 -285 258 -285q129 0 276 56l48 -269q-67 -34 -178.5 -56t-227.5 -22q-265 0 -413 144t-148 420z" />
<glyph unicode="d" horiz-adv-x="1341" d="M70 532q0 155 42 272.5t117.5 188.5t173 106.5t213.5 35.5q130 0 236 -45v487h369v-1577h-310l-43 133l-12 2q-68 -76 -145 -117t-187 -41q-140 0 -244 74.5t-157 199t-53 281.5zM455 547q0 -137 52.5 -220t139.5 -83q60 0 115 32.5t90 88.5v460q-85 45 -164 45 q-64 0 -111 -25.5t-72.5 -72t-37.5 -102t-12 -123.5z" />
<glyph unicode="e" horiz-adv-x="1259" d="M80 539q0 136 34 242t89 171.5t133 107.5t158 58.5t172 16.5q244 0 384 -125t140 -377q0 -44 -4 -94h-721v-33q0 -127 74 -192.5t215 -65.5q174 0 372 65l37 -250q-216 -86 -469 -86q-93 0 -177.5 17t-165.5 58t-140 103.5t-95 161t-36 222.5zM473 696h373 q0 209 -170 209q-80 0 -135 -52.5t-68 -156.5z" />
<glyph unicode="f" horiz-adv-x="917" d="M35 860v252h176v57q0 98 21 172t58 121.5t93.5 77t121.5 41.5t148 12q171 0 310 -45l-56 -248q-93 29 -166 29q-81 0 -118 -34.5t-37 -118.5v-64h280l-28 -252h-252v-860h-377v860h-174z" />
<glyph unicode="g" horiz-adv-x="1376" d="M39 -195q0 52 17.5 94.5t50.5 72.5t61.5 48.5t69.5 38.5v15q-138 39 -138 145q0 43 22 81.5t60.5 67t78.5 49t87 36.5l-2 12q-115 34 -179.5 111t-64.5 186q1 119 68.5 204t185 127t273.5 42q286 0 407 -127h17q2 34 6 54t16.5 40t38 28.5t66.5 8.5q90 0 168 -29 l-19 -176q-60 8 -104 8q-34 0 -54.5 -7.5t-29.5 -24.5t-11.5 -31t-3.5 -41q11 -46 11 -82q0 -170 -131 -256t-371 -86q-45 0 -70 2q-137 -55 -137 -129q0 -72 111 -72h342q436 0 436 -305q0 -68 -26.5 -124t-69 -95t-103 -68.5t-123.5 -47t-137 -28.5t-137 -14.5t-129 -3.5 q-54 0 -105 3.5t-118.5 12.5t-122 28.5t-103.5 48.5t-76.5 76t-27.5 107zM422 -141q0 -36 22.5 -62t60 -38.5t76 -17.5t81.5 -5q52 0 97 7.5t85 24.5t63 47.5t23 71.5q0 107 -137 107h-226q-28 -5 -59 -19.5t-58.5 -45.5t-27.5 -70zM475 766q0 -70 38.5 -121t115.5 -51 q76 0 121 45.5t45 128.5q0 82 -41 128t-117 46q-78 0 -120 -46.5t-42 -129.5z" />
<glyph unicode="h" horiz-adv-x="1343" d="M121 0v1577h379v-389l-6 -223l14 -2q152 172 352 172q383 0 383 -463v-672h-381v629q0 113 -35.5 163t-113.5 50q-65 0 -120.5 -34.5t-92.5 -92.5v-715h-379z" />
<glyph unicode="i" horiz-adv-x="593" d="M88 1518q0 87 57 140.5t150 53.5q94 0 152.5 -54t58.5 -140q0 -87 -58.5 -141t-152.5 -54t-150.5 53.5t-56.5 141.5zM106 0v1112h379v-1112h-379z" />
<glyph unicode="j" horiz-adv-x="724" d="M4 -172q38 -10 92 -10q72 0 97.5 41.5t25.5 140.5v846h-143v266h522v-1194q0 -199 -99 -294t-333 -95q-75 0 -141 16zM186 1518q0 87 57 140.5t150 53.5q94 0 152.5 -54t58.5 -140q0 -87 -58.5 -141t-152.5 -54t-150.5 53.5t-56.5 141.5z" />
<glyph unicode="k" horiz-adv-x="1341" d="M121 0v1577h379v-819h92q11 13 24 29.5t30.5 41t32 44.5t38 54.5t38 55.5t44 64.5t43.5 64.5h389q-38 -62 -96.5 -145.5t-135.5 -188.5t-94 -129q12 -26 99 -155t116 -164q58 -68 115 -68q45 0 55 2v-258q-86 -29 -166 -29q-91 0 -161 38t-144 130q-30 37 -105.5 150.5 t-113.5 177.5h-100v-473h-379z" />
<glyph unicode="l" horiz-adv-x="618" d="M121 0v1577h377v-1577h-377z" />
<glyph unicode="m" horiz-adv-x="2062" d="M121 0v1112h330l32 -147l17 -2q164 172 368 172q228 0 318 -181l16 -2q164 183 387 183q184 0 278.5 -109t94.5 -319v-707h-379v641q0 201 -145 201q-62 0 -118 -32.5t-89 -90.5v-719h-377v641q0 103 -35 152t-108 49q-61 0 -119.5 -35t-91.5 -94v-713h-379z" />
<glyph unicode="n" horiz-adv-x="1343" d="M121 0v1112h330l32 -147l17 -2q163 172 374 172q175 0 272 -107.5t97 -318.5v-709h-381v645q0 197 -145 197q-64 0 -122 -34t-95 -93v-715h-379z" />
<glyph unicode="o" horiz-adv-x="1355" d="M80 555q0 283 153.5 431.5t446.5 148.5t444.5 -147.5t151.5 -434.5q0 -153 -43 -265t-123 -179.5t-187 -99.5t-243 -32q-137 0 -244.5 33t-188.5 101t-124 180.5t-43 263.5zM467 551q0 -155 55.5 -232t157.5 -77q211 0 211 311q0 315 -211 315q-101 0 -157 -72.5 t-56 -244.5z" />
<glyph unicode="p" horiz-adv-x="1341" d="M121 -471v1583h309l43 -135l12 -2q68 77 145 118.5t187 41.5q140 0 244.5 -75t157.5 -200t53 -282q0 -300 -148 -450.5t-397 -150.5q-131 0 -238 43v-491h-368zM489 285q85 -45 164 -45q64 0 111 25.5t73 72t38 102.5t12 125q0 135 -52.5 219t-138.5 84q-60 0 -115.5 -33 t-91.5 -87v-463z" />
<glyph unicode="q" horiz-adv-x="1353" d="M70 526q0 297 143 453t438 156q228 0 402 -88l69 65h111v-1583h-379v391l6 201l-10 2q-67 -69 -140.5 -107.5t-179.5 -38.5q-141 0 -246.5 74t-159.5 197.5t-54 277.5zM455 553q0 -133 49 -221t143 -88q60 0 114 32t93 89v460q-78 45 -164 45q-120 0 -177.5 -85.5 t-57.5 -231.5z" />
<glyph unicode="r" horiz-adv-x="991" d="M121 0v1112h313l41 -192l17 -2q192 217 337 217q39 0 79.5 -19t62.5 -51l-88 -315q-47 24 -101 24q-98 0 -282 -184v-590h-379z" />
<glyph unicode="s" horiz-adv-x="1101" d="M70 68l41 241q85 -34 196 -59t207 -25q164 0 164 101q0 32 -32.5 54t-85 36.5t-115.5 30t-126 40t-115.5 59t-85 95t-32.5 141.5q0 93 40 162.5t112.5 110.5t163 60.5t200.5 19.5t217 -20.5t172 -45.5l-51 -240q-66 25 -158 42.5t-174 17.5q-151 0 -151 -90 q0 -23 19.5 -41t53 -30.5t76.5 -24t90.5 -25.5t95.5 -31t91 -44t76.5 -61.5t53 -87t19.5 -116.5q0 -93 -43.5 -164.5t-119.5 -113.5t-169 -62.5t-200 -20.5q-114 0 -239.5 27t-190.5 64z" />
<glyph unicode="t" horiz-adv-x="1001" d="M25 860v252h180l74 295h294v-295h340l-20 -252h-318v-430q0 -71 25.5 -110t93.5 -39q100 0 213 49l49 -281q-216 -72 -397 -72q-188 0 -274 97t-86 305v481h-174z" />
<glyph unicode="u" horiz-adv-x="1345" d="M100 387v725h379v-661q0 -99 41.5 -152t114.5 -53q57 0 115 33t96 79v754h379v-1112h-314l-43 129l-16 4q-76 -75 -173 -115.5t-198 -40.5q-167 0 -274 109t-107 301z" />
<glyph unicode="v" horiz-adv-x="1300" d="M29 1112h387q122 -381 229 -659h14q101 270 226 659h387q-151 -413 -455 -1112h-334q-4 9 -46 107.5t-89.5 210t-105.5 251.5t-115 285t-98 258z" />
<glyph unicode="w" horiz-adv-x="1820" d="M29 1112h370q67 -246 213 -698h15q95 207 168 395q-18 46 -36 63t-48 19v221q82 8 143 8q101 0 149.5 -32t77.5 -121q95 -294 168 -539h15q117 363 190 684h338q-100 -364 -358 -1112h-324l-184 514h-13q-128 -302 -221 -514h-289q-203 572 -374 1112z" />
<glyph unicode="x" horiz-adv-x="1363" d="M43 0q154 246 360 555q-91 140 -161 236q-58 75 -138 75v246q90 8 146 8q108 0 168 -28.5t121 -116.5q30 -43 81.5 -122t61.5 -95h12q1 1 76 133.5t123 220.5h395q-149 -256 -319 -522q14 -23 37.5 -60.5t34 -54t28 -43t34 -49t38.5 -49.5q59 -73 149 -76v-258 q-86 -12 -160 -12q-95 0 -152.5 31t-123.5 116q-47 61 -172 252h-12q-157 -262 -228 -387h-399z" />
<glyph unicode="y" horiz-adv-x="1355" d="M37 866v246q80 8 143 8q123 0 186 -36t105 -150q69 -184 201 -567h10q173 483 250 745h395q-104 -312 -286 -778.5t-328 -804.5h-420q135 267 223 471h-92q-61 185 -149 426t-140 367q-18 41 -38 56.5t-60 16.5z" />
<glyph unicode="z" horiz-adv-x="1177" d="M70 0v147q47 64 157 215t202 275.5t157 208.5l-4 12h-488v254h969l39 -147q-376 -482 -529 -695l5 -12h530v-258h-1038z" />
<glyph unicode="{" horiz-adv-x="1021" d="M80 575v216q108 14 149 52t41 132v278q0 167 82.5 241.5t255.5 74.5h273v-285h-80q-96 0 -133 -25t-37 -114v-195q0 -101 -50.5 -168.5t-144.5 -95.5v-6q93 -28 144 -95t51 -169v-195q0 -88 37.5 -113.5t132.5 -25.5h80v-283h-273q-174 0 -256 73.5t-82 240.5v278 q0 94 -41 132t-149 52z" />
<glyph unicode="|" horiz-adv-x="827" d="M248 -307v2150h332v-2150h-332z" />
<glyph unicode="}" horiz-adv-x="1021" d="M141 82h80q94 0 132 25.5t38 113.5v195q0 102 51 169t144 95v6q-94 28 -144.5 95.5t-50.5 168.5v195q0 47 -10 75.5t-34 42t-51 17.5t-75 4h-80v285h273q173 0 255.5 -74.5t82.5 -241.5v-278q0 -94 41 -132t149 -52v-216q-108 -14 -149 -52t-41 -132v-278 q0 -167 -82 -240.5t-256 -73.5h-273v283z" />
<glyph unicode="~" d="M156 451q0 96 23.5 163.5t64 101.5t82.5 48t92 14q71 0 229 -41t219 -41q36 0 60 23.5t24 73.5h226q0 -92 -22.5 -159.5t-60.5 -103t-80 -51.5t-89 -16q-86 0 -245 41t-208 41q-41 0 -64 -20.5t-26 -73.5h-225z" />
<glyph unicode="&#xa1;" horiz-adv-x="796" d="M182 967q0 87 59 136.5t152 49.5q97 0 157 -47.5t60 -138.5q0 -88 -61 -138.5t-156 -50.5q-93 0 -152 50t-59 139zM188 -428l48 1081h315l61 -1046z" />
<glyph unicode="&#xa2;" d="M113 741q0 135 31 247.5t95 203.5t172 148.5t253 72.5l34 270l299 -18l-32 -264q137 -24 252 -82l-68 -289q-61 31 -152.5 55.5t-171.5 24.5q-141 0 -210.5 -95.5t-69.5 -262.5q0 -174 76 -258t215 -84q73 0 166.5 20.5t162.5 50.5l62 -284q-76 -40 -193 -66t-231 -31 l-29 -264l-301 19l33 278q-193 59 -293 212.5t-100 395.5z" />
<glyph unicode="&#xa3;" d="M119 0v178q108 27 168.5 90.5t60.5 163.5v27h-217v190h199q-14 82 -17 109h-182v192h164v33q0 110 29 198t79.5 146.5t121.5 97t151.5 55.5t173.5 17q197 0 350 -57l-59 -264q-44 15 -114.5 28t-123.5 13q-114 0 -167.5 -60t-53.5 -182v-25h412v-192h-396l13 -109h383 v-190h-373q-3 -62 -26 -119.5t-62 -91.5h610v-248h-1124z" />
<glyph unicode="&#xa4;" d="M61 313l160 160q-55 101 -55 240q0 136 59 245l-164 158l179 170l149 -143q120 71 277 71q163 0 278 -71l146 143l180 -166l-162 -159q57 -105 57 -240q0 -137 -59 -246l164 -158l-178 -170l-150 144q-116 -72 -276 -72q-166 0 -279 70l-145 -142zM414 711 q0 -119 70 -189.5t186 -70.5q118 0 183 76t65 198q0 118 -70 188t-186 70q-118 0 -183 -75.5t-65 -196.5z" />
<glyph unicode="&#xa5;" d="M66 1188v291q62 10 110 10q41 0 70.5 -5.5t64.5 -22.5t68 -55t65 -97q8 -12 96.5 -175t106.5 -194h10q6 11 55.5 108t105.5 209t106 218h364q-217 -422 -414 -758h271v-191h-301v-110h301v-191h-301v-225h-375v225h-309v191h309v110h-309v191h258q-21 36 -72 122 t-100 168t-56 93q-55 88 -124 88z" />
<glyph unicode="&#xa6;" horiz-adv-x="827" d="M248 -307v803h332v-803h-332zM248 1044v799h332v-799h-332z" />
<glyph unicode="&#xa7;" horiz-adv-x="1325" d="M70 625q0 112 64 194.5t192 124.5q-121 99 -121 240q0 168 144 271.5t374 103.5q301 0 500 -103l-58 -276q-91 41 -216.5 68.5t-213.5 27.5q-151 0 -151 -100q0 -32 28.5 -61t75 -52t106 -49.5t121 -52t121 -61t106 -75.5t75 -97.5t28.5 -123.5q0 -111 -66 -194 t-194 -125q123 -98 123 -240q0 -168 -143 -271.5t-373 -103.5q-117 0 -252.5 28.5t-247.5 74.5l58 276q91 -41 216 -68.5t214 -27.5q149 0 149 98q0 35 -36.5 67t-94.5 59t-128 56.5t-140.5 66t-128.5 80t-94.5 107t-36.5 138.5zM453 643q0 -28 14.5 -53t33 -42.5t55 -38 t62 -32t72.5 -31.5q82 12 126 50t44 98q0 28 -16.5 53t-38 42.5t-61 37t-65.5 30t-73 27.5q-78 -14 -115.5 -51.5t-37.5 -89.5z" />
<glyph unicode="&#xa8;" horiz-adv-x="1064" d="M63 1505q0 79 50.5 127.5t134.5 48.5q83 0 133.5 -49t50.5 -127q0 -80 -50.5 -128t-133.5 -48q-84 0 -134.5 48t-50.5 128zM633 1505q0 78 50.5 127t133.5 49q84 0 134 -48.5t50 -127.5q0 -80 -50 -128t-134 -48q-83 0 -133.5 48t-50.5 128z" />
<glyph unicode="&#xa9;" horiz-adv-x="1744" d="M80 772q0 171 62.5 318.5t169.5 250t252.5 160.5t307.5 58t307.5 -58.5t252.5 -161.5t170 -252t63 -321q0 -171 -63 -319.5t-170 -251t-252.5 -160.5t-307.5 -58q-217 0 -397.5 99.5t-287.5 282.5t-107 413zM188 768q0 -202 92.5 -361.5t248.5 -245t345 -85.5 q142 0 267 50.5t217 140t145 219.5t53 282q0 153 -53 283.5t-145 220t-217 140t-267 50.5q-189 0 -345 -86t-248.5 -246t-92.5 -362zM430 772q0 93 24.5 170.5t68.5 132t104.5 92t132 55t151.5 17.5q163 0 283 -65l-29 -191q-46 25 -106 40t-111 15q-122 0 -187 -71.5 t-65 -192.5q0 -126 69.5 -188t188.5 -62q56 0 121.5 13.5t108.5 33.5l16 -188q-113 -61 -285 -61q-98 0 -184 27t-154 80.5t-107.5 141.5t-39.5 201z" />
<glyph unicode="&#xaa;" horiz-adv-x="868" d="M57 956q0 68 38.5 106.5t117.5 59.5q101 26 274 62v22q0 47 -23 70.5t-83 23.5q-117 0 -246 -57l-45 143q71 38 159.5 59t151.5 21q35 0 64.5 -2t64.5 -9t62 -18.5t53.5 -31.5t44.5 -47t28.5 -67t10.5 -89v-223q0 -21 7 -30t26 -9q6 0 19.5 1t19.5 1l10 -137 q-90 -35 -184 -35q-59 0 -90.5 20.5t-40.5 67.5l-9 2q-54 -50 -104.5 -70t-114.5 -20q-85 0 -148 50.5t-63 135.5zM305 985q0 -29 21 -48t53 -19q57 0 108 57v106l-135 -34q-47 -15 -47 -62z" />
<glyph unicode="&#xab;" horiz-adv-x="1413" d="M100 518v135l568 484v-322l-275 -231l275 -232v-321zM678 518v135l567 484v-322l-274 -231l274 -232v-321z" />
<glyph unicode="&#xac;" d="M127 729v248h1077v-637h-250v389h-827z" />
<glyph unicode="&#xad;" horiz-adv-x="876" d="M49 449v235l778 47v-235z" />
<glyph unicode="&#xae;" horiz-adv-x="1073" d="M111 1149q0 179 120 294.5t306 115.5q185 0 305.5 -116t120.5 -294q0 -172 -122 -293t-304 -121q-91 0 -171 33t-135.5 89t-87.5 132t-32 160zM205 1155q0 -150 93 -242t245 -92q145 0 238 92.5t93 241.5q0 145 -92.5 230t-242.5 85q-151 0 -242.5 -85t-91.5 -230z M383 979v381h154q69 0 113 -28.5t44 -90.5q0 -75 -65 -108q20 -35 51 -70q14 -19 45 -19v-65q-18 -6 -63 -6q-39 0 -69 33.5t-67 101.5h-34v-129h-109zM492 1186h32q66 0 66 45q0 43 -62 43h-36v-88z" />
<glyph unicode="&#xaf;" horiz-adv-x="1064" d="M160 1360v239h745v-239h-745z" />
<glyph unicode="&#xb0;" horiz-adv-x="837" d="M115 1192q0 130 88.5 217.5t216.5 87.5q132 0 216.5 -84t84.5 -213q0 -141 -87.5 -223t-219.5 -82q-127 0 -213 86t-86 211zM266 1192q0 -71 42.5 -114.5t109.5 -43.5q70 0 111.5 47t41.5 115q0 76 -41.5 120t-111.5 44q-69 0 -110.5 -46.5t-41.5 -121.5z" />
<glyph unicode="&#xb1;" d="M143 55v250h1045v-250h-1045zM143 782v250h398v373h250v-373h397v-250h-397v-333h-250v333h-398z" />
<glyph unicode="&#xb2;" horiz-adv-x="811" d="M68 907q177 103 269.5 179.5t92.5 144.5q0 74 -92 74q-48 0 -107.5 -18t-95.5 -44l-61 154q55 39 135 64.5t172 25.5q83 0 149.5 -20.5t113 -74t46.5 -135.5q0 -94 -64 -170t-161 -131l2 -8h250v-166h-629z" />
<glyph unicode="&#xb3;" horiz-adv-x="811" d="M74 842l57 149q44 -26 104.5 -44.5t112.5 -18.5q121 0 121 73q0 40 -57 59t-148 19v97q174 34 174 98q0 49 -86 49q-107 0 -194 -55l-64 135q134 84 312 84q133 0 211.5 -47t78.5 -127q0 -59 -34 -90.5t-99 -55.5v-8q69 -19 113.5 -61t44.5 -109q0 -72 -49.5 -123 t-125.5 -73.5t-169 -22.5q-175 0 -303 72z" />
<glyph unicode="&#xb4;" horiz-adv-x="1064" d="M254 1343l291 521l264 -154l-406 -440z" />
<glyph unicode="&#xb5;" horiz-adv-x="1458" d="M121 424v688h379v-678q0 -89 43 -138.5t114 -49.5q59 0 117 33t92 81v752h379v-758q0 -52 10.5 -74t40.5 -22q35 0 86 45l68 -172q-69 -72 -154.5 -113t-173.5 -41q-81 0 -143.5 40.5t-83.5 109.5l-16 4q-115 -154 -269 -154q-82 0 -135 50q8 -220 62 -420l-344 -70 q-37 151 -54.5 349.5t-17.5 537.5z" />
<glyph unicode="&#xb6;" horiz-adv-x="1916" d="M70 999q0 121 39 218.5t117.5 169t203.5 110.5t289 39h1118v-297h-195v-1546h-391v1548h-149v-1548h-387v782q-307 0 -476 137.5t-169 386.5zM440 1001q0 -101 66 -165.5t209 -65.5v471q-138 -1 -206.5 -65.5t-68.5 -174.5z" />
<glyph unicode="&#xb7;" horiz-adv-x="602" d="M100 674q0 85 55 137.5t144 52.5q90 0 146.5 -53t56.5 -137q0 -83 -56.5 -135t-146.5 -52q-89 0 -144 52t-55 135z" />
<glyph unicode="&#xb8;" horiz-adv-x="1064" d="M279 -428l34 104q74 -38 160 -38q88 0 88 61q0 65 -131 65h-72l-30 66l184 170h229l-133 -113q178 -20 178 -172q0 -93 -78 -144.5t-198 -51.5q-134 0 -231 53z" />
<glyph unicode="&#xb9;" horiz-adv-x="811" d="M113 782v158h184v356l-184 -8v131q152 13 336 62h88v-543h180v-156h-604z" />
<glyph unicode="&#xba;" horiz-adv-x="813" d="M57 1118q0 169 92 258.5t263 89.5q169 0 256.5 -89t87.5 -261q0 -346 -346 -346q-165 0 -259 83t-94 265zM289 1118q0 -178 119 -178q116 0 116 176q0 184 -114 184q-121 0 -121 -182z" />
<glyph unicode="&#xbb;" horiz-adv-x="1413" d="M168 31v321l274 232l-274 231v322l567 -484v-135zM745 31v321l277 232l-277 231v322l568 -484v-135z" />
<glyph unicode="&#xbc;" horiz-adv-x="2039" d="M113 782v158h184v356l-184 -8v131q152 13 336 62h88v-543h180v-156h-604zM541 127l848 1370l253 -149l-849 -1371zM1294 133v115q102 114 257 284.5t157 172.5l184 -13v-411h70l-14 -148h-56v-133h-217v133h-381zM1528 287l2 -6h149v163l-8 2z" />
<glyph unicode="&#xbd;" horiz-adv-x="2039" d="M113 782v158h184v356l-184 -8v131q152 13 336 62h88v-543h180v-156h-604zM457 127l848 1370l254 -149l-850 -1371zM1296 125q85 50 144.5 88.5t112.5 80.5t79.5 81t26.5 74t-20.5 54t-71.5 19q-48 0 -107.5 -17.5t-95.5 -43.5l-61 153q55 39 135 65t172 26 q83 0 149.5 -20.5t113 -74t46.5 -135.5q0 -94 -64 -170t-161 -131l2 -8h250v-166h-629z" />
<glyph unicode="&#xbe;" horiz-adv-x="2039" d="M74 842l57 149q44 -26 104.5 -44.5t112.5 -18.5q121 0 121 73q0 40 -57 59t-148 19v97q174 34 174 98q0 49 -86 49q-107 0 -194 -55l-64 135q134 84 312 84q133 0 211.5 -47t78.5 -127q0 -59 -34 -90.5t-99 -55.5v-8q69 -19 113.5 -61t44.5 -109q0 -72 -49.5 -123 t-125.5 -73.5t-169 -22.5q-175 0 -303 72zM512 127l848 1370l254 -149l-850 -1371zM1294 133v115q102 114 257 284.5t157 172.5l184 -13v-411h70l-14 -148h-56v-133h-217v133h-381zM1528 287l2 -6h149v163l-8 2z" />
<glyph unicode="&#xbf;" horiz-adv-x="1069" d="M80 -20q0 67 26.5 129.5t66.5 108t87 92t87 83.5t66.5 79.5t26.5 82.5q0 67 -30 129h350q18 -34 31.5 -82.5t13.5 -87.5q0 -69 -34 -128.5t-82.5 -101.5t-97 -80.5t-82.5 -81.5t-34 -87q0 -62 43 -95.5t113 -33.5q59 0 133 22.5t125 53.5l100 -269q-83 -49 -200 -80.5 t-232 -31.5q-224 0 -350.5 99.5t-126.5 279.5zM369 995q0 89 59 139t152 50q97 0 158 -48.5t61 -140.5q0 -88 -61.5 -137t-157.5 -49q-94 0 -152.5 49t-58.5 137z" />
<glyph unicode="&#xc0;" horiz-adv-x="1671" d="M39 0q109 287 309.5 789t304.5 747h359q92 -218 309.5 -754t310.5 -782h-407l-138 377h-516q-23 -60 -69.5 -200.5t-57.5 -176.5h-405zM467 1878l154 266l518 -315l-95 -139zM666 651h327q-18 49 -83.5 225t-73.5 197h-13q-40 -104 -157 -422z" />
<glyph unicode="&#xc1;" horiz-adv-x="1671" d="M39 0q109 287 309.5 789t304.5 747h359q92 -218 309.5 -754t310.5 -782h-407l-138 377h-516q-23 -60 -69.5 -200.5t-57.5 -176.5h-405zM532 1829l519 315l153 -266l-579 -188zM666 651h327q-18 49 -83.5 225t-73.5 197h-13q-40 -104 -157 -422z" />
<glyph unicode="&#xc2;" horiz-adv-x="1671" d="M39 0q109 287 309.5 789t304.5 747h359q92 -218 309.5 -754t310.5 -782h-407l-138 377h-516q-23 -60 -69.5 -200.5t-57.5 -176.5h-405zM332 1837l352 281h307l352 -281l-104 -147l-399 184l-404 -184zM666 651h327q-18 49 -83.5 225t-73.5 197h-13q-40 -104 -157 -422z " />
<glyph unicode="&#xc3;" horiz-adv-x="1671" d="M39 0q109 287 309.5 789t304.5 747h359q92 -218 309.5 -754t310.5 -782h-407l-138 377h-516q-23 -60 -69.5 -200.5t-57.5 -176.5h-405zM418 1679q0 90 20 155.5t55 99.5t74 49.5t84 15.5q56 0 173 -30t165 -30q27 0 45 20t19 62h217q-1 -86 -20.5 -150.5t-53 -100 t-72 -52t-82.5 -16.5q-68 0 -185.5 29.5t-154.5 29.5q-30 0 -47.5 -17.5t-21.5 -64.5h-215zM666 651h327q-18 49 -83.5 225t-73.5 197h-13q-40 -104 -157 -422z" />
<glyph unicode="&#xc4;" horiz-adv-x="1671" d="M39 0q109 287 309.5 789t304.5 747h359q92 -218 309.5 -754t310.5 -782h-407l-138 377h-516q-23 -60 -69.5 -200.5t-57.5 -176.5h-405zM369 1851q0 79 50 128t134 49q83 0 133.5 -49.5t50.5 -127.5q0 -80 -50.5 -128t-133.5 -48q-84 0 -134 48t-50 128zM666 651h327 q-18 49 -83.5 225t-73.5 197h-13q-40 -104 -157 -422zM938 1851q0 78 50.5 127.5t133.5 49.5q84 0 134.5 -49t50.5 -128q0 -80 -50.5 -128t-134.5 -48q-83 0 -133.5 48t-50.5 128z" />
<glyph unicode="&#xc5;" horiz-adv-x="1671" d="M39 0q109 287 309.5 789t304.5 747h359q92 -218 309.5 -754t310.5 -782h-407l-138 377h-516q-23 -60 -69.5 -200.5t-57.5 -176.5h-405zM541 1886q0 126 84.5 208.5t210.5 82.5q129 0 214 -81.5t85 -207.5q0 -125 -85.5 -207t-213.5 -82t-211.5 80.5t-83.5 206.5zM666 651 h327q-18 49 -83.5 225t-73.5 197h-13q-40 -104 -157 -422zM692 1888q0 -65 41 -106t103 -41q64 0 104.5 41.5t40.5 105.5q0 66 -41 107t-104 41q-64 0 -104 -42t-40 -106z" />
<glyph unicode="&#xc6;" horiz-adv-x="2129" d="M-8 0q244 356 587 837t513 699h948v-293h-541v-338h406l-35 -258h-371v-352h551v-295h-946v274h-492l-176 -274h-444zM793 549h311v444l-10 4q-140 -202 -301 -448z" />
<glyph unicode="&#xc7;" horiz-adv-x="1435" d="M70 750q0 166 41 301t114 228.5t174.5 157t220 93t254.5 29.5q123 0 254 -27.5t224 -81.5l-68 -291q-176 88 -352 88q-207 0 -326 -124t-119 -363q0 -117 36 -208t100 -147t146.5 -84t180.5 -28q201 0 371 82l45 -293q-193 -90 -418 -102l-108 -93q178 -20 178 -172 q0 -93 -78.5 -144.5t-198.5 -51.5q-134 0 -231 53l35 104q74 -38 160 -38q88 0 88 61q0 65 -131 65h-72l-31 66l170 158q-108 15 -203.5 51.5t-180 99.5t-145 148t-95.5 203.5t-35 259.5z" />
<glyph unicode="&#xc8;" horiz-adv-x="1155" d="M131 0v1536h936v-293h-541v-338h406l-35 -258h-371v-352h549v-295h-944zM242 1878l153 266l518 -315l-94 -139z" />
<glyph unicode="&#xc9;" horiz-adv-x="1155" d="M131 0v1536h936v-293h-541v-338h406l-35 -258h-371v-352h549v-295h-944zM242 1829l518 315l153 -266l-579 -188z" />
<glyph unicode="&#xca;" horiz-adv-x="1155" d="M78 1837l352 281h307l353 -281l-105 -147l-399 184l-404 -184zM131 0v1536h936v-293h-541v-338h406l-35 -258h-371v-352h549v-295h-944z" />
<glyph unicode="&#xcb;" horiz-adv-x="1155" d="M113 1851q0 79 50 128t134 49q83 0 133.5 -49.5t50.5 -127.5q0 -80 -50.5 -128t-133.5 -48q-84 0 -134 48t-50 128zM131 0v1536h936v-293h-541v-338h406l-35 -258h-371v-352h549v-295h-944zM682 1851q0 78 50.5 127.5t133.5 49.5q84 0 134.5 -49t50.5 -128 q0 -80 -50.5 -128t-134.5 -48q-83 0 -133.5 48t-50.5 128z" />
<glyph unicode="&#xcc;" horiz-adv-x="655" d="M-33 1878l154 266l518 -315l-94 -139zM131 0v1536h393v-1536h-393z" />
<glyph unicode="&#xcd;" horiz-adv-x="655" d="M18 1829l519 315l153 -266l-579 -188zM131 0v1536h393v-1536h-393z" />
<glyph unicode="&#xce;" horiz-adv-x="655" d="M-178 1837l352 281h307l353 -281l-105 -147l-399 184l-404 -184zM131 0v1536h393v-1536h-393z" />
<glyph unicode="&#xcf;" horiz-adv-x="655" d="M-141 1851q0 79 50 128t134 49q83 0 133.5 -49.5t50.5 -127.5q0 -80 -50.5 -128t-133.5 -48q-84 0 -134 48t-50 128zM131 0v1536h393v-1536h-393zM428 1851q0 78 50.5 127.5t133.5 49.5q84 0 134.5 -49t50.5 -128q0 -80 -50.5 -128t-134.5 -48q-83 0 -133.5 48t-50.5 128 z" />
<glyph unicode="&#xd0;" horiz-adv-x="1665" d="M16 647v266h156v623h627q391 0 588.5 -199t197.5 -571t-202 -569t-570 -197h-641v647h-156zM565 293h191q203 0 305 125.5t102 353.5q0 249 -107 359t-308 110h-183v-328h234v-266h-234v-354z" />
<glyph unicode="&#xd1;" horiz-adv-x="1712" d="M131 0v1536h334q134 -146 345 -394t374 -458l12 2v850h385v-1536l-248 -23q-219 274 -452 556.5t-355 420.5h-14v-954h-381zM434 1679q0 90 20.5 155.5t55.5 99.5t74 49.5t84 15.5q56 0 173 -30t165 -30q27 0 44.5 20t18.5 62h217q-1 -86 -20.5 -150.5t-52.5 -100 t-71.5 -52t-82.5 -16.5q-68 0 -185.5 29.5t-154.5 29.5q-31 0 -48.5 -18t-21.5 -64h-215z" />
<glyph unicode="&#xd2;" horiz-adv-x="1712" d="M80 768q0 372 197.5 581.5t578.5 209.5q378 0 577 -208t199 -573q0 -384 -205 -592.5t-571 -208.5q-364 0 -570 209t-206 582zM489 768q0 -243 91.5 -373.5t273.5 -130.5t275.5 129t93.5 379q0 504 -369 504q-365 0 -365 -508zM520 1878l154 266l518 -315l-94 -139z" />
<glyph unicode="&#xd3;" horiz-adv-x="1712" d="M80 768q0 372 197.5 581.5t578.5 209.5q378 0 577 -208t199 -573q0 -384 -205 -592.5t-571 -208.5q-364 0 -570 209t-206 582zM489 768q0 -243 91.5 -373.5t273.5 -130.5t275.5 129t93.5 379q0 504 -369 504q-365 0 -365 -508zM520 1829l518 315l154 -266l-580 -188z" />
<glyph unicode="&#xd4;" horiz-adv-x="1712" d="M80 768q0 372 197.5 581.5t578.5 209.5q378 0 577 -208t199 -573q0 -384 -205 -592.5t-571 -208.5q-364 0 -570 209t-206 582zM350 1837l352 281h308l352 -281l-105 -147l-399 184l-403 -184zM489 768q0 -243 91.5 -373.5t273.5 -130.5t275.5 129t93.5 379 q0 504 -369 504q-365 0 -365 -508z" />
<glyph unicode="&#xd5;" horiz-adv-x="1712" d="M80 768q0 372 197.5 581.5t578.5 209.5q378 0 577 -208t199 -573q0 -384 -205 -592.5t-571 -208.5q-364 0 -570 209t-206 582zM430 1679q0 90 20.5 155.5t55.5 99.5t74 49.5t84 15.5q56 0 172.5 -30t164.5 -30q27 0 45 20t19 62h217q-1 -86 -20.5 -150.5t-52.5 -100 t-71.5 -52t-82.5 -16.5q-68 0 -185.5 29.5t-154.5 29.5q-31 0 -48.5 -18t-21.5 -64h-215zM489 768q0 -243 91.5 -373.5t273.5 -130.5t275.5 129t93.5 379q0 504 -369 504q-365 0 -365 -508z" />
<glyph unicode="&#xd6;" horiz-adv-x="1712" d="M80 768q0 372 197.5 581.5t578.5 209.5q378 0 577 -208t199 -573q0 -384 -205 -592.5t-571 -208.5q-364 0 -570 209t-206 582zM387 1851q0 79 50 128t134 49q83 0 134 -49.5t51 -127.5q0 -79 -51 -127.5t-134 -48.5q-84 0 -134 48t-50 128zM489 768q0 -243 91.5 -373.5 t273.5 -130.5t275.5 129t93.5 379q0 504 -369 504q-365 0 -365 -508zM956 1851q0 78 51 127.5t134 49.5q84 0 134 -49t50 -128q0 -80 -50 -128t-134 -48q-83 0 -134 48.5t-51 127.5z" />
<glyph unicode="&#xd7;" d="M180 307l309 309l-309 310l176 174l310 -309l309 309l176 -174l-311 -310l311 -309l-176 -176l-309 309l-312 -309z" />
<glyph unicode="&#xd8;" horiz-adv-x="1712" d="M80 768q0 372 197.5 581.5t578.5 209.5q241 0 422 -93l86 125h143l-131 -188q127 -101 191.5 -260t64.5 -365q0 -384 -205 -592.5t-571 -208.5q-229 0 -399 84l-72 -102h-143l114 166q-276 209 -276 643zM489 768q0 -228 76 -348l522 776q-80 80 -233 80 q-365 0 -365 -508zM645 328q83 -64 209 -64q182 0 275.5 129t93.5 379q0 212 -62 330z" />
<glyph unicode="&#xd9;" horiz-adv-x="1626" d="M111 668v868h395v-885q0 -188 83.5 -278t225.5 -90q64 0 117.5 19.5t97 61t68 115t24.5 172.5v885h394v-895q0 -172 -50 -300.5t-144 -207.5t-221.5 -117.5t-289.5 -38.5q-161 0 -286.5 38t-219.5 118.5t-144 215.5t-50 319zM461 1878l153 266l519 -315l-95 -139z" />
<glyph unicode="&#xda;" horiz-adv-x="1626" d="M111 668v868h395v-885q0 -188 83.5 -278t225.5 -90q64 0 117.5 19.5t97 61t68 115t24.5 172.5v885h394v-895q0 -172 -50 -300.5t-144 -207.5t-221.5 -117.5t-289.5 -38.5q-161 0 -286.5 38t-219.5 118.5t-144 215.5t-50 319zM494 1829l518 315l153 -266l-579 -188z" />
<glyph unicode="&#xdb;" horiz-adv-x="1626" d="M111 668v868h395v-885q0 -188 83.5 -278t225.5 -90q64 0 117.5 19.5t97 61t68 115t24.5 172.5v885h394v-895q0 -172 -50 -300.5t-144 -207.5t-221.5 -117.5t-289.5 -38.5q-161 0 -286.5 38t-219.5 118.5t-144 215.5t-50 319zM307 1837l352 281h308l352 -281l-105 -147 l-399 184l-403 -184z" />
<glyph unicode="&#xdc;" horiz-adv-x="1626" d="M111 668v868h395v-885q0 -188 83.5 -278t225.5 -90q64 0 117.5 19.5t97 61t68 115t24.5 172.5v885h394v-895q0 -172 -50 -300.5t-144 -207.5t-221.5 -117.5t-289.5 -38.5q-161 0 -286.5 38t-219.5 118.5t-144 215.5t-50 319zM344 1851q0 79 50 128t134 49q83 0 134 -49.5 t51 -127.5q0 -79 -51 -127.5t-134 -48.5q-84 0 -134 48t-50 128zM913 1851q0 78 51 127.5t134 49.5q84 0 134 -49t50 -128q0 -80 -50 -128t-134 -48q-83 0 -134 48.5t-51 127.5z" />
<glyph unicode="&#xdd;" horiz-adv-x="1472" d="M43 1243v291q63 8 154 8q101 0 171.5 -38.5t133.5 -139.5q3 -6 56 -93t102.5 -170.5t58.5 -99.5h10q19 29 41 67.5t40 70.5t47.5 89t46 89t55.5 108t57 111h428q-110 -201 -266.5 -462.5t-259.5 -422.5v-651h-392v647q-253 396 -333 504q-38 50 -72.5 71t-77.5 21z M446 1829l519 315l153 -266l-579 -188z" />
<glyph unicode="&#xde;" horiz-adv-x="1376" d="M131 0v1536h395v-246h226q282 0 423.5 -127.5t141.5 -361.5q0 -255 -168 -403t-481 -148q-72 0 -142 4v-254h-395zM526 555q46 -4 107 -4q150 0 219.5 56.5t69.5 180.5q0 114 -64.5 161.5t-189.5 47.5h-142v-442z" />
<glyph unicode="&#xdf;" horiz-adv-x="1595" d="M35 860v252h176v16q0 100 30 179t82.5 132t128 88t162.5 50.5t189 15.5q106 0 205.5 -18t190 -55.5t145.5 -106.5t55 -160q0 -73 -32.5 -132.5t-78.5 -97t-92 -69t-78.5 -65.5t-32.5 -70q0 -32 25 -58.5t64.5 -47.5t87.5 -43t96.5 -51.5t88 -66.5t64.5 -94t25 -128 q0 -89 -38.5 -158t-105.5 -110.5t-152 -63t-183 -21.5q-102 0 -203 25t-172 64l43 239q66 -34 151.5 -57t153.5 -23q62 0 108 25t46 78q0 29 -26.5 52t-68.5 41.5t-92.5 37t-101.5 44.5t-93 58.5t-68.5 83.5t-26.5 115q0 58 20.5 106.5t51 80.5t66.5 64t66.5 58t51 61 t20.5 74q0 55 -45.5 87t-126.5 32q-59 0 -101.5 -15t-66 -37.5t-37 -58.5t-17 -69t-3.5 -78v-1065h-377v860h-174z" />
<glyph unicode="&#xe0;" horiz-adv-x="1325" d="M70 305q0 110 62 168t196 92q80 21 244 56t204 45v47q0 81 -40 121t-140 40q-175 0 -401 -96l-70 223q115 62 256.5 98t249.5 36q55 0 101 -3.5t102 -14.5t100 -29.5t87 -51.5t72 -77t46.5 -109t17.5 -145v-398q0 -34 11 -49.5t44 -15.5q18 0 41.5 2t24.5 2l16 -213 q-174 -56 -293 -56q-96 0 -144 36t-66 116l-13 4q-93 -81 -177 -118.5t-183 -37.5q-139 0 -243.5 92.5t-104.5 235.5zM317 1708l265 154l292 -519l-147 -73zM457 346q0 -54 39 -93.5t98 -39.5q43 0 92.5 25t89.5 71v197q-111 -24 -229 -60q-43 -12 -66.5 -34t-23.5 -66z" />
<glyph unicode="&#xe1;" horiz-adv-x="1325" d="M70 305q0 110 62 168t196 92q80 21 244 56t204 45v47q0 81 -40 121t-140 40q-175 0 -401 -96l-70 223q115 62 256.5 98t249.5 36q55 0 101 -3.5t102 -14.5t100 -29.5t87 -51.5t72 -77t46.5 -109t17.5 -145v-398q0 -34 11 -49.5t44 -15.5q18 0 41.5 2t24.5 2l16 -213 q-174 -56 -293 -56q-96 0 -144 36t-66 116l-13 4q-93 -81 -177 -118.5t-183 -37.5q-139 0 -243.5 92.5t-104.5 235.5zM432 1343l291 521l264 -154l-405 -440zM457 346q0 -54 39 -93.5t98 -39.5q43 0 92.5 25t89.5 71v197q-111 -24 -229 -60q-43 -12 -66.5 -34t-23.5 -66z " />
<glyph unicode="&#xe2;" horiz-adv-x="1325" d="M70 305q0 110 62 168t196 92q80 21 244 56t204 45v47q0 81 -40 121t-140 40q-175 0 -401 -96l-70 223q115 62 256.5 98t249.5 36q55 0 101 -3.5t102 -14.5t100 -29.5t87 -51.5t72 -77t46.5 -109t17.5 -145v-398q0 -34 11 -49.5t44 -15.5q18 0 41.5 2t24.5 2l16 -213 q-174 -56 -293 -56q-96 0 -144 36t-66 116l-13 4q-93 -81 -177 -118.5t-183 -37.5q-139 0 -243.5 92.5t-104.5 235.5zM207 1372l285 455h311l284 -455l-186 -102l-256 309l-254 -309zM457 346q0 -54 39 -93.5t98 -39.5q43 0 92.5 25t89.5 71v197q-111 -24 -229 -60 q-43 -12 -66.5 -34t-23.5 -66z" />
<glyph unicode="&#xe3;" horiz-adv-x="1325" d="M70 305q0 110 62 168t196 92q80 21 244 56t204 45v47q0 81 -40 121t-140 40q-175 0 -401 -96l-70 223q115 62 256.5 98t249.5 36q55 0 101 -3.5t102 -14.5t100 -29.5t87 -51.5t72 -77t46.5 -109t17.5 -145v-398q0 -34 11 -49.5t44 -15.5q18 0 41.5 2t24.5 2l16 -213 q-174 -56 -293 -56q-96 0 -144 36t-66 116l-13 4q-93 -81 -177 -118.5t-183 -37.5q-139 0 -243.5 92.5t-104.5 235.5zM225 1317q0 90 20.5 155.5t55.5 99.5t74 49t84 15q56 0 173 -29.5t165 -29.5q27 0 44.5 20t18.5 62h217q-1 -86 -20.5 -150.5t-52.5 -100t-71.5 -52.5 t-82.5 -17q-68 0 -185.5 30t-154.5 30q-31 0 -48.5 -17t-21.5 -65h-215zM457 346q0 -54 39 -93.5t98 -39.5q43 0 92.5 25t89.5 71v197q-111 -24 -229 -60q-43 -12 -66.5 -34t-23.5 -66z" />
<glyph unicode="&#xe4;" horiz-adv-x="1325" d="M70 305q0 110 62 168t196 92q80 21 244 56t204 45v47q0 81 -40 121t-140 40q-175 0 -401 -96l-70 223q115 62 256.5 98t249.5 36q55 0 101 -3.5t102 -14.5t100 -29.5t87 -51.5t72 -77t46.5 -109t17.5 -145v-398q0 -34 11 -49.5t44 -15.5q18 0 41.5 2t24.5 2l16 -213 q-174 -56 -293 -56q-96 0 -144 36t-66 116l-13 4q-93 -81 -177 -118.5t-183 -37.5q-139 0 -243.5 92.5t-104.5 235.5zM178 1505q0 79 50 127.5t134 48.5q83 0 134 -49t51 -127q0 -79 -51 -127.5t-134 -48.5q-84 0 -134 48t-50 128zM457 346q0 -54 39 -93.5t98 -39.5 q43 0 92.5 25t89.5 71v197q-111 -24 -229 -60q-43 -12 -66.5 -34t-23.5 -66zM748 1505q0 78 50.5 127t133.5 49q84 0 134 -48.5t50 -127.5q0 -80 -50 -128t-134 -48q-83 0 -133.5 48t-50.5 128z" />
<glyph unicode="&#xe5;" horiz-adv-x="1325" d="M70 305q0 110 62 168t196 92q80 21 244 56t204 45v47q0 81 -40 121t-140 40q-175 0 -401 -96l-70 223q115 62 256.5 98t249.5 36q55 0 101 -3.5t102 -14.5t100 -29.5t87 -51.5t72 -77t46.5 -109t17.5 -145v-398q0 -34 11 -49.5t44 -15.5q18 0 41.5 2t24.5 2l16 -213 q-174 -56 -293 -56q-96 0 -144 36t-66 116l-13 4q-93 -81 -177 -118.5t-183 -37.5q-139 0 -243.5 92.5t-104.5 235.5zM352 1575q0 126 84.5 208.5t210.5 82.5q129 0 214 -81.5t85 -207.5q0 -125 -85.5 -207t-213.5 -82t-211.5 80.5t-83.5 206.5zM457 346q0 -54 39 -93.5 t98 -39.5q43 0 92.5 25t89.5 71v197q-111 -24 -229 -60q-43 -12 -66.5 -34t-23.5 -66zM504 1577q0 -65 40.5 -106t102.5 -41q64 0 105 42t41 105q0 65 -41 106t-105 41t-103.5 -41.5t-39.5 -105.5z" />
<glyph unicode="&#xe6;" horiz-adv-x="1939" d="M70 305q0 110 62 168t196 92q80 21 244 56t204 45v47q0 81 -40 121t-140 40q-175 0 -401 -96l-70 223q124 64 259 99t247 35q248 0 356 -123q141 123 359 123q244 0 384 -125t140 -377q0 -69 -4 -94h-721v-33q0 -131 76 -194.5t213 -63.5q174 0 372 65l37 -245 q-208 -91 -440 -91q-147 0 -271 46t-206 139q-93 -90 -217.5 -137.5t-247.5 -47.5q-108 0 -195 36.5t-141.5 112t-54.5 179.5zM457 346q0 -54 39 -93.5t98 -39.5q43 0 92.5 25t89.5 71v197q-111 -24 -229 -60q-43 -12 -66.5 -34t-23.5 -66zM1153 696h373q0 209 -170 209 q-80 0 -135 -52.5t-68 -156.5z" />
<glyph unicode="&#xe7;" horiz-adv-x="1095" d="M80 541q0 101 14.5 184t53 161.5t99.5 131.5t159.5 85t228.5 32q97 0 206.5 -21t182.5 -55l-53 -275q-56 25 -133.5 43.5t-135.5 18.5q-121 0 -179 -72t-58 -221q0 -285 258 -285q129 0 276 56l48 -269q-110 -55 -302 -71l-112 -97q178 -20 178 -172q0 -93 -78 -144.5 t-198 -51.5q-135 0 -232 53l35 104q74 -38 160 -38q88 0 88 61q0 65 -131 65h-72l-31 66l168 156q-209 30 -324.5 171t-115.5 384z" />
<glyph unicode="&#xe8;" horiz-adv-x="1259" d="M80 539q0 136 34 242t89 171.5t133 107.5t158 58.5t172 16.5q244 0 384 -125t140 -377q0 -44 -4 -94h-721v-33q0 -127 74 -192.5t215 -65.5q174 0 372 65l37 -250q-216 -86 -469 -86q-93 0 -177.5 17t-165.5 58t-140 103.5t-95 161t-36 222.5zM307 1708l264 154l293 -519 l-147 -73zM473 696h373q0 209 -170 209q-80 0 -135 -52.5t-68 -156.5z" />
<glyph unicode="&#xe9;" horiz-adv-x="1259" d="M80 539q0 136 34 242t89 171.5t133 107.5t158 58.5t172 16.5q244 0 384 -125t140 -377q0 -44 -4 -94h-721v-33q0 -127 74 -192.5t215 -65.5q174 0 372 65l37 -250q-216 -86 -469 -86q-93 0 -177.5 17t-165.5 58t-140 103.5t-95 161t-36 222.5zM418 1343l291 521l264 -154 l-406 -440zM473 696h373q0 209 -170 209q-80 0 -135 -52.5t-68 -156.5z" />
<glyph unicode="&#xea;" horiz-adv-x="1259" d="M80 539q0 136 34 242t89 171.5t133 107.5t158 58.5t172 16.5q244 0 384 -125t140 -377q0 -44 -4 -94h-721v-33q0 -127 74 -192.5t215 -65.5q174 0 372 65l37 -250q-216 -86 -469 -86q-93 0 -177.5 17t-165.5 58t-140 103.5t-95 161t-36 222.5zM233 1372l285 455h311 l285 -455l-186 -102l-256 309l-254 -309zM473 696h373q0 209 -170 209q-80 0 -135 -52.5t-68 -156.5z" />
<glyph unicode="&#xeb;" horiz-adv-x="1259" d="M80 539q0 136 34 242t89 171.5t133 107.5t158 58.5t172 16.5q244 0 384 -125t140 -377q0 -44 -4 -94h-721v-33q0 -127 74 -192.5t215 -65.5q174 0 372 65l37 -250q-216 -86 -469 -86q-93 0 -177.5 17t-165.5 58t-140 103.5t-95 161t-36 222.5zM207 1505q0 79 50 127.5 t134 48.5q83 0 133.5 -49t50.5 -127q0 -80 -50.5 -128t-133.5 -48q-84 0 -134 48t-50 128zM473 696h373q0 209 -170 209q-80 0 -135 -52.5t-68 -156.5zM776 1505q0 78 51 127t134 49q84 0 134 -48.5t50 -127.5q0 -80 -50 -128t-134 -48q-83 0 -134 48.5t-51 127.5z" />
<glyph unicode="&#xec;" horiz-adv-x="620" d="M-51 1708l264 154l293 -519l-148 -73zM121 0v1112h379v-1112h-379z" />
<glyph unicode="&#xed;" horiz-adv-x="620" d="M121 0v1112h379v-1112h-379zM147 1343l291 521l264 -154l-405 -440z" />
<glyph unicode="&#xee;" horiz-adv-x="620" d="M-129 1372l285 455h311l285 -455l-187 -102l-256 309l-254 -309zM121 0v1112h379v-1112h-379z" />
<glyph unicode="&#xef;" horiz-adv-x="620" d="M-158 1505q0 79 50.5 127.5t134.5 48.5q83 0 133.5 -49t50.5 -127q0 -80 -50.5 -128t-133.5 -48q-84 0 -134.5 48t-50.5 128zM121 0v1112h379v-1112h-379zM412 1505q0 78 50.5 127t133.5 49q84 0 134 -48.5t50 -127.5q0 -80 -50 -128t-134 -48q-83 0 -133.5 48t-50.5 128 z" />
<glyph unicode="&#xf0;" horiz-adv-x="1267" d="M70 449q0 241 142.5 359t391.5 118q82 0 152 -27l12 8q-29 85 -84 162l-344 -129v299l66 27q-62 34 -168 69l100 258q251 -61 436 -194l326 129v-309l-103 -37q88 -123 134.5 -275.5t46.5 -310.5q0 -285 -153.5 -452t-440.5 -167q-76 0 -148 17t-139 54t-117 91t-80 134 t-30 176zM418 463q0 -104 51.5 -165.5t144.5 -61.5q75 0 123 47t67 117.5t19 164.5q0 63 -6 101q-72 34 -166 34q-107 0 -170 -58t-63 -179z" />
<glyph unicode="&#xf1;" horiz-adv-x="1343" d="M121 0v1112h330l32 -147l17 -2q163 172 374 172q175 0 272 -107.5t97 -318.5v-709h-381v645q0 197 -145 197q-64 0 -122 -34t-95 -93v-715h-379zM246 1317q0 73 14 129.5t36 91.5t53 58t63 31.5t67 8.5q56 0 173 -29.5t165 -29.5q27 0 45 20t19 62h217 q-1 -86 -20.5 -150.5t-53 -100t-72 -52.5t-82.5 -17q-68 0 -185.5 30t-154.5 30q-31 0 -48 -17t-21 -65h-215z" />
<glyph unicode="&#xf2;" horiz-adv-x="1355" d="M80 555q0 283 153.5 431.5t446.5 148.5t444.5 -147.5t151.5 -434.5q0 -153 -43 -265t-123 -179.5t-187 -99.5t-243 -32q-137 0 -244.5 33t-188.5 101t-124 180.5t-43 263.5zM350 1708l264 154l293 -519l-147 -73zM467 551q0 -155 55.5 -232t157.5 -77q211 0 211 311 q0 315 -211 315q-101 0 -157 -72.5t-56 -244.5z" />
<glyph unicode="&#xf3;" horiz-adv-x="1355" d="M80 555q0 283 153.5 431.5t446.5 148.5t444.5 -147.5t151.5 -434.5q0 -153 -43 -265t-123 -179.5t-187 -99.5t-243 -32q-137 0 -244.5 33t-188.5 101t-124 180.5t-43 263.5zM453 1343l290 521l265 -154l-406 -440zM467 551q0 -155 55.5 -232t157.5 -77q211 0 211 311 q0 315 -211 315q-101 0 -157 -72.5t-56 -244.5z" />
<glyph unicode="&#xf4;" horiz-adv-x="1355" d="M80 555q0 283 153.5 431.5t446.5 148.5t444.5 -147.5t151.5 -434.5q0 -153 -43 -265t-123 -179.5t-187 -99.5t-243 -32q-137 0 -244.5 33t-188.5 101t-124 180.5t-43 263.5zM242 1372l284 455h312l284 -455l-186 -102l-256 309l-254 -309zM467 551q0 -155 55.5 -232 t157.5 -77q211 0 211 311q0 315 -211 315q-101 0 -157 -72.5t-56 -244.5z" />
<glyph unicode="&#xf5;" horiz-adv-x="1355" d="M80 555q0 283 153.5 431.5t446.5 148.5t444.5 -147.5t151.5 -434.5q0 -153 -43 -265t-123 -179.5t-187 -99.5t-243 -32q-137 0 -244.5 33t-188.5 101t-124 180.5t-43 263.5zM252 1317q0 73 14 129.5t36 91.5t53 58t63 31.5t67 8.5q56 0 173 -29.5t165 -29.5q27 0 45 20 t19 62h217q-1 -86 -20.5 -150.5t-52.5 -100t-71.5 -52.5t-82.5 -17q-68 0 -185.5 30t-154.5 30q-31 0 -48.5 -17t-21.5 -65h-215zM467 551q0 -155 55.5 -232t157.5 -77q211 0 211 311q0 315 -211 315q-101 0 -157 -72.5t-56 -244.5z" />
<glyph unicode="&#xf6;" horiz-adv-x="1355" d="M80 555q0 283 153.5 431.5t446.5 148.5t444.5 -147.5t151.5 -434.5q0 -153 -43 -265t-123 -179.5t-187 -99.5t-243 -32q-137 0 -244.5 33t-188.5 101t-124 180.5t-43 263.5zM209 1505q0 79 50 127.5t134 48.5q83 0 134 -49t51 -127q0 -79 -51 -127.5t-134 -48.5 q-84 0 -134 48t-50 128zM467 551q0 -155 55.5 -232t157.5 -77q211 0 211 311q0 315 -211 315q-101 0 -157 -72.5t-56 -244.5zM778 1505q0 78 51 127t134 49q84 0 134 -48.5t50 -127.5q0 -80 -50 -128t-134 -48q-83 0 -134 48.5t-51 127.5z" />
<glyph unicode="&#xf7;" d="M127 492v247h1077v-247h-1077zM514 225q0 64 42 104t110 40q69 0 110 -39.5t41 -104.5t-40.5 -102t-110.5 -37q-69 0 -110.5 37t-41.5 102zM514 1004q0 66 41 103.5t111 37.5q69 0 110 -37.5t41 -103.5q0 -64 -41.5 -103t-109.5 -39q-69 0 -110.5 39.5t-41.5 102.5z" />
<glyph unicode="&#xf8;" horiz-adv-x="1355" d="M80 555q0 285 153 432.5t447 147.5q174 0 301 -56l49 72h139l-86 -129q193 -144 193 -469q0 -153 -43 -265t-123 -179.5t-187 -99.5t-243 -32q-164 0 -283 48l-51 -78h-139l88 129q-215 143 -215 479zM467 551q0 -119 31 -186l305 464q-44 39 -123 39q-101 0 -157 -72.5 t-56 -244.5zM571 270q48 -28 109 -28q211 0 211 311q0 122 -23 170z" />
<glyph unicode="&#xf9;" horiz-adv-x="1345" d="M100 387v725h379v-661q0 -99 41.5 -152t114.5 -53q57 0 115 33t96 79v754h379v-1112h-314l-43 129l-16 4q-76 -75 -173 -115.5t-198 -40.5q-167 0 -274 109t-107 301zM311 1708l264 154l293 -519l-147 -73z" />
<glyph unicode="&#xfa;" horiz-adv-x="1345" d="M100 387v725h379v-661q0 -99 41.5 -152t114.5 -53q57 0 115 33t96 79v754h379v-1112h-314l-43 129l-16 4q-76 -75 -173 -115.5t-198 -40.5q-167 0 -274 109t-107 301zM455 1343l290 521l265 -154l-406 -440z" />
<glyph unicode="&#xfb;" horiz-adv-x="1345" d="M100 387v725h379v-661q0 -99 41.5 -152t114.5 -53q57 0 115 33t96 79v754h379v-1112h-314l-43 129l-16 4q-76 -75 -173 -115.5t-198 -40.5q-167 0 -274 109t-107 301zM223 1372l285 455h311l285 -455l-186 -102l-256 309l-254 -309z" />
<glyph unicode="&#xfc;" horiz-adv-x="1345" d="M100 387v725h379v-661q0 -99 41.5 -152t114.5 -53q57 0 115 33t96 79v754h379v-1112h-314l-43 129l-16 4q-76 -75 -173 -115.5t-198 -40.5q-167 0 -274 109t-107 301zM195 1505q0 79 50 127.5t134 48.5q83 0 133.5 -49t50.5 -127q0 -80 -50.5 -128t-133.5 -48 q-84 0 -134 48t-50 128zM764 1505q0 78 50.5 127t133.5 49q84 0 134.5 -48.5t50.5 -127.5q0 -80 -50.5 -128t-134.5 -48q-83 0 -133.5 48t-50.5 128z" />
<glyph unicode="&#xfd;" horiz-adv-x="1355" d="M37 866v246q80 8 143 8q123 0 186 -36t105 -150q69 -184 201 -567h10q173 483 250 745h395q-104 -312 -286 -778.5t-328 -804.5h-420q135 267 223 471h-92q-61 185 -149 426t-140 367q-18 41 -38 56.5t-60 16.5zM451 1343l290 521l265 -154l-406 -440z" />
<glyph unicode="&#xfe;" horiz-adv-x="1341" d="M121 -471v2048h364v-363l-4 -235l17 -4q63 76 137 118t184 42q140 0 244 -75t156.5 -200t52.5 -282q0 -300 -148 -450.5t-397 -150.5q-138 0 -248 43v-491h-358zM489 285q85 -45 164 -45q64 0 111 25.5t73 72t38 102.5t12 125q0 135 -52.5 219t-138.5 84 q-60 0 -115.5 -33t-91.5 -87v-463z" />
<glyph unicode="&#xff;" horiz-adv-x="1355" d="M37 866v246q80 8 143 8q123 0 186 -36t105 -150q69 -184 201 -567h10q173 483 250 745h395q-104 -312 -286 -778.5t-328 -804.5h-420q135 267 223 471h-92q-61 185 -149 426t-140 367q-18 41 -38 56.5t-60 16.5zM229 1505q0 79 50.5 127.5t134.5 48.5q83 0 133.5 -49 t50.5 -127q0 -80 -50.5 -128t-133.5 -48q-84 0 -134.5 48t-50.5 128zM799 1505q0 78 50.5 127t133.5 49q84 0 134 -48.5t50 -127.5q0 -80 -50 -128t-134 -48q-83 0 -133.5 48t-50.5 128z" />
<glyph unicode="&#x152;" horiz-adv-x="2035" d="M80 758q0 367 201.5 572.5t584.5 205.5h1080v-293h-541v-338h405l-34 -258h-371v-352h551v-295h-1106q-367 0 -568.5 196.5t-201.5 561.5zM489 750q0 -216 97 -339.5t278 -123.5h148v966h-146q-181 0 -279 -136t-98 -367z" />
<glyph unicode="&#x153;" horiz-adv-x="2060" d="M80 555q0 280 153 430t443 150q264 0 403 -158q140 158 389 158q243 0 383 -125t140 -377q0 -69 -2 -94h-721v-33q0 -128 73 -193t215 -65q172 0 373 65l35 -245q-208 -91 -438 -91q-278 0 -434 164q-142 -164 -416 -164q-136 0 -243.5 33.5t-187.5 102t-122.5 180.5 t-42.5 262zM467 551q0 -154 55.5 -231.5t157.5 -77.5q211 0 211 311q0 315 -211 315q-101 0 -157 -72.5t-56 -244.5zM1276 696h373q0 209 -170 209q-81 0 -136.5 -52.5t-66.5 -156.5z" />
<glyph unicode="&#x178;" horiz-adv-x="1472" d="M43 1243v291q63 8 154 8q101 0 171.5 -38.5t133.5 -139.5q3 -6 56 -93t102.5 -170.5t58.5 -99.5h10q19 29 41 67.5t40 70.5t47.5 89t46 89t55.5 108t57 111h428q-110 -201 -266.5 -462.5t-259.5 -422.5v-651h-392v647q-253 396 -333 504q-38 50 -72.5 71t-77.5 21z M252 1851q0 79 50 128t134 49q83 0 134 -49.5t51 -127.5q0 -79 -51 -127.5t-134 -48.5q-84 0 -134 48t-50 128zM821 1851q0 78 51 127.5t134 49.5q84 0 134 -49t50 -128q0 -80 -50 -128t-134 -48q-83 0 -134 48.5t-51 127.5z" />
<glyph unicode="&#x2c6;" horiz-adv-x="1064" d="M92 1372l285 455h311l285 -455l-187 -102l-256 309l-254 -309z" />
<glyph unicode="&#x2dc;" horiz-adv-x="1064" d="M106 1317q0 90 20.5 155.5t55.5 99.5t74 49t84 15q56 0 173 -29.5t165 -29.5q27 0 44.5 20t18.5 62h217q-1 -86 -20.5 -150.5t-52.5 -100t-71.5 -52.5t-82.5 -17q-68 0 -185.5 30t-154.5 30q-31 0 -48 -17t-21 -65h-216z" />
<glyph unicode="&#x2000;" horiz-adv-x="1088" />
<glyph unicode="&#x2001;" horiz-adv-x="2177" />
<glyph unicode="&#x2002;" horiz-adv-x="1088" />
<glyph unicode="&#x2003;" horiz-adv-x="2177" />
<glyph unicode="&#x2004;" horiz-adv-x="725" />
<glyph unicode="&#x2005;" horiz-adv-x="544" />
<glyph unicode="&#x2006;" horiz-adv-x="362" />
<glyph unicode="&#x2007;" horiz-adv-x="362" />
<glyph unicode="&#x2008;" horiz-adv-x="272" />
<glyph unicode="&#x2009;" horiz-adv-x="435" />
<glyph unicode="&#x200a;" horiz-adv-x="120" />
<glyph unicode="&#x2010;" horiz-adv-x="876" d="M49 449v235l778 47v-235z" />
<glyph unicode="&#x2011;" horiz-adv-x="876" d="M49 449v235l778 47v-235z" />
<glyph unicode="&#x2012;" horiz-adv-x="876" d="M49 449v235l778 47v-235z" />
<glyph unicode="&#x2013;" horiz-adv-x="1368" d="M49 473v238h1270v-238h-1270z" />
<glyph unicode="&#x2014;" horiz-adv-x="1941" d="M49 473v238h1843v-238h-1843z" />
<glyph unicode="&#x2018;" horiz-adv-x="544" d="M78 1249q0 172 170 334l209 -41q-88 -130 -88 -246q0 -100 86 -211l-293 -47q-84 97 -84 211z" />
<glyph unicode="&#x2019;" horiz-adv-x="544" d="M88 1059q88 136 88 241q0 108 -86 216l293 47q84 -100 84 -213q0 -170 -170 -332z" />
<glyph unicode="&#x201a;" horiz-adv-x="544" d="M78 -186q88 136 88 241t-86 213l293 47q84 -100 84 -213q0 -164 -170 -331z" />
<glyph unicode="&#x201c;" horiz-adv-x="1005" d="M78 1249q0 172 170 334l209 -41q-88 -130 -88 -246q0 -100 86 -211l-293 -47q-84 97 -84 211zM541 1243q0 165 168 316l209 -39q-89 -131 -89 -230q0 -97 86 -203l-290 -45q-84 90 -84 201z" />
<glyph unicode="&#x201d;" horiz-adv-x="1005" d="M88 1081q88 130 88 230t-86 202l293 46q84 -93 84 -203q0 -161 -170 -314zM551 1059q86 131 86 244q0 101 -84 213l291 47q84 -97 84 -211q0 -177 -168 -334z" />
<glyph unicode="&#x201e;" horiz-adv-x="1005" d="M78 -166q88 130 88 229q0 101 -86 203l293 47q84 -97 84 -202q0 -160 -170 -316zM541 -186q86 128 86 243q0 102 -84 211l291 47q84 -97 84 -211q0 -173 -168 -333z" />
<glyph unicode="&#x2022;" horiz-adv-x="1030" d="M182 682q0 146 92 234t240 88q151 0 242.5 -87t91.5 -235t-92.5 -235t-241.5 -87q-150 0 -241 88t-91 234z" />
<glyph unicode="&#x2026;" horiz-adv-x="1732" d="M100 162q0 85 55 137.5t144 52.5q90 0 146.5 -53t56.5 -137q0 -82 -57 -133.5t-146 -51.5t-144 51.5t-55 133.5zM666 162q0 85 55.5 137.5t144.5 52.5t145 -52.5t56 -137.5q0 -82 -56 -133.5t-145 -51.5t-144.5 51.5t-55.5 133.5zM1231 162q0 85 56 137.5t145 52.5 t145.5 -52.5t56.5 -137.5q0 -82 -56.5 -133.5t-145.5 -51.5t-145 51.5t-56 133.5z" />
<glyph unicode="&#x202f;" horiz-adv-x="435" />
<glyph unicode="&#x2039;" horiz-adv-x="835" d="M100 518v135l568 484v-322l-275 -231l275 -232v-321z" />
<glyph unicode="&#x203a;" horiz-adv-x="835" d="M168 31v321l274 232l-274 231v322l567 -484v-135z" />
<glyph unicode="&#x205f;" horiz-adv-x="544" />
<glyph unicode="&#x20ac;" d="M92 496v188h133l-2 53l2 58h-133v192h158q29 130 90 229.5t143.5 159.5t177.5 90.5t199 30.5q215 0 385 -90l-59 -268q-138 69 -258 69q-199 0 -258 -221h379v-192h-406l-2 -52l2 -59h406v-188h-379q61 -217 262 -217q149 0 293 67l43 -278q-186 -91 -398 -91 q-120 0 -220 29.5t-182.5 91t-139 162t-82.5 236.5h-154z" />
<glyph unicode="&#x2122;" horiz-adv-x="1699" d="M100 1245v168h607v-168h-209v-463h-189v463h-209zM795 782l16 631h197q121 -222 180 -352h10q104 194 172 352h197l14 -631h-174l-6 357h-8q-28 -64 -64.5 -134.5t-65.5 -122t-32 -57.5q-20 -8 -80 -8q-20 38 -55.5 108.5t-63.5 125t-47 88.5h-8l-6 -357h-176z" />
<glyph unicode="&#x25fc;" horiz-adv-x="1116" d="M0 0v1116h1116v-1116h-1116z" />
<glyph unicode="&#xfb01;" horiz-adv-x="1394" d="M35 860v252h176v57q0 424 518 424q198 0 385 -45l-63 -250q-128 27 -258 27q-48 0 -83 -6.5t-64.5 -22.5t-44.5 -47.5t-15 -77.5v-59h688v-1112h-381v860h-307v-860h-377v860h-174z" />
<glyph unicode="&#xfb02;" horiz-adv-x="1480" d="M35 860v252h176v57q0 99 29 174.5t77.5 122.5t120 76.5t148 41t170.5 11.5q148 0 321 -22.5t283 -52.5v-1520h-381v1300q-98 25 -193 25q-94 0 -147 -31.5t-53 -117.5v-64h264l-29 -252h-235v-860h-377v860h-174z" />
</font>
</defs>
</svg>
