<?xml version="1.0" standalone="no"?>
<!DOCTYPE svg PUBLIC "-//W3C//DTD SVG 1.1//EN" "http://www.w3.org/Graphics/SVG/1.1/DTD/svg11.dtd" >
<svg xmlns="http://www.w3.org/2000/svg">
<metadata></metadata>
<defs>
<font id="soberana_sans_lightBdIt" horiz-adv-x="1331" >
<font-face units-per-em="2048" ascent="1577" descent="-471" />
<missing-glyph horiz-adv-x="532" />
<glyph horiz-adv-x="0" />
<glyph horiz-adv-x="682" />
<glyph unicode=" "  horiz-adv-x="532" />
<glyph unicode="&#x09;" horiz-adv-x="532" />
<glyph unicode="&#xa0;" horiz-adv-x="532" />
<glyph unicode="!" horiz-adv-x="720" d="M117 106q0 73 45.5 116.5t124.5 43.5q66 0 105.5 -35.5t39.5 -97.5q0 -68 -48 -109.5t-124 -41.5q-65 0 -104 32.5t-39 91.5zM217 430l100 1100l310 24l-201 -1124h-209z" />
<glyph unicode="&#x22;" horiz-adv-x="876" d="M223 1067l19 465l250 22l-125 -487h-144zM614 1067l19 465l250 22l-125 -487h-144z" />
<glyph unicode="#" d="M33 387l22 170l273 -2l61 233h-260l25 170l280 -2l96 363h175l-97 -363h246l96 363h174l-96 -363l254 2l-25 -170h-274l-61 -233l262 2l-23 -170h-284l-97 -367h-174l96 369h-245l-99 -369h-172l97 367h-250zM500 555h248l61 233h-246z" />
<glyph unicode="$" d="M63 104l76 220q81 -59 195 -93t217 -34q59 0 110 11t97 34.5t73 68.5t27 107q0 43 -25.5 79t-73.5 66t-97 54t-115.5 56.5t-110.5 59.5q-97 54 -154 127.5t-57 181.5q0 106 44.5 191.5t120 139.5t170 84t200.5 34l74 266l206 -18l-71 -262q140 -24 245 -80l-102 -205 q-155 86 -332 86q-46 0 -90 -9.5t-86 -29.5t-68 -60t-26 -94q0 -51 44 -95t101 -72.5l148 -74t149 -83.5q176 -111 176 -293q0 -118 -45.5 -210t-125 -149t-179.5 -88t-217 -36l-72 -273l-208 19l71 266q-171 27 -289 108z" />
<glyph unicode="%" horiz-adv-x="1916" d="M150 1059q0 88 26.5 166t76.5 138t128 95t174 35q148 0 223.5 -75t75.5 -210q0 -187 -106 -310.5t-295 -123.5q-141 0 -222 73t-81 212zM326 1071q0 -79 36 -122.5t109 -43.5q69 0 117.5 44.5t69 108t20.5 138.5q0 82 -36.5 124t-104.5 42q-104 0 -157.5 -87t-53.5 -204z M338 88l1069 1405l162 -102l-1071 -1409zM1053 266q0 119 45 216t138 157.5t220 60.5q147 0 225 -74.5t78 -211.5q0 -185 -108 -308.5t-297 -123.5q-143 0 -222 73t-79 211zM1229 276q0 -163 145 -163q69 0 117.5 44t69 107.5t20.5 138.5q0 81 -36.5 123.5t-104.5 42.5 q-71 0 -120.5 -45.5t-70 -109.5t-20.5 -138z" />
<glyph unicode="&#x26;" horiz-adv-x="1583" d="M14 326q0 85 28.5 162t82 141.5t114.5 116t140 102.5q-60 129 -60 252q0 202 132.5 328t349.5 126q113 0 208.5 -32t159.5 -86l-100 -181q-128 95 -264 95q-104 0 -172 -60.5t-68 -175.5q0 -127 113.5 -296.5t288.5 -336.5q93 118 247 379h246q-144 -258 -346 -510 q56 -46 133 -98q91 -64 168 -64h43l-26 -188q-56 -18 -115 -18q-67 0 -138 29t-126 71q-64 50 -109 90q-233 -190 -500 -190q-204 0 -317 94.5t-113 249.5zM268 360q0 -80 55 -131t162 -51q157 0 316 123q-210 200 -328 377q-205 -155 -205 -318z" />
<glyph unicode="'" horiz-adv-x="485" d="M223 1067l19 465l250 22l-125 -487h-144z" />
<glyph unicode="(" horiz-adv-x="882" d="M102 528q0 373 205 655.5t553 395.5l-31 -215q-462 -270 -462 -829q0 -353 272 -529l-31 -217q-241 76 -373.5 272.5t-132.5 466.5z" />
<glyph unicode=")" horiz-adv-x="882" d="M8 -211l31 217q463 271 463 828q0 354 -275 530l33 215q241 -76 373.5 -271.5t132.5 -465.5q0 -372 -207 -658t-551 -395z" />
<glyph unicode="*" horiz-adv-x="913" d="M143 1051l297 102l-268 102l98 150l213 -188l-4 296h174l-88 -296l264 186l58 -148l-297 -102l268 -104l-96 -148l-215 186l4 -294h-174l88 294l-264 -186z" />
<glyph unicode="+" d="M141 549v180h428v451h187v-451h428v-180h-428v-449h-187v449h-428z" />
<glyph unicode="," horiz-adv-x="542" d="M-47 -215q147 143 147 278q0 82 -67 164l239 43q68 -71 68 -161q0 -174 -223 -359z" />
<glyph unicode="-" horiz-adv-x="831" d="M16 465l25 172l727 45l-25 -174z" />
<glyph unicode="." horiz-adv-x="542" d="M31 115q0 70 47 112.5t123 42.5q60 0 98.5 -34t38.5 -93q0 -74 -44.5 -117.5t-121.5 -43.5q-64 0 -102.5 36t-38.5 97z" />
<glyph unicode="/" horiz-adv-x="1177" d="M-23 14l1039 1610l186 -104l-1036 -1608z" />
<glyph unicode="0" d="M84 539q0 89 11.5 180t37 185.5t63.5 179.5t94.5 160.5t125.5 130t161 86.5t197 32q235 0 355 -144.5t120 -406.5q0 -144 -26.5 -281.5t-83 -261t-136 -216t-193.5 -147t-249 -54.5q-227 0 -352 140t-125 417zM354 541q0 -168 58 -260.5t178 -92.5q83 0 151 51t111 131 t72.5 182t42 198t12.5 186q0 170 -60 258t-176 88q-83 0 -151.5 -51.5t-111.5 -131t-72.5 -181t-41.5 -196t-12 -181.5z" />
<glyph unicode="1" d="M125 0l29 211h344l141 999l-348 -22l24 174q258 27 535 113h94l-178 -1264h324l-29 -211h-936z" />
<glyph unicode="2" d="M72 0l20 158q29 24 86 70q133 108 197.5 161.5t165 142.5t148.5 145.5t102 130.5t75 140.5t21 134.5q0 88 -52.5 136.5t-152.5 48.5q-198 0 -373 -127l-55 202q88 62 219 106t279 44q196 0 313 -90.5t117 -265.5q0 -59 -13.5 -120t-33.5 -114t-57 -112t-68.5 -104.5 t-84 -103t-89 -94.5t-97.5 -92.5t-94 -84.5t-94 -81v-12h557l-31 -219h-1005z" />
<glyph unicode="3" d="M63 125l101 209q67 -59 165.5 -98t196.5 -39q141 0 230.5 70.5t89.5 201.5q0 109 -100.5 166t-284.5 57l20 144q46 11 80.5 20.5t86.5 27t89 39t72.5 50t54.5 67.5t19 84q0 150 -181 150q-103 0 -208 -41t-177 -98l-47 196q94 72 224 117t282 45q189 0 294.5 -79.5 t105.5 -227.5q0 -256 -306 -373l-2 -10q117 -36 187.5 -118t70.5 -208q0 -94 -31.5 -174.5t-87.5 -139t-131.5 -99.5t-163.5 -61.5t-184 -20.5q-145 0 -268 41t-197 102z" />
<glyph unicode="4" d="M43 346l23 168q170 185 361.5 390.5t346.5 370t197 210.5l180 -25l-127 -907h164l-49 -207h-146l-45 -346h-250l47 346h-702zM358 565l2 -14h416l78 526l-10 2q-393 -412 -486 -514z" />
<glyph unicode="5" d="M63 123l99 213q73 -64 177.5 -100.5t211.5 -36.5q132 0 215.5 76t83.5 206q0 122 -151.5 187t-469.5 92q28 82 88 303t103 412h801l-31 -211h-561q-37 -162 -82 -332q111 -15 195.5 -35.5t159 -54.5t122 -79.5t75 -112t27.5 -150.5q0 -99 -30.5 -183t-85.5 -145 t-130 -104t-164 -64.5t-188 -21.5q-137 0 -258.5 37t-206.5 104z" />
<glyph unicode="6" d="M117 463q0 170 53.5 319.5t145.5 261.5t220.5 202.5t272.5 150t307 96.5l31 -203q-144 -36 -275 -98.5t-246.5 -162t-176.5 -218.5l16 -6q162 92 309 92q179 0 279 -92t100 -254q0 -60 -15 -128t-56 -148.5t-102.5 -144t-165.5 -106t-234 -42.5q-210 0 -336.5 132.5 t-126.5 348.5zM377 477q0 -130 57.5 -215.5t165.5 -85.5q131 0 210 93t79 247q0 100 -54 149.5t-155 49.5q-140 0 -295 -115q-8 -55 -8 -123z" />
<glyph unicode="7" d="M145 0q77 108 433.5 680t361.5 580h-713l33 215h995l33 -93q-17 -31 -200 -339t-385.5 -647.5t-235.5 -395.5h-322z" />
<glyph unicode="8" d="M102 330q0 288 349 454q-201 122 -201 301q0 82 28.5 150t78 115t116.5 80t143 48t158 15q209 0 314.5 -82t105.5 -225q0 -75 -22 -136t-66 -109.5t-93 -84t-120 -74.5q79 -46 126.5 -85.5t79 -101t31.5 -140.5q0 -92 -30 -170t-83 -133t-124.5 -94t-154.5 -57.5 t-173 -18.5q-213 0 -338 95.5t-125 252.5zM367 356q0 -83 60 -130.5t161 -47.5q121 0 201.5 67.5t80.5 192.5q0 79 -50 124.5t-171 101.5q-58 -23 -101.5 -47t-88 -60.5t-68.5 -87.5t-24 -113zM506 1096q0 -120 182 -213q49 20 88 42.5t79 55t62.5 76t22.5 94.5 q0 70 -48 109.5t-142 39.5q-60 0 -113 -18.5t-92 -66.5t-39 -119z" />
<glyph unicode="9" d="M174 942q0 246 162 398.5t416 152.5q213 0 335.5 -121.5t122.5 -339.5q0 -164 -52.5 -312t-143 -262.5t-216 -209t-268.5 -160t-303 -106.5l-30 200q234 84 415 214.5t267 285.5l-11 6q-140 -96 -327 -96q-176 0 -271.5 95.5t-95.5 254.5zM436 969q0 -94 52 -144.5 t151 -50.5q78 0 158.5 31t146.5 84q10 65 10 121q0 125 -55.5 206.5t-167.5 81.5q-129 0 -212 -90t-83 -239z" />
<glyph unicode=":" horiz-adv-x="542" d="M31 115q0 70 47 112.5t123 42.5q60 0 98.5 -34t38.5 -93q0 -74 -44.5 -117.5t-121.5 -43.5q-64 0 -102.5 36t-38.5 97zM123 762q0 70 47.5 113t122.5 43q60 0 98.5 -34t38.5 -93q0 -74 -44.5 -118t-121.5 -44q-64 0 -102.5 36t-38.5 97z" />
<glyph unicode=";" horiz-adv-x="542" d="M-47 -215q147 143 147 278q0 82 -67 164l239 43q68 -71 68 -161q0 -174 -223 -359zM123 762q0 70 47.5 113t122.5 43q60 0 98.5 -34t38.5 -93q0 -74 -44.5 -118t-121.5 -44q-64 0 -102.5 36t-38.5 97z" />
<glyph unicode="&#x3c;" d="M174 571v142l963 456v-200l-701 -328l701 -326v-202z" />
<glyph unicode="=" d="M141 346v180h1043v-180h-1043zM141 754v180h1043v-180h-1043z" />
<glyph unicode="&#x3e;" d="M188 113v202l701 326l-701 328v200l963 -456v-142z" />
<glyph unicode="?" horiz-adv-x="1017" d="M201 111q0 71 47 113t123 42q64 0 103.5 -34t39.5 -95q0 -70 -45.5 -112.5t-126.5 -42.5q-66 0 -103.5 35t-37.5 94zM201 1460q77 43 179.5 68.5t199.5 25.5q190 0 289.5 -82t99.5 -223q0 -74 -26.5 -140t-68.5 -115.5t-93 -95t-101.5 -87t-92.5 -82.5t-68.5 -91 t-26.5 -103q0 -60 18 -105h-238q-24 66 -24 131q0 63 24.5 119.5t63.5 99.5t86.5 83.5t95 78t86.5 75.5t63.5 84t24.5 95q0 72 -49.5 109.5t-132.5 37.5q-59 0 -134.5 -20t-127.5 -53z" />
<glyph unicode="@" horiz-adv-x="1687" d="M102 487q0 182 55.5 338t158.5 271t259.5 180.5t348.5 66.5q100 0 194.5 -22.5t181 -71t151 -118t102.5 -171.5t38 -223q0 -110 -35 -214t-96.5 -184t-152.5 -128.5t-195 -48.5q-138 0 -162 127l-10 2q-41 -47 -105.5 -82t-134.5 -35q-63 0 -111 25t-76 69.5t-42 100 t-14 120.5q0 77 16 147.5t50 132.5t83 107.5t119 72t154 26.5q115 0 213 -68l49 54h65q-86 -556 -86 -603q0 -65 58 -65q53 0 106 30.5t97.5 85t72 141t27.5 189.5q0 100 -30 184t-82 143t-123.5 100.5t-154 61t-173.5 19.5q-214 -1 -376 -96.5t-248.5 -265.5t-86.5 -391 q0 -150 47 -271.5t130 -201t195 -122t244 -42.5q133 0 273.5 48.5t255.5 135.5l55 -78q-125 -99 -278.5 -152t-307.5 -53q-155 0 -287.5 51t-228 144t-149.5 230.5t-54 303.5zM643 502q0 -178 113 -178q93 0 188 106l60 354q-49 41 -123 41q-112 0 -175 -95.5t-63 -227.5z " />
<glyph unicode="A" horiz-adv-x="1560" d="M-43 0q151 292 426 811.5t391 724.5h232q55 -206 196 -755.5t197 -780.5h-285l-98 440h-565q-141 -288 -211 -440h-283zM551 641h420q-37 164 -129 545h-13q-53 -100 -278 -545z" />
<glyph unicode="B" horiz-adv-x="1304" d="M49 0l215 1536h469q455 0 455 -307q0 -280 -279 -395l-2 -15q271 -67 271 -313q0 -161 -80.5 -277.5t-212.5 -172.5t-299 -56h-537zM346 186h217q141 0 237.5 83.5t96.5 230.5q0 211 -309 211h-168zM444 887h134q82 0 154 32t119.5 99.5t47.5 157.5q0 174 -225 174h-166z " />
<glyph unicode="C" horiz-adv-x="1435" d="M88 608q0 155 39.5 297t117 260t184.5 205t250 135.5t306 48.5q116 0 240 -29.5t198 -80.5l-75 -213q-75 45 -173 73.5t-188 28.5q-138 0 -252.5 -53.5t-191.5 -146t-119.5 -218t-42.5 -268.5q0 -217 129.5 -328.5t335.5 -111.5q204 0 401 90l2 -211q-218 -104 -475 -104 q-110 0 -209.5 22.5t-187.5 71.5t-151.5 121t-100.5 177.5t-37 233.5z" />
<glyph unicode="D" horiz-adv-x="1576" d="M49 0l215 1536h541q349 0 517.5 -157t168.5 -443q0 -200 -56.5 -370t-164.5 -296.5t-276 -198t-380 -71.5h-565zM350 211h254q141 0 255 54t187 148.5t111.5 219.5t38.5 270q0 422 -448 422h-242z" />
<glyph unicode="E" horiz-adv-x="1103" d="M49 0l215 1536h842l-31 -211h-569l-62 -453h433l-54 -192h-407l-66 -469h582l-29 -211h-854z" />
<glyph unicode="F" horiz-adv-x="1071" d="M49 0l215 1536h854l-28 -211h-584l-64 -465h469l-53 -194h-444l-92 -666h-273z" />
<glyph unicode="G" horiz-adv-x="1566" d="M88 612q0 207 66 381.5t186.5 298.5t296.5 193t389 69q132 0 262 -30t211 -80l-80 -213q-183 102 -399 102q-293 0 -466 -187.5t-173 -496.5q0 -215 126.5 -329.5t338.5 -114.5q148 0 270 51l49 348h-176l25 176h428l-94 -674q-118 -63 -269 -93.5t-295 -30.5 q-205 0 -360.5 70t-245.5 214t-90 346z" />
<glyph unicode="H" horiz-adv-x="1601" d="M49 0l215 1536h273l-91 -629h758l88 629h273l-215 -1536h-273l99 694h-758l-96 -694h-273z" />
<glyph unicode="I" horiz-adv-x="573" d="M49 0l215 1536h271l-216 -1536h-270z" />
<glyph unicode="J" horiz-adv-x="872" d="M0 2l10 209q57 -16 137 -16q119 0 185.5 67.5t85.5 206.5l121 858h-179l31 209h455l-158 -1120q-30 -214 -160 -325t-325 -111q-107 0 -203 22z" />
<glyph unicode="K" horiz-adv-x="1419" d="M49 0l215 1536h273l-91 -627h175q143 160 495 627h299q-311 -410 -577 -721q50 -125 135.5 -292.5t163.5 -274.5q28 -40 61.5 -54t87.5 -14l-24 -180q-76 -18 -148 -18q-80 0 -123.5 21.5t-87.5 84.5q-45 63 -150 265t-161 343h-174l-96 -696h-273z" />
<glyph unicode="L" horiz-adv-x="1097" d="M49 0l215 1536h273l-187 -1325h596l-28 -211h-869z" />
<glyph unicode="M" horiz-adv-x="1945" d="M29 0l278 1536h281q77 -194 159.5 -442t124 -386t64.5 -221h10q95 143 279 459t327 590h293l-133 -1536h-260l96 1096h-10q-132 -235 -324 -550t-266 -427l-135 -19q-12 40 -54.5 181.5t-76 249t-87.5 269.5t-106 302h-12l-192 -1102h-256z" />
<glyph unicode="N" horiz-adv-x="1648" d="M49 0l215 1536h225q132 -175 348 -492t353 -542l10 2l143 1032h269l-215 -1534l-168 -20q-138 225 -377 585t-373 549l-12 -2l-156 -1114h-262z" />
<glyph unicode="O" horiz-adv-x="1683" d="M100 612q0 151 35 290t107 257.5t173 206.5t241.5 138t304.5 50q161 0 284 -46t200 -129.5t115.5 -196t38.5 -250.5q0 -155 -35.5 -296t-107 -260.5t-173 -207t-241 -137t-303.5 -49.5q-311 0 -475 169t-164 461zM387 621q0 -202 95.5 -316.5t281.5 -114.5 q112 0 204.5 42.5t155.5 113.5t106.5 166.5t63 200t19.5 215.5q0 202 -98.5 312t-286.5 110q-109 0 -200.5 -43.5t-153.5 -115.5t-105 -167t-62.5 -196.5t-19.5 -206.5z" />
<glyph unicode="P" horiz-adv-x="1255" d="M49 0l215 1536h504q231 0 349 -98.5t118 -276.5q0 -144 -52.5 -259t-145.5 -189t-219 -113t-275 -39q-84 0 -144 8l-77 -569h-273zM430 784q47 -8 121 -8q407 0 407 344q0 109 -72.5 157t-207.5 48h-172z" />
<glyph unicode="Q" horiz-adv-x="1685" d="M100 612q0 152 35 291.5t107 258t173 206t241.5 137t304.5 49.5q161 0 284 -46t200 -129.5t115.5 -196t38.5 -250.5q0 -222 -71.5 -412t-218 -327.5t-348.5 -186.5q216 -168 425 -168q11 0 97 4l-25 -172q-79 -24 -184 -24q-114 0 -249.5 55t-245 131t-195.5 162 q-237 41 -360.5 203.5t-123.5 414.5zM387 621q0 -202 95.5 -316.5t281.5 -114.5q112 0 204.5 42.5t155.5 113.5t106.5 166.5t63 200t19.5 215.5q0 202 -98.5 312t-286.5 110q-109 0 -200.5 -43t-153.5 -114.5t-105 -166.5t-62.5 -197t-19.5 -208z" />
<glyph unicode="R" horiz-adv-x="1372" d="M49 0l215 1536h467q232 0 352.5 -90.5t120.5 -267.5q0 -179 -79 -296t-246 -198q106 -264 215 -434q28 -42 55.5 -56t67.5 -14h24l-24 -180q-74 -18 -146 -18q-70 0 -111 16.5t-75 62.5q-44 60 -125 224.5t-139 322.5h-215l-84 -608h-273zM434 813h127q76 0 138.5 16.5 t114.5 52t81 99.5t29 152q0 101 -67.5 146.5t-199.5 45.5h-151z" />
<glyph unicode="S" horiz-adv-x="1216" d="M6 106l72 220q79 -58 189 -93.5t214 -35.5q56 0 108.5 11.5t102 36.5t79.5 72.5t30 112.5q0 45 -24.5 83.5t-71 71.5t-94 59t-115.5 62.5t-113 65.5q-68 44 -109.5 82t-70.5 99t-29 137q0 116 46 206.5t126 145.5t180.5 83.5t216.5 28.5q111 0 224.5 -26.5t197.5 -71.5 l-86 -205q-70 39 -163.5 62.5t-184.5 23.5q-54 0 -100.5 -10.5t-86.5 -33t-63.5 -64t-23.5 -96.5q0 -54 46 -102.5t105.5 -79.5t149.5 -79t145 -88q80 -59 124 -128.5t44 -168.5q0 -127 -48 -225.5t-132.5 -158.5t-192.5 -90.5t-235 -30.5q-144 0 -262.5 35.5t-194.5 88.5z " />
<glyph unicode="T" horiz-adv-x="1427" d="M162 1325l31 211h1267l-30 -211h-498l-184 -1325h-273l184 1325h-497z" />
<glyph unicode="U" horiz-adv-x="1581" d="M115 508q0 71 10 133l125 895h274l-129 -905q-6 -53 -6 -94q0 -164 92 -250t234 -86q75 0 144.5 25t130 75.5t103 135t58.5 194.5l129 905h272l-127 -913q-22 -161 -89.5 -285.5t-167.5 -201.5t-222 -115.5t-262 -38.5q-124 0 -226 31.5t-179.5 94t-120.5 165t-43 235.5z " />
<glyph unicode="V" horiz-adv-x="1470" d="M154 1536h288q105 -638 222 -1194h12q148 287 311 633t256 561h285q-117 -254 -398.5 -809t-381.5 -727h-256q-57 203 -172.5 726.5t-165.5 809.5z" />
<glyph unicode="W" horiz-adv-x="2244" d="M158 1536h284q68 -488 197 -1184h10q265 504 428 836q-27 102 -43 125q-26 34 -84 35l27 186q82 8 129 8q85 0 133.5 -35t65.5 -135l178 -1014h10q288 606 512 1178h283q-105 -259 -360.5 -811.5t-352.5 -724.5h-252q-20 83 -44.5 199t-42 202.5t-47 236.5t-42.5 214h-2 q-250 -496 -451 -852h-245q-50 192 -148.5 715.5t-142.5 820.5z" />
<glyph unicode="X" horiz-adv-x="1484" d="M-63 0q251 322 624 786q-111 232 -223 453q-27 53 -59 76.5t-82 23.5l26 193q62 8 123 8q85 0 136.5 -35t97.5 -129q13 -27 88.5 -195t97.5 -214h12q29 36 59.5 75.5t75 100.5t75 102.5t100.5 138.5t110 152h295q-408 -544 -573 -745q199 -414 274 -533 q30 -45 63.5 -61.5t90.5 -16.5l-25 -180q-20 -7 -67.5 -12.5t-77.5 -5.5q-73 0 -117 21t-82 85q-14 20 -57 103.5t-115 228.5t-92 184h-10q-244 -311 -463 -604h-305z" />
<glyph unicode="Y" horiz-adv-x="1363" d="M131 1335l27 197q44 8 104 8q86 0 141 -36t99 -130q8 -17 93 -214.5t101 -231.5h11q132 168 419 608h295q-233 -341 -624 -854l-95 -682h-268l96 684q-172 364 -270 553q-29 54 -56.5 76t-72.5 22z" />
<glyph unicode="Z" horiz-adv-x="1392" d="M-20 0l14 106q175 231 474 599.5t501 607.5l-2 12h-748l31 211h1114l22 -102q-583 -698 -985 -1211v-12h828l-29 -211h-1220z" />
<glyph unicode="[" horiz-adv-x="901" d="M92 -203l248 1774h516l-27 -207h-264l-192 -1360h264l-29 -207h-516z" />
<glyph unicode="\" horiz-adv-x="1177" d="M115 1530l217 94l741 -1610l-213 -102z" />
<glyph unicode="]" horiz-adv-x="901" d="M31 -203l26 207h265l192 1360h-264l29 207h516l-248 -1774h-516z" />
<glyph unicode="^" d="M150 553l432 942h161l433 -942h-203l-311 678l-310 -678h-202z" />
<glyph unicode="_" d="M-162 -430l25 176h1329l-25 -176h-1329z" />
<glyph unicode="`" horiz-adv-x="952" d="M371 1667l219 115l205 -461l-115 -55z" />
<glyph unicode="a" horiz-adv-x="1312" d="M74 446q0 142 36.5 262.5t108.5 215t190 148.5t271 54q190 0 342 -86l63 68h89l-119 -852q-4 -28 -4 -39q0 -22 10 -33.5t37 -11.5l76 4l-21 -149q-91 -45 -190 -45q-83 0 -122.5 38t-47.5 115l-9 4q-177 -157 -372 -157q-89 0 -156 38t-105.5 104t-57.5 147t-19 175z M342 467q0 -139 45 -215t131 -76q67 0 147.5 41.5t137.5 104.5l76 559q-79 55 -185 55q-76 0 -137 -27.5t-100.5 -73t-66 -107.5t-37.5 -126.5t-11 -134.5z" />
<glyph unicode="b" horiz-adv-x="1255" d="M45 0l219 1577h262l-51 -379l-39 -219l10 -2q170 149 349 149q92 0 161.5 -38t110 -104.5t60.5 -147t20 -174.5q0 -115 -23.5 -216.5t-72.5 -186.5t-120 -146.5t-171 -96t-221 -34.5q-200 0 -359 88l-55 -70h-80zM340 225q80 -53 186 -53q76 0 137.5 27t100.5 72 t65 106.5t37 126t11 135.5q0 139 -44.5 215t-132.5 76q-68 0 -147.5 -41t-134.5 -105z" />
<glyph unicode="c" horiz-adv-x="1081" d="M74 449q0 102 19.5 196.5t65.5 183t114.5 154t174 104.5t236.5 39q188 0 336 -71l-64 -199q-54 27 -128 45.5t-136 18.5q-78 0 -140.5 -28.5t-100.5 -73.5t-63.5 -106t-35.5 -120t-10 -121q0 -129 62 -206t188 -77q72 0 163 20t156 52l19 -194q-75 -37 -185.5 -60.5 t-220.5 -23.5q-214 0 -332 121.5t-118 345.5z" />
<glyph unicode="d" horiz-adv-x="1261" d="M74 444q0 309 157 495.5t433 186.5q131 0 243 -53l70 504h260l-219 -1577h-207l-20 135l-13 2q-166 -155 -356 -155q-91 0 -160 38.5t-109 104.5t-59.5 146.5t-19.5 172.5zM342 469q0 -142 45 -217.5t131 -75.5q67 0 148 41.5t137 104.5l76 559q-83 55 -185 55 q-76 0 -137 -27.5t-100.5 -73t-66 -107t-37.5 -126t-11 -133.5z" />
<glyph unicode="e" horiz-adv-x="1181" d="M74 451q0 145 40 267.5t115.5 213.5t194.5 142.5t268 51.5q202 0 303 -94.5t101 -273.5q0 -96 -23 -197h-723q-10 -65 -10 -108q0 -277 278 -277q158 0 349 76l18 -186q-80 -37 -193.5 -60.5t-218.5 -23.5q-103 0 -190.5 26t-158 80t-110.5 147t-40 216zM377 692h477 q6 40 6 68q0 102 -47 147t-137 45q-103 0 -183.5 -65.5t-115.5 -194.5z" />
<glyph unicode="f" horiz-adv-x="837" d="M66 -471l192 1397h-174l25 182h176l12 82q17 116 53.5 195t95 122.5t128.5 61.5t165 18q138 0 250 -45l-63 -180q-81 33 -168 33q-83 0 -135 -43.5t-68 -163.5l-10 -80h289l-46 -182h-268l-194 -1397h-260z" />
<glyph unicode="g" horiz-adv-x="1261" d="M47 -414l27 203q72 -27 169.5 -44t176.5 -17q51 0 91.5 5.5t83.5 23.5t73.5 47.5t54 80.5t33.5 121l18 131l-10 4q-164 -149 -354 -149q-69 0 -125.5 24t-95 65.5t-65 98.5t-38.5 123t-12 139q0 143 36 264.5t108 216.5t190 149t272 54q189 0 338 -82l67 64h89 l-156 -1118q-19 -135 -72 -230t-132.5 -146t-168.5 -73t-199 -22q-80 0 -198.5 18t-200.5 49zM338 469q0 -140 45.5 -216.5t130.5 -76.5q68 0 149.5 42t137.5 104l78 559q-76 53 -189 53q-75 0 -136 -27t-100.5 -72t-66 -106t-38 -125.5t-11.5 -134.5z" />
<glyph unicode="h" horiz-adv-x="1249" d="M45 0l219 1577h262l-51 -375l-39 -239l10 -2q96 89 185 127t192 38q303 0 303 -327q0 -61 -8 -113l-94 -686h-262l92 662q6 50 6 86q0 170 -158 170q-81 0 -155.5 -40t-130.5 -108l-109 -770h-262z" />
<glyph unicode="i" horiz-adv-x="542" d="M45 0l154 1108h260l-154 -1108h-260zM219 1479q0 72 49 115.5t127 43.5q63 0 101.5 -34.5t38.5 -96.5q0 -78 -44 -123t-126 -45q-66 0 -106 38t-40 102z" />
<glyph unicode="j" horiz-adv-x="606" d="M-152 -453l9 201q39 -14 104 -14q117 0 137 147l142 1037h-134l27 190h393l-178 -1274q-10 -74 -34.5 -128.5t-57.5 -88t-79.5 -53.5t-94.5 -27.5t-109 -7.5q-79 0 -125 18zM268 1479q0 72 48 115.5t126 43.5q64 0 102 -34.5t38 -96.5q0 -78 -44 -123t-126 -45 q-66 0 -105 38t-39 102z" />
<glyph unicode="k" horiz-adv-x="1234" d="M45 0l219 1577h262l-116 -848h129q115 115 338 379h297q-94 -115 -216.5 -251.5t-203.5 -219.5q148 -337 190 -397q24 -35 44.5 -48.5t60.5 -13.5q33 0 45 2l-25 -176q-47 -22 -133 -22q-139 0 -223 145q-17 31 -88.5 183t-98.5 216h-145l-74 -526h-262z" />
<glyph unicode="l" horiz-adv-x="546" d="M45 0l219 1577h260l-221 -1577h-258z" />
<glyph unicode="m" horiz-adv-x="1941" d="M45 0l154 1108h219l10 -145l12 -2q101 94 188.5 129.5t188.5 35.5q210 0 281 -174h12q199 174 397 174q156 0 234 -85.5t78 -235.5q0 -59 -7 -105l-98 -700h-262l90 668q6 44 6 77q0 173 -151 173q-77 0 -151 -38.5t-132 -105.5q-5 -94 -8 -115l-90 -659h-262l92 668 q6 44 6 80q0 85 -37 127.5t-119 42.5q-78 0 -152 -40.5t-130 -111.5l-107 -766h-262z" />
<glyph unicode="n" horiz-adv-x="1251" d="M45 0l154 1108h219l10 -145l12 -2q176 165 381 165q151 0 229 -84t78 -237q0 -49 -6 -105l-98 -700h-262l92 668q6 40 6 69q0 95 -39.5 138t-118.5 43q-87 0 -160.5 -42t-127.5 -110l-107 -766h-262z" />
<glyph unicode="o" horiz-adv-x="1247" d="M74 444q0 115 17.5 211.5t62 185.5t113.5 150.5t177.5 98t249.5 36.5q148 0 251 -62.5t150.5 -166t47.5 -238.5q0 -114 -19 -211t-63.5 -184.5t-112.5 -148.5t-173 -97t-238 -36q-219 0 -341 117t-122 345zM342 469q0 -143 57.5 -220t167.5 -77q84 0 145.5 36.5t96 102.5 t50 146t15.5 178q0 142 -55 220.5t-166 78.5q-83 0 -144 -36t-97 -100.5t-53 -146.5t-17 -182z" />
<glyph unicode="p" horiz-adv-x="1251" d="M-23 -471l222 1577h211l16 -135l10 -2q165 157 357 157q73 0 133 -26t99.5 -69.5t66.5 -103.5t39 -126t12 -139q0 -139 -36.5 -259.5t-107 -215.5t-187 -150t-265.5 -55q-129 0 -240 51l-69 -504h-261zM336 225q80 -53 188 -53q93 0 163 41t109 110t57.5 148t18.5 168 q0 140 -45 215.5t-131 75.5q-67 0 -147.5 -41t-134.5 -103z" />
<glyph unicode="q" horiz-adv-x="1263" d="M74 451q0 147 37.5 268.5t110.5 213t190.5 142.5t269.5 51q193 0 348 -82l62 64h82l-222 -1579h-268l59 383l41 213l-12 4q-163 -147 -348 -147q-74 0 -133.5 25.5t-99.5 68.5t-66.5 103.5t-38.5 128t-12 143.5zM342 467q0 -139 45 -215t131 -76q67 0 147.5 41.5 t137.5 104.5l76 559q-79 55 -185 55q-76 0 -137 -27.5t-100.5 -73t-66 -107.5t-37.5 -126.5t-11 -134.5z" />
<glyph unicode="r" horiz-adv-x="888" d="M45 0l154 1108h209l12 -170h12q197 188 330 188q76 0 117 -71l-70 -193q-52 25 -107 25q-48 0 -110 -33.5t-95 -61t-91 -79.5l-99 -713h-262z" />
<glyph unicode="s" horiz-adv-x="997" d="M2 66l49 178q71 -33 172.5 -57.5t184.5 -24.5q35 0 61.5 2.5t58 12t52.5 25.5t35 46t14 71q0 26 -11.5 47t-28 35t-46.5 28.5t-54 23t-65 23t-66 24.5q-59 24 -97 44.5t-78.5 53t-60.5 78t-20 104.5q0 77 24.5 136.5t66.5 98.5t103 64.5t129 36t148 10.5q95 0 189 -18.5 t143 -44.5l-61 -178q-122 61 -301 61q-82 0 -135.5 -33t-53.5 -104q0 -21 8.5 -37.5t20 -27.5t38.5 -24t47 -20.5t62.5 -22.5t69.5 -26q62 -24 105 -48t84 -60t62 -86t21 -113q0 -362 -493 -362q-104 0 -212.5 26t-164.5 58z" />
<glyph unicode="t" horiz-adv-x="937" d="M76 926l26 182h179l90 272h202l-38 -272h331l-43 -182h-313l-78 -576q-4 -32 -4 -47q0 -55 22.5 -82.5t81.5 -27.5q96 0 216 53l30 -195q-153 -69 -334 -69q-78 0 -134.5 21t-87.5 58t-45.5 82t-14.5 99q0 55 8 104l82 580h-176z" />
<glyph unicode="u" horiz-adv-x="1251" d="M80 324q0 46 6 96l94 688h262l-92 -670q-4 -46 -4 -67q0 -93 41.5 -143t120.5 -50q77 0 155 41t134 100l108 789h262l-153 -1108h-207l-21 135l-12 2q-99 -95 -186.5 -125t-196.5 -30q-152 0 -231.5 91.5t-79.5 250.5z" />
<glyph unicode="v" horiz-adv-x="1189" d="M106 1108h267q45 -257 157 -754h13q34 65 159.5 325t204.5 429h279q-128 -256 -319.5 -621t-262.5 -487h-209q-7 28 -71 260.5t-125 466.5t-93 381z" />
<glyph unicode="w" horiz-adv-x="1751" d="M106 1108h254q47 -330 136 -789h10q7 13 67.5 124.5t120.5 225.5t99 197q-11 51 -26 66.5t-46 17.5l20 158q50 6 105 6q81 0 118.5 -30.5t55.5 -122.5q102 -525 117 -621h10q188 387 336 768h266q-174 -411 -518 -1108h-221q-78 335 -133 614h-11q-106 -203 -342 -614 h-200q-52 232 -121 576t-97 532z" />
<glyph unicode="x" horiz-adv-x="1267" d="M-31 0q288 373 457 573q-126 239 -152 283q-48 82 -118 82l22 168q54 6 105 6q85 0 124.5 -26t88.5 -115q31 -56 75.5 -146t51.5 -104h10q7 10 109 142.5t184 244.5h280q-80 -105 -238.5 -306t-170.5 -216q98 -192 182 -330q53 -77 135 -80l-24 -176q-55 -10 -113 -10 q-79 0 -122 29.5t-93 115.5q-50 88 -162 299h-10q-93 -116 -330 -434h-291z" />
<glyph unicode="y" horiz-adv-x="1273" d="M96 938l23 170q54 6 112 6q67 0 105 -17t56.5 -49t35.5 -96q24 -96 46 -201.5t54 -273t41 -211.5h9q182 358 401 842h291q-103 -220 -363.5 -713.5t-462.5 -865.5h-290q27 40 115.5 187t166.5 284h-57q-170 761 -199 862q-12 41 -28 58t-56 18z" />
<glyph unicode="z" horiz-adv-x="1142" d="M-2 0l12 100q45 55 193.5 235.5t274 331t208.5 244.5v11h-536l26 186h875l16 -98q-114 -131 -239 -279.5t-271 -324.5t-172 -207l2 -11h571l-24 -188h-936z" />
<glyph unicode="{" horiz-adv-x="976" d="M80 600l24 168q119 19 167 63.5t63 151.5l41 293q24 163 110 229t256 66h193l-29 -207h-82q-50 0 -79.5 -4.5t-57.5 -19t-43 -45.5t-22 -81l-35 -247q-15 -112 -74 -180t-168 -99l-2 -6q170 -53 170 -213q0 -31 -6 -66l-33 -247q-4 -36 -4 -47q0 -66 37.5 -85.5 t124.5 -19.5h82l-27 -207h-192q-151 0 -221 49.5t-70 169.5q0 33 6 76l41 293q4 25 4 66q0 70 -39 102.5t-135 46.5z" />
<glyph unicode="|" horiz-adv-x="768" d="M264 -307v2150h234v-2150h-234z" />
<glyph unicode="}" horiz-adv-x="976" d="M31 -203l26 207h84q50 0 80 4.5t57.5 20t42 46.5t21.5 81l35 247q15 113 74.5 180.5t169.5 98.5l2 6q-172 52 -172 217q0 27 6 62l35 247q4 36 4 48q0 65 -37.5 83.5t-124.5 18.5h-84l29 207h190q151 0 221 -49.5t70 -167.5q0 -34 -6 -78l-41 -293q-4 -23 -4 -63 q0 -71 39 -104.5t135 -47.5l-23 -168q-119 -17 -167.5 -62t-63.5 -153l-41 -293q-24 -164 -109.5 -229.5t-257.5 -65.5h-190z" />
<glyph unicode="~" d="M170 502q0 79 21 137t57.5 89.5t77.5 45.5t90 14q81 0 242 -52t223 -52q47 0 77 26.5t31 84.5h166q-1 -77 -21.5 -134t-56 -89t-76.5 -47t-88 -15q-87 0 -248 52t-219 52q-107 0 -110 -112h-166z" />
<glyph unicode="&#xa1;" horiz-adv-x="720" d="M49 -416l199 1125h211l-103 -1100zM242 1006q0 68 48.5 109.5t125.5 41.5q63 0 102 -33t39 -90q0 -74 -45.5 -118t-124.5 -44q-65 0 -105 36t-40 98z" />
<glyph unicode="&#xa2;" d="M164 602q0 118 25 230.5t78 214t128 179.5t181.5 127.5t232.5 57.5l72 266l209 -16l-68 -264q125 -25 225 -76l-76 -209q-56 31 -146 55.5t-167 24.5q-99 0 -177 -48.5t-125 -128.5t-71 -175t-24 -197q0 -157 77 -235t212 -78q76 0 173 21.5t164 49.5l11 -202 q-85 -40 -201 -66.5t-221 -26.5l-68 -264l-211 17l72 276q-145 45 -225 164t-80 303z" />
<glyph unicode="&#xa3;" d="M84 0l16 127q122 28 194.5 102t82.5 185l6 63h-213l23 150h196q2 47 2 141h-180l22 150h162q1 7 11 83q34 247 188 369.5t383 122.5q72 0 149.5 -13.5t130.5 -35.5l-69 -187q-109 37 -215 37q-260 0 -303 -295q-11 -78 -11 -81h424l-20 -150h-408l-2 -141h389l-20 -150 h-379q-2 -6 -2 -18q-10 -77 -46.5 -155.5t-92.5 -119.5h620l-24 -184h-1014z" />
<glyph unicode="&#xa4;" d="M25 279l188 163q-43 76 -43 185q0 207 123 362l-146 164l150 127l137 -158q133 86 299 86t277 -84l178 156l117 -125l-191 -164q43 -82 43 -188q0 -206 -123 -361l148 -161l-152 -127l-137 155q-130 -84 -297 -84q-170 0 -279 82l-176 -153zM360 653q0 -116 69.5 -185 t193.5 -69q148 0 246 108t98 271q0 117 -68.5 187.5t-191.5 70.5q-151 0 -249 -109.5t-98 -273.5z" />
<glyph unicode="&#xa5;" d="M135 262l21 150h327l21 141h-328l21 149h278q-103 243 -215 486q-44 96 -108 96l28 197q54 8 82 8q68 0 116.5 -33.5t90.5 -132.5q9 -18 48.5 -113t88.5 -214t64 -154h10q5 7 54.5 81t98.5 148t123.5 188t137.5 216h264q-247 -374 -537 -773h295l-20 -149h-330l-21 -141 h330l-20 -150h-330l-35 -262h-262l37 262h-330z" />
<glyph unicode="&#xa6;" horiz-adv-x="768" d="M264 -307v792h234v-792h-234zM264 1053v790h234v-790h-234z" />
<glyph unicode="&#xa7;" horiz-adv-x="1222" d="M-16 -244l69 197q69 -33 172 -56.5t183 -23.5q93 0 155 43t62 125q0 41 -30.5 77t-79.5 64.5t-108 57.5t-118.5 62t-108.5 71t-79.5 91.5t-30.5 117.5q0 78 28 140.5t78 104.5t111 69t135 42q-133 100 -133 231q0 74 29 137.5t78 108t113.5 76.5t135.5 47.5t143 15.5 q95 0 208.5 -23.5t193.5 -57.5l-70 -197q-71 32 -173.5 56t-182.5 24q-56 0 -103 -16.5t-79.5 -56.5t-32.5 -97q0 -41 30.5 -77t79.5 -64.5t107.5 -57t117.5 -61.5t108 -71t79.5 -92t30.5 -118q0 -78 -28 -140.5t-78 -104.5t-111 -69t-135 -42q133 -100 133 -230 q0 -73 -28 -136t-76.5 -108t-112.5 -77t-136 -48t-147 -16q-94 0 -207.5 24t-191.5 58zM338 614q0 -61 50.5 -107t148.5 -97q58 4 106.5 15.5t94 33.5t72 61t26.5 92q0 61 -51.5 107.5t-149.5 97.5q-58 -3 -106 -14t-93.5 -33t-71.5 -62t-26 -94z" />
<glyph unicode="&#xa8;" horiz-adv-x="952" d="M190 1452q0 64 43 102.5t113 38.5q54 0 88.5 -31t34.5 -85q0 -68 -40.5 -109t-111.5 -41q-58 0 -92.5 33.5t-34.5 91.5zM686 1452q0 64 43 102.5t111 38.5q55 0 90 -31t35 -85q0 -68 -40.5 -109t-111.5 -41q-58 0 -92.5 33.5t-34.5 91.5z" />
<glyph unicode="&#xa9;" horiz-adv-x="1773" d="M102 770q0 221 107 401.5t287.5 281.5t394.5 101q161 0 305.5 -59.5t250.5 -163t168 -250t62 -313.5t-62 -313.5t-168 -250t-250.5 -163t-305.5 -59.5q-214 0 -394.5 101t-287.5 282.5t-107 404.5zM207 768q0 -147 54 -277t146.5 -221t219 -143.5t266.5 -52.5 q142 0 268.5 53t217.5 144.5t144.5 221t53.5 275.5q0 147 -53.5 276t-144.5 220t-217.5 143.5t-268.5 52.5q-188 0 -345 -89.5t-249 -248.5t-92 -354zM461 770q0 149 64.5 255.5t169 157t237.5 50.5q71 0 146.5 -18t125.5 -48l-22 -147q-45 27 -109.5 44t-120.5 17 q-139 0 -219 -83t-80 -228q0 -147 82.5 -221t220.5 -74q62 0 132 14t112 37l14 -141q-106 -63 -278 -63q-99 0 -184 28.5t-150.5 83t-103 141t-37.5 195.5z" />
<glyph unicode="&#xaa;" horiz-adv-x="817" d="M129 1047q0 183 94.5 294t282.5 111q104 0 186 -55l49 45h56l-72 -494q-2 -8 -2 -22q0 -29 29 -29l43 2l-11 -100q-52 -29 -127 -29q-51 0 -74 23t-28 69l-6 2q-31 -29 -55 -46.5t-65 -32.5t-87 -15q-105 0 -159 75t-54 202zM297 1063q0 -164 98 -164q82 0 166 84l41 311 q-39 29 -104 29q-105 0 -153 -73t-48 -187z" />
<glyph unicode="&#xab;" horiz-adv-x="1306" d="M90 518l14 109l588 444l-33 -231l-356 -269l283 -266l-33 -233zM600 518l16 109l588 444l-33 -231l-356 -269l281 -266l-31 -233z" />
<glyph unicode="&#xac;" d="M141 754v180h1043v-572h-180v392h-863z" />
<glyph unicode="&#xad;" horiz-adv-x="831" d="M16 465l25 172l727 45l-25 -174z" />
<glyph unicode="&#xae;" horiz-adv-x="1099" d="M195 1151q0 175 118 289t301 114q182 0 301 -114t119 -289q0 -169 -120 -286t-300 -117q-181 0 -300 117t-119 286zM279 1157q0 -149 94.5 -240.5t247.5 -91.5q146 0 239.5 92t93.5 240q0 146 -94.5 233t-245.5 87q-149 0 -242 -87t-93 -233zM475 983v375h135 q66 0 108 -27t42 -86q0 -35 -18.5 -63t-49.5 -43q28 -45 62 -88q17 -17 43 -17v-51q-15 -6 -58 -6q-24 0 -50 25.5t-41.5 50t-39.5 67.5h-47v-137h-86zM561 1186h35q78 0 78 53q0 49 -72 49h-41v-102z" />
<glyph unicode="&#xaf;" horiz-adv-x="952" d="M221 1360l27 182h684l-25 -182h-686z" />
<glyph unicode="&#xb0;" horiz-adv-x="849" d="M195 1153q0 136 95.5 238t241.5 102q117 0 186.5 -68.5t69.5 -173.5q0 -140 -97 -241t-245 -101q-114 0 -182.5 69.5t-68.5 174.5zM319 1167q0 -67 40 -106t106 -39q86 0 141.5 63t55.5 152q0 68 -39 106.5t-109 38.5q-84 0 -139.5 -64t-55.5 -151z" />
<glyph unicode="&#xb1;" d="M168 94v180h989v-180h-989zM168 791v182h401v385h187v-385h401v-182h-401v-363h-187v363h-401z" />
<glyph unicode="&#xb2;" horiz-adv-x="778" d="M109 784l14 90q170 103 238 157q167 131 167 239q0 90 -96 90q-49 0 -112 -20.5t-107 -53.5l-23 121q43 31 121 56.5t156 25.5q49 0 90.5 -9t79 -29.5t59 -59.5t21.5 -93q0 -48 -18.5 -94.5t-42 -80.5t-69.5 -76t-75.5 -65t-85.5 -64v-7h264l-18 -127h-563z" />
<glyph unicode="&#xb3;" horiz-adv-x="778" d="M109 846l51 119q42 -31 99 -51.5t110 -20.5q63 0 107 26t44 78q0 32 -17 53.5t-48.5 32t-62.5 14.5t-73 5l9 76q38 8 67 16t64 22t54 35.5t19 48.5q0 66 -86 66q-52 0 -111.5 -18t-98.5 -45l-29 108q127 78 280 78q111 0 174.5 -38t63.5 -118q0 -117 -156 -170l-2 -6 q63 -16 100.5 -54t37.5 -97q0 -76 -50 -131t-125 -80t-163 -25q-72 0 -141.5 21t-116.5 55z" />
<glyph unicode="&#xb4;" horiz-adv-x="952" d="M322 1319l333 465l189 -115l-420 -403z" />
<glyph unicode="&#xb5;" horiz-adv-x="1333" d="M39 -260q0 230 63 684l97 684h262l-96 -684q-5 -45 -5 -53q0 -91 46.5 -143t128.5 -52q73 0 150 41t132 100l111 791h262l-117 -825q-2 -14 -2 -39q0 -60 45 -60q37 0 92 49l43 -112q-130 -139 -272 -139q-74 0 -119 39t-51 108l-12 4q-164 -151 -320 -151 q-117 0 -182 75q-12 -91 -12 -245q0 -110 12 -215l-246 -54q-10 102 -10 197z" />
<glyph unicode="&#xb6;" horiz-adv-x="1697" d="M125 940q0 144 55.5 259t152 187.5t221 111t267.5 38.5h891l-31 -215h-194l-230 -1628h-274l229 1630h-161l-230 -1630h-270l119 831q-269 0 -407 113t-138 303zM385 973q0 -106 77 -171t238 -65l82 586q-78 -1 -148 -22.5t-126.5 -63.5t-89.5 -110t-33 -154z" />
<glyph unicode="&#xb7;" horiz-adv-x="542" d="M109 659q0 70 48 113t122 43q61 0 99 -34t38 -93q0 -74 -44.5 -118t-121.5 -44q-64 0 -102.5 36t-38.5 97z" />
<glyph unicode="&#xb8;" horiz-adv-x="952" d="M82 -426l41 88q27 -18 70.5 -29.5t85.5 -11.5q55 0 83.5 23t28.5 63q0 70 -127 70h-78l-16 55l209 168h172l-160 -121q174 -13 174 -139q0 -103 -83.5 -160t-196.5 -57q-124 0 -203 51z" />
<glyph unicode="&#xb9;" horiz-adv-x="778" d="M139 784l19 119h180l61 432l-182 -10l14 96q120 11 299 60h64l-80 -580h172l-18 -117h-529z" />
<glyph unicode="&#xba;" horiz-adv-x="794" d="M129 1051q0 86 21.5 157t65 126.5t117 86.5t171.5 31q134 0 204 -74.5t70 -199.5q0 -190 -92.5 -299t-273.5 -109q-132 0 -207.5 72t-75.5 209zM301 1057q0 -75 33.5 -118.5t95.5 -43.5q87 0 131.5 73t44.5 195q0 74 -31 119t-90 45q-92 0 -138 -71t-46 -199z" />
<glyph unicode="&#xbb;" horiz-adv-x="1327" d="M78 72l33 233l356 266l-283 269l35 231l461 -444l-14 -109zM590 72l33 233l356 266l-283 269l33 231l463 -444l-14 -109z" />
<glyph unicode="&#xbc;" horiz-adv-x="1847" d="M139 784l19 119h180l61 432l-182 -10l14 96q120 11 299 60h64l-80 -580h172l-18 -117h-529zM383 88l1069 1405l160 -102l-1069 -1409zM1051 152l10 92l473 456l125 -10l-60 -424h82l-28 -114h-70l-22 -152h-160l22 152h-372zM1249 266h193l33 219l-7 2l-219 -213v-8z" />
<glyph unicode="&#xbd;" horiz-adv-x="1847" d="M139 784l19 119h180l61 432l-182 -10l14 96q120 11 299 60h64l-80 -580h172l-18 -117h-529zM311 88l1069 1405l160 -102l-1069 -1409zM1055 0l14 90q166 101 231 151q175 134 175 244q0 90 -97 90q-49 0 -112 -20t-107 -53l-22 121q43 32 120.5 57t155.5 25q49 0 90.5 -9 t79 -29.5t59 -59.5t21.5 -93q0 -48 -18.5 -94.5t-42.5 -81t-69.5 -76.5t-75.5 -65.5t-85 -63.5v-6h264l-18 -127h-563z" />
<glyph unicode="&#xbe;" horiz-adv-x="1847" d="M109 846l51 119q42 -31 99 -51.5t110 -20.5q63 0 107 26t44 78q0 32 -17 53.5t-48.5 32t-62.5 14.5t-73 5l9 76q38 8 67 16t64 22t54 35.5t19 48.5q0 66 -86 66q-52 0 -111.5 -18t-98.5 -45l-29 108q127 78 280 78q111 0 174.5 -38t63.5 -118q0 -117 -156 -170l-2 -6 q63 -16 100.5 -54t37.5 -97q0 -76 -50 -131t-125 -80t-163 -25q-72 0 -141.5 21t-116.5 55zM365 88l1069 1405l159 -102l-1069 -1409zM1051 152l10 92l473 456l125 -10l-60 -424h82l-28 -114h-70l-22 -152h-160l22 152h-372zM1249 266h193l33 219l-7 2l-219 -213v-8z" />
<glyph unicode="&#xbf;" horiz-adv-x="983" d="M-14 -94q0 74 26 140t68 116t92.5 95.5t101.5 87.5t93 83t68 90.5t26 102.5q0 58 -17 104h236q25 -59 25 -131q0 -63 -24.5 -119.5t-64 -99t-87 -82.5t-94.5 -77.5t-86.5 -75t-64 -84.5t-24.5 -97q0 -72 50 -110.5t132 -38.5q59 0 134.5 21t128.5 54l47 -190 q-79 -43 -180 -68.5t-197 -25.5q-185 0 -287 83t-102 222zM438 1022q0 68 48.5 110t125.5 42q63 0 102.5 -33t39.5 -92q0 -73 -45.5 -116.5t-124.5 -43.5q-66 0 -106 35.5t-40 97.5z" />
<glyph unicode="&#xc0;" horiz-adv-x="1560" d="M-43 0q151 292 426 811.5t391 724.5h232q55 -206 196 -755.5t197 -780.5h-285l-98 440h-565q-141 -288 -211 -440h-283zM551 641h420q-37 164 -129 545h-13q-53 -100 -278 -545zM588 1864l149 200l430 -272l-84 -102z" />
<glyph unicode="&#xc1;" horiz-adv-x="1560" d="M-43 0q151 292 426 811.5t391 724.5h232q55 -206 196 -755.5t197 -780.5h-285l-98 440h-565q-141 -288 -211 -440h-283zM551 641h420q-37 164 -129 545h-13q-53 -100 -278 -545zM688 1792l508 272l92 -200l-547 -174z" />
<glyph unicode="&#xc2;" horiz-adv-x="1560" d="M-43 0q151 292 426 811.5t391 724.5h232q55 -206 196 -755.5t197 -780.5h-285l-98 440h-565q-141 -288 -211 -440h-283zM475 1792l365 252h207l292 -252l-88 -102l-333 168l-386 -168zM551 641h420q-37 164 -129 545h-13q-53 -100 -278 -545z" />
<glyph unicode="&#xc3;" horiz-adv-x="1560" d="M-43 0q151 292 426 811.5t391 724.5h232q55 -206 196 -755.5t197 -780.5h-285l-98 440h-565q-141 -288 -211 -440h-283zM516 1686q19 137 84 203.5t154 66.5q52 0 167 -34t156 -34q70 0 86 90h152q-21 -134 -85.5 -202t-150.5 -68q-59 0 -174 34t-151 34q-35 0 -56.5 -20 t-31.5 -70h-150zM551 641h420q-37 164 -129 545h-13q-53 -100 -278 -545z" />
<glyph unicode="&#xc4;" horiz-adv-x="1560" d="M-43 0q151 292 426 811.5t391 724.5h232q55 -206 196 -755.5t197 -780.5h-285l-98 440h-565q-141 -288 -211 -440h-283zM530 1817q0 64 43.5 103.5t112.5 39.5q54 0 88.5 -31.5t34.5 -85.5q0 -69 -40 -109t-112 -40q-58 0 -92.5 32.5t-34.5 90.5zM551 641h420 q-37 164 -129 545h-13q-53 -100 -278 -545zM1026 1817q0 64 43 103.5t111 39.5q55 0 90 -31.5t35 -85.5q0 -69 -40 -109t-112 -40q-58 0 -92.5 32.5t-34.5 90.5z" />
<glyph unicode="&#xc5;" horiz-adv-x="1560" d="M-43 0q151 292 426 811.5t391 724.5h232q55 -206 196 -755.5t197 -780.5h-285l-98 440h-565q-141 -288 -211 -440h-283zM551 641h420q-37 164 -129 545h-13q-53 -100 -278 -545zM659 1819q0 115 88.5 205t213.5 90q102 0 165.5 -60t63.5 -156q0 -121 -90 -208.5 t-213 -87.5q-101 0 -164.5 60.5t-63.5 156.5zM780 1831q0 -55 34 -88t89 -33q66 0 116 49.5t50 124.5q0 57 -35 90t-92 33q-67 0 -114.5 -52.5t-47.5 -123.5z" />
<glyph unicode="&#xc6;" horiz-adv-x="2039" d="M-88 0q246 311 644.5 790t633.5 746h852l-31 -211h-569l-64 -453h434l-53 -192h-407l-66 -469h580l-27 -211h-856l47 338h-547q-58 -74 -155 -201t-105 -137h-311zM641 539h416l84 596l-8 4q-234 -277 -492 -600z" />
<glyph unicode="&#xc7;" horiz-adv-x="1435" d="M88 608q0 155 39.5 297t117 260t184.5 205t250 135.5t306 48.5q116 0 240 -29.5t198 -80.5l-75 -213q-75 45 -173 73.5t-188 28.5q-138 0 -252.5 -53.5t-191.5 -146t-119.5 -218t-42.5 -268.5q0 -217 129.5 -328.5t335.5 -111.5q204 0 401 90l2 -211q-196 -94 -440 -104 l-135 -103q174 -13 174 -139q0 -103 -84 -160t-197 -57q-123 0 -202 51l41 88q27 -18 70 -29.5t85 -11.5q55 0 84 23t29 63q0 70 -127 70h-78l-16 55l196 158q-119 15 -218 59t-177 118t-122 187t-44 254z" />
<glyph unicode="&#xc8;" horiz-adv-x="1103" d="M49 0l215 1536h842l-31 -211h-569l-62 -453h433l-54 -192h-407l-66 -469h582l-29 -211h-854zM403 1864l150 200l430 -272l-84 -102z" />
<glyph unicode="&#xc9;" horiz-adv-x="1103" d="M49 0l215 1536h842l-31 -211h-569l-62 -453h433l-54 -192h-407l-66 -469h582l-29 -211h-854zM406 1792l507 272l93 -200l-547 -174z" />
<glyph unicode="&#xca;" horiz-adv-x="1103" d="M49 0l215 1536h842l-31 -211h-569l-62 -453h433l-54 -192h-407l-66 -469h582l-29 -211h-854zM279 1792l364 252h207l293 -252l-88 -102l-334 168l-385 -168z" />
<glyph unicode="&#xcb;" horiz-adv-x="1103" d="M49 0l215 1536h842l-31 -211h-569l-62 -453h433l-54 -192h-407l-66 -469h582l-29 -211h-854zM324 1817q0 64 43 103.5t112 39.5q54 0 88.5 -31.5t34.5 -85.5q0 -69 -40 -109t-111 -40q-58 0 -92.5 32.5t-34.5 90.5zM819 1817q0 64 43 103.5t111 39.5q55 0 90 -31.5 t35 -85.5q0 -69 -40 -109t-112 -40q-58 0 -92.5 32.5t-34.5 90.5z" />
<glyph unicode="&#xcc;" horiz-adv-x="573" d="M49 0l215 1536h271l-216 -1536h-270zM109 1864l149 200l430 -272l-84 -102z" />
<glyph unicode="&#xcd;" horiz-adv-x="573" d="M49 0l215 1536h271l-216 -1536h-270zM182 1792l508 272l92 -200l-546 -174z" />
<glyph unicode="&#xce;" horiz-adv-x="573" d="M2 1792l365 252h206l293 -252l-88 -102l-334 168l-385 -168zM49 0l215 1536h271l-216 -1536h-270z" />
<glyph unicode="&#xcf;" horiz-adv-x="573" d="M49 0l215 1536h271l-216 -1536h-270zM51 1817q0 64 43.5 103.5t112.5 39.5q54 0 88.5 -31.5t34.5 -85.5q0 -69 -40 -109t-112 -40q-58 0 -92.5 32.5t-34.5 90.5zM547 1817q0 64 42.5 103.5t110.5 39.5q55 0 90 -31.5t35 -85.5q0 -69 -39.5 -109t-111.5 -40 q-58 0 -92.5 32.5t-34.5 90.5z" />
<glyph unicode="&#xd0;" horiz-adv-x="1640" d="M31 698l26 195h179l90 643h542q349 0 517.5 -157t168.5 -443q0 -160 -35.5 -301t-107.5 -257.5t-175.5 -200.5t-246.5 -130.5t-313 -46.5h-565l96 698h-176zM412 211h256q141 0 255 54t187 148.5t111.5 219.5t38.5 270q0 422 -449 422h-242l-61 -432h280l-26 -195h-283z " />
<glyph unicode="&#xd1;" horiz-adv-x="1648" d="M49 0l215 1536h225q132 -175 348 -492t353 -542l10 2l143 1032h269l-215 -1534l-168 -20q-138 225 -377 585t-373 549l-12 -2l-156 -1114h-262zM586 1686q19 137 83.5 203.5t153.5 66.5q52 0 167.5 -34t156.5 -34q70 0 86 90h151q-21 -134 -85 -202t-150 -68 q-59 0 -174.5 34t-151.5 34q-35 0 -56.5 -20t-31.5 -70h-149z" />
<glyph unicode="&#xd2;" horiz-adv-x="1683" d="M100 612q0 151 35 290t107 257.5t173 206.5t241.5 138t304.5 50q161 0 284 -46t200 -129.5t115.5 -196t38.5 -250.5q0 -155 -35.5 -296t-107 -260.5t-173 -207t-241 -137t-303.5 -49.5q-311 0 -475 169t-164 461zM387 621q0 -202 95.5 -316.5t281.5 -114.5 q112 0 204.5 42.5t155.5 113.5t106.5 166.5t63 200t19.5 215.5q0 202 -98.5 312t-286.5 110q-109 0 -200.5 -43.5t-153.5 -115.5t-105 -167t-62.5 -196.5t-19.5 -206.5zM709 1864l149 200l430 -272l-84 -102z" />
<glyph unicode="&#xd3;" horiz-adv-x="1683" d="M100 612q0 151 35 290t107 257.5t173 206.5t241.5 138t304.5 50q161 0 284 -46t200 -129.5t115.5 -196t38.5 -250.5q0 -155 -35.5 -296t-107 -260.5t-173 -207t-241 -137t-303.5 -49.5q-311 0 -475 169t-164 461zM387 621q0 -202 95.5 -316.5t281.5 -114.5 q112 0 204.5 42.5t155.5 113.5t106.5 166.5t63 200t19.5 215.5q0 202 -98.5 312t-286.5 110q-109 0 -200.5 -43.5t-153.5 -115.5t-105 -167t-62.5 -196.5t-19.5 -206.5zM698 1792l508 272l92 -200l-546 -174z" />
<glyph unicode="&#xd4;" horiz-adv-x="1683" d="M100 612q0 151 35 290t107 257.5t173 206.5t241.5 138t304.5 50q161 0 284 -46t200 -129.5t115.5 -196t38.5 -250.5q0 -155 -35.5 -296t-107 -260.5t-173 -207t-241 -137t-303.5 -49.5q-311 0 -475 169t-164 461zM387 621q0 -202 95.5 -316.5t281.5 -114.5 q112 0 204.5 42.5t155.5 113.5t106.5 166.5t63 200t19.5 215.5q0 202 -98.5 312t-286.5 110q-109 0 -200.5 -43.5t-153.5 -115.5t-105 -167t-62.5 -196.5t-19.5 -206.5zM561 1792l365 252h207l292 -252l-88 -102l-333 168l-386 -168z" />
<glyph unicode="&#xd5;" horiz-adv-x="1683" d="M100 612q0 151 35 290t107 257.5t173 206.5t241.5 138t304.5 50q161 0 284 -46t200 -129.5t115.5 -196t38.5 -250.5q0 -155 -35.5 -296t-107 -260.5t-173 -207t-241 -137t-303.5 -49.5q-311 0 -475 169t-164 461zM387 621q0 -202 95.5 -316.5t281.5 -114.5 q112 0 204.5 42.5t155.5 113.5t106.5 166.5t63 200t19.5 215.5q0 202 -98.5 312t-286.5 110q-109 0 -200.5 -43.5t-153.5 -115.5t-105 -167t-62.5 -196.5t-19.5 -206.5zM600 1686q19 137 84 203.5t154 66.5q52 0 167 -34t156 -34q70 0 86 90h152q-21 -134 -85.5 -202 t-150.5 -68q-59 0 -174 34t-151 34q-35 0 -56.5 -20t-31.5 -70h-150z" />
<glyph unicode="&#xd6;" horiz-adv-x="1683" d="M100 612q0 151 35 290t107 257.5t173 206.5t241.5 138t304.5 50q161 0 284 -46t200 -129.5t115.5 -196t38.5 -250.5q0 -155 -35.5 -296t-107 -260.5t-173 -207t-241 -137t-303.5 -49.5q-311 0 -475 169t-164 461zM387 621q0 -202 95.5 -316.5t281.5 -114.5 q112 0 204.5 42.5t155.5 113.5t106.5 166.5t63 200t19.5 215.5q0 202 -98.5 312t-286.5 110q-109 0 -200.5 -43.5t-153.5 -115.5t-105 -167t-62.5 -196.5t-19.5 -206.5zM606 1817q0 64 43.5 103.5t112.5 39.5q54 0 88.5 -31.5t34.5 -85.5q0 -69 -40 -109t-112 -40 q-58 0 -92.5 32.5t-34.5 90.5zM1102 1817q0 64 42.5 103.5t110.5 39.5q55 0 90 -31.5t35 -85.5q0 -69 -40 -109t-111 -40q-58 0 -92.5 32.5t-34.5 90.5z" />
<glyph unicode="&#xd7;" d="M201 307l336 334l-336 334l125 127l336 -336l335 336l127 -127l-336 -334l336 -334l-127 -127l-335 334l-336 -334z" />
<glyph unicode="&#xd8;" horiz-adv-x="1683" d="M100 612q0 151 35 290t107 257.5t173 206.5t241.5 138t304.5 50q231 0 385 -96l92 115h133l-144 -178q172 -163 172 -463q0 -155 -35.5 -296t-107 -260.5t-173 -207t-241 -137t-303.5 -49.5q-225 0 -374 90l-82 -101h-136l134 164q-181 166 -181 477zM387 621 q0 -169 64 -273l739 916q-99 86 -262 86q-109 0 -200.5 -43.5t-153.5 -115.5t-105 -167t-62.5 -196.5t-19.5 -206.5zM520 266q92 -76 244 -76q112 0 204.5 42.5t155.5 113.5t106.5 166.5t63 200t19.5 215.5q0 147 -58 254z" />
<glyph unicode="&#xd9;" horiz-adv-x="1581" d="M115 508q0 71 10 133l125 895h274l-129 -905q-6 -53 -6 -94q0 -164 92 -250t234 -86q75 0 144.5 25t130 75.5t103 135t58.5 194.5l129 905h272l-127 -913q-22 -161 -89.5 -285.5t-167.5 -201.5t-222 -115.5t-262 -38.5q-124 0 -226 31.5t-179.5 94t-120.5 165t-43 235.5z M604 1864l150 200l430 -272l-84 -102z" />
<glyph unicode="&#xda;" horiz-adv-x="1581" d="M115 508q0 71 10 133l125 895h274l-129 -905q-6 -53 -6 -94q0 -164 92 -250t234 -86q75 0 144.5 25t130 75.5t103 135t58.5 194.5l129 905h272l-127 -913q-22 -161 -89.5 -285.5t-167.5 -201.5t-222 -115.5t-262 -38.5q-124 0 -226 31.5t-179.5 94t-120.5 165t-43 235.5z M684 1792l508 272l92 -200l-547 -174z" />
<glyph unicode="&#xdb;" horiz-adv-x="1581" d="M115 508q0 71 10 133l125 895h274l-129 -905q-6 -53 -6 -94q0 -164 92 -250t234 -86q75 0 144.5 25t130 75.5t103 135t58.5 194.5l129 905h272l-127 -913q-22 -161 -89.5 -285.5t-167.5 -201.5t-222 -115.5t-262 -38.5q-124 0 -226 31.5t-179.5 94t-120.5 165t-43 235.5z M506 1792l364 252h207l293 -252l-88 -102l-334 168l-385 -168z" />
<glyph unicode="&#xdc;" horiz-adv-x="1581" d="M115 508q0 71 10 133l125 895h274l-129 -905q-6 -53 -6 -94q0 -164 92 -250t234 -86q75 0 144.5 25t130 75.5t103 135t58.5 194.5l129 905h272l-127 -913q-22 -161 -89.5 -285.5t-167.5 -201.5t-222 -115.5t-262 -38.5q-124 0 -226 31.5t-179.5 94t-120.5 165t-43 235.5z M555 1817q0 64 43.5 103.5t112.5 39.5q54 0 88.5 -31.5t34.5 -85.5q0 -69 -40 -109t-112 -40q-58 0 -92.5 32.5t-34.5 90.5zM1051 1817q0 64 42.5 103.5t110.5 39.5q55 0 90 -31.5t35 -85.5q0 -69 -39.5 -109t-111.5 -40q-58 0 -92.5 32.5t-34.5 90.5z" />
<glyph unicode="&#xdd;" horiz-adv-x="1363" d="M131 1335l27 197q44 8 104 8q86 0 141 -36t99 -130q8 -17 93 -214.5t101 -231.5h11q132 168 419 608h295q-233 -341 -624 -854l-95 -682h-268l96 684q-172 364 -270 553q-29 54 -56.5 76t-72.5 22zM588 1792l508 272l92 -200l-547 -174z" />
<glyph unicode="&#xde;" horiz-adv-x="1259" d="M49 0l215 1536h273l-39 -276h233q229 0 347 -97t118 -278q0 -119 -34 -217t-95.5 -168.5t-147.5 -119t-190 -72t-223 -23.5q-84 0 -146 4l-38 -289h-273zM391 506q60 -6 121 -6q91 0 160.5 15.5t127.5 53t89 108t31 171.5q0 106 -69.5 153.5t-201.5 47.5h-180z" />
<glyph unicode="&#xdf;" horiz-adv-x="1435" d="M66 -471l192 1397h-174l27 182h174l2 18q26 226 173.5 343.5t403.5 117.5q195 0 321 -77.5t126 -209.5q0 -66 -22.5 -120t-58 -90.5t-79 -66.5t-87 -55t-79 -49.5t-58 -55.5t-22.5 -68q0 -31 23 -57t59.5 -46.5t81 -41t89 -47.5t81 -60t59.5 -83.5t23 -113.5 q0 -76 -27.5 -137.5t-73.5 -103t-108.5 -70t-131 -41t-142.5 -12.5q-96 0 -183 22.5t-143 58.5l57 175q57 -32 138 -53t151 -21q53 0 98 13.5t79 51.5t34 97q0 36 -23.5 65t-61.5 49t-84 39t-92 42.5t-84 52.5t-61.5 74.5t-23.5 103.5q0 51 16.5 94.5t43.5 73.5t61.5 58 t71 49t71 47t61.5 51t43.5 61t16.5 78q0 59 -45.5 93t-136.5 34q-69 0 -121.5 -21t-82.5 -50t-51 -75.5t-29 -82t-15 -83.5l-217 -1550h-260z" />
<glyph unicode="&#xe0;" horiz-adv-x="1312" d="M74 446q0 142 36.5 262.5t108.5 215t190 148.5t271 54q190 0 342 -86l63 68h89l-119 -852q-4 -28 -4 -39q0 -22 10 -33.5t37 -11.5l76 4l-21 -149q-91 -45 -190 -45q-83 0 -122.5 38t-47.5 115l-9 4q-177 -157 -372 -157q-89 0 -156 38t-105.5 104t-57.5 147t-19 175z M342 467q0 -139 45 -215t131 -76q67 0 147.5 41.5t137.5 104.5l76 559q-79 55 -185 55q-76 0 -137 -27.5t-100.5 -73t-66 -107.5t-37.5 -126.5t-11 -134.5zM481 1667l219 115l205 -461l-114 -55z" />
<glyph unicode="&#xe1;" horiz-adv-x="1312" d="M74 446q0 142 36.5 262.5t108.5 215t190 148.5t271 54q190 0 342 -86l63 68h89l-119 -852q-4 -28 -4 -39q0 -22 10 -33.5t37 -11.5l76 4l-21 -149q-91 -45 -190 -45q-83 0 -122.5 38t-47.5 115l-9 4q-177 -157 -372 -157q-89 0 -156 38t-105.5 104t-57.5 147t-19 175z M342 467q0 -139 45 -215t131 -76q67 0 147.5 41.5t137.5 104.5l76 559q-79 55 -185 55q-76 0 -137 -27.5t-100.5 -73t-66 -107.5t-37.5 -126.5t-11 -134.5zM535 1319l333 465l189 -115l-420 -403z" />
<glyph unicode="&#xe2;" horiz-adv-x="1312" d="M74 446q0 142 36.5 262.5t108.5 215t190 148.5t271 54q190 0 342 -86l63 68h89l-119 -852q-4 -28 -4 -39q0 -22 10 -33.5t37 -11.5l76 4l-21 -149q-91 -45 -190 -45q-83 0 -122.5 38t-47.5 115l-9 4q-177 -157 -372 -157q-89 0 -156 38t-105.5 104t-57.5 147t-19 175z M342 467q0 -139 45 -215t131 -76q67 0 147.5 41.5t137.5 104.5l76 559q-79 55 -185 55q-76 0 -137 -27.5t-100.5 -73t-66 -107.5t-37.5 -126.5t-11 -134.5zM352 1335l330 416h215l211 -416l-133 -69l-213 293l-295 -293z" />
<glyph unicode="&#xe3;" horiz-adv-x="1312" d="M74 446q0 142 36.5 262.5t108.5 215t190 148.5t271 54q190 0 342 -86l63 68h89l-119 -852q-4 -28 -4 -39q0 -22 10 -33.5t37 -11.5l76 4l-21 -149q-91 -45 -190 -45q-83 0 -122.5 38t-47.5 115l-9 4q-177 -157 -372 -157q-89 0 -156 38t-105.5 104t-57.5 147t-19 175z M340 1309q19 137 84.5 203.5t153.5 66.5q52 0 167 -34t158 -34q67 0 86 91h150q-21 -134 -84.5 -202.5t-149.5 -68.5q-59 0 -175 34t-152 34q-34 0 -56 -20t-33 -70h-149zM342 467q0 -139 45 -215t131 -76q67 0 147.5 41.5t137.5 104.5l76 559q-79 55 -185 55 q-76 0 -137 -27.5t-100.5 -73t-66 -107.5t-37.5 -126.5t-11 -134.5z" />
<glyph unicode="&#xe4;" horiz-adv-x="1312" d="M74 446q0 142 36.5 262.5t108.5 215t190 148.5t271 54q190 0 342 -86l63 68h89l-119 -852q-4 -28 -4 -39q0 -22 10 -33.5t37 -11.5l76 4l-21 -149q-91 -45 -190 -45q-83 0 -122.5 38t-47.5 115l-9 4q-177 -157 -372 -157q-89 0 -156 38t-105.5 104t-57.5 147t-19 175z M342 467q0 -139 45 -215t131 -76q67 0 147.5 41.5t137.5 104.5l76 559q-79 55 -185 55q-76 0 -137 -27.5t-100.5 -73t-66 -107.5t-37.5 -126.5t-11 -134.5zM350 1452q0 64 43 102.5t113 38.5q54 0 88.5 -31t34.5 -85q0 -68 -40.5 -109t-111.5 -41q-58 0 -92.5 33.5 t-34.5 91.5zM846 1452q0 64 42.5 102.5t110.5 38.5q55 0 90 -31t35 -85q0 -68 -40 -109t-111 -41q-58 0 -92.5 33.5t-34.5 91.5z" />
<glyph unicode="&#xe5;" horiz-adv-x="1312" d="M74 446q0 142 36.5 262.5t108.5 215t190 148.5t271 54q190 0 342 -86l63 68h89l-119 -852q-4 -28 -4 -39q0 -22 10 -33.5t37 -11.5l76 4l-21 -149q-91 -45 -190 -45q-83 0 -122.5 38t-47.5 115l-9 4q-177 -157 -372 -157q-89 0 -156 38t-105.5 104t-57.5 147t-19 175z M342 467q0 -139 45 -215t131 -76q67 0 147.5 41.5t137.5 104.5l76 559q-79 55 -185 55q-76 0 -137 -27.5t-100.5 -73t-66 -107.5t-37.5 -126.5t-11 -134.5zM473 1491q0 117 88 207t213 90q102 0 166 -60.5t64 -156.5q0 -120 -90.5 -208.5t-213.5 -88.5q-101 0 -164 60.5 t-63 156.5zM596 1505q0 -55 33.5 -88t87.5 -33q66 0 116 50t50 125q0 56 -34.5 89t-90.5 33q-68 0 -115 -52t-47 -124z" />
<glyph unicode="&#xe6;" horiz-adv-x="1845" d="M25 252q0 126 80.5 205.5t218.5 113.5q79 19 238 55t208 48q14 77 14 114q0 73 -40 109.5t-140 36.5q-168 0 -368 -96l-56 168q106 59 230 89.5t235 30.5q245 0 322 -149q149 149 389 149q202 0 302.5 -94.5t100.5 -273.5q0 -101 -22 -197h-723q-10 -65 -10 -108 q0 -277 278 -277q154 0 348 76l19 -186q-80 -37 -193.5 -60.5t-218.5 -23.5q-294 0 -412 200q-229 -200 -481 -200q-142 0 -230.5 72t-88.5 198zM297 293q0 -66 39.5 -100.5t105.5 -34.5q64 0 147.5 41t133.5 106l29 232q-123 -22 -312 -76q-63 -17 -103 -59t-40 -109z M1040 692h478q1 10 3.5 33.5t2.5 34.5q0 102 -47.5 147t-137.5 45q-104 0 -184.5 -65.5t-114.5 -194.5z" />
<glyph unicode="&#xe7;" horiz-adv-x="1081" d="M74 449q0 102 19.5 196.5t65.5 183t114.5 154t174 104.5t236.5 39q188 0 336 -71l-64 -199q-54 27 -128 45.5t-136 18.5q-78 0 -140.5 -28.5t-100.5 -73.5t-63.5 -106t-35.5 -120t-10 -121q0 -129 62 -206t188 -77q72 0 163 20t156 52l19 -194q-122 -59 -303 -78 l-142 -109q174 -13 174 -139q0 -103 -83.5 -160t-196.5 -57q-124 0 -203 51l41 88q27 -18 70.5 -29.5t85.5 -11.5q55 0 83.5 23t28.5 63q0 70 -127 70h-77l-17 55l191 154q-182 19 -281.5 138.5t-99.5 324.5z" />
<glyph unicode="&#xe8;" horiz-adv-x="1181" d="M74 451q0 145 40 267.5t115.5 213.5t194.5 142.5t268 51.5q202 0 303 -94.5t101 -273.5q0 -96 -23 -197h-723q-10 -65 -10 -108q0 -277 278 -277q158 0 349 76l18 -186q-80 -37 -193.5 -60.5t-218.5 -23.5q-103 0 -190.5 26t-158 80t-110.5 147t-40 216zM377 692h477 q6 40 6 68q0 102 -47 147t-137 45q-103 0 -183.5 -65.5t-115.5 -194.5zM414 1667l219 115l205 -461l-115 -55z" />
<glyph unicode="&#xe9;" horiz-adv-x="1181" d="M74 451q0 145 40 267.5t115.5 213.5t194.5 142.5t268 51.5q202 0 303 -94.5t101 -273.5q0 -96 -23 -197h-723q-10 -65 -10 -108q0 -277 278 -277q158 0 349 76l18 -186q-80 -37 -193.5 -60.5t-218.5 -23.5q-103 0 -190.5 26t-158 80t-110.5 147t-40 216zM377 692h477 q6 40 6 68q0 102 -47 147t-137 45q-103 0 -183.5 -65.5t-115.5 -194.5zM473 1319l334 465l188 -115l-420 -403z" />
<glyph unicode="&#xea;" horiz-adv-x="1181" d="M74 451q0 145 40 267.5t115.5 213.5t194.5 142.5t268 51.5q202 0 303 -94.5t101 -273.5q0 -96 -23 -197h-723q-10 -65 -10 -108q0 -277 278 -277q158 0 349 76l18 -186q-80 -37 -193.5 -60.5t-218.5 -23.5q-103 0 -190.5 26t-158 80t-110.5 147t-40 216zM330 1335 l329 416h215l211 -416l-133 -69l-213 293l-295 -293zM377 692h477q6 40 6 68q0 102 -47 147t-137 45q-103 0 -183.5 -65.5t-115.5 -194.5z" />
<glyph unicode="&#xeb;" horiz-adv-x="1181" d="M74 451q0 145 40 267.5t115.5 213.5t194.5 142.5t268 51.5q202 0 303 -94.5t101 -273.5q0 -96 -23 -197h-723q-10 -65 -10 -108q0 -277 278 -277q158 0 349 76l18 -186q-80 -37 -193.5 -60.5t-218.5 -23.5q-103 0 -190.5 26t-158 80t-110.5 147t-40 216zM322 1452 q0 64 43 102.5t112 38.5q54 0 88.5 -31t34.5 -85q0 -68 -40 -109t-111 -41q-58 0 -92.5 33.5t-34.5 91.5zM377 692h477q6 40 6 68q0 102 -47 147t-137 45q-103 0 -183.5 -65.5t-115.5 -194.5zM817 1452q0 64 43 102.5t111 38.5q55 0 90 -31t35 -85q0 -68 -40.5 -109 t-111.5 -41q-58 0 -92.5 33.5t-34.5 91.5z" />
<glyph unicode="&#xec;" horiz-adv-x="542" d="M45 0l154 1108h260l-154 -1108h-260zM61 1667l220 115l204 -461l-114 -55z" />
<glyph unicode="&#xed;" horiz-adv-x="542" d="M45 0l154 1108h260l-154 -1108h-260zM203 1319l334 465l188 -115l-420 -403z" />
<glyph unicode="&#xee;" horiz-adv-x="542" d="M-18 1335l329 416h215l211 -416l-133 -69l-213 293l-295 -293zM45 0l154 1108h260l-154 -1108h-260z" />
<glyph unicode="&#xef;" horiz-adv-x="542" d="M-20 1452q0 64 43 102.5t112 38.5q54 0 88.5 -31t34.5 -85q0 -68 -40.5 -109t-111.5 -41q-57 0 -91.5 33.5t-34.5 91.5zM45 0l154 1108h260l-154 -1108h-260zM475 1452q0 64 43 102.5t111 38.5q55 0 90 -31t35 -85q0 -68 -40.5 -109t-111.5 -41q-58 0 -92.5 33.5 t-34.5 91.5z" />
<glyph unicode="&#xf0;" horiz-adv-x="1224" d="M72 379q0 255 159 406t420 151q104 0 191 -35l8 4q-31 157 -115 266l-295 -110l23 149l155 60q-107 86 -241 133l94 184q232 -63 395 -223l291 111l-22 -154l-179 -68q160 -227 160 -516q0 -145 -38.5 -277.5t-113 -240.5t-197.5 -172.5t-278 -64.5q-81 0 -154 24 t-132.5 71t-95 125t-35.5 177zM319 401q0 -108 55.5 -169.5t157.5 -61.5q74 0 133.5 37t95.5 94t60.5 132.5t34 146.5t10.5 141q-97 43 -209 43q-154 0 -246 -100t-92 -263z" />
<glyph unicode="&#xf1;" horiz-adv-x="1251" d="M45 0l154 1108h219l10 -145l12 -2q176 165 381 165q151 0 229 -84t78 -237q0 -49 -6 -105l-98 -700h-262l92 668q6 40 6 69q0 95 -39.5 138t-118.5 43q-87 0 -160.5 -42t-127.5 -110l-107 -766h-262zM293 1309q19 137 84 203.5t153 66.5q52 0 168 -34t158 -34q67 0 86 91 h150q-21 -134 -84.5 -202.5t-149.5 -68.5q-59 0 -175.5 34t-152.5 34q-34 0 -55.5 -20t-32.5 -70h-149z" />
<glyph unicode="&#xf2;" horiz-adv-x="1247" d="M74 444q0 115 17.5 211.5t62 185.5t113.5 150.5t177.5 98t249.5 36.5q148 0 251 -62.5t150.5 -166t47.5 -238.5q0 -114 -19 -211t-63.5 -184.5t-112.5 -148.5t-173 -97t-238 -36q-219 0 -341 117t-122 345zM342 469q0 -143 57.5 -220t167.5 -77q84 0 145.5 36.5t96 102.5 t50 146t15.5 178q0 142 -55 220.5t-166 78.5q-83 0 -144 -36t-97 -100.5t-53 -146.5t-17 -182zM424 1667l219 115l205 -461l-115 -55z" />
<glyph unicode="&#xf3;" horiz-adv-x="1247" d="M74 444q0 115 17.5 211.5t62 185.5t113.5 150.5t177.5 98t249.5 36.5q148 0 251 -62.5t150.5 -166t47.5 -238.5q0 -114 -19 -211t-63.5 -184.5t-112.5 -148.5t-173 -97t-238 -36q-219 0 -341 117t-122 345zM342 469q0 -143 57.5 -220t167.5 -77q84 0 145.5 36.5t96 102.5 t50 146t15.5 178q0 142 -55 220.5t-166 78.5q-83 0 -144 -36t-97 -100.5t-53 -146.5t-17 -182zM469 1319l334 465l188 -115l-420 -403z" />
<glyph unicode="&#xf4;" horiz-adv-x="1247" d="M74 444q0 115 17.5 211.5t62 185.5t113.5 150.5t177.5 98t249.5 36.5q148 0 251 -62.5t150.5 -166t47.5 -238.5q0 -114 -19 -211t-63.5 -184.5t-112.5 -148.5t-173 -97t-238 -36q-219 0 -341 117t-122 345zM303 1335l330 416h215l211 -416l-133 -69l-213 293l-295 -293z M342 469q0 -143 57.5 -220t167.5 -77q84 0 145.5 36.5t96 102.5t50 146t15.5 178q0 142 -55 220.5t-166 78.5q-83 0 -144 -36t-97 -100.5t-53 -146.5t-17 -182z" />
<glyph unicode="&#xf5;" horiz-adv-x="1247" d="M74 444q0 115 17.5 211.5t62 185.5t113.5 150.5t177.5 98t249.5 36.5q148 0 251 -62.5t150.5 -166t47.5 -238.5q0 -114 -19 -211t-63.5 -184.5t-112.5 -148.5t-173 -97t-238 -36q-219 0 -341 117t-122 345zM281 1309q19 137 84 203.5t153 66.5q52 0 168 -34t158 -34 q67 0 86 91h149q-21 -134 -84 -202.5t-149 -68.5q-59 0 -175.5 34t-152.5 34q-34 0 -55.5 -20t-32.5 -70h-149zM342 469q0 -143 57.5 -220t167.5 -77q84 0 145.5 36.5t96 102.5t50 146t15.5 178q0 142 -55 220.5t-166 78.5q-83 0 -144 -36t-97 -100.5t-53 -146.5t-17 -182z " />
<glyph unicode="&#xf6;" horiz-adv-x="1247" d="M74 444q0 115 17.5 211.5t62 185.5t113.5 150.5t177.5 98t249.5 36.5q148 0 251 -62.5t150.5 -166t47.5 -238.5q0 -114 -19 -211t-63.5 -184.5t-112.5 -148.5t-173 -97t-238 -36q-219 0 -341 117t-122 345zM301 1452q0 64 43 102.5t113 38.5q54 0 88.5 -31t34.5 -85 q0 -68 -40.5 -109t-111.5 -41q-58 0 -92.5 33.5t-34.5 91.5zM342 469q0 -143 57.5 -220t167.5 -77q84 0 145.5 36.5t96 102.5t50 146t15.5 178q0 142 -55 220.5t-166 78.5q-83 0 -144 -36t-97 -100.5t-53 -146.5t-17 -182zM797 1452q0 64 42.5 102.5t110.5 38.5q55 0 90 -31 t35 -85q0 -68 -40 -109t-111 -41q-58 0 -92.5 33.5t-34.5 91.5z" />
<glyph unicode="&#xf7;" d="M141 549v180h1043v-180h-1043zM541 279q0 51 34 83.5t87 32.5q54 0 88 -32.5t34 -83.5q0 -52 -34 -83.5t-88 -31.5q-53 0 -87 31.5t-34 83.5zM541 997q0 54 33.5 85.5t87.5 31.5q55 0 88.5 -32t33.5 -85q0 -51 -34 -82.5t-88 -31.5t-87.5 31.5t-33.5 82.5z" />
<glyph unicode="&#xf8;" horiz-adv-x="1247" d="M70 -49l120 153q-116 116 -116 340q0 115 17.5 211.5t62 185.5t113.5 150.5t177.5 98t249.5 36.5q150 0 254 -63l68 86h129l-119 -150q117 -126 117 -340q0 -114 -19 -211t-63.5 -184.5t-112.5 -148.5t-173 -97t-238 -36q-160 0 -267 61l-71 -92h-129zM342 469 q0 -88 20 -147l439 555q-57 57 -148 57q-83 0 -144 -36t-97 -100.5t-53 -146.5t-17 -182zM418 227q55 -55 149 -55q84 0 145.5 36.5t96 102.5t50 146t15.5 178q0 86 -20 145z" />
<glyph unicode="&#xf9;" horiz-adv-x="1251" d="M80 324q0 46 6 96l94 688h262l-92 -670q-4 -46 -4 -67q0 -93 41.5 -143t120.5 -50q77 0 155 41t134 100l108 789h262l-153 -1108h-207l-21 135l-12 2q-99 -95 -186.5 -125t-196.5 -30q-152 0 -231.5 91.5t-79.5 250.5zM424 1667l219 115l205 -461l-115 -55z" />
<glyph unicode="&#xfa;" horiz-adv-x="1251" d="M80 324q0 46 6 96l94 688h262l-92 -670q-4 -46 -4 -67q0 -93 41.5 -143t120.5 -50q77 0 155 41t134 100l108 789h262l-153 -1108h-207l-21 135l-12 2q-99 -95 -186.5 -125t-196.5 -30q-152 0 -231.5 91.5t-79.5 250.5zM535 1319l333 465l189 -115l-420 -403z" />
<glyph unicode="&#xfb;" horiz-adv-x="1251" d="M80 324q0 46 6 96l94 688h262l-92 -670q-4 -46 -4 -67q0 -93 41.5 -143t120.5 -50q77 0 155 41t134 100l108 789h262l-153 -1108h-207l-21 135l-12 2q-99 -95 -186.5 -125t-196.5 -30q-152 0 -231.5 91.5t-79.5 250.5zM326 1335l329 416h215l211 -416l-133 -69l-213 293 l-295 -293z" />
<glyph unicode="&#xfc;" horiz-adv-x="1251" d="M80 324q0 46 6 96l94 688h262l-92 -670q-4 -46 -4 -67q0 -93 41.5 -143t120.5 -50q77 0 155 41t134 100l108 789h262l-153 -1108h-207l-21 135l-12 2q-99 -95 -186.5 -125t-196.5 -30q-152 0 -231.5 91.5t-79.5 250.5zM326 1452q0 64 43 102.5t112 38.5q54 0 88.5 -31 t34.5 -85q0 -68 -40 -109t-111 -41q-58 0 -92.5 33.5t-34.5 91.5zM821 1452q0 64 43 102.5t111 38.5q55 0 90 -31t35 -85q0 -68 -40.5 -109t-111.5 -41q-58 0 -92.5 33.5t-34.5 91.5z" />
<glyph unicode="&#xfd;" horiz-adv-x="1273" d="M96 938l23 170q54 6 112 6q67 0 105 -17t56.5 -49t35.5 -96q24 -96 46 -201.5t54 -273t41 -211.5h9q182 358 401 842h291q-103 -220 -363.5 -713.5t-462.5 -865.5h-290q27 40 115.5 187t166.5 284h-57q-170 761 -199 862q-12 41 -28 58t-56 18zM557 1319l334 465 l188 -115l-420 -403z" />
<glyph unicode="&#xfe;" horiz-adv-x="1253" d="M-23 -471l287 2048h260l-59 -447l-29 -161l10 -2q81 75 161.5 117t191.5 42q117 0 196.5 -61t114.5 -159.5t35 -227.5q0 -153 -36.5 -279t-108 -220t-185.5 -145.5t-262 -51.5q-160 0 -248 51l-69 -504h-259zM338 225q29 -23 82.5 -38t114.5 -15q87 0 154.5 37.5t109 104 t62 151.5t20.5 186q0 81 -17.5 142t-60.5 100t-109 39t-140.5 -39t-137.5 -107z" />
<glyph unicode="&#xff;" horiz-adv-x="1273" d="M96 938l23 170q54 6 112 6q67 0 105 -17t56.5 -49t35.5 -96q24 -96 46 -201.5t54 -273t41 -211.5h9q182 358 401 842h291q-103 -220 -363.5 -713.5t-462.5 -865.5h-290q27 40 115.5 187t166.5 284h-57q-170 761 -199 862q-12 41 -28 58t-56 18zM356 1452q0 64 43 102.5 t113 38.5q54 0 88.5 -31t34.5 -85q0 -68 -40.5 -109t-111.5 -41q-58 0 -92.5 33.5t-34.5 91.5zM852 1452q0 64 43 102.5t111 38.5q55 0 89.5 -31t34.5 -85q0 -68 -40 -109t-111 -41q-58 0 -92.5 33.5t-34.5 91.5z" />
<glyph unicode="&#x152;" horiz-adv-x="1970" d="M100 602q0 153 36 292.5t108.5 256.5t175 203t242.5 134t303 48h1005l-28 -211h-570l-63 -453h434l-53 -192h-408l-68 -469h582l-29 -211h-1028q-313 0 -476 159.5t-163 442.5zM387 623q0 -196 100 -305t291 -109h164l158 1120h-162q-107 0 -198 -40.5t-155 -109 t-109.5 -159.5t-67 -191.5t-21.5 -205.5z" />
<glyph unicode="&#x153;" horiz-adv-x="1966" d="M74 444q0 115 17.5 211.5t62 185.5t113.5 150.5t177.5 98t249.5 36.5q245 0 350 -198q153 198 433 198q202 0 302.5 -94.5t100.5 -273.5q0 -101 -22 -197h-723q-11 -64 -11 -108q0 -277 279 -277q154 0 348 76l18 -186q-81 -37 -194 -60.5t-217 -23.5q-275 0 -393 186 q-142 -186 -428 -186q-219 0 -341 117t-122 345zM342 469q0 -143 57.5 -220t167.5 -77q84 0 145.5 36.5t96 102.5t50 146t15.5 178q0 142 -55 220.5t-166 78.5q-83 0 -144 -36t-97 -100.5t-53 -146.5t-17 -182zM1161 692h477q1 11 4 34t3 34q0 102 -47.5 147t-137.5 45 q-104 0 -184.5 -65.5t-114.5 -194.5z" />
<glyph unicode="&#x178;" horiz-adv-x="1363" d="M131 1335l27 197q44 8 104 8q86 0 141 -36t99 -130q8 -17 93 -214.5t101 -231.5h11q132 168 419 608h295q-233 -341 -624 -854l-95 -682h-268l96 684q-172 364 -270 553q-29 54 -56.5 76t-72.5 22zM440 1817q0 64 43.5 103.5t112.5 39.5q54 0 88.5 -31.5t34.5 -85.5 q0 -69 -40 -109t-112 -40q-58 0 -92.5 32.5t-34.5 90.5zM936 1817q0 64 43 103.5t111 39.5q55 0 89.5 -31.5t34.5 -85.5q0 -69 -40 -109t-111 -40q-58 0 -92.5 32.5t-34.5 90.5z" />
<glyph unicode="&#x2c6;" horiz-adv-x="952" d="M182 1335l330 416h215l211 -416l-133 -69l-213 293l-295 -293z" />
<glyph unicode="&#x2dc;" horiz-adv-x="952" d="M178 1309q19 137 84.5 203.5t153.5 66.5q51 0 166.5 -34t158.5 -34q67 0 86 91h150q-21 -134 -84.5 -202.5t-149.5 -68.5q-59 0 -175 34t-152 34q-34 0 -55.5 -20t-32.5 -70h-150z" />
<glyph unicode="&#x2000;" horiz-adv-x="1057" />
<glyph unicode="&#x2001;" horiz-adv-x="2114" />
<glyph unicode="&#x2002;" horiz-adv-x="1057" />
<glyph unicode="&#x2003;" horiz-adv-x="2114" />
<glyph unicode="&#x2004;" horiz-adv-x="704" />
<glyph unicode="&#x2005;" horiz-adv-x="528" />
<glyph unicode="&#x2006;" horiz-adv-x="352" />
<glyph unicode="&#x2007;" horiz-adv-x="352" />
<glyph unicode="&#x2008;" horiz-adv-x="264" />
<glyph unicode="&#x2009;" horiz-adv-x="422" />
<glyph unicode="&#x200a;" horiz-adv-x="117" />
<glyph unicode="&#x2010;" horiz-adv-x="831" d="M16 465l25 172l727 45l-25 -174z" />
<glyph unicode="&#x2011;" horiz-adv-x="831" d="M16 465l25 172l727 45l-25 -174z" />
<glyph unicode="&#x2012;" horiz-adv-x="831" d="M16 465l25 172l727 45l-25 -174z" />
<glyph unicode="&#x2013;" horiz-adv-x="1323" d="M18 489l25 175h1217l-25 -175h-1217z" />
<glyph unicode="&#x2014;" horiz-adv-x="1896" d="M18 489l25 175h1790l-25 -175h-1790z" />
<glyph unicode="&#x2018;" horiz-adv-x="501" d="M158 1233q0 167 219 336l141 -33q-64 -64 -102.5 -125t-38.5 -131q0 -86 72 -170l-220 -43q-71 71 -71 166z" />
<glyph unicode="&#x2019;" horiz-adv-x="501" d="M145 1090q41 41 67.5 73t50.5 83t24 100q0 83 -72 167l219 43q72 -72 72 -165q0 -166 -221 -334z" />
<glyph unicode="&#x201a;" horiz-adv-x="501" d="M-47 -203q64 64 102.5 125t38.5 131q0 87 -71 170l219 43q71 -71 71 -166q0 -168 -221 -336z" />
<glyph unicode="&#x201c;" horiz-adv-x="892" d="M158 1233q0 167 219 336l141 -33q-64 -64 -102.5 -125t-38.5 -131q0 -86 72 -170l-220 -43q-71 71 -71 166zM549 1231q0 165 219 323l139 -30q-139 -128 -139 -248q0 -82 72 -166l-219 -41q-72 72 -72 162z" />
<glyph unicode="&#x201d;" horiz-adv-x="892" d="M147 1102q140 125 140 246q0 81 -72 165l219 41q72 -69 72 -161q0 -166 -219 -324zM537 1090q141 135 141 256q0 83 -72 167l219 43q72 -72 72 -165q0 -171 -221 -334z" />
<glyph unicode="&#x201e;" horiz-adv-x="892" d="M-45 -190q141 130 141 247q0 81 -73 166l219 41q73 -73 73 -162q0 -162 -219 -323zM346 -203q64 64 102.5 125t38.5 131q0 85 -73 170l219 43q74 -74 74 -166q0 -168 -222 -336z" />
<glyph unicode="&#x2022;" horiz-adv-x="960" d="M190 651q0 130 89 216.5t227 86.5q112 0 180 -65t68 -172q0 -136 -87.5 -221.5t-224.5 -85.5q-112 0 -182 64.5t-70 176.5z" />
<glyph unicode="&#x2026;" horiz-adv-x="1533" d="M31 109q0 70 48 115.5t124 45.5q61 0 98 -34.5t37 -92.5q0 -71 -46.5 -116t-121.5 -45q-61 0 -100 34t-39 93zM526 109q0 69 49 115t125 46q59 0 97.5 -34.5t38.5 -92.5q0 -71 -47 -116t-123 -45q-60 0 -100 34.5t-40 92.5zM1024 109q0 70 48 115.5t124 45.5 q61 0 98 -34.5t37 -92.5q0 -71 -46.5 -116t-121.5 -45q-61 0 -100 34t-39 93z" />
<glyph unicode="&#x202f;" horiz-adv-x="422" />
<glyph unicode="&#x2039;" horiz-adv-x="796" d="M90 518l14 109l588 444l-33 -231l-356 -269l283 -266l-33 -233z" />
<glyph unicode="&#x203a;" horiz-adv-x="815" d="M78 72l33 233l356 266l-283 269l35 231l461 -444l-14 -109z" />
<glyph unicode="&#x205f;" horiz-adv-x="528" />
<glyph unicode="&#x20ac;" d="M109 514l20 150h147q5 63 19 141h-145l20 149h164q81 253 253.5 396t391.5 143q175 0 334 -86l-72 -197q-127 74 -254 74q-134 0 -225 -91t-141 -239h446l-23 -149h-460q-16 -80 -19 -141h461l-20 -150h-445q9 -152 77 -234.5t198 -82.5q157 0 309 73l4 -198 q-188 -90 -377 -90q-230 0 -362 132.5t-138 399.5h-163z" />
<glyph unicode="&#x2122;" horiz-adv-x="1701" d="M170 1288v127h582v-127h-222v-504h-141v504h-219zM864 784l8 631h152q130 -243 205 -403h8q103 195 195 403h151l8 -631h-133l-2 408h-8q-37 -83 -80.5 -167.5t-72 -137t-33.5 -64.5q-12 -4 -66 -4q-144 296 -186 371h-9l-4 -406h-133z" />
<glyph unicode="&#x25fc;" horiz-adv-x="1116" d="M0 0v1116h1116v-1116h-1116z" />
<glyph unicode="&#xfb01;" horiz-adv-x="1253" d="M66 -471l192 1397h-174l25 182h178l10 80q12 94 46.5 165.5t81.5 115t111.5 71t129.5 37.5t141 10q192 0 326 -45l-64 -186q-93 35 -248 35q-46 0 -85.5 -9t-78.5 -29.5t-65.5 -61.5t-34.5 -99l-12 -84h626l-155 -1108h-260l127 926h-363l-194 -1397h-260z" />
<glyph unicode="&#xfb02;" horiz-adv-x="1296" d="M66 -471l192 1397h-174l25 182h176l12 80q14 95 49.5 166t82.5 115t112.5 71t132 37t147.5 10q103 0 230.5 -16t214.5 -41l-213 -1530h-262l190 1374q-83 19 -168 19q-44 0 -82 -9t-75.5 -29.5t-63.5 -61.5t-35 -99l-12 -86h268l-45 -182h-248l-196 -1397h-258z" />
</font>
</defs>
</svg>
