<?xml version="1.0" standalone="no"?>
<!DOCTYPE svg PUBLIC "-//W3C//DTD SVG 1.1//EN" "http://www.w3.org/Graphics/SVG/1.1/DTD/svg11.dtd" >
<svg xmlns="http://www.w3.org/2000/svg">
<metadata></metadata>
<defs>
<font id="soberana_textoregular" horiz-adv-x="1187" >
<font-face units-per-em="2048" ascent="1536" descent="-512" />
<missing-glyph horiz-adv-x="532" />
<glyph horiz-adv-x="0" />
<glyph horiz-adv-x="682" />
<glyph unicode=" "  horiz-adv-x="532" />
<glyph unicode="&#x09;" horiz-adv-x="532" />
<glyph unicode="&#xa0;" horiz-adv-x="532" />
<glyph unicode="!" horiz-adv-x="587" d="M164 94q0 48 32.5 88.5t94.5 40.5q56 0 94.5 -33.5t38.5 -85.5q0 -58 -38 -96.5t-97 -38.5q-61 0 -93 38.5t-32 86.5zM168 1434l238 28q10 -39 10 -108q0 -74 -15 -213l-79 -746h-48q-13 132 -30 332.5t-34 366t-42 340.5z" />
<glyph unicode="&#x22;" horiz-adv-x="827" d="M117 1442l207 20q8 -28 8 -55q0 -46 -17 -133l-63 -342h-53zM485 1442l207 20q8 -28 8 -55q0 -51 -16 -133l-63 -342h-54z" />
<glyph unicode="#" d="M70 416v106l270 -2l31 230h-262v106l276 -2l45 360h115l-47 -360h243l45 360h115l-47 -360l264 2v-106l-276 2l-31 -232l268 2v-106l-280 2l-45 -361h-115l45 361h-242l-45 -361h-114l45 361zM455 520h241l31 232h-242z" />
<glyph unicode="$" d="M164 344h55q26 -121 82.5 -189.5t149.5 -93.5l77 592l-49 33q-71 44 -115.5 78t-85.5 79.5t-60 98t-19 117.5q0 162 116 257t299 95h15l37 277q10 2 26 2q47 0 74 -15l-37 -272q27 -3 114.5 -20t145.5 -17q0 -208 -24 -324h-54q-29 231 -192 277l-70 -520l96 -64 q162 -107 221.5 -189.5t59.5 -201.5q0 -111 -63 -197.5t-168 -132t-232 -45.5h-24l-33 -245q-25 -5 -31 -5q-48 0 -67 15l32 246q-34 5 -87 15t-93 16t-74 7q-22 102 -22 326zM365 1114q0 -45 11 -79t39 -64.5t57 -52.5t85 -58l61 471q-108 0 -180.5 -58.5t-72.5 -158.5z M549 49h22q53 0 102.5 14.5t91 42.5t66.5 74.5t25 104.5q0 51 -13 91.5t-41.5 75t-62.5 61.5t-88 62l-30 19z" />
<glyph unicode="%" horiz-adv-x="1755" d="M102 1051q0 163 100.5 261.5t250.5 98.5q151 0 245.5 -97t94.5 -253q0 -163 -99 -261t-248 -98q-153 0 -248.5 96t-95.5 253zM281 1061q0 -128 44.5 -212.5t129.5 -84.5q78 0 118.5 80.5t40.5 208.5q0 125 -44.5 211t-127.5 86q-79 0 -120 -79t-41 -210zM340 39l971 1372 q23 -4 57.5 -28.5t46.5 -41.5l-971 -1372q-23 4 -57.5 28.5t-46.5 41.5zM963 319q0 163 98.5 261t247.5 98q153 0 248.5 -95.5t95.5 -252.5q0 -163 -100 -262t-250 -99q-151 0 -245.5 97t-94.5 253zM1141 328q0 -125 44.5 -211t127.5 -86q79 0 120.5 78.5t41.5 209.5 q0 128 -45 212.5t-130 84.5q-78 0 -118.5 -80t-40.5 -208z" />
<glyph unicode="&#x26;" horiz-adv-x="1708" d="M131 365q0 144 85 250t241 173q-138 175 -138 326q0 164 121.5 256t309.5 92q94 0 192.5 -22.5t161.5 -22.5q0 -203 -27 -323h-53q-16 143 -84 213.5t-207 70.5q-113 0 -179.5 -57.5t-66.5 -155.5q0 -72 51.5 -169.5t125 -188t166.5 -185.5t165 -158.5t131 -111.5 q85 103 120.5 168t35.5 117q0 47 -34.5 73.5t-127.5 37.5v59h506v-59l-39 -7q-41 -8 -69 -22.5t-60.5 -51t-58 -73t-85 -120t-118.5 -161.5q128 -96 200 -146t123 -74.5t74 -28t68 -3.5v-63q-79 -6 -132.5 -11t-68.5 -6.5l-25 -2.5t-22 -1q-35 0 -100.5 34t-116.5 69 t-127 90q-192 -201 -471 -201q-209 0 -338 109.5t-129 286.5zM317 395q0 -147 95 -234t241 -87q208 0 353 145q-241 197 -510 510q-98 -70 -138.5 -152t-40.5 -182z" />
<glyph unicode="'" horiz-adv-x="458" d="M117 1442l207 20q8 -28 8 -55q0 -46 -17 -133l-63 -342h-53z" />
<glyph unicode="(" horiz-adv-x="860" d="M154 684q0 163 47 308.5t128 255.5t181.5 192.5t216.5 136.5v-64q-377 -263 -377 -829q0 -284 99.5 -494.5t277.5 -334.5v-64q-94 44 -174.5 99t-155.5 134.5t-127.5 173.5t-84 219t-31.5 267z" />
<glyph unicode=")" horiz-adv-x="860" d="M133 -145q178 124 277.5 334.5t99.5 494.5q0 566 -377 829v64q116 -54 216.5 -136.5t182 -192.5t128.5 -255.5t47 -308.5q0 -142 -31.5 -267t-84 -219t-128 -173.5t-156 -134.5t-174.5 -99v64z" />
<glyph unicode="*" horiz-adv-x="901" d="M113 1004l305 104l-305 104q16 77 80 138l241 -213l-63 315q38 10 80 10q41 0 79 -10l-63 -315l242 213q63 -60 79 -138l-305 -104l305 -104q-16 -78 -79 -138l-242 213l63 -315q-38 -10 -79 -10q-42 0 -80 10l63 315l-241 -213q-64 61 -80 138z" />
<glyph unicode="+" d="M109 545v131l423 -4l-6 440h136l-7 -440l424 4v-131l-424 4l7 -438h-136l6 438z" />
<glyph unicode="," horiz-adv-x="593" d="M106 -289q115 20 167.5 62.5t52.5 109.5q0 37 -28.5 71t-63 56t-63 48t-28.5 48q0 52 36.5 100t76.5 48q78 0 142.5 -69t64.5 -181q0 -143 -96 -237t-261 -101v45z" />
<glyph unicode="-" horiz-adv-x="819" d="M61 506v133l697 51v-133z" />
<glyph unicode="." horiz-adv-x="593" d="M164 100q0 59 38 96t93 37q63 0 99 -37t36 -96q0 -57 -39 -94t-96 -37q-61 0 -96 37t-35 94z" />
<glyph unicode="/" horiz-adv-x="1126" d="M86 -29l832 1647q25 0 67.5 -20t54.5 -37l-833 -1643q-26 0 -67.5 18t-53.5 35z" />
<glyph unicode="0" d="M113 662q0 189 40 335.5t109 235t156.5 133.5t189.5 45q98 0 182 -44t148 -128t100.5 -218t36.5 -304q0 -152 -26.5 -277t-73 -211.5t-110 -145.5t-136.5 -86.5t-154 -27.5q-97 0 -180 43.5t-146.5 127.5t-99.5 218t-36 304zM307 719q0 -181 25.5 -313.5t70.5 -206 t99 -107t119 -33.5q38 0 74 19.5t70.5 64.5t59.5 112.5t40.5 171t15.5 232.5q0 174 -25 305t-68.5 207t-97.5 113t-117 37q-124 0 -195 -158.5t-71 -443.5z" />
<glyph unicode="1" d="M246 1241v51l428 101l33 -19v-989q0 -109 3 -166t14 -95t28.5 -49t50.5 -12l160 -4v-59h-693v59l162 4q23 1 37.5 5.5t25.5 19t17 34.5t10 59.5t5 84.5t1 119v702q0 84 -21.5 119t-92.5 35h-168z" />
<glyph unicode="2" d="M82 0v47q92 78 161.5 140.5t146 137t131.5 138t107 136t84 139t51 139t19 143.5q0 148 -77 225.5t-193 77.5q-136 0 -194 -73t-76 -246h-56q-28 138 -28 325q7 2 90.5 29.5t148.5 40t138 12.5q202 0 327 -92.5t125 -259.5q0 -85 -23.5 -166.5t-69.5 -154.5t-97 -135.5 t-122.5 -128t-128.5 -113.5t-132.5 -109.5t-118.5 -99.5v-9h240q74 0 121.5 1t94.5 5t75 10t55 18t42 26t30.5 38.5t25 51t20.5 65.5h52q-16 -217 -50 -358h-919z" />
<glyph unicode="3" d="M137 39q0 75 4.5 195t10.5 157h53q31 -183 101 -258.5t212 -75.5q87 0 160 32.5t120.5 102t47.5 164.5q0 162 -113 253.5t-309 109.5v47q181 35 275 119.5t94 214.5q0 107 -69 165t-187 58q-85 0 -135.5 -25.5t-83.5 -98t-44 -204.5h-57q-13 57 -22 161t-9 185 q22 5 102 27t143 32.5t136 10.5q211 0 319.5 -75t108.5 -208q0 -65 -21.5 -116.5t-64 -91t-92 -67.5t-119.5 -56v-9q68 -12 129 -41t112.5 -74.5t81.5 -113.5t30 -149q0 -126 -79.5 -228.5t-210.5 -157.5t-284 -55q-90 0 -184 20.5t-156 49.5z" />
<glyph unicode="4" d="M82 492q94 110 244.5 296.5t304 379t174.5 218.5l57 -6v-878h74q53 0 78 25t57 104h43q-13 -172 -43 -260h-209v-11q0 -184 18.5 -238.5t84.5 -58.5l84 -4v-59h-586v59l121 4q45 2 65.5 25t28.5 82.5t8 189.5v11h-584q-20 48 -20 121zM213 502h473v594h-14 q-62 -75 -238 -300t-221 -280v-14z" />
<glyph unicode="5" d="M131 39q0 69 5 191t9 161h56q24 -177 93 -254.5t210 -77.5q149 0 238 83t89 231q0 163 -153 250.5t-457 87.5l58 669h716q0 -219 -28 -350h-64q0 105 -30 155t-103 50h-414l-32 -358q177 -1 313.5 -37.5t221 -100t127 -147t42.5 -184.5q0 -127 -75 -228t-201.5 -156 t-278.5 -55q-91 0 -185.5 20.5t-156.5 49.5z" />
<glyph unicode="6" d="M145 496q0 315 191.5 555.5t513.5 359.5l24 -45q-466 -236 -526 -678q160 105 324 105q181 0 283 -95.5t102 -267.5q0 -193 -129 -327t-326 -134q-215 0 -336 143t-121 384zM336 532q0 -233 76.5 -353t214.5 -120q44 0 84.5 18t76.5 55t58 104.5t22 156.5 q0 135 -73.5 211t-198.5 76q-68 0 -136.5 -25.5t-121.5 -66.5q-2 -16 -2 -56z" />
<glyph unicode="7" d="M150 985q8 145 47 395h847l29 -28q-268 -590 -573 -1381q-87 16 -170 74l608 1174l-10 14h-418q-148 0 -207 -49.5t-90 -198.5h-63z" />
<glyph unicode="8" d="M135 301q0 64 19.5 120t49.5 96.5t76.5 78t90.5 63t102 52.5q-63 33 -108 64.5t-86.5 75.5t-62.5 101t-21 127q0 133 119 232.5t313 99.5q166 0 269 -81t103 -210q0 -52 -15.5 -98t-39.5 -80.5t-62.5 -67t-76 -55.5t-88.5 -49q60 -29 102.5 -53.5t90 -62t76.5 -77t48 -95 t19 -120.5q0 -159 -136.5 -276t-349.5 -117q-197 0 -314.5 89.5t-117.5 242.5zM319 317q0 -122 75.5 -190t195.5 -68q126 0 200 67t74 187q0 38 -9.5 73.5t-24.5 63t-40.5 55t-49.5 47.5t-61 43.5t-65.5 39t-70.5 37.5q-105 -67 -164.5 -150.5t-59.5 -204.5zM381 1104 q0 -41 15.5 -78.5t38 -66t60 -58.5t70.5 -50.5t80 -47.5q91 58 138.5 126t47.5 169q0 105 -65 164t-166 59q-94 0 -156.5 -58.5t-62.5 -158.5z" />
<glyph unicode="9" d="M137 971q0 185 129.5 312.5t325.5 127.5q217 0 337 -141t120 -381q0 -342 -197 -582t-547 -336l-22 49q115 48 204 105.5t167 137t127 188t65 241.5q-160 -106 -334 -106q-180 0 -277.5 101t-97.5 284zM326 1001q0 -143 71.5 -226t194.5 -83q68 0 139.5 26.5t124.5 69.5 q2 20 2 60q0 237 -76 357t-215 120q-44 0 -84 -16t-76.5 -51.5t-58.5 -101.5t-22 -155z" />
<glyph unicode=":" horiz-adv-x="593" d="M164 100q0 59 38 96t93 37q63 0 99 -37t36 -96q0 -57 -39 -94t-96 -37q-61 0 -96 37t-35 94zM164 850q0 59 38 96t93 37q63 0 99 -37t36 -96q0 -57 -39 -94t-96 -37q-61 0 -96 37t-35 94z" />
<glyph unicode=";" horiz-adv-x="593" d="M106 -289q115 20 167.5 62.5t52.5 109.5q0 37 -28.5 71t-63 56t-63 48t-28.5 48q0 52 36.5 100t76.5 48q78 0 142.5 -69t64.5 -181q0 -143 -96 -237t-261 -101v45zM164 850q0 59 38 96t93 37q63 0 99 -37t36 -96q0 -57 -39 -94t-96 -37q-61 0 -96 37t-35 94z" />
<glyph unicode="&#x3c;" d="M135 553v119l897 401v-141l-737 -320l737 -319v-141z" />
<glyph unicode="=" d="M117 383v125h952v-125h-952zM117 715v125h952v-125h-952z" />
<glyph unicode="&#x3e;" d="M156 152v141l737 319l-737 320v141l897 -401v-119z" />
<glyph unicode="?" horiz-adv-x="987" d="M154 1397q45 3 102.5 19.5t127 31t153.5 14.5q165 0 261.5 -88.5t96.5 -218.5q0 -90 -37.5 -161.5t-109.5 -143.5l-132 -131q-76 -76 -107.5 -123.5t-31.5 -95.5q0 -68 27 -103h-49q-51 40 -78 91t-27 100q0 37 18 74t37 60.5t62 70.5l127 137q64 69 93.5 124.5 t29.5 123.5q0 84 -57.5 142t-157.5 58q-247 0 -273 -331h-43q-14 55 -23 160.5t-9 189.5zM340 94q0 48 32.5 88.5t94.5 40.5q56 0 94.5 -33.5t38.5 -85.5q0 -58 -38 -96.5t-97 -38.5q-61 0 -93 38.5t-32 86.5z" />
<glyph unicode="@" horiz-adv-x="1738" d="M133 354q0 153 44 284.5t120.5 226.5t178.5 162.5t218.5 100.5t239.5 33q199 0 352 -68.5t241.5 -203.5t88.5 -318q0 -230 -130.5 -380t-324.5 -150q-107 0 -157 54t-50 149h-12q-46 -100 -114 -151.5t-130 -51.5q-92 0 -144 78.5t-52 199.5q0 78 11.5 146.5t39 132 t69 108.5t106 72t146.5 27q100 0 164 -55l105 55h39l-62 -469q-8 -54 -8 -92q0 -60 27 -88.5t84 -28.5q108 0 177.5 120t69.5 308q0 253 -151 385.5t-404 132.5q-127 0 -239.5 -44t-201.5 -128t-141 -220t-52 -308q0 -151 46 -272t127 -199t190 -119t237 -41 q133 0 265.5 42.5t239.5 125.5l41 -53q-246 -189 -575 -189q-208 0 -369.5 79t-255.5 236t-94 371zM680 311q0 -71 20.5 -112t57.5 -41q51 0 104.5 58t87.5 149l41 297q-7 32 -37 61t-71 29q-52 0 -93 -45.5t-64 -115.5t-34.5 -142.5t-11.5 -137.5z" />
<glyph unicode="A" horiz-adv-x="1513" d="M20 0v59q47 7 68 11t48 13t41 22.5t29.5 36t29.5 57.5l518 1243q27 10 41 10q17 -43 151.5 -396t241 -621t133.5 -310q25 -39 58.5 -50.5t93.5 -15.5v-59h-551v59l61 2q67 3 94 15.5t27 40.5q0 55 -53 192l-80 207q-274 0 -492 -4l-63 -162q-72 -181 -72 -233 q0 -31 25 -40t133 -18v-59h-482zM506 582l440 -2q-30 82 -67 179.5t-80 210.5t-62 165h-12q-50 -121 -219 -553z" />
<glyph unicode="B" horiz-adv-x="1222" d="M92 0v59l80 4q28 2 43.5 8.5t30 24t20.5 53.5t9.5 92t3.5 144v662q0 139 -8.5 203t-29 89.5t-65.5 28.5l-84 6v58q150 6 500 6q221 0 330.5 -87.5t109.5 -232.5q0 -121 -74.5 -208.5t-189.5 -125.5v-10q158 -25 260 -116.5t102 -235.5q0 -197 -145.5 -309.5 t-402.5 -112.5h-490zM459 385q0 -61 0.5 -98.5t3.5 -74t6 -56t12 -37.5t17.5 -25t26 -12.5t34 -6.5t45.5 -1q160 0 249 80.5t89 242.5q0 143 -83.5 234.5t-248.5 91.5h-151v-338zM459 799l141 4q117 3 183.5 83.5t66.5 211.5q0 121 -64.5 189.5t-183.5 68.5q-70 0 -143 -15 v-542z" />
<glyph unicode="C" horiz-adv-x="1536" d="M102 700q0 357 216 559.5t587 202.5q95 0 267 -27.5t208 -27.5q13 -94 13 -139q0 -65 -10.5 -172t-18.5 -140h-55q-3 424 -432 424q-289 0 -436.5 -170t-147.5 -473q0 -167 46.5 -297.5t128.5 -211.5t188.5 -123t230.5 -42q357 0 436 334h51q0 -64 -17.5 -162.5 t-43.5 -160.5q-182 -103 -469 -103q-151 0 -283 45.5t-235.5 133t-163.5 229t-60 321.5z" />
<glyph unicode="D" horiz-adv-x="1654" d="M92 0v59l82 4q29 2 45 8.5t29.5 23.5t19 54t8.5 91.5t3 144.5v662q0 147 -10 214t-29.5 86t-63.5 21l-84 4v60q369 6 678 6q169 0 310 -43.5t247 -127.5t165.5 -217.5t59.5 -304.5q0 -158 -57.5 -293t-168 -236t-284.5 -158.5t-393 -57.5h-557zM459 285q0 -68 6.5 -104 t31 -62.5t68 -34.5t121.5 -8q104 0 199.5 21.5t183.5 70.5t152 122t102.5 182.5t38.5 244.5q0 167 -50.5 292.5t-141 200t-205.5 110.5t-254 36q-137 0 -252 -23v-1048z" />
<glyph unicode="E" horiz-adv-x="1171" d="M92 0v59l84 4q44 3 64.5 27.5t29.5 90t9 204.5v664q0 141 -8.5 205t-28.5 87.5t-66 26.5l-84 6v60h922q6 -44 6 -88q0 -105 -29 -246h-49q-8 109 -33.5 164t-71 74.5t-132.5 19.5q-141 0 -246 -15v-575h188q85 0 123.5 9.5t57.5 35.5t32 86h47l-16 -395h-49l-13 67 q-10 51 -26.5 74.5t-57 35t-120.5 11.5h-166v-303q0 -78 1.5 -126t9 -85.5t16 -55t28.5 -29t40 -13.5t58 -2h140q62 0 104 13.5t74 47.5t53 79t47 122h49q-6 -184 -61 -340h-926z" />
<glyph unicode="F" horiz-adv-x="1114" d="M92 0v59l84 4q46 3 66.5 28t28.5 88.5t8 205.5v662q0 142 -8.5 206.5t-28.5 88t-66 26.5l-84 6v60h922q6 -44 6 -88q0 -105 -33 -248h-45q-6 82 -19.5 132t-42.5 78.5t-67 38t-102 9.5q-144 0 -252 -15v-596h192q67 0 101.5 3.5t60 18t36.5 38t21 69.5h37l-16 -393h-39 l-12 68q-10 50 -27.5 73.5t-59 34.5t-124.5 11h-170v-281q0 -141 8.5 -207t30 -91t67.5 -26l117 -4v-59h-590z" />
<glyph unicode="G" horiz-adv-x="1669" d="M102 700q0 356 218.5 559t590.5 203q95 0 271 -27.5t213 -27.5q10 -72 10 -139q0 -65 -8.5 -150t-16.5 -117h-55q-10 186 -129 283.5t-313 97.5q-288 0 -439 -172t-151 -473q0 -165 48 -295.5t131.5 -212t190 -124t228.5 -42.5q177 0 248 60t71 215q0 118 -8 173.5 t-28.5 78t-65.5 24.5l-107 7v59h576v-59l-84 -7q-42 -3 -61.5 -22t-28 -68t-8.5 -151q0 -187 8 -273q-107 -64 -256 -96.5t-297 -32.5q-151 0 -284 45.5t-237.5 133t-165.5 229.5t-61 321z" />
<glyph unicode="H" horiz-adv-x="1748" d="M92 0v59l84 4q23 2 38 7t27.5 20.5t19 37.5t11 62.5t6 90t1.5 125.5v620q0 151 -8.5 219.5t-28.5 94t-66 28.5l-84 6v60h553v-60l-84 -6q-28 -2 -44.5 -10.5t-29 -27.5t-18 -60t-8 -96t-2.5 -148v-225l831 -2v227q0 153 -7.5 220.5t-27.5 93t-65 28.5l-84 6v60h551v-60 l-84 -6q-28 -2 -44.5 -10.5t-28.5 -27t-17.5 -60t-7.5 -96t-2 -148.5v-620q0 -93 2 -147t7.5 -96t17.5 -61t28.5 -28t44.5 -11l84 -4v-59h-551v59l84 4q28 2 44.5 11t28.5 28t17.5 61t7.5 96t2 147v307q-424 0 -831 -13v-294q0 -151 7.5 -218.5t28 -94.5t66.5 -30l84 -4v-59 h-553z" />
<glyph unicode="I" horiz-adv-x="737" d="M92 0v59l84 7q28 2 44.5 10.5t29.5 27.5t18.5 60t8 96t2.5 146v620q0 151 -8.5 219t-28.5 92.5t-66 28.5l-84 8v60h553v-60l-84 -8q-47 -4 -66.5 -29t-27.5 -91.5t-8 -219.5v-620q0 -151 7.5 -218t28 -93t66.5 -29l84 -7v-59h-553z" />
<glyph unicode="J" horiz-adv-x="886" d="M66 313h51q22 -118 67.5 -196t118.5 -78q160 0 160 309v699q0 87 -2.5 139.5t-8 90.5t-18.5 55.5t-29.5 25.5t-44.5 10l-84 6v60h553v-60l-84 -6q-29 -2 -45.5 -10t-29 -25t-18 -56t-7.5 -90t-2 -140v-660q0 -188 -92 -302t-256 -114q-121 0 -209 35q-15 142 -20 307z " />
<glyph unicode="K" horiz-adv-x="1513" d="M92 0v59l84 4q28 2 44.5 10.5t29.5 27.5t18.5 59t8 94.5t2.5 144.5v648q0 142 -8.5 206.5t-28.5 88t-66 26.5l-84 6v60h553v-60l-84 -6q-28 -2 -44.5 -10t-29 -25.5t-18 -56t-8 -90t-2.5 -139.5v-254l166 -2q220 218 326 343.5t106 178.5q0 24 -19 38.5t-71 18.5l-56 4 v60h484v-58q-40 -9 -64 -16t-58 -28t-55.5 -38.5t-71.5 -68.5t-90 -95.5t-127 -141.5q-99 -110 -159 -177q194 -286 358 -490.5t234 -238.5q45 -23 92 -23v-59q-94 -16 -207 -16q-54 0 -90 24q-53 36 -227.5 272t-306.5 445l-164 -4v-326q0 -147 7.5 -212.5t28 -91.5 t66.5 -28l84 -4v-59h-553z" />
<glyph unicode="L" horiz-adv-x="1175" d="M92 0v59l84 7q45 3 65 26.5t29 88.5t9 204v662q0 142 -8.5 205.5t-28.5 86.5t-66 27l-84 8v60h553v-60l-84 -8q-47 -4 -66.5 -27.5t-27.5 -85.5t-8 -206v-660q0 -148 10 -210t34.5 -81.5t84.5 -19.5h192q47 0 83 12.5t70.5 44t62.5 89.5t51 145h53q0 -71 -16.5 -183.5 t-39.5 -183.5h-952z" />
<glyph unicode="M" horiz-adv-x="1923" d="M51 0v59l70 4q61 3 82.5 42t34.5 151q9 74 47.5 453.5t52.5 533.5q-65 111 -107 119l-79 12v60h254q54 0 214.5 -319t344.5 -800h8q93 213 249 593.5t203 525.5h336v-60l-71 -10q-50 -6 -69 -33t-19 -84q0 -65 35.5 -487.5t45.5 -503.5q5 -46 8.5 -69.5t10.5 -51.5 t16 -40.5t24.5 -21.5t37.5 -10l82 -4v-59h-514v59l57 4q63 3 77.5 23.5t14.5 83.5q0 68 -23.5 386.5t-46.5 567.5h-8q-59 -145 -145.5 -343.5t-185.5 -421t-136 -308.5l-59 -10q-81 217 -165 415t-194 435.5t-110 238.5h-8q-23 -215 -43.5 -543.5t-20.5 -414.5 q0 -68 17.5 -89t87.5 -22l55 -2v-59h-461z" />
<glyph unicode="N" horiz-adv-x="1705" d="M61 1374v60h314q29 0 57.5 -22t71.5 -69q113 -119 361.5 -419t461.5 -570l14 4l-2 674q-1 147 -10.5 216t-30.5 93t-67 27l-76 6v60h490v-60l-84 -6q-23 -2 -37.5 -6.5t-25.5 -20.5t-16.5 -34.5t-9 -62.5t-4 -88t-0.5 -126v-1038q-18 -6 -71 -6q-332 434 -987 1200 l-15 -2l4 -785q1 -90 3.5 -144.5t8.5 -94.5t18.5 -59t29 -27.5t43.5 -10.5l86 -4v-59h-502v59l84 4q27 2 43.5 10.5t28.5 26.5t17 58.5t7.5 93t3.5 143.5l4 803q0 85 -35 122.5t-124 47.5z" />
<glyph unicode="O" horiz-adv-x="1689" d="M102 705q0 173 58.5 316.5t160.5 239.5t240 148.5t297 52.5q219 0 385 -93t255 -259.5t89 -382.5q0 -227 -99 -400.5t-267.5 -264.5t-378.5 -91q-333 0 -536.5 203t-203.5 531zM293 735q0 -107 21 -204.5t67 -183.5t113 -148.5t164.5 -99t215.5 -36.5q134 0 236 51.5 t163.5 143t92.5 208t31 255.5q0 104 -20 199t-64 179t-109 145.5t-160.5 97.5t-212.5 36q-135 0 -239 -48t-169 -135t-97.5 -203t-32.5 -257z" />
<glyph unicode="P" horiz-adv-x="1177" d="M92 0v59l84 4q46 3 66.5 28t28.5 88.5t8 205.5v662q0 141 -8.5 205.5t-29 88.5t-65.5 27l-84 6v60q154 6 496 6q258 0 393 -105.5t135 -285.5q0 -102 -43 -186.5t-116.5 -139t-169 -84t-203.5 -29.5q-69 0 -125 11v-236q0 -140 8.5 -206.5t28 -90.5t61.5 -25l115 -4v-59 h-580zM459 698q41 -8 108 -8q173 0 267 92t94 248q0 155 -90 240.5t-234 85.5q-72 0 -145 -15v-643z" />
<glyph unicode="Q" horiz-adv-x="1689" d="M102 705q0 171 58.5 314.5t160.5 240t240 149.5t297 53q219 0 385 -93t255 -259.5t89 -382.5q0 -154 -47.5 -285.5t-131 -226t-197.5 -155.5t-248 -80q206 -132 307 -174t223 -42q54 0 168 19v-49q-170 -53 -332 -53q-112 0 -254.5 62t-388.5 243q-269 44 -426.5 237.5 t-157.5 481.5zM293 735q0 -107 21 -204.5t67 -183.5t113 -148.5t164.5 -99t215.5 -36.5q134 0 236 51.5t163.5 143t92.5 208t31 255.5q0 104 -20 199t-64 179t-109 145.5t-160.5 97.5t-212.5 36q-135 0 -239 -47.5t-169 -134.5t-97.5 -203t-32.5 -258z" />
<glyph unicode="R" horiz-adv-x="1406" d="M92 0v59l84 4q28 2 44.5 10.5t29.5 27.5t18.5 59t8 94.5t2.5 144.5v648q0 141 -8.5 205.5t-29 88.5t-65.5 27l-84 6v60q228 6 492 6q268 0 400 -103t132 -278q0 -242 -282 -387q173 -283 277 -420t175 -170q47 -23 100 -23v-59q-84 -14 -210 -14q-59 0 -95 24 q-71 47 -151 171t-211 374q-20 40 -42.5 54t-66.5 14h-151v-238q0 -142 8 -207t27.5 -89.5t62.5 -25.5l115 -4v-59h-580zM459 707h248q85 0 153 88.5t68 234.5q0 160 -87.5 243t-236.5 83q-72 0 -145 -15v-634z" />
<glyph unicode="S" horiz-adv-x="1067" d="M92 344h55q34 -154 117.5 -222.5t235.5 -68.5q112 0 198 65t86 179q0 99 -50 169.5t-154 137.5l-172 111q-139 87 -210 177t-71 214q0 163 117 259.5t299 96.5q92 0 203 -22.5t172 -22.5q0 -202 -25 -323h-53q-18 149 -91 216.5t-204 67.5q-107 0 -179.5 -59t-72.5 -158 q0 -48 13.5 -86.5t45 -74t67.5 -64t97 -68.5l158 -104q159 -105 219.5 -195.5t60.5 -212.5q0 -111 -62.5 -199.5t-168 -137t-231.5 -48.5q-84 0 -208 23t-169 24q-23 106 -23 326z" />
<glyph unicode="T" horiz-adv-x="1388" d="M76 1069q11 223 39 365h1161q27 -149 37 -365h-49q-31 118 -66.5 180t-79 84.5t-114.5 22.5q-135 0 -220 -15v-956q0 -85 2.5 -136.5t8 -90t18 -57t29.5 -27.5t45 -11l84 -4v-59h-553v59l84 4q28 2 45 11t29.5 27.5t18 58t7.5 89.5t2 136v956q-85 15 -219 15 q-70 0 -113 -22.5t-78 -84.5t-65 -180h-53z" />
<glyph unicode="U" horiz-adv-x="1626" d="M55 1374v60h553v-60l-82 -6q-29 -2 -45.5 -10t-29.5 -25.5t-18.5 -56t-8 -90t-2.5 -139.5v-441q0 -540 426 -540q203 0 305 133t102 385v463q0 143 -8 207t-28 87.5t-66 26.5l-80 6v60h490v-60l-88 -6q-23 -2 -38 -7t-26.5 -20.5t-17 -35.5t-9.5 -61t-5 -86.5t-1 -121.5 v-489q0 -271 -155 -423.5t-408 -152.5q-268 0 -420.5 153.5t-152.5 446.5v476q0 142 -8.5 206.5t-29 88t-67.5 26.5z" />
<glyph unicode="V" horiz-adv-x="1462" d="M20 1374v60h549v-60l-59 -4q-66 -4 -92.5 -20.5t-26.5 -51.5q0 -32 58 -190q123 -334 307 -809h12q34 88 82.5 219t85 233.5t73.5 206t42 117.5q65 184 65 225q0 38 -24.5 50t-130.5 24v60h471v-60q-99 -16 -138.5 -43t-74.5 -114l-484 -1227q-24 -8 -41 -8 q-27 67 -147.5 388.5t-226 592.5t-138.5 325q-31 52 -64 66.5t-98 19.5z" />
<glyph unicode="W" horiz-adv-x="2179" d="M20 1374v60h549v-60l-61 -4q-66 -4 -90.5 -20t-24.5 -52q0 -47 49 -190q242 -754 267 -827h10q199 478 354 895q-32 78 -37 88q-35 64 -70 84.5t-110 23.5v62h229q78 0 142 -156q94 -231 338 -961h12q291 860 291 981q0 31 -15 43.5t-75 22.5l-62 10v60h432v-60 q-77 -12 -106 -40t-60 -117l-428 -1227q-36 -8 -43 -8q-154 456 -376 1042h-11l-432 -1034q-36 -8 -43 -8q-33 81 -140.5 392t-206.5 586t-132 330q-30 50 -60 64.5t-90 19.5z" />
<glyph unicode="X" horiz-adv-x="1513" d="M39 0v59l94 11q65 6 116.5 49.5t141 175.5t266.5 434q-202 382 -311 535q-66 94 -145 102l-88 8v60h284q31 0 82.5 -47t110.5 -156l70 -128q71 -128 120 -224h8q226 358 226 424q0 14 -1.5 22t-8 17.5t-22.5 15t-42 8.5l-96 10v58h551v-58l-70 -12q-36 -6 -60 -16.5 t-61.5 -42.5t-84 -95.5t-115.5 -168.5t-168 -267q193 -364 314 -529t216 -175l90 -11v-59q-58 -5 -138.5 -16t-107.5 -11q-54 0 -90 25q-139 95 -403 618h-8q-136 -212 -200.5 -325t-64.5 -150q0 -30 16.5 -48t67.5 -23l97 -11v-59h-586z" />
<glyph unicode="Y" horiz-adv-x="1415" d="M47 1374v60h283q54 0 151 -174q131 -228 244 -492h12q236 438 236 528q0 31 -14.5 48.5t-63.5 21.5l-96 8v60h551v-60q-88 -9 -132 -26.5t-85 -63.5q-12 -13 -24 -28.5t-26.5 -38t-26.5 -43t-31.5 -56.5t-34 -63.5t-40.5 -79.5t-45.5 -90.5t-54.5 -109.5t-62 -124v-266 q0 -87 2.5 -138t8 -90t18 -57t29 -26.5t45.5 -10.5l84 -4v-59h-553v59l84 4q29 2 45.5 10.5t29 26t18 57t7.5 90t2 138.5v244q-234 478 -332 624q-51 75 -96.5 98t-132.5 23z" />
<glyph unicode="Z" horiz-adv-x="1292" d="M74 29q13 20 345 546.5t474 767.5l-6 9h-467q-53 0 -88 -11t-65.5 -42.5t-53.5 -86.5t-47 -145h-60q11 251 37 367h1000l14 -27q-73 -117 -253.5 -404t-317 -508.5t-242.5 -406.5l6 -8h531q50 0 83.5 11t65 42t57 88t50.5 148h57q-6 -215 -37 -369h-1067z" />
<glyph unicode="[" horiz-adv-x="765" d="M215 -205q14 579 14 916q0 541 -14 862h418v-51l-109 -11q-29 -3 -47 -7t-33 -15.5t-22 -25.5t-12.5 -43.5t-7.5 -62.5t-3 -89q-6 -267 -6 -557q0 -349 6 -619q3 -147 23.5 -187.5t101.5 -47.5l107 -11v-51h-416z" />
<glyph unicode="\" horiz-adv-x="1126" d="M86 1561q12 17 55 37t68 20l831 -1647q-12 -17 -53 -35t-67 -18z" />
<glyph unicode="]" horiz-adv-x="765" d="M133 1522v51h418q-14 -321 -14 -862q0 -337 14 -916h-416v51l107 11q81 7 101.5 47.5t23.5 187.5q6 270 6 619q0 290 -6 557q-1 56 -3 89t-7.5 62.5t-12.5 43.5t-22 25.5t-33 15.5t-47 7z" />
<glyph unicode="^" d="M133 487l402 795h116l402 -795h-144l-317 660l-316 -660h-143z" />
<glyph unicode="_" d="M-20 -303h1228v-133h-1228v133z" />
<glyph unicode="`" horiz-adv-x="819" d="M188 1462q0 22 45 56.5t82 48.5l4 -2q34 -65 131 -175.5t179 -185.5l-19 -45q-119 50 -270.5 152.5t-151.5 150.5z" />
<glyph unicode="a" horiz-adv-x="978" d="M82 236q0 21 3.5 35.5t18.5 38t54 46t100 43.5q138 48 383 123v125q0 102 -73.5 166t-168.5 64q-46 0 -80 -18t-34 -56q0 -28 16.5 -57.5t30.5 -43.5v-30q-79 -59 -115 -78q-24 8 -61 47.5t-37 87.5q0 52 70.5 113t164.5 101t162 40q120 0 203.5 -85.5t83.5 -213.5v-512 q0 -103 71 -109q14 -2 64 -2v-47q-105 -45 -195 -45t-100 160h-14q-189 -160 -297 -160q-60 0 -120 47t-95 109t-35 111zM240 301q10 -42 33 -88.5t58 -83.5t70 -37q51 0 128.5 36.5t111.5 68.5v268q-91 -33 -216.5 -84.5t-184.5 -79.5z" />
<glyph unicode="b" horiz-adv-x="1105" d="M20 1380v45l285 125q18 -6 27 -20v-688l10 -4q32 41 70 70.5t69 43.5t69.5 21.5t57.5 8.5t47 1q65 0 128 -27.5t118 -82.5t89 -150t34 -217q0 -105 -30 -199t-88.5 -171t-156 -122t-221.5 -45q-81 0 -158.5 27.5t-129.5 66.5l-29 -63h-41v1171q0 115 -11 149.5t-57 43.5z M332 123q33 -31 89.5 -51.5t115.5 -20.5q142 0 225.5 111.5t83.5 300.5q0 187 -69.5 296t-211.5 109q-71 0 -135.5 -35t-97.5 -79v-631z" />
<glyph unicode="c" horiz-adv-x="940" d="M82 463q0 105 29.5 197t88 165t155 115.5t220.5 42.5q90 0 168 -21.5t121 -48.5q-12 -124 -33 -198h-47q-29 90 -88.5 142t-148.5 52q-132 0 -212.5 -114t-80.5 -328q0 -116 32.5 -205t103.5 -144t173 -55q162 0 297 154l39 -27q-66 -110 -164.5 -165.5t-214.5 -55.5 q-204 0 -321 131.5t-117 362.5z" />
<glyph unicode="d" horiz-adv-x="1130" d="M82 457q0 114 31.5 209t93 166t159 111t222.5 40q41 0 94.5 -9.5t89.5 -25.5v236q0 110 -10 140.5t-57 39.5l-82 16v45l282 125q9 -2 16 -6.5t10 -7.5l3 -4v-1346q0 -65 17.5 -95t76.5 -30h41v-47q-108 -45 -184 -45q-28 0 -48 10t-30.5 23.5t-18 36t-9.5 37.5t-4 38 q-1 8 -1 11h-8q-54 -83 -133 -119.5t-164 -36.5q-74 0 -141 28.5t-123 85t-89.5 153t-33.5 221.5zM254 492q0 -406 285 -406q70 0 134.5 35.5t98.5 79.5v633q-28 28 -91 48.5t-114 20.5q-56 0 -109 -23.5t-100 -70.5t-75.5 -129t-28.5 -188z" />
<glyph unicode="e" horiz-adv-x="987" d="M82 459q0 147 51 264t158 188.5t256 71.5q95 0 166.5 -32.5t113.5 -91t63 -131.5t23 -161h-655q-4 -27 -4 -78q0 -187 81 -304t236 -117q184 0 308 149l36 -27q-21 -38 -51 -72.5t-76.5 -70t-113 -57t-144.5 -21.5q-200 0 -324 127t-124 363zM268 635l469 12 q-6 139 -57 201.5t-143 62.5q-109 0 -176 -77.5t-93 -198.5z" />
<glyph unicode="f" horiz-adv-x="702" d="M72 0v57l67 6q71 6 85 50t14 245v514h-150v80h150v78q0 59 0.5 95t3.5 87t9 82.5t17 71.5t26.5 64t39 49.5t54 39t71 22.5t90.5 9q60 0 124.5 -15.5t100.5 -35.5q-5 -74 -35 -172h-47q-71 150 -180 150q-32 0 -55 -12t-36 -30.5t-20.5 -48t-9.5 -56.5t-2 -64 q0 -134 10 -314h232l-8 -80h-224v-505q0 -74 1 -115.5t5 -80t10 -55.5t19 -31t29 -17.5t43 -4.5l88 -4v-59h-522z" />
<glyph unicode="g" horiz-adv-x="1017" d="M20 -240q0 70 42 125t118 88v15q-42 14 -70 54.5t-28 92.5q0 59 40 120t126 105v15q-72 38 -114 106.5t-42 161.5q0 149 94 244.5t265 95.5q180 0 282 -109h10q3 23 7 36.5t14.5 33t33 29.5t56.5 10q74 0 123 -22q-4 -80 -27 -154h-26q-39 51 -95 51q-26 0 -38 -10.5 t-17 -36.5q37 -60 37 -143q0 -148 -90 -245t-272 -97q-69 0 -134 18q-35 -24 -72.5 -64t-37.5 -75q0 -49 33 -68.5t96 -19.5h293q60 0 115 -14.5t101.5 -42.5t74.5 -75.5t28 -107.5q0 -156 -136 -257t-382 -101q-74 0 -142.5 13t-130 39.5t-98.5 75.5t-37 113zM168 -199 q0 -104 82 -155.5t231 -51.5q132 0 219.5 56t87.5 160q0 78 -48 117.5t-169 39.5h-333q-30 -30 -50 -76t-20 -90zM268 655q0 -138 52.5 -200t132.5 -62q82 0 132 62.5t50 193.5q0 132 -49 196t-137 64q-80 0 -130.5 -62.5t-50.5 -191.5z" />
<glyph unicode="h" horiz-adv-x="1191" d="M72 1380v45l282 125q9 -2 16 -6.5t10 -7.5l3 -4v-586l-4 -123l14 -2q75 75 162.5 118.5t165.5 43.5q119 0 203 -94.5t84 -270.5v-266q0 -73 1 -113.5t5 -77t9.5 -52t19 -28t28 -15.5t41.5 -5l43 -4v-57h-457v57l41 4q22 2 34.5 3.5t26 8t19.5 13.5t12 25t8 36.5t4 54 t2.5 71.5t0.5 95v3v3v3v219q0 50 -9.5 90t-24 65.5t-36.5 44.5t-41 28t-43 14.5t-38 6.5t-31 1q-117 0 -240 -105v-389q0 -73 1 -113.5t5 -77t9.5 -52t19 -28t28 -15.5t41.5 -5l43 -4v-57h-456v57l41 4q78 6 92 49.5t14 266.5v807q0 109 -10 139t-57 41z" />
<glyph unicode="i" horiz-adv-x="591" d="M86 819v45l283 125q17 -6 28 -20v-617q0 -72 0.5 -112.5t4.5 -77t9.5 -52t18 -28t26 -16t38.5 -5.5l47 -4v-57h-453v57l68 4q34 2 48.5 21t22.5 85t9 210v233q0 118 -10 150.5t-58 42.5zM190 1294q0 44 30.5 76.5t78.5 32.5q45 0 77 -31t32 -78q0 -43 -32.5 -75.5 t-76.5 -32.5q-48 0 -78.5 32t-30.5 76z" />
<glyph unicode="j" horiz-adv-x="550" d="M-20 -305l36 14q25 -45 58 -80t65 -35q51 0 68.5 31.5t17.5 104.5v878v6q0 115 -9.5 147t-57.5 42l-82 16v45l282 125q20 -3 29 -18v-1067q0 -55 -7.5 -106.5t-26 -103t-46.5 -89.5t-73.5 -62t-102.5 -24q-64 0 -117 20q-24 70 -34 156zM180 1307q0 44 30.5 76t78.5 32 q45 0 76.5 -30.5t31.5 -77.5q0 -43 -32 -76t-76 -33q-48 0 -78.5 32.5t-30.5 76.5z" />
<glyph unicode="k" horiz-adv-x="1118" d="M72 0v57l45 4q78 6 92 49.5t14 266.5v807q0 110 -10 140.5t-57 39.5l-82 16v45l282 125q9 -2 16 -6.5t10 -7.5l3 -4v-995h98q262 256 262 307q0 42 -61 49l-41 4v55h375v-55q-61 -5 -94 -19.5t-80 -64.5l-226 -233q93 -147 131 -205.5t91.5 -136t83.5 -109.5t57 -49 q39 -23 106 -23v-53q-8 -2 -30.5 -8.5t-35.5 -10t-33 -8t-39 -6.5t-38 -2q-51 0 -90 27q-49 33 -120 142.5t-197 334.5h-119v-121q0 -73 1 -113.5t5 -77t9.5 -52t19 -28t28 -15.5t41.5 -5l48 -4v-57h-465z" />
<glyph unicode="l" horiz-adv-x="598" d="M72 0v57l45 4q78 6 92 49.5t14 266.5v807q0 110 -10 140.5t-57 39.5l-82 16v45l282 125q9 -2 16 -6.5t10 -7.5l3 -4v-1180q0 -73 1 -113.5t5 -77t9.5 -52t19 -28t28 -15.5t41.5 -5l48 -4v-57h-465z" />
<glyph unicode="m" horiz-adv-x="1794" d="M86 819v45l272 125q23 -6 29 -20l-6 -146l14 -2q75 75 164.5 118.5t167.5 43.5q77 0 143 -41.5t103 -120.5h10q74 74 167.5 118t172.5 44q119 0 203 -94.5t84 -270.5v-276q0 -196 14 -235.5t90 -45.5l43 -4v-57h-440v57l41 4q65 6 77.5 39.5t12.5 178.5v317q0 50 -9.5 90 t-24 65.5t-36.5 44.5t-41 28t-43 14.5t-38 6.5t-31 1q-114 0 -228 -94q17 -66 17 -134v-266q0 -73 1 -113.5t5 -77t9.5 -52t19 -28t28 -15.5t41.5 -5l43 -4v-57h-456v57l40 4q22 2 34.5 3.5t26 8t19.5 13.5t12 25t8 36.5t4 54t2.5 71.5t0.5 95v3v3v3v219q0 50 -9.5 90 t-24 65.5t-36.5 44.5t-41 28t-43 14.5t-38 6.5t-31 1q-111 0 -232 -105v-389q0 -72 1 -113t5.5 -77t10 -52t19 -28t28 -15.5t41.5 -5.5l43 -4v-57h-457v57l41 4q22 2 34.5 3.5t26 8t19.5 13.5t12 25t8 36.5t4 54t2.5 71.5t0.5 95v3v3v3v233q0 118 -10 150.5t-58 42.5z" />
<glyph unicode="n" horiz-adv-x="1206" d="M86 819v45l272 125q23 -6 29 -20l-6 -146l14 -2q74 74 167.5 118t172.5 44q119 0 203 -94.5t84 -270.5v-266q0 -73 1 -113.5t5 -77t9.5 -52t19 -28t28 -15.5t41.5 -5l43 -4v-57h-456v57l41 4q29 2 44 5t29 15.5t18.5 27.5t8.5 53t4.5 79.5t1.5 118.5v17v219q0 50 -9.5 90 t-24 65.5t-36.5 44.5t-41 28t-43 14.5t-38 6.5t-31 1q-119 0 -240 -105v-389q0 -72 1 -113t5.5 -77t10 -52t19 -28t28 -15.5t41.5 -5.5l43 -4v-57h-457v57l41 4q22 2 34.5 3.5t26 8t19.5 13.5t12 25t8 36.5t4 54t2.5 71.5t0.5 95v3v3v3v233q0 118 -10 150.5t-58 42.5z" />
<glyph unicode="o" horiz-adv-x="1085" d="M82 467q0 235 134 375.5t335 140.5q202 0 327.5 -138.5t125.5 -363.5q0 -233 -133 -372.5t-332 -139.5q-204 0 -330.5 136.5t-126.5 361.5zM266 481q0 -123 30.5 -220.5t97 -159.5t161.5 -62q85 0 145 58.5t87.5 153.5t27.5 218q0 88 -17 165.5t-50 139t-88 97.5t-125 36 q-131 0 -200 -116t-69 -310z" />
<glyph unicode="p" horiz-adv-x="1126" d="M41 -393l45 4q79 6 93 49.5t14 265.5v684q0 118 -10 150.5t-58 42.5l-82 16v45l272 125q18 -3 29 -18l-6 -123l27 -10q101 147 292 147q74 0 141 -28.5t123 -84.5t89.5 -152.5t33.5 -221.5q0 -114 -31.5 -209t-92.5 -166.5t-158.5 -111.5t-222.5 -40q-41 0 -95 9.5 t-90 25.5v-104q0 -72 1 -113t5.5 -77t10 -52t19 -28t28 -15.5t41.5 -5.5l67 -4v-58h-485v58zM354 123q33 -31 89.5 -51.5t115.5 -20.5q56 0 109 23.5t100 71t75.5 129.5t28.5 188q0 405 -284 405q-71 0 -136 -35t-98 -79v-631z" />
<glyph unicode="q" horiz-adv-x="1105" d="M82 446q0 107 27 199.5t83 170t154 122.5t229 45q87 0 138 -15.5t131 -58.5l49 74h41v-1053q0 -224 14 -268.5t92 -50.5l45 -4v-58h-485v58l68 4q28 2 41.5 4.5t28 13.5t19 25t9.5 49.5t5.5 75.5t0.5 112v218l-12 4q-38 -50 -83 -82t-92 -44t-73.5 -15t-62.5 -3 q-65 0 -127.5 27.5t-117.5 82.5t-88.5 150t-33.5 217zM254 492q0 -406 285 -406q70 0 134.5 35.5t98.5 79.5v633q-28 28 -91 48.5t-114 20.5q-56 0 -109 -23.5t-100 -70.5t-75.5 -129t-28.5 -188z" />
<glyph unicode="r" horiz-adv-x="804" d="M86 819v45l274 125q25 -6 31 -22l-8 -174l12 -5q96 115 145.5 155t106.5 40q33 0 62 -17t45 -42q-19 -109 -49 -176h-50q-36 51 -96 51q-92 0 -162 -86v-361q0 -72 1 -113.5t5.5 -78t10 -52.5t19 -28t28.5 -15t41 -4l100 -4v-57h-514v57l66 4q37 2 53 26t22.5 86.5 t6.5 203.5v227q0 120 -10 154.5t-58 44.5z" />
<glyph unicode="s" horiz-adv-x="817" d="M82 262h49q27 -116 100.5 -169.5t161.5 -53.5q85 0 137 37.5t52 120.5q0 26 -7 49t-24.5 43.5t-32.5 35t-45 32t-47.5 27.5t-54.5 28q-42 21 -65 33t-60 35t-57.5 43.5t-42.5 49.5t-32 63.5t-10 74.5q0 115 83.5 193.5t240.5 78.5q52 0 104 -11.5t105 -29.5t72 -22 q-1 -51 -14 -110t-27 -85h-47q-22 98 -79.5 143t-129.5 45q-68 0 -111 -40t-43 -105q0 -30 12.5 -56.5t29.5 -45.5t48.5 -40t56 -34.5t64.5 -32.5l56 -28t51.5 -28.5t51.5 -33.5t41 -36.5t36.5 -45t20.5 -51t9 -62.5q0 -144 -101 -224.5t-247 -80.5q-71 0 -166 19t-104 20 q-15 45 -25 119.5t-10 134.5z" />
<glyph unicode="t" horiz-adv-x="704" d="M61 872v70q97 23 158.5 89t95.5 181q33 0 58 -14v-246h260l-12 -80h-248v-618q0 -94 21.5 -137t86.5 -43q28 0 65.5 15.5t67.5 39.5l29 -43q-113 -117 -244 -117q-89 0 -138.5 52.5t-49.5 146.5v704h-150z" />
<glyph unicode="u" horiz-adv-x="1146" d="M31 819v45l274 125q11 -3 18.5 -8.5t8.5 -9.5l2 -4v-594q0 -81 16.5 -136.5t48 -84t68.5 -40.5t86 -12q62 0 129.5 31.5t108.5 75.5v399q0 119 -9.5 152.5t-56.5 44.5l-68 16v43l256 127q12 -3 21.5 -9.5t13.5 -11.5l4 -5v-768q0 -81 19.5 -107.5t83.5 -26.5h32v-45 q-92 -47 -176 -47q-58 0 -81.5 39.5t-30.5 116.5h-15q-75 -74 -160 -115t-163 -41q-281 0 -281 340v330v5q0 97 -9.5 123t-57.5 36z" />
<glyph unicode="v" horiz-adv-x="1024" d="M20 895v57h185q81 0 145 -168l199 -518h16q86 201 147.5 369t61.5 211q0 39 -63 45l-47 4v57h340v-57q-67 -3 -90.5 -20.5t-47.5 -75.5l-338 -819q-18 -11 -36 -11q-22 54 -84.5 211t-97.5 245t-83.5 204t-81.5 188q-31 70 -125 78z" />
<glyph unicode="w" horiz-adv-x="1554" d="M20 895v57h183q85 0 143 -161l197 -545h12l186 469l-41 98q-18 39 -51.5 58.5t-97.5 23.5v57h201q83 0 143 -161l199 -539h10q188 504 188 588q0 44 -84 51l-51 4v57h377v-57q-65 -3 -89 -20.5t-48 -75.5l-316 -819q-9 -4 -18 -7t-14 -3l-5 -1q-229 571 -262 652 l-256 -641q-9 -4 -18 -7t-14 -3l-5 -1q-25 63 -90.5 231t-98.5 252t-78 193t-75 172q-18 38 -42.5 56t-84.5 22z" />
<glyph unicode="x" horiz-adv-x="1087" d="M41 0v59q70 5 104 15.5t68 44.5q31 31 110.5 128.5t153.5 201.5q-24 36 -81.5 123t-97 145.5t-69.5 97.5q-34 44 -64.5 59t-90.5 21v57h162q98 0 151 -75l199 -297h10q51 75 90 154.5t39 107.5q0 38 -66 47l-49 6v57h389v-57q-58 -3 -83.5 -14t-53.5 -41 q-52 -54 -233 -328l243 -371q36 -54 97 -73q42 -11 78 -11v-51q-93 -37 -166 -37q-42 0 -66.5 12t-48.5 39q-41 46 -244 369h-10q-182 -249 -182 -285q0 -20 15 -29t50 -12l54 -4v-59h-408z" />
<glyph unicode="y" horiz-adv-x="1062" d="M31 895v57h186q78 0 143 -161l220 -547h20q183 457 210 548q9 32 9 44q0 25 -16.5 38t-61.5 17l-47 4v57h359v-57q-67 -3 -90.5 -20.5t-47.5 -75.5l-423 -1004q-43 -97 -43 -127t22 -41t68 -14l63 -4v-60h-448v60l43 4q64 5 102.5 25t65.5 77l137 301q-265 644 -340 801 q-32 70 -131 78z" />
<glyph unicode="z" horiz-adv-x="983" d="M82 45q78 113 206.5 302.5t223 327.5t150.5 216h-293q-59 0 -94 -19.5t-60 -58.5q-10 -16 -19 -35t-22.5 -54t-19.5 -48h-50q10 120 37 276h717q15 -19 21 -34q-484 -691 -580 -842h352q45 0 79 16.5t57.5 49.5t38 64.5t28.5 78.5h47q-9 -157 -43 -285h-764 q-10 29 -12 45z" />
<glyph unicode="{" horiz-adv-x="819" d="M135 657v54q42 1 66 6t44.5 20t29 44t8.5 77q0 40 -1 183.5t-1 166.5q0 186 100 275.5t285 89.5v-51q-116 -15 -152.5 -56.5t-36.5 -152.5v-271q0 -41 -1.5 -68.5t-6 -66t-15 -67t-27 -59t-44 -55t-64.5 -42.5q37 -18 64.5 -42.5t44 -54.5t27 -58t15 -66t6 -65t1.5 -68 v-275q0 -111 36.5 -152.5t152.5 -56.5v-51q-185 0 -285 89.5t-100 275.5q0 23 1 166.5t1 183.5q0 48 -8.5 77t-29 44t-44.5 20t-66 6z" />
<glyph unicode="|" horiz-adv-x="737" d="M301 -307v2150h135v-2150h-135z" />
<glyph unicode="}" horiz-adv-x="819" d="M154 -154q116 15 152 56t36 153v275q0 41 1.5 68t6 65t15 66t27 58t44 54.5t64.5 42.5q-37 18 -64.5 42.5t-44 55t-27 59t-15 67t-6 66t-1.5 68.5v271q0 112 -36 153t-152 56v51q185 0 285 -89.5t100 -275.5q0 -23 -1 -166.5t-1 -183.5q0 -48 8 -77t28.5 -44t44.5 -20 t66 -6v-54q-42 -1 -66 -6t-44.5 -20t-28.5 -44t-8 -77q0 -40 1 -183.5t1 -166.5q0 -186 -100 -275.5t-285 -89.5v51z" />
<glyph unicode="~" d="M141 502v37q0 106 67 167.5t167 61.5q62 0 124.5 -21t106 -46.5t98.5 -46.5t103 -21q116 0 119 133h118v-37q0 -108 -66.5 -168.5t-166.5 -60.5q-62 0 -124.5 21t-106 46.5t-98.5 46.5t-103 21q-116 0 -119 -133h-119z" />
<glyph unicode="&#xa1;" horiz-adv-x="587" d="M164 940q0 58 38 96.5t97 38.5q61 0 93 -38.5t32 -86.5t-32.5 -88.5t-94.5 -40.5q-56 0 -94.5 33.5t-38.5 85.5zM172 -309q0 83 14 213l80 745h47q13 -129 30.5 -331.5t34.5 -367t42 -339.5l-238 -29q-10 39 -10 109z" />
<glyph unicode="&#xa2;" d="M127 670q0 141 33.5 255t88.5 188t130 124t154 71t165 21l37 275q10 2 27 2q47 0 74 -15l-37 -270q27 -4 69.5 -13t74.5 -14.5t58 -5.5q38 0 68 6q0 -215 -33 -415h-45q-14 126 -65.5 219.5t-139.5 128.5l-147 -1098q30 -6 61 -6q115 0 189 92.5t108 251.5h54 q0 -184 -60 -361q-42 -27 -133.5 -49t-161.5 -22q-46 0 -69 2l-33 -248q-20 -4 -31 -4q-49 0 -67 14l32 256q-188 53 -294.5 215.5t-106.5 399.5zM317 655q0 -166 61.5 -298.5t164.5 -192.5l143 1083q-77 0 -142 -34t-116.5 -103t-81 -185.5t-29.5 -269.5z" />
<glyph unicode="&#xa3;" d="M57 0v53q80 12 130 33.5t77 60.5t36 86t9 121q0 50 -8 140l-225 -5q0 70 4 99l209 -4q-17 125 -21 186l-194 -2q0 69 4 98l186 -4v17q0 245 117 388.5t336 143.5q76 0 175 -23t114 -24q0 -241 -37 -367h-43q-6 174 -57.5 254t-161.5 80q-54 0 -94.5 -21t-72.5 -69 t-48.5 -135t-16.5 -211v-35l428 6q0 -69 -4 -98l-424 4v-190l430 6q0 -70 -4 -99l-426 5q-1 -128 -29.5 -204.5t-83.5 -154.5h437q66 0 113 17.5t79.5 56t53 86t40.5 121.5h45q0 -79 -17.5 -219.5t-39.5 -214.5q-197 18 -428 18h-588z" />
<glyph unicode="&#xa4;" d="M45 201l178 168q-96 123 -96 307q0 181 98 305l-180 170q34 46 86 82l168 -176q129 98 295 98q169 0 295 -96l168 174q52 -36 86 -82l-178 -168q96 -130 96 -307q0 -176 -98 -305l180 -170q-34 -46 -86 -82l-170 176q-121 -98 -293 -98q-175 0 -297 96l-166 -174 q-52 36 -86 82zM276 674q0 -157 88.5 -253.5t227.5 -96.5q147 0 232 95.5t85 254.5q0 160 -87.5 257t-229.5 97q-145 0 -230.5 -96.5t-85.5 -257.5z" />
<glyph unicode="&#xa5;" d="M-12 1321v59h278q36 0 68.5 -34.5t83.5 -139.5q104 -212 205 -491h12q88 188 139 333.5t51 192.5q0 20 -3.5 32t-21.5 23t-52 15l-97 12v57h551v-57q-95 -10 -139 -26.5t-78 -65.5q-38 -55 -106 -199.5t-195 -427.5l352 4q0 -67 -4 -96l-350 2v-121l354 4q0 -67 -4 -96 l-350 2q1 -102 10 -151t29.5 -68t62.5 -21l84 -4v-59h-553v59l84 4q61 3 80.5 47.5t22.5 192.5l-346 -2q0 67 4 96l342 -4v121l-346 -2q0 67 4 96l329 -4q-122 277 -179 401t-97 191q-48 79 -92.5 102t-132.5 23z" />
<glyph unicode="&#xa6;" horiz-adv-x="737" d="M301 -307v778h135v-778h-135zM301 1065v778h135v-778h-135z" />
<glyph unicode="&#xa7;" horiz-adv-x="1118" d="M133 575q0 117 75 202t193 128q-66 54 -105.5 122.5t-39.5 137.5q0 138 99.5 217.5t254.5 79.5q88 0 188.5 -22t137.5 -23q0 -201 -27 -323h-51q-8 132 -67 208t-177 76q-98 0 -152 -41.5t-54 -113.5q0 -73 40.5 -120.5t145.5 -113.5l145 -94q146 -96 202 -167t56 -179 q0 -118 -75.5 -202.5t-194.5 -129.5q68 -54 107.5 -121.5t39.5 -136.5q0 -138 -99.5 -217.5t-254.5 -79.5q-88 0 -188 22t-137 23q0 206 26 324h51q8 -132 67 -208.5t177 -76.5q98 0 152.5 42t54.5 114q0 73 -40.5 120t-145.5 113l-146 94q-146 96 -202 167t-56 179z M293 629q0 -82 46.5 -135.5t145.5 -116.5l168 -109q185 70 185 228q0 57 -27 103.5t-63.5 76.5t-102.5 72l-168 108q-184 -68 -184 -227z" />
<glyph unicode="&#xa8;" horiz-adv-x="819" d="M78 1337q0 43 30.5 73t73.5 30q45 0 76 -27.5t31 -75.5q0 -42 -32 -72t-75 -30q-45 0 -74.5 27t-29.5 75zM530 1337q0 42 31.5 72.5t73.5 30.5q46 0 76 -27.5t30 -75.5q0 -43 -31 -72.5t-75 -29.5t-74.5 27.5t-30.5 74.5z" />
<glyph unicode="&#xa9;" horiz-adv-x="1720" d="M102 715q0 205 101 376.5t276 271t385 99.5q159 0 299 -57t240 -155.5t157.5 -237.5t57.5 -297q0 -153 -59.5 -291.5t-160.5 -238t-240.5 -158t-293.5 -58.5q-161 0 -302.5 57t-242.5 155.5t-159 237t-58 296.5zM209 719q0 -196 89.5 -349t239 -234t330.5 -81 q180 0 329 87t235 239.5t86 337.5q0 137 -52 260t-140 210.5t-207.5 139t-250.5 51.5q-185 0 -336 -86t-237 -237.5t-86 -337.5zM432 725q0 194 122.5 312t324.5 118q74 0 164.5 -16t140.5 -17q0 -169 -25 -288h-35q-8 129 -59 189t-174 60q-142 0 -218.5 -88t-76.5 -264 q0 -162 87.5 -260t219.5 -98q183 0 232 170h32q-2 -28 -14 -93.5t-23 -99.5q-104 -53 -258 -53q-87 0 -165 27.5t-140 79.5t-98.5 135t-36.5 186z" />
<glyph unicode="&#xaa;" horiz-adv-x="798" d="M92 940q0 15 3 26t13.5 29t39 35.5t73.5 32.5q170 61 277 90v74q0 70 -51.5 112.5t-114.5 42.5q-32 0 -55 -13t-23 -40q0 -20 11 -44t18 -30v-26q-29 -20 -111 -62q-18 8 -44 40t-26 73q0 44 55 88t126 69t123 25q96 0 170.5 -60.5t74.5 -148.5v-348q0 -63 51 -69 q10 -2 46 -2v-43q-94 -37 -177 -37q-41 0 -54.5 24.5t-16.5 79.5h-19q-129 -104 -207 -104q-65 0 -123.5 66t-58.5 120zM244 991q8 -47 39.5 -94t64.5 -47t79.5 25t70.5 49v172q-200 -78 -254 -105z" />
<glyph unicode="&#xab;" horiz-adv-x="1200" d="M123 571v54l487 411v-53l-258 -383l258 -387v-53zM559 571v54l488 411v-53l-259 -383l259 -387v-53z" />
<glyph unicode="&#xac;" d="M98 715v125h971v-445h-131v320h-840z" />
<glyph unicode="&#xad;" horiz-adv-x="819" d="M61 506v133l697 51v-133z" />
<glyph unicode="&#xae;" horiz-adv-x="1077" d="M123 1063q0 172 117.5 285.5t298.5 113.5q180 0 297.5 -113.5t117.5 -285.5q0 -167 -118.5 -282t-296.5 -115q-180 0 -298 114.5t-118 282.5zM197 1069q0 -151 96.5 -243.5t251.5 -92.5q149 0 243.5 93t94.5 243q0 148 -95 237t-249 89q-152 0 -247 -89t-95 -237z M340 893v25l27 2q19 2 23.5 16.5t4.5 75.5v137q0 61 -4.5 75.5t-23.5 16.5l-27 2v25q74 4 186 4q68 0 114 -27.5t46 -77.5q0 -74 -80 -106q51 -78 80 -110.5t57 -32.5h19v-25q-57 -8 -88 -8q-64 0 -144 164h-53v-37q0 -60 5 -75t24 -17l29 -2v-25h-195zM477 1081h70 q22 0 35.5 22.5t13.5 57.5q0 34 -17.5 57t-52.5 23q-33 0 -49 -8v-152z" />
<glyph unicode="&#xaf;" horiz-adv-x="819" d="M102 1260v120h615v-120h-615z" />
<glyph unicode="&#xb0;" horiz-adv-x="778" d="M106 1094q0 121 81 203.5t202 82.5q129 0 205 -81t76 -197q0 -123 -84 -205t-201 -82q-124 0 -201.5 81.5t-77.5 197.5zM213 1098q0 -85 49.5 -138t124.5 -53q79 0 128.5 53.5t49.5 133.5q0 86 -50.5 141t-129.5 55q-75 0 -123.5 -55.5t-48.5 -136.5z" />
<glyph unicode="&#xb1;" d="M145 113v123h897v-123h-897zM145 743v131l387 -4l-6 363h136l-7 -363l387 4v-131l-387 5l7 -361h-136l6 361z" />
<glyph unicode="&#xb2;" horiz-adv-x="655" d="M59 760v39q56 46 77.5 64t67.5 58.5t65 61.5t49.5 56.5t43 61.5t23 59t10.5 65q0 66 -31 100.5t-85 34.5q-61 0 -87.5 -37t-35.5 -127h-37q-17 75 -17 180q120 35 197 35q106 0 166.5 -45.5t60.5 -134.5q0 -48 -18 -93.5t-43 -78t-63.5 -66.5t-66.5 -53t-66 -43.5 t-50 -32.5v-4h98q98 0 135.5 6.5t51.5 22t28 61.5h37q-10 -124 -26 -190h-484z" />
<glyph unicode="&#xb3;" horiz-adv-x="655" d="M90 780q0 133 6 174h33q14 -81 48.5 -119t98.5 -38q67 0 106.5 37t39.5 98q0 70 -44.5 106t-129.5 47v33q74 13 113.5 46.5t39.5 97.5q0 46 -26.5 72t-77.5 26q-58 0 -88.5 -40t-34.5 -130h-37q-16 62 -16 192q9 1 43 9.5t69.5 14t71.5 5.5q232 0 232 -137 q0 -104 -162 -148v-4q188 -26 188 -172q0 -93 -87.5 -149t-215.5 -56q-44 0 -93.5 10.5t-76.5 24.5z" />
<glyph unicode="&#xb4;" horiz-adv-x="819" d="M188 1204q82 75 179 185.5t131 175.5l4 2q37 -14 82 -48.5t45 -56.5q0 -48 -151.5 -150.5t-270.5 -152.5z" />
<glyph unicode="&#xb5;" horiz-adv-x="1120" d="M133 -307q0 49 15.5 290.5t15.5 432.5v536h153v-579q0 -81 15.5 -136.5t46 -84.5t66.5 -40.5t85 -11.5q62 0 127 31t107 76v745h162v-757q0 -81 19.5 -107.5t82.5 -26.5h33v-45q-92 -47 -176 -47q-58 0 -82 39.5t-31 116.5h-14q-76 -74 -159.5 -115t-160.5 -41 q-119 0 -194 82l-13 -4q1 -83 16.5 -162t32 -126t46.5 -117q-59 -48 -166 -76q-27 50 -27 127z" />
<glyph unicode="&#xb6;" horiz-adv-x="1394" d="M96 936q0 227 150 362.5t393 135.5h659v-45l-90 -7q-30 -2 -47.5 -11t-31 -29t-19 -64.5t-8 -103t-2.5 -158.5v-1323h-103v1655h-178v-1655h-102v790q-45 -4 -117 -4q-98 0 -187.5 30t-161 86t-113.5 144.5t-42 196.5zM276 950q0 -96 29 -171.5t79 -120.5t112.5 -68 t134.5 -23h86v781h-78q-71 0 -134 -23.5t-115.5 -69.5t-83 -125t-30.5 -180z" />
<glyph unicode="&#xb7;" horiz-adv-x="593" d="M164 674q0 59 38 96t93 37q63 0 99 -37t36 -96q0 -57 -39 -94t-96 -37q-61 0 -96 37t-35 94z" />
<glyph unicode="&#xb8;" horiz-adv-x="819" d="M199 -193q42 38 133 100.5t145 92.5h144q-134 -54 -236 -139v-11h29q92 0 144 -43.5t52 -107.5q-1 -90 -72.5 -139t-172.5 -49q-81 0 -154 24v55q66 -12 106 -12q140 0 140 96q0 47 -41 78t-127 31h-76z" />
<glyph unicode="&#xb9;" horiz-adv-x="655" d="M156 1319v27l215 51l30 -13v-426q0 -78 3.5 -109t13.5 -42.5t35 -13.5l55 -5v-28h-350v28l63 5q35 1 43 27.5t8 137.5v279q0 46 -11.5 64t-49.5 18h-55z" />
<glyph unicode="&#xba;" horiz-adv-x="894" d="M102 1102q0 163 100.5 261.5t250.5 98.5q151 0 245.5 -97t94.5 -253q0 -163 -99 -260.5t-248 -97.5q-153 0 -248.5 95.5t-95.5 252.5zM281 1112q0 -128 44.5 -212.5t129.5 -84.5q78 0 118.5 80.5t40.5 208.5q0 125 -44.5 211t-127.5 86q-79 0 -120 -79t-41 -210z" />
<glyph unicode="&#xbb;" horiz-adv-x="1200" d="M154 160v53l258 387l-258 383v53l487 -411v-54zM590 160v53l258 387l-258 383v53l487 -411v-54z" />
<glyph unicode="&#xbc;" horiz-adv-x="1576" d="M154 1370v27l215 51l30 -12v-426q0 -78 3.5 -109t13.5 -43t35 -14l55 -4v-29h-350v29l63 4q35 1 43 28t8 138v278q0 46 -11.5 64t-49.5 18h-55zM285 33l975 1378q22 -1 53.5 -25t44.5 -43l-975 -1374q-20 0 -52.5 22.5t-45.5 41.5zM989 221q249 305 363 422l45 -6v-397 h24q26 0 36.5 11.5t31.5 53.5h22q-4 -94 -18 -147h-96v-15q0 -53 4 -74.5t13.5 -28t35.5 -7.5l43 -4v-29h-340v29l66 4q24 1 32.5 7t12.5 29t4 81v8h-262q-17 34 -17 63zM1079 240h189v229h-6q-60 -66 -183 -221v-8z" />
<glyph unicode="&#xbd;" horiz-adv-x="1576" d="M154 1370v27l215 51l30 -12v-426q0 -78 3.5 -109t13.5 -43t35 -14l55 -4v-29h-350v29l63 4q35 1 43 28t8 138v278q0 46 -11.5 64t-49.5 18h-55zM207 33l975 1378q22 -1 53.5 -25t44.5 -43l-975 -1374q-20 0 -52.5 22.5t-45.5 41.5zM981 0v39q56 46 77.5 64t67.5 58.5 t65 61.5t49.5 56.5t43 61.5t23 59t10.5 65q0 66 -31.5 100.5t-85.5 34.5q-61 0 -87.5 -37t-35.5 -127h-37q-16 71 -16 180q120 35 197 35q106 0 166.5 -45.5t60.5 -134.5q0 -48 -18 -93.5t-43 -78t-63.5 -66.5t-66.5 -53t-66 -43.5t-50 -32.5v-4h98q98 0 135.5 6.5t51.5 22 t28 61.5h37q-9 -118 -27 -190h-483z" />
<glyph unicode="&#xbe;" horiz-adv-x="1576" d="M90 829q0 135 6 175h33q14 -81 49 -119.5t98 -38.5q67 0 106.5 37t39.5 98q0 70 -45 106.5t-129 47.5v32q74 13 113.5 46.5t39.5 97.5q0 46 -26.5 72t-77.5 26q-58 0 -88.5 -40t-34.5 -130h-37q-16 62 -16 193q9 1 43 9t69.5 13.5t71.5 5.5q232 0 232 -137q0 -59 -44 -93 t-118 -54v-5q188 -26 188 -172q0 -93 -87 -148.5t-216 -55.5q-45 0 -94 10t-76 24zM270 33l975 1378q22 -1 53.5 -25t44.5 -43l-974 -1374q-20 0 -53 22.5t-46 41.5zM989 221q249 305 363 422l45 -6v-397h24q26 0 36.5 11.5t31.5 53.5h22q-4 -94 -18 -147h-96v-15 q0 -53 4 -74.5t13.5 -28t35.5 -7.5l43 -4v-29h-340v29l66 4q24 1 32.5 7t12.5 29t4 81v8h-262q-17 34 -17 63zM1079 240h189v229h-6q-60 -66 -183 -221v-8z" />
<glyph unicode="&#xbf;" horiz-adv-x="966" d="M92 -111q0 90 38 162t110 144l131 131q76 76 107.5 123.5t31.5 95.5q0 67 -27 102h49q51 -40 78 -90.5t27 -99.5q0 -37 -18 -74t-37 -60.5t-62 -70.5l-127 -137q-64 -69 -93.5 -124.5t-29.5 -123.5q0 -84 57.5 -142.5t157.5 -58.5q247 0 273 332h43q14 -55 23.5 -161.5 t9.5 -188.5q-45 -3 -102.5 -20t-127 -31.5t-153.5 -14.5q-165 0 -262 88.5t-97 218.5zM387 940q0 58 38 96.5t97 38.5q61 0 93 -38.5t32 -86.5t-32.5 -88.5t-94.5 -40.5q-56 0 -94.5 33.5t-38.5 85.5z" />
<glyph unicode="&#xc0;" horiz-adv-x="1513" d="M20 0v59q47 7 68 11t48 13t41 22.5t29.5 36t29.5 57.5l518 1243q27 10 41 10q17 -43 151.5 -396t241 -621t133.5 -310q25 -39 58.5 -50.5t93.5 -15.5v-59h-551v59l61 2q67 3 94 15.5t27 40.5q0 55 -53 192l-80 207q-274 0 -492 -4l-63 -162q-72 -181 -72 -233 q0 -31 25 -40t133 -18v-59h-482zM504 1724q0 22 28.5 66.5t55.5 69.5l6 -2q54 -50 182 -120t232 -114l-2 -47q-79 4 -192 24t-211.5 54.5t-98.5 68.5zM506 582l440 -2q-30 82 -67 179.5t-80 210.5t-62 165h-12q-50 -121 -219 -553z" />
<glyph unicode="&#xc1;" horiz-adv-x="1513" d="M20 0v59q47 7 68 11t48 13t41 22.5t29.5 36t29.5 57.5l518 1243q27 10 41 10q17 -43 151.5 -396t241 -621t133.5 -310q25 -39 58.5 -50.5t93.5 -15.5v-59h-551v59l61 2q67 3 94 15.5t27 40.5q0 55 -53 192l-80 207q-274 0 -492 -4l-63 -162q-72 -181 -72 -233 q0 -31 25 -40t133 -18v-59h-482zM506 582l440 -2q-30 82 -67 179.5t-80 210.5t-62 165h-12q-50 -121 -219 -553zM545 1624q104 44 231.5 114t181.5 120l7 2q27 -25 55.5 -69.5t28.5 -66.5q0 -34 -98.5 -68.5t-211.5 -54.5t-192 -24z" />
<glyph unicode="&#xc2;" horiz-adv-x="1513" d="M20 0v59q47 7 68 11t48 13t41 22.5t29.5 36t29.5 57.5l518 1243q27 10 41 10q17 -43 151.5 -396t241 -621t133.5 -310q25 -39 58.5 -50.5t93.5 -15.5v-59h-551v59l61 2q67 3 94 15.5t27 40.5q0 55 -53 192l-80 207q-274 0 -492 -4l-63 -162q-72 -181 -72 -233 q0 -31 25 -40t133 -18v-59h-482zM471 1575v55q148 111 254 244h61q106 -133 254 -244l2 -55l-286 123zM506 582l440 -2q-30 82 -67 179.5t-80 210.5t-62 165h-12q-50 -121 -219 -553z" />
<glyph unicode="&#xc3;" horiz-adv-x="1513" d="M20 0v59q47 7 68 11t48 13t41 22.5t29.5 36t29.5 57.5l518 1243q27 10 41 10q17 -43 151.5 -396t241 -621t133.5 -310q25 -39 58.5 -50.5t93.5 -15.5v-59h-551v59l61 2q67 3 94 15.5t27 40.5q0 55 -53 192l-80 207q-274 0 -492 -4l-63 -162q-72 -181 -72 -233 q0 -31 25 -40t133 -18v-59h-482zM483 1589q1 107 44 165t120 58q64 0 165.5 -33.5t139.5 -33.5t58 18.5t32 69.5h56q-1 -107 -44 -165t-120 -58q-64 0 -165.5 33.5t-139.5 33.5t-58 -18.5t-32 -69.5h-56zM506 582l440 -2q-30 82 -67 179.5t-80 210.5t-62 165h-12 q-50 -121 -219 -553z" />
<glyph unicode="&#xc4;" horiz-adv-x="1513" d="M20 0v59q47 7 68 11t48 13t41 22.5t29.5 36t29.5 57.5l518 1243q27 10 41 10q17 -43 151.5 -396t241 -621t133.5 -310q25 -39 58.5 -50.5t93.5 -15.5v-59h-551v59l61 2q67 3 94 15.5t27 40.5q0 55 -53 192l-80 207q-274 0 -492 -4l-63 -162q-72 -181 -72 -233 q0 -31 25 -40t133 -18v-59h-482zM424 1706q0 43 30.5 72.5t73.5 29.5q45 0 76 -27t31 -75q0 -42 -32 -72t-75 -30q-45 0 -74.5 27t-29.5 75zM506 582l440 -2q-30 82 -67 179.5t-80 210.5t-62 165h-12q-50 -121 -219 -553zM877 1706q0 42 31 72t73 30q46 0 76 -27t30 -75 q0 -43 -31 -72.5t-75 -29.5t-74 27.5t-30 74.5z" />
<glyph unicode="&#xc5;" horiz-adv-x="1513" d="M20 0v59q47 7 68 11t48 13t41 22.5t29.5 36t29.5 57.5l518 1243q27 10 41 10q17 -43 151.5 -396t241 -621t133.5 -310q25 -39 58.5 -50.5t93.5 -15.5v-59h-551v59l61 2q67 3 94 15.5t27 40.5q0 55 -53 192l-80 207q-274 0 -492 -4l-63 -162q-72 -181 -72 -233 q0 -31 25 -40t133 -18v-59h-482zM506 582l440 -2q-30 82 -67 179.5t-80 210.5t-62 165h-12q-50 -121 -219 -553zM535 1751q0 94 64.5 158.5t158.5 64.5t157.5 -62t63.5 -153q0 -94 -65 -158.5t-160 -64.5q-92 0 -155.5 62t-63.5 153zM637 1757q0 -59 35 -93t88 -34 q54 0 85.5 37t31.5 94t-34 90t-85 33q-56 0 -88.5 -36t-32.5 -91z" />
<glyph unicode="&#xc6;" horiz-adv-x="1863" d="M10 0v59q76 10 124.5 39.5t90.5 100.5l676 1155q-11 11 -43 14l-74 6v60h922q6 -44 6 -88q0 -105 -29 -246h-49q-5 82 -19 132t-42.5 78.5t-67 38t-102.5 9.5q-144 0 -252 -15v-575h188q86 0 124.5 9.5t57 35t31.5 86.5h47l-16 -395h-47l-14 67q-8 39 -17 59t-31.5 36 t-58.5 21t-98 5h-166v-307q0 -78 1.5 -125.5t9.5 -84.5t16 -54.5t29 -28t41 -12.5t59 -2h139q63 0 104.5 13t72.5 48t51 78.5t48 122.5h50q-9 -180 -62 -340h-926v59l80 4q28 2 43.5 8.5t30 24t20.5 53.5t9.5 92t3.5 144v127h-451q-182 -315 -182 -381q0 -36 25.5 -49.5 t109.5 -22.5v-59h-463zM561 586l410 -4v704h-8z" />
<glyph unicode="&#xc7;" horiz-adv-x="1536" d="M102 700q0 357 216 559.5t587 202.5q95 0 267 -27.5t208 -27.5q13 -94 13 -139q0 -65 -10.5 -172t-18.5 -140h-55q-3 424 -432 424q-289 0 -436.5 -170t-147.5 -473q0 -167 46.5 -297.5t128.5 -211.5t188.5 -123t230.5 -42q357 0 436 334h51q0 -64 -17.5 -162.5 t-43.5 -160.5q-166 -95 -416 -103q-98 -48 -172 -110v-11h29q92 0 144 -43.5t52 -107.5q-1 -90 -72.5 -139t-172.5 -49q-81 0 -154 24v55q66 -12 106 -12q140 0 140 96q0 47 -41 78t-127 31h-76l-14 24q64 59 233 166q-140 10 -259.5 60t-212 138t-145.5 224t-53 305z" />
<glyph unicode="&#xc8;" horiz-adv-x="1171" d="M92 0v59l84 4q44 3 64.5 27.5t29.5 90t9 204.5v664q0 141 -8.5 205t-28.5 87.5t-66 26.5l-84 6v60h922q6 -44 6 -88q0 -105 -29 -246h-49q-8 109 -33.5 164t-71 74.5t-132.5 19.5q-141 0 -246 -15v-575h188q85 0 123.5 9.5t57.5 35.5t32 86h47l-16 -395h-49l-13 67 q-10 51 -26.5 74.5t-57 35t-120.5 11.5h-166v-303q0 -78 1.5 -126t9 -85.5t16 -55t28.5 -29t40 -13.5t58 -2h140q62 0 104 13.5t74 47.5t53 79t47 122h49q-6 -184 -61 -340h-926zM334 1724q0 22 28.5 66.5t55.5 69.5l6 -2q54 -50 182 -120t232 -114l-2 -47q-79 4 -192 24 t-211.5 54.5t-98.5 68.5z" />
<glyph unicode="&#xc9;" horiz-adv-x="1171" d="M92 0v59l84 4q44 3 64.5 27.5t29.5 90t9 204.5v664q0 141 -8.5 205t-28.5 87.5t-66 26.5l-84 6v60h922q6 -44 6 -88q0 -105 -29 -246h-49q-8 109 -33.5 164t-71 74.5t-132.5 19.5q-141 0 -246 -15v-575h188q85 0 123.5 9.5t57.5 35.5t32 86h47l-16 -395h-49l-13 67 q-10 51 -26.5 74.5t-57 35t-120.5 11.5h-166v-303q0 -78 1.5 -126t9 -85.5t16 -55t28.5 -29t40 -13.5t58 -2h140q62 0 104 13.5t74 47.5t53 79t47 122h49q-6 -184 -61 -340h-926zM358 1624q104 44 232 114t182 120l6 2q27 -25 55.5 -69.5t28.5 -66.5q0 -34 -98.5 -68.5 t-211.5 -54.5t-192 -24z" />
<glyph unicode="&#xca;" horiz-adv-x="1171" d="M92 0v59l84 4q44 3 64.5 27.5t29.5 90t9 204.5v664q0 141 -8.5 205t-28.5 87.5t-66 26.5l-84 6v60h922q6 -44 6 -88q0 -105 -29 -246h-49q-8 109 -33.5 164t-71 74.5t-132.5 19.5q-141 0 -246 -15v-575h188q85 0 123.5 9.5t57.5 35.5t32 86h47l-16 -395h-49l-13 67 q-10 51 -26.5 74.5t-57 35t-120.5 11.5h-166v-303q0 -78 1.5 -126t9 -85.5t16 -55t28.5 -29t40 -13.5t58 -2h140q62 0 104 13.5t74 47.5t53 79t47 122h49q-6 -184 -61 -340h-926zM301 1575v55q148 111 254 244h61q106 -133 254 -244l2 -55l-286 123z" />
<glyph unicode="&#xcb;" horiz-adv-x="1171" d="M92 0v59l84 4q44 3 64.5 27.5t29.5 90t9 204.5v664q0 141 -8.5 205t-28.5 87.5t-66 26.5l-84 6v60h922q6 -44 6 -88q0 -105 -29 -246h-49q-8 109 -33.5 164t-71 74.5t-132.5 19.5q-141 0 -246 -15v-575h188q85 0 123.5 9.5t57.5 35.5t32 86h47l-16 -395h-49l-13 67 q-10 51 -26.5 74.5t-57 35t-120.5 11.5h-166v-303q0 -78 1.5 -126t9 -85.5t16 -55t28.5 -29t40 -13.5t58 -2h140q62 0 104 13.5t74 47.5t53 79t47 122h49q-6 -184 -61 -340h-926zM254 1706q0 43 30.5 72.5t73.5 29.5q45 0 76 -27t31 -75q0 -42 -32 -72t-75 -30 q-45 0 -74.5 27t-29.5 75zM707 1706q0 42 31 72t73 30q46 0 76.5 -27t30.5 -75q0 -43 -31.5 -72.5t-75.5 -29.5t-74 27.5t-30 74.5z" />
<glyph unicode="&#xcc;" horiz-adv-x="737" d="M92 0v59l84 7q28 2 44.5 10.5t29.5 27.5t18.5 60t8 96t2.5 146v620q0 151 -8.5 219t-28.5 92.5t-66 28.5l-84 8v60h553v-60l-84 -8q-47 -4 -66.5 -29t-27.5 -91.5t-8 -219.5v-620q0 -151 7.5 -218t28 -93t66.5 -29l84 -7v-59h-553zM117 1724q0 22 28.5 66.5t55.5 69.5 l6 -2q54 -50 182 -120t232 -114l-3 -47q-79 4 -192 24t-211 54.5t-98 68.5z" />
<glyph unicode="&#xcd;" horiz-adv-x="737" d="M92 0v59l84 7q28 2 44.5 10.5t29.5 27.5t18.5 60t8 96t2.5 146v620q0 151 -8.5 219t-28.5 92.5t-66 28.5l-84 8v60h553v-60l-84 -8q-47 -4 -66.5 -29t-27.5 -91.5t-8 -219.5v-620q0 -151 7.5 -218t28 -93t66.5 -29l84 -7v-59h-553zM117 1624q104 44 231.5 114t181.5 120 l7 2q27 -25 55.5 -69.5t28.5 -66.5q0 -34 -98.5 -68.5t-211.5 -54.5t-192 -24z" />
<glyph unicode="&#xce;" horiz-adv-x="737" d="M84 1575v55q148 111 254 244h61q106 -133 254 -244l2 -55l-286 123zM92 0v59l84 7q28 2 44.5 10.5t29.5 27.5t18.5 60t8 96t2.5 146v620q0 151 -8.5 219t-28.5 92.5t-66 28.5l-84 8v60h553v-60l-84 -8q-47 -4 -66.5 -29t-27.5 -91.5t-8 -219.5v-620q0 -151 7.5 -218 t28 -93t66.5 -29l84 -7v-59h-553z" />
<glyph unicode="&#xcf;" horiz-adv-x="737" d="M37 1706q0 43 30.5 72.5t73.5 29.5q45 0 76 -27t31 -75q0 -42 -32 -72t-75 -30q-45 0 -74.5 27t-29.5 75zM92 0v59l84 7q28 2 44.5 10.5t29.5 27.5t18.5 60t8 96t2.5 146v620q0 151 -8.5 219t-28.5 92.5t-66 28.5l-84 8v60h553v-60l-84 -8q-47 -4 -66.5 -29t-27.5 -91.5 t-8 -219.5v-620q0 -151 7.5 -218t28 -93t66.5 -29l84 -7v-59h-553zM489 1706q0 42 31.5 72t73.5 30q46 0 76 -27t30 -75q0 -43 -31 -72.5t-75 -29.5t-74.5 27.5t-30.5 74.5z" />
<glyph unicode="&#xd0;" horiz-adv-x="1654" d="M92 0v59l82 4q29 2 45 8.5t29.5 23.5t19 54t8.5 91.5t3 144.5v322h-187v98h187v242q0 147 -10 214t-29.5 86t-63.5 21l-84 4v60q369 6 678 6q169 0 310 -43.5t247 -127.5t165.5 -217.5t59.5 -304.5q0 -158 -57.5 -293t-168 -236t-284.5 -158.5t-393 -57.5h-557zM459 285 q0 -68 6.5 -104t31 -62.5t68 -34.5t121.5 -8q104 0 199.5 21.5t183.5 70.5t152 122t102.5 182.5t38.5 244.5q0 167 -50.5 292.5t-141 200t-205.5 110.5t-254 36q-137 0 -252 -23v-528h483v-98h-483v-422z" />
<glyph unicode="&#xd1;" horiz-adv-x="1705" d="M61 1374v60h314q29 0 57.5 -22t71.5 -69q113 -119 361.5 -419t461.5 -570l14 4l-2 674q-1 147 -10.5 216t-30.5 93t-67 27l-76 6v60h490v-60l-84 -6q-23 -2 -37.5 -6.5t-25.5 -20.5t-16.5 -34.5t-9 -62.5t-4 -88t-0.5 -126v-1038q-18 -6 -71 -6q-332 434 -987 1200 l-15 -2l4 -785q1 -90 3.5 -144.5t8.5 -94.5t18.5 -59t29 -27.5t43.5 -10.5l86 -4v-59h-502v59l84 4q27 2 43.5 10.5t28.5 26.5t17 58.5t7.5 93t3.5 143.5l4 803q0 85 -35 122.5t-124 47.5zM545 1589q1 107 44 165t120 58q64 0 165.5 -33.5t139.5 -33.5t58 18.5t32 69.5h55 q-1 -107 -44 -165t-120 -58q-64 0 -165.5 33.5t-139.5 33.5t-58 -18.5t-32 -69.5h-55z" />
<glyph unicode="&#xd2;" horiz-adv-x="1689" d="M102 705q0 173 58.5 316.5t160.5 239.5t240 148.5t297 52.5q219 0 385 -93t255 -259.5t89 -382.5q0 -227 -99 -400.5t-267.5 -264.5t-378.5 -91q-333 0 -536.5 203t-203.5 531zM293 735q0 -107 21 -204.5t67 -183.5t113 -148.5t164.5 -99t215.5 -36.5q134 0 236 51.5 t163.5 143t92.5 208t31 255.5q0 104 -20 199t-64 179t-109 145.5t-160.5 97.5t-212.5 36q-135 0 -239 -48t-169 -135t-97.5 -203t-32.5 -257zM594 1724q0 22 28.5 66.5t55.5 69.5l6 -2q54 -50 182 -120t232 -114l-2 -47q-79 4 -192 24t-211.5 54.5t-98.5 68.5z" />
<glyph unicode="&#xd3;" horiz-adv-x="1689" d="M102 705q0 173 58.5 316.5t160.5 239.5t240 148.5t297 52.5q219 0 385 -93t255 -259.5t89 -382.5q0 -227 -99 -400.5t-267.5 -264.5t-378.5 -91q-333 0 -536.5 203t-203.5 531zM293 735q0 -107 21 -204.5t67 -183.5t113 -148.5t164.5 -99t215.5 -36.5q134 0 236 51.5 t163.5 143t92.5 208t31 255.5q0 104 -20 199t-64 179t-109 145.5t-160.5 97.5t-212.5 36q-135 0 -239 -48t-169 -135t-97.5 -203t-32.5 -257zM594 1624q104 44 232 114t182 120l6 2q27 -25 55.5 -69.5t28.5 -66.5q0 -34 -98.5 -68.5t-211.5 -54.5t-192 -24z" />
<glyph unicode="&#xd4;" horiz-adv-x="1689" d="M102 705q0 173 58.5 316.5t160.5 239.5t240 148.5t297 52.5q219 0 385 -93t255 -259.5t89 -382.5q0 -227 -99 -400.5t-267.5 -264.5t-378.5 -91q-333 0 -536.5 203t-203.5 531zM293 735q0 -107 21 -204.5t67 -183.5t113 -148.5t164.5 -99t215.5 -36.5q134 0 236 51.5 t163.5 143t92.5 208t31 255.5q0 104 -20 199t-64 179t-109 145.5t-160.5 97.5t-212.5 36q-135 0 -239 -48t-169 -135t-97.5 -203t-32.5 -257zM561 1575v55q148 111 254 244h62q108 -134 253 -244l3 -55l-287 123z" />
<glyph unicode="&#xd5;" horiz-adv-x="1689" d="M102 705q0 173 58.5 316.5t160.5 239.5t240 148.5t297 52.5q219 0 385 -93t255 -259.5t89 -382.5q0 -227 -99 -400.5t-267.5 -264.5t-378.5 -91q-333 0 -536.5 203t-203.5 531zM293 735q0 -107 21 -204.5t67 -183.5t113 -148.5t164.5 -99t215.5 -36.5q134 0 236 51.5 t163.5 143t92.5 208t31 255.5q0 104 -20 199t-64 179t-109 145.5t-160.5 97.5t-212.5 36q-135 0 -239 -48t-169 -135t-97.5 -203t-32.5 -257zM539 1589q1 107 43.5 165t119.5 58q64 0 166 -33.5t140 -33.5t58 18.5t32 69.5h55q-1 -107 -44 -165t-120 -58q-64 0 -165.5 33.5 t-139.5 33.5t-58 -18.5t-32 -69.5h-55z" />
<glyph unicode="&#xd6;" horiz-adv-x="1689" d="M102 705q0 173 58.5 316.5t160.5 239.5t240 148.5t297 52.5q219 0 385 -93t255 -259.5t89 -382.5q0 -227 -99 -400.5t-267.5 -264.5t-378.5 -91q-333 0 -536.5 203t-203.5 531zM293 735q0 -107 21 -204.5t67 -183.5t113 -148.5t164.5 -99t215.5 -36.5q134 0 236 51.5 t163.5 143t92.5 208t31 255.5q0 104 -20 199t-64 179t-109 145.5t-160.5 97.5t-212.5 36q-135 0 -239 -48t-169 -135t-97.5 -203t-32.5 -257zM514 1706q0 43 30.5 72.5t73.5 29.5q45 0 76 -27t31 -75q0 -42 -32 -72t-75 -30q-45 0 -74.5 27t-29.5 75zM967 1706q0 42 31 72 t73 30q46 0 76.5 -27t30.5 -75q0 -43 -31.5 -72.5t-75.5 -29.5t-74 27.5t-30 74.5z" />
<glyph unicode="&#xd7;" d="M158 295l352 342l-352 342l92 94l344 -352l342 352l92 -94l-350 -342l350 -342l-92 -94l-342 352l-344 -352z" />
<glyph unicode="&#xd8;" horiz-adv-x="1689" d="M102 705q0 173 58.5 316.5t160.5 239.5t240 148.5t297 52.5q232 0 408 -106l112 147q23 -6 49 -24.5t37 -36.5l-114 -150q115 -97 176 -242t61 -323q0 -227 -99 -400.5t-267.5 -264.5t-378.5 -91q-240 0 -416 107l-113 -150q-23 6 -49 25t-37 37l115 149 q-115 98 -177.5 243t-62.5 323zM293 735q0 -291 143 -473l754 993q-142 123 -359 123q-135 0 -239 -48t-169 -135t-97.5 -203t-32.5 -257zM508 186q145 -123 366 -123q134 0 236 51.5t163.5 143t92.5 208t31 255.5q0 282 -133 457z" />
<glyph unicode="&#xd9;" horiz-adv-x="1626" d="M55 1374v60h553v-60l-82 -6q-29 -2 -45.5 -10t-29.5 -25.5t-18.5 -56t-8 -90t-2.5 -139.5v-441q0 -540 426 -540q203 0 305 133t102 385v463q0 143 -8 207t-28 87.5t-66 26.5l-80 6v60h490v-60l-88 -6q-23 -2 -38 -7t-26.5 -20.5t-17 -35.5t-9.5 -61t-5 -86.5t-1 -121.5 v-489q0 -271 -155 -423.5t-408 -152.5q-268 0 -420.5 153.5t-152.5 446.5v476q0 142 -8.5 206.5t-29 88t-67.5 26.5zM561 1724q0 22 28.5 66.5t55.5 69.5l6 -2q54 -50 182 -120t232 -114l-2 -47q-79 4 -192 24t-211.5 54.5t-98.5 68.5z" />
<glyph unicode="&#xda;" horiz-adv-x="1626" d="M55 1374v60h553v-60l-82 -6q-29 -2 -45.5 -10t-29.5 -25.5t-18.5 -56t-8 -90t-2.5 -139.5v-441q0 -540 426 -540q203 0 305 133t102 385v463q0 143 -8 207t-28 87.5t-66 26.5l-80 6v60h490v-60l-88 -6q-23 -2 -38 -7t-26.5 -20.5t-17 -35.5t-9.5 -61t-5 -86.5t-1 -121.5 v-489q0 -271 -155 -423.5t-408 -152.5q-268 0 -420.5 153.5t-152.5 446.5v476q0 142 -8.5 206.5t-29 88t-67.5 26.5zM561 1624q104 44 232 114t182 120l6 2q27 -25 55.5 -69.5t28.5 -66.5q0 -34 -98.5 -68.5t-211.5 -54.5t-192 -24z" />
<glyph unicode="&#xdb;" horiz-adv-x="1626" d="M55 1374v60h553v-60l-82 -6q-29 -2 -45.5 -10t-29.5 -25.5t-18.5 -56t-8 -90t-2.5 -139.5v-441q0 -540 426 -540q203 0 305 133t102 385v463q0 143 -8 207t-28 87.5t-66 26.5l-80 6v60h490v-60l-88 -6q-23 -2 -38 -7t-26.5 -20.5t-17 -35.5t-9.5 -61t-5 -86.5t-1 -121.5 v-489q0 -271 -155 -423.5t-408 -152.5q-268 0 -420.5 153.5t-152.5 446.5v476q0 142 -8.5 206.5t-29 88t-67.5 26.5zM528 1575v55q148 111 254 244h62q106 -133 254 -244l2 -55l-287 123z" />
<glyph unicode="&#xdc;" horiz-adv-x="1626" d="M55 1374v60h553v-60l-82 -6q-29 -2 -45.5 -10t-29.5 -25.5t-18.5 -56t-8 -90t-2.5 -139.5v-441q0 -540 426 -540q203 0 305 133t102 385v463q0 143 -8 207t-28 87.5t-66 26.5l-80 6v60h490v-60l-88 -6q-23 -2 -38 -7t-26.5 -20.5t-17 -35.5t-9.5 -61t-5 -86.5t-1 -121.5 v-489q0 -271 -155 -423.5t-408 -152.5q-268 0 -420.5 153.5t-152.5 446.5v476q0 142 -8.5 206.5t-29 88t-67.5 26.5zM481 1706q0 42 31 72t74 30q45 0 75.5 -27t30.5 -75q0 -42 -31.5 -72t-74.5 -30q-45 0 -75 27t-30 75zM934 1706q0 42 31 72t73 30q46 0 76.5 -27t30.5 -75 q0 -43 -31.5 -72.5t-75.5 -29.5t-74 27.5t-30 74.5z" />
<glyph unicode="&#xdd;" horiz-adv-x="1415" d="M47 1374v60h283q54 0 151 -174q131 -228 244 -492h12q236 438 236 528q0 31 -14.5 48.5t-63.5 21.5l-96 8v60h551v-60q-88 -9 -132 -26.5t-85 -63.5q-12 -13 -24 -28.5t-26.5 -38t-26.5 -43t-31.5 -56.5t-34 -63.5t-40.5 -79.5t-45.5 -90.5t-54.5 -109.5t-62 -124v-266 q0 -87 2.5 -138t8 -90t18 -57t29 -26.5t45.5 -10.5l84 -4v-59h-553v59l84 4q29 2 45.5 10.5t29 26t18 57t7.5 90t2 138.5v244q-234 478 -332 624q-51 75 -96.5 98t-132.5 23zM455 1624q104 44 231.5 114t181.5 120l6 2q27 -25 55.5 -69.5t28.5 -66.5q0 -34 -98 -68.5 t-211 -54.5t-192 -24z" />
<glyph unicode="&#xde;" horiz-adv-x="1181" d="M92 0v59l84 7q28 2 44.5 10.5t29.5 27.5t18.5 60t8 96t2.5 146v620q0 151 -8.5 219t-28.5 92.5t-66 28.5l-84 8v60h553v-60l-84 -8q-43 -4 -62.5 -23.5t-29 -74t-10.5 -168.5q102 4 129 4q118 0 212 -19.5t166 -60.5t111 -109.5t39 -160.5q0 -102 -42.5 -180t-117 -125 t-168.5 -70t-204 -23q-66 0 -125 9q1 -130 9.5 -189.5t28.5 -83t64 -26.5l84 -7v-59h-553zM459 440q37 -4 108 -4q160 0 260.5 81.5t100.5 217.5q0 134 -84 209.5t-240 75.5q-77 0 -145 -14v-566z" />
<glyph unicode="&#xdf;" horiz-adv-x="1255" d="M72 0v57l67 6q71 6 85 50t14 245v514h-150v80h150v142q0 456 417 456q169 0 277 -79.5t108 -186.5q0 -58 -35 -114t-84.5 -101.5t-99 -90.5t-84.5 -99.5t-35 -110.5q0 -24 7 -45.5t24 -41t32 -34t45 -32.5t47 -27.5t55 -28.5t53 -27q99 -52 154 -110.5t55 -147.5 q0 -97 -49.5 -167.5t-127.5 -104t-172 -33.5q-71 0 -166 19t-104 20q-15 45 -25 119.5t-10 134.5h49q27 -116 100.5 -169.5t161.5 -53.5q83 0 136 44.5t53 131.5q0 62 -39.5 105.5t-110.5 82.5q-19 11 -66.5 36t-71.5 38.5t-61 41t-56 52.5t-33.5 63t-14.5 81q0 70 31 131.5 t74.5 107.5t87.5 92t75 105.5t31 126.5q0 89 -58.5 144t-158.5 55q-250 0 -250 -377v-1100h-327z" />
<glyph unicode="&#xe0;" horiz-adv-x="978" d="M82 236q0 21 3.5 35.5t18.5 38t54 46t100 43.5q138 48 383 123v125q0 102 -73.5 166t-168.5 64q-46 0 -80 -18t-34 -56q0 -28 16.5 -57.5t30.5 -43.5v-30q-79 -59 -115 -78q-24 8 -61 47.5t-37 87.5q0 52 70.5 113t164.5 101t162 40q120 0 203.5 -85.5t83.5 -213.5v-512 q0 -103 71 -109q14 -2 64 -2v-47q-105 -45 -195 -45t-100 160h-14q-189 -160 -297 -160q-60 0 -120 47t-95 109t-35 111zM240 301q10 -42 33 -88.5t58 -83.5t70 -37q51 0 128.5 36.5t111.5 68.5v268q-91 -33 -216.5 -84.5t-184.5 -79.5zM279 1462q0 22 45 56.5t82 48.5l4 -2 q34 -65 131 -176t178 -185l-19 -45q-119 49 -270 152t-151 151z" />
<glyph unicode="&#xe1;" horiz-adv-x="978" d="M82 236q0 21 3.5 35.5t18.5 38t54 46t100 43.5q138 48 383 123v125q0 102 -73.5 166t-168.5 64q-46 0 -80 -18t-34 -56q0 -28 16.5 -57.5t30.5 -43.5v-30q-79 -59 -115 -78q-24 8 -61 47.5t-37 87.5q0 52 70.5 113t164.5 101t162 40q120 0 203.5 -85.5t83.5 -213.5v-512 q0 -103 71 -109q14 -2 64 -2v-47q-105 -45 -195 -45t-100 160h-14q-189 -160 -297 -160q-60 0 -120 47t-95 109t-35 111zM240 301q10 -42 33 -88.5t58 -83.5t70 -37q51 0 128.5 36.5t111.5 68.5v268q-91 -33 -216.5 -84.5t-184.5 -79.5zM279 1204q81 74 178 185t131 176l4 2 q37 -14 82 -48.5t45 -56.5q0 -48 -151.5 -150.5t-270.5 -152.5z" />
<glyph unicode="&#xe2;" horiz-adv-x="978" d="M82 236q0 21 3.5 35.5t18.5 38t54 46t100 43.5q138 48 383 123v125q0 102 -73.5 166t-168.5 64q-46 0 -80 -18t-34 -56q0 -28 16.5 -57.5t30.5 -43.5v-30q-79 -59 -115 -78q-24 8 -61 47.5t-37 87.5q0 52 70.5 113t164.5 101t162 40q120 0 203.5 -85.5t83.5 -213.5v-512 q0 -103 71 -109q14 -2 64 -2v-47q-105 -45 -195 -45t-100 160h-14q-189 -160 -297 -160q-60 0 -120 47t-95 109t-35 111zM215 1196v55q23 20 49.5 46t45.5 47t47 54t40 48t39.5 49.5t32.5 40.5h61q5 -6 32.5 -40.5t39.5 -49.5t40 -48t47 -54t45.5 -47t49.5 -46l2 -55 l-286 160zM240 301q10 -42 33 -88.5t58 -83.5t70 -37q51 0 128.5 36.5t111.5 68.5v268q-91 -33 -216.5 -84.5t-184.5 -79.5z" />
<glyph unicode="&#xe3;" horiz-adv-x="978" d="M82 236q0 21 3.5 35.5t18.5 38t54 46t100 43.5q138 48 383 123v125q0 102 -73.5 166t-168.5 64q-46 0 -80 -18t-34 -56q0 -28 16.5 -57.5t30.5 -43.5v-30q-79 -59 -115 -78q-24 8 -61 47.5t-37 87.5q0 52 70.5 113t164.5 101t162 40q120 0 203.5 -85.5t83.5 -213.5v-512 q0 -103 71 -109q14 -2 64 -2v-47q-105 -45 -195 -45t-100 160h-14q-189 -160 -297 -160q-60 0 -120 47t-95 109t-35 111zM182 1221q1 107 44 165t120 58q64 0 165.5 -34t139.5 -34t58 18.5t32 69.5h56q-1 -107 -44 -165t-120 -58q-64 0 -165.5 34t-139.5 34t-58 -18.5 t-32 -69.5h-56zM240 301q10 -42 33 -88.5t58 -83.5t70 -37q51 0 128.5 36.5t111.5 68.5v268q-91 -33 -216.5 -84.5t-184.5 -79.5z" />
<glyph unicode="&#xe4;" horiz-adv-x="978" d="M82 236q0 21 3.5 35.5t18.5 38t54 46t100 43.5q138 48 383 123v125q0 102 -73.5 166t-168.5 64q-46 0 -80 -18t-34 -56q0 -28 16.5 -57.5t30.5 -43.5v-30q-79 -59 -115 -78q-24 8 -61 47.5t-37 87.5q0 52 70.5 113t164.5 101t162 40q120 0 203.5 -85.5t83.5 -213.5v-512 q0 -103 71 -109q14 -2 64 -2v-47q-105 -45 -195 -45t-100 160h-14q-189 -160 -297 -160q-60 0 -120 47t-95 109t-35 111zM168 1337q0 43 30.5 73t73.5 30q45 0 76 -27.5t31 -75.5q0 -42 -32 -72t-75 -30q-45 0 -74.5 27t-29.5 75zM240 301q10 -42 33 -88.5t58 -83.5t70 -37 q51 0 128.5 36.5t111.5 68.5v268q-91 -33 -216.5 -84.5t-184.5 -79.5zM621 1337q0 42 31 72.5t73 30.5q46 0 76 -27.5t30 -75.5q0 -43 -31 -72.5t-75 -29.5t-74 27.5t-30 74.5z" />
<glyph unicode="&#xe5;" horiz-adv-x="978" d="M82 236q0 21 3.5 35.5t18.5 38t54 46t100 43.5q138 48 383 123v125q0 102 -73.5 166t-168.5 64q-46 0 -80 -18t-34 -56q0 -28 16.5 -57.5t30.5 -43.5v-30q-79 -59 -115 -78q-24 8 -61 47.5t-37 87.5q0 52 70.5 113t164.5 101t162 40q120 0 203.5 -85.5t83.5 -213.5v-512 q0 -103 71 -109q14 -2 64 -2v-47q-105 -45 -195 -45t-100 160h-14q-189 -160 -297 -160q-60 0 -120 47t-95 109t-35 111zM240 301q10 -42 33 -88.5t58 -83.5t70 -37q51 0 128.5 36.5t111.5 68.5v268q-91 -33 -216.5 -84.5t-184.5 -79.5zM276 1372q0 94 65 158.5t159 64.5 t157.5 -62t63.5 -153q0 -94 -65 -158.5t-160 -64.5q-92 0 -156 62t-64 153zM379 1378q0 -59 35 -93t88 -34q54 0 85 37t31 94t-33.5 90t-84.5 33q-56 0 -88.5 -36t-32.5 -91z" />
<glyph unicode="&#xe6;" horiz-adv-x="1540" d="M82 236q0 21 3.5 35.5t18.5 38t54 46t100 43.5q138 48 383 123v125q0 102 -73.5 166t-168.5 64q-46 0 -80 -18t-34 -56q0 -28 16.5 -57.5t30.5 -43.5v-30q-79 -59 -115 -78q-24 8 -61 47.5t-37 87.5q0 52 70.5 113t164.5 101t162 40q77 0 143 -39.5t105 -107.5 q121 147 336 147q95 0 166.5 -32.5t113.5 -91t63 -131.5t23 -161h-659q-4 -27 -4 -96q2 -117 37.5 -206.5t108.5 -143t175 -53.5q184 0 308 149l36 -27q-21 -38 -51 -72.5t-76.5 -70t-113 -57t-144.5 -21.5q-268 0 -376 195h-11q-87 -76 -193 -135.5t-171 -59.5 q-60 0 -120 47t-95 109t-35 111zM240 301q10 -42 33 -88.5t58 -83.5t70 -37q51 0 128.5 36.5t111.5 68.5v268q-91 -33 -216.5 -84.5t-184.5 -79.5zM817 633l473 14q-6 139 -57 201.5t-143 62.5q-109 0 -177.5 -78t-95.5 -200z" />
<glyph unicode="&#xe7;" horiz-adv-x="940" d="M82 463q0 105 29.5 197t88 165t155 115.5t220.5 42.5q90 0 168 -21.5t121 -48.5q-12 -124 -33 -198h-47q-29 90 -88.5 142t-148.5 52q-132 0 -212.5 -114t-80.5 -328q0 -116 32.5 -205t103.5 -144t173 -55q162 0 297 154l39 -27q-34 -60 -77 -100.5t-88 -63t-90.5 -41.5 t-100 -50t-101.5 -74v-11h29q93 0 145 -43.5t52 -107.5q-1 -90 -73 -139t-173 -49q-80 0 -154 24v55q66 -12 107 -12q139 0 139 96q0 47 -41 78t-127 31h-76l-14 24q71 65 227 164q-188 11 -294.5 141t-106.5 351z" />
<glyph unicode="&#xe8;" horiz-adv-x="987" d="M82 459q0 147 51 264t158 188.5t256 71.5q95 0 166.5 -32.5t113.5 -91t63 -131.5t23 -161h-655q-4 -27 -4 -78q0 -187 81 -304t236 -117q184 0 308 149l36 -27q-21 -38 -51 -72.5t-76.5 -70t-113 -57t-144.5 -21.5q-200 0 -324 127t-124 363zM262 1462q0 22 45 56.5 t82 48.5l4 -2q34 -65 131 -176t178 -185l-18 -45q-119 50 -270.5 152.5t-151.5 150.5zM268 635l469 12q-6 139 -57 201.5t-143 62.5q-109 0 -176 -77.5t-93 -198.5z" />
<glyph unicode="&#xe9;" horiz-adv-x="987" d="M82 459q0 147 51 264t158 188.5t256 71.5q95 0 166.5 -32.5t113.5 -91t63 -131.5t23 -161h-655q-4 -27 -4 -78q0 -187 81 -304t236 -117q184 0 308 149l36 -27q-21 -38 -51 -72.5t-76.5 -70t-113 -57t-144.5 -21.5q-200 0 -324 127t-124 363zM262 1204q81 74 178 185 t131 176l4 2q37 -14 82 -48.5t45 -56.5q0 -48 -151 -151t-270 -152zM268 635l469 12q-6 139 -57 201.5t-143 62.5q-109 0 -176 -77.5t-93 -198.5z" />
<glyph unicode="&#xea;" horiz-adv-x="987" d="M82 459q0 147 51 264t158 188.5t256 71.5q95 0 166.5 -32.5t113.5 -91t63 -131.5t23 -161h-655q-4 -27 -4 -78q0 -187 81 -304t236 -117q184 0 308 149l36 -27q-21 -38 -51 -72.5t-76.5 -70t-113 -57t-144.5 -21.5q-200 0 -324 127t-124 363zM240 1196v55q23 20 49.5 46 t45.5 47t47 54t40 48t39.5 49.5t32.5 40.5h61q5 -6 32.5 -40.5t39.5 -49.5t40 -48t47 -54t45.5 -47t49.5 -46l2 -55l-287 160zM268 635l469 12q-6 139 -57 201.5t-143 62.5q-109 0 -176 -77.5t-93 -198.5z" />
<glyph unicode="&#xeb;" horiz-adv-x="987" d="M82 459q0 147 51 264t158 188.5t256 71.5q95 0 166.5 -32.5t113.5 -91t63 -131.5t23 -161h-655q-4 -27 -4 -78q0 -187 81 -304t236 -117q184 0 308 149l36 -27q-21 -38 -51 -72.5t-76.5 -70t-113 -57t-144.5 -21.5q-200 0 -324 127t-124 363zM188 1337q0 43 31 73t74 30 q45 0 75.5 -27.5t30.5 -75.5q0 -42 -31.5 -72t-74.5 -30q-45 0 -75 27t-30 75zM268 635l469 12q-6 139 -57 201.5t-143 62.5q-109 0 -176 -77.5t-93 -198.5zM641 1337q0 42 31 72.5t73 30.5q46 0 76.5 -27.5t30.5 -75.5q0 -43 -31.5 -72.5t-75.5 -29.5t-74 27.5t-30 74.5z " />
<glyph unicode="&#xec;" horiz-adv-x="591" d="M14 1462q0 22 45 56.5t82 48.5l4 -2q34 -65 131 -175.5t179 -185.5l-19 -45q-119 50 -270.5 152.5t-151.5 150.5zM86 819v45l283 125q17 -6 28 -20v-617q0 -72 0.5 -112.5t4.5 -77t9.5 -52t18 -28t26 -16t38.5 -5.5l47 -4v-57h-453v57l68 4q34 2 48.5 21t22.5 85t9 210 v233q0 118 -10 150.5t-58 42.5z" />
<glyph unicode="&#xed;" horiz-adv-x="591" d="M76 1204q81 74 178 185t131 176l4 2q37 -14 82 -48.5t45 -56.5q0 -48 -151.5 -150.5t-270.5 -152.5zM86 819v45l283 125q17 -6 28 -20v-617q0 -72 0.5 -112.5t4.5 -77t9.5 -52t18 -28t26 -16t38.5 -5.5l47 -4v-57h-453v57l68 4q34 2 48.5 21t22.5 85t9 210v233 q0 118 -10 150.5t-58 42.5z" />
<glyph unicode="&#xee;" horiz-adv-x="591" d="M10 1196v55q23 20 49.5 46t45.5 47t47 54t40 48t39.5 49.5t32.5 40.5h62q5 -6 32.5 -40.5t39.5 -49.5t40 -48t47 -54t45.5 -47t49.5 -46l2 -55l-287 160zM86 819v45l283 125q17 -6 28 -20v-617q0 -72 0.5 -112.5t4.5 -77t9.5 -52t18 -28t26 -16t38.5 -5.5l47 -4v-57h-453 v57l68 4q34 2 48.5 21t22.5 85t9 210v233q0 118 -10 150.5t-58 42.5z" />
<glyph unicode="&#xef;" horiz-adv-x="591" d="M-35 1337q0 43 31 73t74 30q45 0 75.5 -27.5t30.5 -75.5q0 -42 -31.5 -72t-74.5 -30q-45 0 -75 27t-30 75zM86 819v45l283 125q17 -6 28 -20v-617q0 -72 0.5 -112.5t4.5 -77t9.5 -52t18 -28t26 -16t38.5 -5.5l47 -4v-57h-453v57l68 4q34 2 48.5 21t22.5 85t9 210v233 q0 118 -10 150.5t-58 42.5zM418 1337q0 42 31 72.5t73 30.5q46 0 76.5 -27.5t30.5 -75.5q0 -43 -31.5 -72.5t-75.5 -29.5t-74 27.5t-30 74.5z" />
<glyph unicode="&#xf0;" horiz-adv-x="1101" d="M92 455q0 198 118.5 326t330.5 128q69 0 144 -21.5t120 -58.5l12 7q-26 235 -194 440l-289 -121v80l237 100q-131 131 -282 203l16 41q218 -76 367 -203l250 107v-80l-191 -82q76 -76 131 -168t82.5 -169.5t43.5 -168t19 -144.5t3 -118q0 -111 -29.5 -211t-86 -181 t-151 -129t-213.5 -48q-67 0 -130.5 19t-119 58.5t-97.5 94.5t-66.5 132.5t-24.5 166.5zM266 467q0 -168 75.5 -284.5t203.5 -116.5q291 0 291 505q0 105 -13 174q-42 40 -110 61t-138 21q-146 0 -227.5 -96.5t-81.5 -263.5z" />
<glyph unicode="&#xf1;" horiz-adv-x="1206" d="M86 819v45l272 125q23 -6 29 -20l-6 -146l14 -2q74 74 167.5 118t172.5 44q119 0 203 -94.5t84 -270.5v-266q0 -73 1 -113.5t5 -77t9.5 -52t19 -28t28 -15.5t41.5 -5l43 -4v-57h-456v57l41 4q29 2 44 5t29 15.5t18.5 27.5t8.5 53t4.5 79.5t1.5 118.5v17v219q0 50 -9.5 90 t-24 65.5t-36.5 44.5t-41 28t-43 14.5t-38 6.5t-31 1q-119 0 -240 -105v-389q0 -72 1 -113t5.5 -77t10 -52t19 -28t28 -15.5t41.5 -5.5l43 -4v-57h-457v57l41 4q22 2 34.5 3.5t26 8t19.5 13.5t12 25t8 36.5t4 54t2.5 71.5t0.5 95v3v3v3v233q0 118 -10 150.5t-58 42.5z M295 1221q1 107 44 165t120 58q64 0 165.5 -34t139.5 -34t58 18.5t32 69.5h55q-1 -107 -44 -165t-120 -58q-64 0 -165.5 34t-139.5 34t-58 -18.5t-32 -69.5h-55z" />
<glyph unicode="&#xf2;" horiz-adv-x="1085" d="M82 467q0 235 134 375.5t335 140.5q202 0 327.5 -138.5t125.5 -363.5q0 -233 -133 -372.5t-332 -139.5q-204 0 -330.5 136.5t-126.5 361.5zM266 481q0 -123 30.5 -220.5t97 -159.5t161.5 -62q85 0 145 58.5t87.5 153.5t27.5 218q0 88 -17 165.5t-50 139t-88 97.5t-125 36 q-131 0 -200 -116t-69 -310zM322 1462q0 22 45 56.5t82 48.5l4 -2q34 -65 131 -176t178 -185l-19 -45q-119 49 -270 152t-151 151z" />
<glyph unicode="&#xf3;" horiz-adv-x="1085" d="M82 467q0 235 134 375.5t335 140.5q202 0 327.5 -138.5t125.5 -363.5q0 -233 -133 -372.5t-332 -139.5q-204 0 -330.5 136.5t-126.5 361.5zM266 481q0 -123 30.5 -220.5t97 -159.5t161.5 -62q85 0 145 58.5t87.5 153.5t27.5 218q0 88 -17 165.5t-50 139t-88 97.5t-125 36 q-131 0 -200 -116t-69 -310zM322 1204q81 74 178 185t131 176l4 2q37 -14 82 -48.5t45 -56.5q0 -48 -151.5 -150.5t-270.5 -152.5z" />
<glyph unicode="&#xf4;" horiz-adv-x="1085" d="M82 467q0 235 134 375.5t335 140.5q202 0 327.5 -138.5t125.5 -363.5q0 -233 -133 -372.5t-332 -139.5q-204 0 -330.5 136.5t-126.5 361.5zM256 1196v55q23 20 49.5 46t45.5 47t47 54t40 48t39.5 49.5t32.5 40.5h61q5 -6 32.5 -40.5t39.5 -49.5t40 -48t47 -54t45.5 -47 t49.5 -46l2 -55l-286 160zM266 481q0 -123 30.5 -220.5t97 -159.5t161.5 -62q85 0 145 58.5t87.5 153.5t27.5 218q0 88 -17 165.5t-50 139t-88 97.5t-125 36q-131 0 -200 -116t-69 -310z" />
<glyph unicode="&#xf5;" horiz-adv-x="1085" d="M82 467q0 235 134 375.5t335 140.5q202 0 327.5 -138.5t125.5 -363.5q0 -233 -133 -372.5t-332 -139.5q-204 0 -330.5 136.5t-126.5 361.5zM236 1221q1 107 43.5 165t119.5 58q64 0 166 -34t140 -34t58 18.5t32 69.5h55q-1 -107 -44 -165t-120 -58q-64 0 -165.5 34 t-139.5 34t-58 -18.5t-32 -69.5h-55zM266 481q0 -123 30.5 -220.5t97 -159.5t161.5 -62q85 0 145 58.5t87.5 153.5t27.5 218q0 88 -17 165.5t-50 139t-88 97.5t-125 36q-131 0 -200 -116t-69 -310z" />
<glyph unicode="&#xf6;" horiz-adv-x="1085" d="M82 467q0 235 134 375.5t335 140.5q202 0 327.5 -138.5t125.5 -363.5q0 -233 -133 -372.5t-332 -139.5q-204 0 -330.5 136.5t-126.5 361.5zM211 1337q0 43 30.5 73t73.5 30q45 0 76 -27.5t31 -75.5q0 -42 -32 -72t-75 -30q-45 0 -74.5 27t-29.5 75zM266 481 q0 -123 30.5 -220.5t97 -159.5t161.5 -62q85 0 145 58.5t87.5 153.5t27.5 218q0 88 -17 165.5t-50 139t-88 97.5t-125 36q-131 0 -200 -116t-69 -310zM664 1337q0 42 31 72.5t73 30.5q46 0 76 -27.5t30 -75.5q0 -43 -31 -72.5t-75 -29.5t-74 27.5t-30 74.5z" />
<glyph unicode="&#xf7;" d="M109 547v129h970v-129h-970zM481 287q0 39 29 73.5t82 34.5q48 0 81.5 -29.5t33.5 -74.5q0 -50 -32.5 -83.5t-84.5 -33.5q-53 0 -81 34.5t-28 78.5zM481 940q0 39 29 74t82 35q48 0 81.5 -30t33.5 -75q0 -50 -32.5 -83.5t-84.5 -33.5q-53 0 -81 34.5t-28 78.5z" />
<glyph unicode="&#xf8;" horiz-adv-x="1085" d="M82 467q0 235 134 375.5t335 140.5q131 0 235 -63l84 120q15 -5 46 -26t38 -33l-88 -125q138 -141 138 -375q0 -233 -133 -372.5t-332 -139.5q-136 0 -242 64l-84 -121q-17 5 -47.5 26t-36.5 33l86 125q-133 139 -133 371zM266 481q0 -150 41 -252l410 590 q-72 88 -182 88q-131 0 -200 -116t-69 -310zM365 131q73 -92 190 -92q85 0 145 58.5t87.5 153.5t27.5 218q0 143 -43 250z" />
<glyph unicode="&#xf9;" horiz-adv-x="1146" d="M31 819v45l274 125q11 -3 18.5 -8.5t8.5 -9.5l2 -4v-594q0 -81 16.5 -136.5t48 -84t68.5 -40.5t86 -12q62 0 129.5 31.5t108.5 75.5v399q0 119 -9.5 152.5t-56.5 44.5l-68 16v43l256 127q12 -3 21.5 -9.5t13.5 -11.5l4 -5v-768q0 -81 19.5 -107.5t83.5 -26.5h32v-45 q-92 -47 -176 -47q-58 0 -81.5 39.5t-30.5 116.5h-15q-75 -74 -160 -115t-163 -41q-281 0 -281 340v330v5q0 97 -9.5 123t-57.5 36zM262 1462q0 22 45 56.5t82 48.5l4 -2q34 -65 131 -176t178 -185l-18 -45q-119 50 -270.5 152.5t-151.5 150.5z" />
<glyph unicode="&#xfa;" horiz-adv-x="1146" d="M31 819v45l274 125q11 -3 18.5 -8.5t8.5 -9.5l2 -4v-594q0 -81 16.5 -136.5t48 -84t68.5 -40.5t86 -12q62 0 129.5 31.5t108.5 75.5v399q0 119 -9.5 152.5t-56.5 44.5l-68 16v43l256 127q12 -3 21.5 -9.5t13.5 -11.5l4 -5v-768q0 -81 19.5 -107.5t83.5 -26.5h32v-45 q-92 -47 -176 -47q-58 0 -81.5 39.5t-30.5 116.5h-15q-75 -74 -160 -115t-163 -41q-281 0 -281 340v330v5q0 97 -9.5 123t-57.5 36zM406 1204q81 74 178 185t131 176l4 2q37 -14 82 -48.5t45 -56.5q0 -48 -151.5 -150.5t-270.5 -152.5z" />
<glyph unicode="&#xfb;" horiz-adv-x="1146" d="M31 819v45l274 125q11 -3 18.5 -8.5t8.5 -9.5l2 -4v-594q0 -81 16.5 -136.5t48 -84t68.5 -40.5t86 -12q62 0 129.5 31.5t108.5 75.5v399q0 119 -9.5 152.5t-56.5 44.5l-68 16v43l256 127q12 -3 21.5 -9.5t13.5 -11.5l4 -5v-768q0 -81 19.5 -107.5t83.5 -26.5h32v-45 q-92 -47 -176 -47q-58 0 -81.5 39.5t-30.5 116.5h-15q-75 -74 -160 -115t-163 -41q-281 0 -281 340v330v5q0 97 -9.5 123t-57.5 36zM258 1196v55q23 20 49.5 46t45.5 47t47 54t40 48t39.5 49.5t32.5 40.5h61q5 -6 32.5 -40.5t39.5 -49.5t40 -48t47 -54t45.5 -47t49.5 -46 l2 -55l-286 160z" />
<glyph unicode="&#xfc;" horiz-adv-x="1146" d="M31 819v45l274 125q11 -3 18.5 -8.5t8.5 -9.5l2 -4v-594q0 -81 16.5 -136.5t48 -84t68.5 -40.5t86 -12q62 0 129.5 31.5t108.5 75.5v399q0 119 -9.5 152.5t-56.5 44.5l-68 16v43l256 127q12 -3 21.5 -9.5t13.5 -11.5l4 -5v-768q0 -81 19.5 -107.5t83.5 -26.5h32v-45 q-92 -47 -176 -47q-58 0 -81.5 39.5t-30.5 116.5h-15q-75 -74 -160 -115t-163 -41q-281 0 -281 340v330v5q0 97 -9.5 123t-57.5 36zM190 1337q0 43 31 73t74 30q45 0 75.5 -27.5t30.5 -75.5q0 -42 -31.5 -72t-74.5 -30q-45 0 -75 27t-30 75zM643 1337q0 42 31.5 72.5 t73.5 30.5q46 0 76 -27.5t30 -75.5q0 -43 -31 -72.5t-75 -29.5t-74.5 27.5t-30.5 74.5z" />
<glyph unicode="&#xfd;" horiz-adv-x="1052" d="M20 895v57h187q78 0 143 -161l219 -547h21q183 457 210 548q9 32 9 44q0 25 -16.5 38t-61.5 17l-47 4v57h358v-57q-66 -3 -89.5 -20.5t-47.5 -75.5l-424 -1004q-43 -97 -43 -127t22 -41t68 -14l64 -4v-60h-449v60l43 4q64 5 102.5 25t65.5 77l138 301q-265 644 -340 801 q-32 70 -132 78zM326 1204q81 74 178 185t131 176l4 2q37 -14 82 -48.5t45 -56.5q0 -48 -151.5 -150.5t-270.5 -152.5z" />
<glyph unicode="&#xfe;" horiz-adv-x="1105" d="M20 -393l46 4q76 7 90 50.5t14 264.5v1258q0 109 -10.5 140t-57.5 40l-82 16v45l283 125q9 -2 16 -6.5t10 -7.5l3 -4v-520l-8 -168l22 -2q54 74 131.5 107.5t159.5 33.5q74 0 141 -28t123 -84t89.5 -152t33.5 -221q0 -114 -31.5 -209t-92.5 -167t-159 -112.5t-223 -40.5 q-41 0 -95.5 9.5t-90.5 25.5v-102q0 -73 1 -113.5t5 -77t9.5 -52t19 -28t28 -15.5t41.5 -5l68 -4v-58h-484v58zM332 121q33 -31 90.5 -51.5t116.5 -20.5q55 0 108.5 24t100.5 71.5t75.5 130t28.5 188.5q0 403 -285 403q-71 0 -136.5 -35t-98.5 -79v-631z" />
<glyph unicode="&#xff;" horiz-adv-x="1052" d="M20 895v57h187q78 0 143 -161l219 -547h21q183 457 210 548q9 32 9 44q0 25 -16.5 38t-61.5 17l-47 4v57h358v-57q-66 -3 -89.5 -20.5t-47.5 -75.5l-424 -1004q-43 -97 -43 -127t22 -41t68 -14l64 -4v-60h-449v60l43 4q64 5 102.5 25t65.5 77l138 301q-265 644 -340 801 q-32 70 -132 78zM227 1337q0 43 31 73t74 30q45 0 75.5 -27.5t30.5 -75.5q0 -42 -31.5 -72t-74.5 -30q-45 0 -75 27t-30 75zM680 1337q0 42 31 72.5t73 30.5q46 0 76.5 -27.5t30.5 -75.5q0 -43 -31.5 -72.5t-75.5 -29.5t-74 27.5t-30 74.5z" />
<glyph unicode="&#x152;" horiz-adv-x="1910" d="M102 700q0 354 214 544t589 190h848q6 -44 6 -88q0 -110 -28 -246h-50q-8 109 -33.5 164t-71 74.5t-132.5 19.5q-141 0 -246 -15v-575h188q85 0 123.5 9.5t57.5 35.5t32 86h48l-17 -395h-49l-12 67q-10 50 -26.5 74t-57 35.5t-121.5 11.5h-166v-303q0 -78 1.5 -126 t9 -85.5t16 -55t29 -29t40.5 -13.5t58 -2h139q62 0 104 13.5t74 47.5t53 79t47 122h50q-6 -181 -62 -340h-923q-119 0 -227 27t-200.5 83.5t-160 138t-106 197.5t-38.5 254zM293 737q0 -167 44 -295.5t122.5 -207t179.5 -118.5t221 -40q50 0 82.5 24t54 95t21.5 192v948 q-61 19 -203 19q-246 0 -384 -162t-138 -455z" />
<glyph unicode="&#x153;" horiz-adv-x="1736" d="M82 467q0 235 134 375.5t335 140.5q119 0 213.5 -51t155.5 -144q125 195 376 195q95 0 166.5 -32.5t114 -91t63.5 -131.5t23 -161h-655q-4 -27 -4 -86q2 -184 83 -298.5t234 -114.5q183 0 307 149l37 -27q-21 -38 -51 -72.5t-76.5 -70t-113 -57t-144.5 -21.5 q-121 0 -217 47.5t-154 139.5q-64 -91 -160 -139t-210 -48q-204 0 -330.5 136.5t-126.5 361.5zM266 481q0 -123 30.5 -220.5t97 -159.5t161.5 -62q85 0 145 58.5t87.5 153.5t27.5 218q0 88 -17 165.5t-50 139t-88 97.5t-125 36q-131 0 -200 -116t-69 -310zM1018 635l469 12 q-11 264 -201 264q-109 0 -175.5 -77.5t-92.5 -198.5z" />
<glyph unicode="&#x178;" horiz-adv-x="1415" d="M47 1374v60h283q54 0 151 -174q131 -228 244 -492h12q236 438 236 528q0 31 -14.5 48.5t-63.5 21.5l-96 8v60h551v-60q-88 -9 -132 -26.5t-85 -63.5q-12 -13 -24 -28.5t-26.5 -38t-26.5 -43t-31.5 -56.5t-34 -63.5t-40.5 -79.5t-45.5 -90.5t-54.5 -109.5t-62 -124v-266 q0 -87 2.5 -138t8 -90t18 -57t29 -26.5t45.5 -10.5l84 -4v-59h-553v59l84 4q29 2 45.5 10.5t29 26t18 57t7.5 90t2 138.5v244q-234 478 -332 624q-51 75 -96.5 98t-132.5 23zM375 1706q0 43 30.5 72.5t73.5 29.5q45 0 76 -27t31 -75q0 -42 -32 -72t-75 -30q-45 0 -74.5 27 t-29.5 75zM827 1706q0 42 31.5 72t73.5 30q46 0 76 -27t30 -75q0 -43 -31 -72.5t-75 -29.5t-74.5 27.5t-30.5 74.5z" />
<glyph unicode="&#x2c6;" horiz-adv-x="819" d="M125 1196v55q23 20 49.5 46t45.5 47t47 54t40 48t39.5 49.5t32.5 40.5h61q5 -6 32.5 -40.5t39.5 -49.5t40 -48t47 -54t45.5 -47t49.5 -46l2 -55l-286 160z" />
<glyph unicode="&#x2dc;" horiz-adv-x="819" d="M102 1221q1 107 44 165t120 58q64 0 165.5 -34t139.5 -34t58.5 18.5t32.5 69.5h55q-1 -107 -44 -165t-120 -58q-64 0 -165.5 34t-139.5 34t-58 -18.5t-32 -69.5h-56z" />
<glyph unicode="&#x2000;" horiz-adv-x="987" />
<glyph unicode="&#x2001;" horiz-adv-x="1974" />
<glyph unicode="&#x2002;" horiz-adv-x="987" />
<glyph unicode="&#x2003;" horiz-adv-x="1974" />
<glyph unicode="&#x2004;" horiz-adv-x="658" />
<glyph unicode="&#x2005;" horiz-adv-x="493" />
<glyph unicode="&#x2006;" horiz-adv-x="329" />
<glyph unicode="&#x2007;" horiz-adv-x="329" />
<glyph unicode="&#x2008;" horiz-adv-x="246" />
<glyph unicode="&#x2009;" horiz-adv-x="394" />
<glyph unicode="&#x200a;" horiz-adv-x="109" />
<glyph unicode="&#x2010;" horiz-adv-x="819" d="M61 506v133l697 51v-133z" />
<glyph unicode="&#x2011;" horiz-adv-x="819" d="M61 506v133l697 51v-133z" />
<glyph unicode="&#x2012;" horiz-adv-x="819" d="M61 506v133l697 51v-133z" />
<glyph unicode="&#x2013;" horiz-adv-x="1269" d="M61 535v133h1147v-133h-1147z" />
<glyph unicode="&#x2014;" horiz-adv-x="1843" d="M61 535v133h1721v-133h-1721z" />
<glyph unicode="&#x2018;" horiz-adv-x="618" d="M129 1151q0 139 97 221t266 90v-45q-113 -20 -169.5 -61t-56.5 -94q0 -37 28 -68t62 -49t62 -41t28 -45q0 -53 -35 -100.5t-75 -47.5q-79 0 -143 64t-64 176z" />
<glyph unicode="&#x2019;" horiz-adv-x="618" d="M129 911v45q113 19 169 60.5t56 95.5q0 37 -28 68t-62 49t-62 41t-28 45q0 53 35.5 100t75.5 47q79 0 143 -63.5t64 -175.5q0 -139 -97 -221.5t-266 -90.5z" />
<glyph unicode="&#x201a;" horiz-adv-x="618" d="M129 -244q113 19 169 60.5t56 95.5q0 37 -28 68t-62 49t-62 41t-28 45q0 53 35.5 100t75.5 47q79 0 143 -63.5t64 -175.5q0 -139 -97 -221.5t-266 -90.5v45z" />
<glyph unicode="&#x201c;" horiz-adv-x="1058" d="M129 1151q0 139 97 221t266 90v-45q-113 -20 -169.5 -61t-56.5 -94q0 -37 28 -68t62 -49t62 -41t28 -45q0 -53 -35 -100.5t-75 -47.5q-79 0 -143 64t-64 176zM569 1151q0 139 97 221t266 90v-45q-113 -20 -169 -61t-56 -94q0 -37 28 -68t62 -49t62 -41t28 -45 q0 -53 -35.5 -100.5t-75.5 -47.5q-79 0 -143 64t-64 176z" />
<glyph unicode="&#x201d;" horiz-adv-x="1058" d="M129 911v45q113 19 169 60.5t56 95.5q0 37 -28 68t-62 49t-62 41t-28 45q0 53 35.5 100t75.5 47q79 0 143 -63.5t64 -175.5q0 -139 -97 -221.5t-266 -90.5zM569 911v45q113 20 169.5 61.5t56.5 94.5q0 37 -28.5 68t-62 49t-62 41t-28.5 45q0 53 35.5 100t75.5 47 q79 0 143 -63.5t64 -175.5q0 -139 -97 -221.5t-266 -90.5z" />
<glyph unicode="&#x201e;" horiz-adv-x="1058" d="M129 -244q113 19 169 60.5t56 95.5q0 37 -28 68t-62 49t-62 41t-28 45q0 53 35.5 100t75.5 47q79 0 143 -63.5t64 -175.5q0 -139 -97 -221.5t-266 -90.5v45zM569 -244q113 20 169.5 61.5t56.5 94.5q0 37 -28.5 68t-62 49t-62 41t-28.5 45q0 53 35.5 100t75.5 47 q79 0 143 -63.5t64 -175.5q0 -139 -97 -221.5t-266 -90.5v45z" />
<glyph unicode="&#x2022;" horiz-adv-x="675" d="M121 655q0 34 12.5 69t37.5 67t68 52.5t97 20.5q93 0 156 -55t63 -145q0 -93 -61 -157.5t-160 -64.5q-104 0 -158.5 64.5t-54.5 148.5z" />
<glyph unicode="&#x2026;" horiz-adv-x="1781" d="M164 100q0 59 38 96t93 37q63 0 99 -37t36 -96q0 -57 -39 -94t-96 -37q-61 0 -96 37t-35 94zM758 100q0 59 38 96t93 37q63 0 99 -37t36 -96q0 -57 -39 -94t-96 -37q-61 0 -96 37t-35 94zM1352 100q0 59 38 96t93 37q63 0 99 -37t36 -96q0 -57 -39 -94t-96 -37 q-61 0 -96 37t-35 94z" />
<glyph unicode="&#x202f;" horiz-adv-x="394" />
<glyph unicode="&#x2039;" horiz-adv-x="763" d="M123 571v54l487 411v-53l-258 -383l258 -387v-53z" />
<glyph unicode="&#x203a;" horiz-adv-x="763" d="M154 160v53l258 387l-258 383v53l487 -411v-54z" />
<glyph unicode="&#x205f;" horiz-adv-x="493" />
<glyph unicode="&#x20ac;" d="M45 516q0 69 4 98l184 -4v62q0 57 7 125l-177 -2q0 62 5 98l182 -4q42 243 176.5 382.5t341.5 139.5q69 0 167.5 -26.5t121.5 -26.5q37 0 67 6q0 -204 -34 -410h-48q-17 185 -87.5 281t-188.5 96q-131 0 -208.5 -106t-98.5 -338l499 6q0 -69 -4 -98l-501 4 q-2 -37 -2 -117q0 -49 2 -74l487 6q0 -69 -4 -98l-477 4q7 -74 21 -138t39 -126.5t58.5 -106.5t84 -71t112.5 -27q112 0 177 87t100 249h51q-3 -168 -62 -342q-45 -31 -121.5 -53.5t-148.5 -22.5q-121 0 -217 43.5t-158.5 121t-100 174t-52.5 212.5z" />
<glyph unicode="&#x2122;" horiz-adv-x="1841" d="M102 1237q0 31 7.5 101t13.5 96h649q12 -42 12 -197h-30q-21 75 -41 108t-54 33q-101 0 -151 -4v-397q0 -67 4 -98t14.5 -43t32.5 -13l59 -2v-37h-348v37l62 2q34 3 40.5 27.5t6.5 126.5v397q-50 4 -135 4q-23 0 -39.5 -8.5t-29 -30t-20.5 -42.5t-20 -60h-33zM838 784v33 l49 4q31 4 43.5 35.5t23.5 122.5l47 360q-33 55 -75 58l-43 2v35h204q23 0 75.5 -106t129.5 -314h8q89 217 144 420h237v-35l-53 -2q-37 0 -37 -70q0 -69 45 -407q8 -59 21 -78.5t47 -20.5h35v-37h-330v37h37q63 2 63 70q0 15 -7.5 74t-19.5 147.5t-18 144.5h-6 q-28 -79 -83.5 -224.5t-74.5 -198.5q-45 -5 -73 -5q-81 224 -164 410h-8q-6 -57 -15.5 -139.5t-15.5 -135.5t-6 -71q0 -37 13.5 -51.5t49.5 -20.5l33 -4v-33h-276z" />
<glyph unicode="&#x25fc;" horiz-adv-x="952" d="M0 0v952h952v-952h-952z" />
<glyph unicode="&#xfb01;" horiz-adv-x="1206" d="M72 0v57l67 6q71 6 85 50t14 245v514h-150v80h150v78q0 94 8.5 166.5t33.5 141.5t66.5 113.5t110 71.5t161.5 27q72 0 138 -11t109.5 -27t77 -32t48.5 -27l15 -11q-4 -46 -19 -100t-28 -84l-13 -31h-57q-30 113 -107.5 181.5t-203.5 68.5q-35 0 -62.5 -9t-52 -32.5 t-40.5 -61.5t-25 -98.5t-9 -140.5q0 -105 10 -183h461l123 37q19 -6 29 -20v-617q0 -72 0.5 -113t5 -77t9.5 -52t17.5 -28t25.5 -15.5t38 -5.5l47 -4v-57h-467v57l55 4q79 6 93 49t14 265v497h-451v-505q0 -74 1 -115.5t5 -80t10 -55.5t19 -31t29 -17.5t43 -4.5l78 -4v-59 h-512z" />
<glyph unicode="&#xfb02;" horiz-adv-x="1230" d="M72 0v57l67 6q71 6 85 50t14 245v514h-150v80h150v84q0 94 10 168t35.5 140.5t67 110.5t108 69.5t155.5 25.5q162 0 271 -47l104 47q9 -2 16 -6.5t10 -7.5l3 -4v-1180q0 -73 1 -113.5t5 -77t9.5 -52t19 -28t28 -15.5t41.5 -5l47 -4v-57h-464v57l45 4q78 6 92 49.5 t14 266.5v940q-37 63 -115.5 111.5t-165.5 48.5q-90 0 -138 -75.5t-48 -258.5q0 -79 10 -191h232l-8 -80h-224v-505q0 -74 1 -115.5t5 -80t10 -55.5t19 -31t29 -17.5t43 -4.5l88 -4v-59h-522z" />
</font>
</defs>
</svg>
