<?xml version="1.0" standalone="no"?>
<!DOCTYPE svg PUBLIC "-//W3C//DTD SVG 1.1//EN" "http://www.w3.org/Graphics/SVG/1.1/DTD/svg11.dtd" >
<svg xmlns="http://www.w3.org/2000/svg">
<metadata></metadata>
<defs>
<font id="soberana_sansbold_italic" horiz-adv-x="1331" >
<font-face units-per-em="2048" ascent="1577" descent="-471" />
<missing-glyph horiz-adv-x="532" />
<glyph horiz-adv-x="0" />
<glyph horiz-adv-x="682" />
<glyph unicode=" "  horiz-adv-x="532" />
<glyph unicode="&#x09;" horiz-adv-x="532" />
<glyph unicode="&#xa0;" horiz-adv-x="532" />
<glyph unicode="!" horiz-adv-x="796" d="M109 143q0 98 60.5 153.5t166.5 55.5q89 0 142.5 -45.5t53.5 -128.5q0 -92 -63.5 -146.5t-169.5 -54.5q-86 0 -138 44t-52 122zM209 477l88 1047l426 35l-199 -1082h-315z" />
<glyph unicode="&#x22;" horiz-adv-x="960" d="M215 1036l14 494l322 29l-137 -523h-199zM659 1036l15 494l321 29l-137 -523h-199z" />
<glyph unicode="#" d="M8 344l31 231h244l53 203h-227l34 236l254 -2l86 319h238l-86 -319h217l86 319h238l-84 -319l217 2l-35 -236h-244l-55 -203h229l-30 -231h-261l-84 -324h-239l86 324h-217l-86 -324h-238l86 324h-213zM520 575h217l54 205h-218z" />
<glyph unicode="$" d="M10 106l101 304q93 -60 220 -97t234 -37q48 0 88 7.5t75 23.5t55 47t20 74q0 30 -23 56.5t-66.5 49t-88 41t-108 44t-105.5 45.5q-53 26 -92.5 53t-77.5 66.5t-58 93t-20 118.5q0 91 29.5 169t80.5 134.5t121.5 98.5t150.5 65t169 31l76 268l288 -26l-71 -258 q151 -30 254 -78l-142 -289q-168 84 -342 84q-33 0 -66 -6t-67.5 -19.5t-56 -41.5t-21.5 -66q0 -31 23 -57.5t68.5 -49.5t94 -43.5t118 -51.5t122.5 -60q195 -107 195 -301q0 -98 -30.5 -180.5t-83.5 -141t-127.5 -101t-160 -65t-182.5 -28.5l-72 -277l-290 23l73 270 q-173 29 -305 108z" />
<glyph unicode="%" horiz-adv-x="2031" d="M131 1063q0 193 112 313.5t310 120.5q158 0 237.5 -73.5t79.5 -211.5q0 -196 -110 -316t-309 -120q-150 0 -235 71t-85 216zM367 1079q0 -131 108 -131q55 0 93 40.5t52.5 94t14.5 113.5q0 131 -107 131q-57 0 -95 -40.5t-52 -94t-14 -113.5zM371 131l1038 1366l233 -149 l-1040 -1371zM1145 262q0 195 109.5 315.5t308.5 120.5q154 0 237.5 -72t83.5 -214q0 -195 -112 -315t-310 -120q-155 0 -236 72.5t-81 212.5zM1380 276q0 -129 107 -129q56 0 93.5 40t52 93.5t14.5 114.5q0 131 -107 131q-43 0 -75 -23t-50 -61t-26.5 -80t-8.5 -86z" />
<glyph unicode="&#x26;" horiz-adv-x="1603" d="M-4 328q0 82 26.5 157t77 139t108.5 116.5t134 105.5q-47 115 -47 227q0 216 145 351t375 135q116 0 221 -34.5t174 -92.5l-135 -246q-50 40 -116 65t-134 25q-81 0 -134.5 -45.5t-53.5 -132.5q0 -104 96 -245.5t248 -283.5q68 91 186 291h336q-134 -242 -313 -467 q33 -26 86 -59q98 -64 184 -64h49l-36 -270q-62 -23 -146 -23q-75 0 -154 29t-141 74q-53 36 -84 63q-229 -166 -506 -166q-206 0 -326 92.5t-120 258.5zM348 381q0 -60 41 -98.5t117 -38.5q117 0 235 78q-155 142 -262 284q-131 -112 -131 -225z" />
<glyph unicode="'" horiz-adv-x="516" d="M215 1036l14 494l322 29l-137 -523h-199z" />
<glyph unicode="(" horiz-adv-x="888" d="M82 526q0 386 217 670.5t588 382.5l-41 -293q-196 -120 -294.5 -309.5t-98.5 -433.5q0 -304 225 -463l-43 -291q-268 63 -410.5 261.5t-142.5 475.5z" />
<glyph unicode=")" horiz-adv-x="888" d="M-12 -211l41 291q196 122 295.5 311.5t99.5 433.5q0 309 -225 461l41 293q180 -43 305.5 -150t186.5 -256t61 -331q0 -256 -97 -473t-280 -368t-428 -212z" />
<glyph unicode="*" horiz-adv-x="931" d="M125 1067l309 88l-282 88l120 191l213 -201l-22 301h231l-106 -301l266 201l70 -193l-308 -88l283 -88l-121 -191l-213 201l23 -301h-232l107 301l-266 -201z" />
<glyph unicode="+" d="M121 492v247h414v424h249v-424h414v-247h-414v-424h-249v424h-414z" />
<glyph unicode="," horiz-adv-x="602" d="M-61 -211q143 166 143 326q0 82 -51 159l338 52q47 -73 47 -162q0 -112 -61.5 -213.5t-166.5 -208.5z" />
<glyph unicode="-" horiz-adv-x="876" d="M10 449l33 235l782 47l-32 -235z" />
<glyph unicode="." horiz-adv-x="602" d="M16 152q0 92 61.5 146t164.5 54q81 0 131.5 -44t50.5 -122q0 -98 -58.5 -153.5t-162.5 -55.5q-84 0 -135.5 46t-51.5 129z" />
<glyph unicode="/" horiz-adv-x="1210" d="M-35 57l1014 1573l268 -153l-1016 -1571z" />
<glyph unicode="0" d="M47 539q0 95 12 189t39 189.5t67 180t99.5 158.5t132.5 127t169.5 83.5t207.5 30.5q255 0 383.5 -142.5t128.5 -408.5q0 -273 -86.5 -492t-253.5 -348t-387 -129q-245 0 -378.5 138t-133.5 424zM426 543q0 -279 174 -279q62 0 114.5 45.5t87 118t59 163t35.5 179 t11 168.5q0 266 -174 266q-64 0 -117.5 -46t-87.5 -117.5t-58 -161.5t-34 -175t-10 -161z" />
<glyph unicode="1" d="M51 0l41 295h359l116 825l-362 -18l35 248q280 26 622 125h142l-166 -1180h346l-41 -295h-1092z" />
<glyph unicode="2" d="M20 0l31 229q87 62 138.5 99.5t127 94t120.5 93.5t103.5 87.5t93 88.5t72 84.5t57.5 86.5t33 83.5t13 85.5q0 68 -41.5 108t-126.5 40q-89 0 -193 -34.5t-182 -88.5l-78 282q105 66 254 112t314 46q100 0 184.5 -21t152 -64t106 -117t38.5 -173q0 -96 -32.5 -191.5 t-80.5 -172.5t-124.5 -160.5t-142 -143t-155.5 -132.5v-15h476l-43 -307h-1115z" />
<glyph unicode="3" d="M6 127l135 287q71 -58 175 -98t200 -40q123 0 197.5 51t74.5 150q0 87 -99 129.5t-267 42.5l27 189q41 9 66.5 15.5t68.5 19.5t71 25t61.5 31t53.5 39.5t33.5 48t13.5 58.5q0 117 -153 117q-95 0 -204 -39.5t-181 -93.5l-68 264q107 77 255 125.5t314 48.5 q220 0 341.5 -82t121.5 -235q0 -129 -83 -220t-216 -143l-2 -14q110 -35 180 -116.5t70 -203.5q0 -100 -38 -184.5t-103 -143t-151 -99.5t-181 -60t-195 -19q-157 0 -293.5 41.5t-224.5 108.5z" />
<glyph unicode="4" d="M-2 301l31 221q398 433 907 969l283 -25l-123 -880h141l-63 -285h-117l-41 -301h-352l41 301h-707zM428 592l2 -12h320l59 401l-12 4q-230 -239 -369 -393z" />
<glyph unicode="5" d="M4 125l135 293q74 -59 193.5 -98t226.5 -39q105 0 171.5 53t66.5 151q0 44 -32.5 79.5t-85.5 59t-137.5 42t-171.5 30t-204 21.5q101 307 205 758h913l-43 -293h-563q-11 -53 -60 -240q144 -19 246 -49t178.5 -79.5t114 -123.5t37.5 -176q0 -106 -36 -194.5t-98.5 -151 t-147 -106.5t-181.5 -64.5t-203 -20.5q-150 0 -286.5 38.5t-237.5 109.5z" />
<glyph unicode="6" d="M59 463q0 183 62 340t165.5 270t246.5 200.5t296.5 141t323.5 82.5l37 -278q-132 -26 -257.5 -75t-243.5 -132.5t-181 -184.5l16 -8q147 84 297 84q176 0 282.5 -90t106.5 -258q0 -84 -24.5 -166t-76.5 -156.5t-125 -131.5t-179 -90.5t-230 -33.5q-106 0 -199 32t-164 92 t-112 153.5t-41 208.5zM428 485q0 -64 17 -117.5t59 -90.5t102 -37q104 0 169 73.5t65 194.5q0 78 -43.5 119t-122.5 41q-121 0 -244 -99q-2 -29 -2 -84z" />
<glyph unicode="7" d="M72 0q143 200 455.5 686t316.5 492h-684l43 297h1093l41 -132q-20 -37 -794 -1343h-471z" />
<glyph unicode="8" d="M41 336q0 82 25 151t72.5 123t104 94.5t130.5 77.5q-187 119 -187 287q0 90 33.5 163.5t90 122t133 81t159 47t172.5 14.5q243 0 360 -84t117 -237q0 -139 -73 -229t-213 -163q55 -33 90.5 -59.5t70.5 -65t51.5 -87t16.5 -109.5q0 -99 -36 -181t-96.5 -137.5t-142.5 -94 t-172 -56t-186 -17.5q-148 0 -264 39.5t-186 122t-70 197.5zM416 377q0 -63 51.5 -99t126.5 -36q98 0 162.5 50.5t64.5 147.5q0 62 -42.5 98.5t-139.5 77.5q-47 -19 -80 -36.5t-69 -45.5t-55 -67.5t-19 -89.5zM541 1085q0 -102 151 -170q39 16 69 32t63.5 41.5t52 60 t18.5 75.5q0 57 -42.5 87t-113.5 30q-34 0 -66 -8t-63 -24.5t-50 -48.5t-19 -75z" />
<glyph unicode="9" d="M119 932q0 172 86 302t230 196.5t323 66.5q108 0 198.5 -27t161.5 -82.5t110.5 -147.5t39.5 -214q0 -173 -60.5 -325.5t-162.5 -266.5t-242.5 -206.5t-293.5 -153t-323 -97.5l-39 279q119 39 237.5 92.5t243.5 139.5t189 176l-10 6q-143 -86 -307 -86q-175 0 -278 90.5 t-103 257.5zM487 975q0 -75 42.5 -115.5t121.5 -40.5q140 0 250 99q4 54 4 83q0 102 -43.5 169t-136.5 67q-104 0 -171 -72.5t-67 -189.5z" />
<glyph unicode=":" horiz-adv-x="602" d="M16 152q0 92 61.5 146t164.5 54q81 0 131.5 -44t50.5 -122q0 -98 -58.5 -153.5t-162.5 -55.5q-84 0 -135.5 46t-51.5 129zM111 809q0 92 61 147.5t164 55.5q80 0 130 -44.5t50 -121.5q0 -100 -58 -155.5t-161 -55.5q-84 0 -135 45.5t-51 128.5z" />
<glyph unicode=";" horiz-adv-x="602" d="M-61 -211q143 166 143 326q0 82 -51 159l338 52q47 -73 47 -162q0 -112 -61.5 -213.5t-166.5 -208.5zM111 809q0 92 61 147.5t164 55.5q80 0 130 -44.5t50 -121.5q0 -100 -58 -155.5t-161 -55.5q-84 0 -135 45.5t-51 128.5z" />
<glyph unicode="&#x3c;" d="M158 526v185l995 471v-279l-612 -287l612 -282v-279z" />
<glyph unicode="=" d="M121 254v248h1077v-248h-1077zM121 729v248h1077v-248h-1077z" />
<glyph unicode="&#x3e;" d="M166 55v279l612 282l-612 287v279l995 -471v-185z" />
<glyph unicode="?" horiz-adv-x="1089" d="M180 1446q86 50 208 81.5t239 31.5q207 0 318.5 -82t111.5 -234q0 -71 -25 -134.5t-64.5 -112t-87.5 -93t-96.5 -84.5t-88 -78.5t-64.5 -83t-25 -90.5q0 -49 15 -92h-349q-22 55 -22 133q0 58 22 110t57 91t77.5 74.5t85.5 67t78 62t57 66t22 72.5q0 52 -37.5 78 t-101.5 26q-58 0 -136 -22.5t-132 -54.5zM195 145q0 97 61.5 152t165.5 55q88 0 142 -44.5t54 -127.5q0 -93 -62.5 -148t-170.5 -55q-87 0 -138.5 44.5t-51.5 123.5z" />
<glyph unicode="@" horiz-adv-x="1660" d="M86 496q0 145 35.5 274.5t105.5 235t168.5 182.5t231 119t286.5 43q100 0 195 -22t182.5 -70t153 -117.5t104.5 -173t39 -228.5q0 -87 -21.5 -171.5t-64 -157.5t-100 -128.5t-134.5 -87.5t-163 -32q-73 0 -117 30.5t-61 98.5l-13 2q-115 -119 -247 -119q-120 0 -182 89 t-62 229q0 95 25.5 180t76.5 155.5t136.5 112t195.5 41.5q126 0 238 -76l63 60h82q-82 -566 -82 -592q0 -54 47 -54q42 0 87.5 27t85.5 77t65.5 133t25.5 183q0 103 -30 188t-82.5 144.5t-124 100.5t-153 60t-171.5 19q-215 -1 -377 -96.5t-248.5 -265t-86.5 -389.5 q0 -293 171.5 -469t448.5 -176q135 0 280 52t251 138l57 -84q-123 -100 -278 -154.5t-310 -54.5q-166 0 -304 57t-230.5 156.5t-143.5 236t-51 294.5zM674 516q0 -149 90 -149q75 0 149 88l48 299q-41 28 -99 28q-60 0 -103.5 -39.5t-64 -98.5t-20.5 -128z" />
<glyph unicode="A" horiz-adv-x="1671" d="M-63 0q160 306 428 803.5t401 732.5h358q283 -1036 406 -1536h-408l-82 377h-522q-114 -235 -176 -377h-405zM653 651h328q-26 118 -98 422h-13q-146 -281 -217 -422z" />
<glyph unicode="B" horiz-adv-x="1411" d="M29 0l215 1536h596q82 0 149 -7.5t132 -28.5t109.5 -55t71.5 -90t27 -130q0 -288 -280 -398l-5 -14q265 -75 265 -309q0 -126 -50.5 -224.5t-138 -158.5t-199 -90.5t-241.5 -30.5h-651zM455 250h170q117 0 199.5 65.5t82.5 186.5q0 168 -241 168h-152zM547 899h106 q108 0 186.5 67t78.5 181q0 141 -183 141h-135z" />
<glyph unicode="C" horiz-adv-x="1458" d="M74 610q0 201 65.5 375.5t184 301.5t293.5 199.5t384 72.5q123 0 251 -27.5t212 -81.5l-108 -291q-163 88 -338 88q-238 0 -380 -161.5t-142 -417.5q0 -186 111.5 -280.5t293.5 -94.5q199 0 381 82l4 -293q-235 -105 -495 -105q-115 0 -218.5 22t-195.5 71.5 t-158.5 121.5t-105.5 179t-39 239z" />
<glyph unicode="D" horiz-adv-x="1630" d="M29 0l215 1536h626q345 0 518 -154t173 -448q0 -204 -58 -374.5t-168.5 -295.5t-280.5 -194.5t-384 -69.5h-641zM463 293h190q96 0 176 32t136.5 88.5t95.5 133t57.5 165t18.5 185.5q0 181 -92.5 262.5t-266.5 81.5h-184z" />
<glyph unicode="E" horiz-adv-x="1155" d="M29 0l215 1536h936l-41 -293h-541l-49 -338h405l-69 -258h-371l-51 -352h551l-41 -295h-944z" />
<glyph unicode="F" horiz-adv-x="1146" d="M29 0l215 1536h964l-41 -293h-569l-51 -360h461l-72 -262h-426l-86 -621h-395z" />
<glyph unicode="G" horiz-adv-x="1595" d="M74 608q0 437 263.5 694t709.5 257q141 0 275 -29t226 -80l-108 -293q-175 90 -393 90q-258 0 -405.5 -158t-147.5 -427q0 -179 105 -275t284 -96q106 0 186 35l39 264h-137l33 239h493l-100 -725q-261 -127 -611 -127q-154 0 -282.5 39t-225 115.5t-150.5 198t-54 278.5 z" />
<glyph unicode="H" horiz-adv-x="1671" d="M29 0l215 1536h393l-84 -598h625l84 598h391l-215 -1536h-391l90 643h-625l-90 -643h-393z" />
<glyph unicode="I" horiz-adv-x="655" d="M29 0l215 1536h393l-215 -1536h-393z" />
<glyph unicode="J" horiz-adv-x="911" d="M-8 2l16 293q49 -14 123 -14q105 0 158.5 56t68.5 171l103 733h-156l43 295h555l-155 -1108q-32 -232 -166.5 -342.5t-345.5 -110.5q-102 0 -244 27z" />
<glyph unicode="K" horiz-adv-x="1531" d="M29 0l215 1536h393l-84 -596h127q95 107 453 596h426q-212 -301 -558 -723q42 -110 117.5 -256.5t143.5 -234.5q25 -34 59 -47t92 -15l-35 -260q-112 -23 -196 -23q-102 0 -163.5 31t-113.5 113q-44 69 -130.5 240.5t-131.5 283.5h-131l-90 -645h-393z" />
<glyph unicode="L" horiz-adv-x="1167" d="M29 0l215 1536h395l-176 -1241h584l-41 -295h-977z" />
<glyph unicode="M" horiz-adv-x="2043" d="M8 0l279 1536h401q144 -373 313 -909h15q121 179 283.5 454t256.5 455h416l-141 -1536h-375l86 926h-12q-110 -188 -278.5 -454t-231.5 -357q-23 -4 -93 -12.5t-89 -8.5q-20 59 -73.5 224t-106.5 319.5t-109 298.5l-14 -2l-162 -934h-365z" />
<glyph unicode="N" horiz-adv-x="1712" d="M29 0l215 1536h331q111 -141 288.5 -392.5t312.5 -463.5l14 4l119 852h385l-215 -1536l-252 -23q-342 521 -670 977h-14l-133 -954h-381z" />
<glyph unicode="O" horiz-adv-x="1726" d="M82 608q0 200 58.5 372.5t169.5 301.5t283.5 203t387.5 74q335 0 506.5 -163.5t171.5 -457.5q0 -205 -59.5 -380t-171 -304.5t-283.5 -203t-385 -73.5q-323 0 -500.5 164.5t-177.5 466.5zM492 621q0 -172 76 -264.5t229 -92.5q96 0 174.5 40.5t128.5 106t84 153t48.5 178 t14.5 184.5q0 350 -307 350q-80 0 -148 -28.5t-116 -78t-84.5 -113t-57.5 -138.5t-31.5 -149t-10.5 -148z" />
<glyph unicode="P" horiz-adv-x="1378" d="M29 0l215 1536h620q252 0 378 -102.5t126 -292.5q0 -122 -36.5 -226t-102.5 -180.5t-157 -130.5t-202 -81t-235 -27q-53 0 -143 4l-68 -500h-395zM535 803q46 -6 106 -6q69 0 124.5 14t102.5 44.5t73 87.5t26 136q0 88 -60.5 126t-173.5 38h-135z" />
<glyph unicode="Q" horiz-adv-x="1728" d="M82 608q0 161 36.5 304t111 261.5t180.5 204.5t252 133.5t319 47.5q335 0 506.5 -163.5t171.5 -457.5q0 -218 -65.5 -400.5t-197.5 -316t-317 -194.5q184 -146 375 -146q32 0 94 4l-35 -241q-98 -31 -206 -31q-124 0 -272 61.5t-268 145t-216 178.5q-227 47 -348 204 t-121 406zM492 621q0 -172 76 -264.5t229 -92.5q96 0 174.5 40.5t128.5 106t84 153t48.5 178t14.5 184.5q0 350 -307 350q-80 0 -148 -28t-116 -77.5t-84.5 -113t-57.5 -138.5t-31.5 -149t-10.5 -149z" />
<glyph unicode="R" horiz-adv-x="1472" d="M29 0l215 1536h565q253 0 384.5 -95t131.5 -282q0 -171 -75 -292t-232 -208q99 -223 178 -335q26 -37 56.5 -49.5t72.5 -12.5h29l-37 -262q-94 -23 -193 -23q-85 0 -138 19t-95 74q-45 59 -114 196.5t-130 288.5h-147l-78 -555h-393zM539 838h98q59 0 109 13.5t91.5 42 t65 79t23.5 119.5q0 81 -55 116t-162 35h-113z" />
<glyph unicode="S" horiz-adv-x="1284" d="M-10 109l98 303q86 -58 206 -97t234 -39q39 0 79 7.5t81.5 24t67.5 49.5t26 79q0 35 -21 64.5t-63 55.5t-85 46.5t-106.5 50t-107.5 54.5q-59 34 -98 62.5t-76.5 69t-56 93t-18.5 117.5q0 130 51 230t140 160t201 90t242 30q115 0 243 -28t220 -73l-108 -287 q-73 36 -175.5 60t-195.5 24q-94 0 -154.5 -34.5t-60.5 -108.5q0 -41 44 -78t102 -62.5t144 -67t142 -79.5q89 -59 135.5 -128.5t46.5 -174.5q0 -137 -52.5 -243.5t-144.5 -171t-209.5 -97.5t-254.5 -33q-153 0 -288.5 36.5t-227.5 95.5z" />
<glyph unicode="T" horiz-adv-x="1464" d="M131 1243l41 293h1346l-41 -293h-476l-174 -1243h-395l174 1243h-475z" />
<glyph unicode="U" horiz-adv-x="1640" d="M98 514q0 76 11 154l122 868h396l-125 -885q-8 -70 -8 -94q0 -139 72 -206.5t194 -67.5q64 0 120 19.5t105.5 61t84 115t48.5 172.5l125 885h395l-127 -895q-48 -338 -256.5 -501t-539.5 -163q-142 0 -253.5 30t-194 93.5t-126 167.5t-43.5 246z" />
<glyph unicode="V" horiz-adv-x="1593" d="M137 1536h414q97 -632 192 -1090h13q264 511 506 1090h411q-124 -276 -405 -821.5t-381 -714.5h-402q-58 194 -178 715.5t-170 820.5z" />
<glyph unicode="W" horiz-adv-x="2347" d="M143 1536h412q48 -457 152 -1071h12q223 404 364 670q-25 82 -46.5 106.5t-71.5 24.5l36 268q85 12 164 12q39 0 69 -3.5t61.5 -15.5t53.5 -31.5t40 -54t26 -81.5l152 -883h12q276 622 424 1059h407q-120 -306 -360 -844.5t-326 -691.5h-397q-29 123 -143 686h-6 q-145 -281 -377 -686h-385q-46 179 -141 707.5t-132 828.5z" />
<glyph unicode="X" horiz-adv-x="1579" d="M-92 0q351 454 606 774q-23 45 -94.5 185t-102.5 198q-30 52 -64.5 73t-80.5 21l39 283q82 10 180 10q99 0 155.5 -35.5t112.5 -138.5q12 -24 75 -160.5t85 -181.5h10q43 54 91.5 120t137 193t136.5 195h428q-357 -484 -567 -745q162 -338 237 -451q31 -47 72.5 -63.5 t99.5 -16.5l-39 -262q-22 -6 -92 -13.5t-104 -7.5q-99 0 -156 27t-106 117q-27 37 -209 409h-13q-191 -252 -393 -530h-444z" />
<glyph unicode="Y" horiz-adv-x="1472" d="M113 1243l39 291q65 8 155 8q101 0 166.5 -38.5t114.5 -139.5q3 -6 42.5 -93t77.5 -170.5t44 -99.5h12q101 133 360 535h428q-232 -340 -649 -885l-90 -651h-391l90 647q-183 371 -264 504q-31 51 -61.5 71.5t-73.5 20.5z" />
<glyph unicode="Z" horiz-adv-x="1458" d="M-37 0l21 158q265 345 888 1071l-2 12h-680l43 295h1203l30 -152q-60 -71 -209.5 -247t-241 -284t-220 -264t-228.5 -282l2 -12h758l-41 -295h-1323z" />
<glyph unicode="[" horiz-adv-x="954" d="M72 -201l247 1770h611l-39 -285h-250l-170 -1202h250l-39 -283h-610z" />
<glyph unicode="\" horiz-adv-x="1210" d="M125 1495l315 135l666 -1573l-309 -151z" />
<glyph unicode="]" horiz-adv-x="954" d="M10 -201l39 283h250l170 1202h-250l39 285h610l-247 -1770h-611z" />
<glyph unicode="^" d="M106 524l451 987h205l450 -987h-280l-273 598l-272 -598h-281z" />
<glyph unicode="_" d="M-172 -446l33 235h1345l-32 -235h-1346z" />
<glyph unicode="`" horiz-adv-x="1064" d="M391 1708l285 154l219 -519l-158 -73z" />
<glyph unicode="a" horiz-adv-x="1411" d="M55 438q0 148 40 273.5t118.5 220.5t205 149t288.5 54q216 0 380 -93l89 70h116l-110 -786q-4 -28 -4 -41q0 -22 10.5 -32.5t36.5 -10.5l71 4l-28 -213q-131 -56 -258 -56q-97 0 -146 39.5t-63 118.5l-10 4q-174 -162 -383 -162q-171 0 -262 129t-91 332zM444 473 q0 -106 36 -167.5t110 -61.5q56 0 116.5 33t104.5 88l63 458q-65 45 -149 45q-76 0 -132.5 -35.5t-87.5 -94.5t-46 -125.5t-15 -139.5z" />
<glyph unicode="b" horiz-adv-x="1351" d="M23 0l221 1577h379l-54 -385l-37 -203l11 -2q158 146 342 146q123 0 210 -62.5t128 -164.5t41 -232q0 -153 -42.5 -280.5t-123.5 -220.5t-206 -144.5t-282 -51.5q-240 0 -411 99l-70 -76h-106zM442 287q65 -45 152 -45q62 0 111 23.5t80 61.5t51 90.5t28 106t8 111.5 q0 231 -145 231q-56 0 -116 -32.5t-105 -88.5z" />
<glyph unicode="c" horiz-adv-x="1120" d="M55 451q0 111 22.5 209.5t73 186.5t124.5 151t183.5 100t243.5 37q91 0 195 -20t178 -56l-88 -275q-55 26 -128 44t-132 18q-62 0 -111.5 -21.5t-81 -56.5t-52.5 -82.5t-29.5 -96t-8.5 -100.5q0 -99 50 -159t157 -60q70 0 155.5 17.5t147.5 44.5l25 -266 q-77 -38 -196.5 -63.5t-239.5 -25.5q-232 0 -360 123.5t-128 350.5z" />
<glyph unicode="d" horiz-adv-x="1355" d="M55 438q0 166 46.5 299t130 219t197 131.5t249.5 45.5q135 0 233 -48l70 492h377l-221 -1577h-316l-26 131l-13 2q-76 -75 -160.5 -115.5t-193.5 -40.5q-92 0 -164 36.5t-117 100t-68.5 146t-23.5 178.5zM444 477q0 -111 38 -172t108 -61q54 0 117.5 34t103.5 87l63 458 q-65 45 -149 45q-75 0 -131.5 -35t-88 -93.5t-46.5 -124.5t-15 -138z" />
<glyph unicode="e" horiz-adv-x="1251" d="M55 459q0 311 177.5 493.5t494.5 182.5q214 0 334.5 -97t120.5 -297q0 -102 -27 -202h-709q-6 -33 -6 -78q0 -213 242 -213q162 0 373 69l22 -254q-101 -41 -227.5 -63.5t-241.5 -22.5q-84 0 -160.5 14.5t-149.5 50.5t-126 89.5t-85 137.5t-32 190zM477 696h365 q4 40 4 56q0 80 -35 115.5t-104 35.5q-80 0 -141.5 -52.5t-88.5 -154.5z" />
<glyph unicode="f" horiz-adv-x="915" d="M45 -471l184 1331h-174l35 252h176l10 59q21 124 63.5 208t108.5 130t145 65t187 19q170 0 295 -45l-86 -248q-85 29 -162 29q-72 0 -118.5 -32.5t-57.5 -122.5l-8 -62h277l-60 -252h-254l-184 -1331h-377z" />
<glyph unicode="g" horiz-adv-x="1355" d="M35 -420l35 281q64 -22 164 -39t188 -17q51 0 91.5 5t84.5 21t75 43.5t55 74.5t34 112l12 82l-8 4q-74 -68 -167.5 -109.5t-195.5 -41.5q-162 0 -255 120.5t-93 315.5q0 151 40 277t118 222t204 150t288 54q223 0 382 -91l89 68h120l-151 -1069q-13 -89 -40 -162.5 t-64 -128t-86.5 -96t-103.5 -68.5t-118 -44t-127.5 -24t-134.5 -7q-93 0 -222.5 17.5t-213.5 49.5zM438 477q0 -109 38 -170t108 -61q55 0 118 33t109 86l63 458q-62 41 -153 41q-60 0 -109 -23t-81 -60.5t-53.5 -88.5t-30.5 -104.5t-9 -110.5z" />
<glyph unicode="h" horiz-adv-x="1343" d="M23 0l221 1577h379l-54 -387l-39 -225l13 -2q176 170 383 170q165 0 241 -83t76 -249q0 -51 -10 -129l-92 -672h-381l88 633q6 43 6 76q0 133 -125 133q-129 0 -227 -127l-101 -715h-378z" />
<glyph unicode="i" horiz-adv-x="614" d="M23 0l153 1112h379l-154 -1112h-378zM211 1505q0 94 62.5 150.5t170.5 56.5q86 0 135.5 -45t49.5 -127q0 -104 -58.5 -160.5t-167.5 -56.5q-89 0 -140.5 47t-51.5 135z" />
<glyph unicode="j" horiz-adv-x="700" d="M-141 -451l10 281q51 -14 104 -14q59 0 91 34.5t42 110.5l123 885h-137l39 266h512l-172 -1239q-27 -188 -143 -266t-326 -78q-87 0 -143 20zM289 1505q0 94 62.5 150.5t170.5 56.5q86 0 135.5 -45t49.5 -127q0 -104 -58.5 -160.5t-167.5 -56.5q-89 0 -140.5 47 t-51.5 135z" />
<glyph unicode="k" horiz-adv-x="1345" d="M23 0l221 1577h379l-115 -819h90q72 80 283 354h419q-81 -105 -203.5 -252.5t-197.5 -230.5q15 -37 73.5 -150t86.5 -153q21 -32 45.5 -48t62.5 -16q42 0 58 2l-37 -258q-61 -29 -170 -29q-88 0 -153.5 39t-123.5 129q-21 31 -87.5 158t-84.5 170h-100l-68 -473h-378z " />
<glyph unicode="l" horiz-adv-x="616" d="M23 0l221 1577h374l-221 -1577h-374z" />
<glyph unicode="m" horiz-adv-x="2056" d="M23 0l155 1112h328l14 -147l15 -2q97 94 191 132t196 38q227 0 292 -179l17 -2q186 181 405 181q157 0 239.5 -84t82.5 -240q0 -55 -8 -107l-99 -702h-378l88 641q4 50 4 66q0 70 -29 102.5t-88 32.5q-63 0 -122 -32.5t-103 -92.5q-3 -48 -9 -92l-86 -625h-376l88 641 q6 37 6 68q0 67 -28.5 100t-90.5 33q-64 0 -123.5 -33.5t-101.5 -95.5l-101 -713h-378z" />
<glyph unicode="n" horiz-adv-x="1345" d="M23 0l155 1112h328l14 -147l15 -2q175 170 393 170q155 0 236 -81t81 -241q0 -45 -8 -115l-96 -696h-381l90 645q4 36 4 55q0 142 -123 142q-69 0 -129.5 -34.5t-99.5 -94.5l-101 -713h-378z" />
<glyph unicode="o" horiz-adv-x="1335" d="M55 446q0 116 20 214t69.5 187.5t127 151.5t198.5 99t278 37q246 0 374.5 -130.5t128.5 -340.5q0 -115 -21.5 -214t-71.5 -187.5t-126.5 -151t-193.5 -98.5t-265 -36q-245 0 -381.5 118.5t-136.5 350.5zM444 485q0 -118 45.5 -180.5t131.5 -62.5q67 0 115 30t75 84.5 t39 120t12 146.5q0 245 -174 245q-65 0 -113.5 -29.5t-76.5 -83t-41 -120.5t-13 -150z" />
<glyph unicode="p" horiz-adv-x="1345" d="M-45 -471l221 1581h318l24 -133l12 -2q157 160 355 160q92 0 164.5 -37t118 -101t69 -147t23.5 -178q0 -143 -39.5 -267t-116 -220.5t-199 -152t-276.5 -55.5q-125 0 -230 50l-67 -498h-377zM438 289q68 -47 156 -47q75 0 130.5 35.5t85.5 94.5t44 125t14 138 q0 110 -37.5 170.5t-107.5 60.5q-54 0 -117.5 -33t-103.5 -85z" />
<glyph unicode="q" horiz-adv-x="1357" d="M55 449q0 319 168.5 501.5t487.5 182.5q233 0 393 -89l82 68h106l-221 -1583h-387l61 389l41 201l-12 4q-75 -68 -156 -107t-186 -39q-184 0 -280.5 131t-96.5 341zM444 473q0 -106 36 -167.5t110 -61.5q56 0 116.5 33t104.5 88l63 458q-65 45 -149 45 q-76 0 -132.5 -35.5t-87.5 -94.5t-46 -125.5t-15 -139.5z" />
<glyph unicode="r" horiz-adv-x="1007" d="M23 0l155 1112h311l15 -192l14 -2q111 110 196 163.5t160 53.5q86 0 132 -76l-99 -285q-55 25 -112 25q-38 0 -80.5 -17t-89 -51.5t-72 -56.5t-68.5 -62l-84 -612h-378z" />
<glyph unicode="s" horiz-adv-x="1077" d="M-20 68l73 241q80 -34 193 -59t207 -25q35 0 61 3.5t53 13.5t41.5 33t14.5 57q0 22 -13 38t-41.5 28.5t-58 20.5t-80 22.5t-88.5 27.5q-56 19 -96.5 39.5t-80.5 53.5t-60.5 80.5t-20.5 109.5q0 87 29.5 154.5t78.5 110t120 69.5t147.5 38t167.5 11q112 0 220.5 -20 t162.5 -46l-84 -240q-61 27 -151 43.5t-177 16.5q-152 0 -152 -92q0 -13 5 -23t17 -18.5t26.5 -14.5t39 -14t48 -15t61 -18t70.5 -22q256 -84 256 -297q0 -92 -32 -163t-84 -114.5t-126.5 -71.5t-151.5 -38.5t-167 -10.5q-114 0 -242.5 28t-185.5 63z" />
<glyph unicode="t" horiz-adv-x="1024" d="M49 860l35 252h180l117 295h295l-41 -295h332l-58 -252h-309l-59 -432q-4 -32 -4 -51q0 -98 92 -98q105 0 213 47l45 -267q-84 -37 -198.5 -59.5t-209.5 -22.5q-91 0 -158 25.5t-102.5 69.5t-52 94.5t-16.5 109.5q0 55 10 130l63 454h-174z" />
<glyph unicode="u" horiz-adv-x="1339" d="M55 317q0 37 8 99l97 696h379l-90 -659q-7 -32 -7 -56q0 -74 32 -112.5t93 -38.5q63 0 126 33.5t104 82.5l104 750h379l-154 -1112h-313l-27 133l-14 2q-102 -95 -192 -126.5t-205 -31.5q-142 0 -231 87.5t-89 252.5z" />
<glyph unicode="v" horiz-adv-x="1308" d="M86 1112h381q62 -338 133 -637h14q75 142 310 637h403q-157 -309 -343 -649t-261 -463h-334q-3 10 -31.5 107.5t-61 210t-71.5 252t-76.5 284.5t-62.5 258z" />
<glyph unicode="w" horiz-adv-x="1888" d="M86 1112h365q57 -390 120 -696h15q81 127 223 401q-13 45 -27.5 58.5t-44.5 15.5l31 221q55 8 143 8q102 0 149.5 -30.5t69.5 -126.5q58 -263 105 -523h12q134 282 277 672h383q-95 -233 -251 -573t-253 -539h-356q-44 173 -121 496h-11q-139 -248 -290 -496h-320 q-145 638 -219 1112z" />
<glyph unicode="x" horiz-adv-x="1359" d="M-55 0q269 356 434 557q-69 138 -125 234q-45 75 -127 75l33 246q70 8 147 8q106 0 154.5 -27t101.5 -118q39 -68 109 -215h12l250 352h397q-37 -48 -176.5 -234.5t-216.5 -287.5q70 -138 149 -256q49 -72 140 -76l-35 -258q-90 -12 -150 -12q-95 0 -148 31t-106 116 q-34 56 -139 252h-12q-142 -191 -281 -387h-411z" />
<glyph unicode="y" horiz-adv-x="1398" d="M82 866l33 246q69 12 153 12q126 0 174.5 -38t75.5 -144q41 -156 119 -571h12q216 434 350 741h418q-200 -423 -837 -1583h-422q168 263 284 471h-82q-150 650 -190 793q-12 40 -30.5 56t-57.5 17z" />
<glyph unicode="z" horiz-adv-x="1204" d="M-23 0l21 147q55 62 184 213t238 275.5t188 210.5v12h-487l37 254h966l19 -147q-78 -84 -623 -695l4 -12h529l-37 -258h-1039z" />
<glyph unicode="{" horiz-adv-x="1021" d="M57 575l31 216q109 14 155.5 52t59.5 132l39 278q24 168 117 242t266 74h272l-39 -285h-79q-95 0 -138.5 -26.5t-54.5 -112.5l-27 -195q-13 -101 -72.5 -168.5t-156.5 -95.5l-2 -6q160 -53 160 -211q0 -25 -4 -53l-27 -195q-2 -14 -2 -41q0 -60 35.5 -79t118.5 -19h79 l-38 -283h-273q-152 0 -226.5 56.5t-74.5 181.5q0 35 6 76l39 278q4 40 4 51q0 63 -38.5 92.5t-129.5 40.5z" />
<glyph unicode="|" horiz-adv-x="827" d="M242 -307v2150h331v-2150h-331z" />
<glyph unicode="}" horiz-adv-x="1021" d="M10 -201l39 283h80q94 0 135.5 25.5t54.5 113.5l27 195q15 102 75 169t157 95l2 6q-78 25 -120 79.5t-42 135.5q0 17 4 49l27 195q4 36 4 45q0 60 -35.5 77t-118.5 17h-80l39 285h272q153 0 227 -56.5t74 -183.5q0 -35 -6 -76l-39 -266q-4 -40 -4 -63q0 -63 38 -92.5 t128 -40.5l-28 -216q-110 -14 -157.5 -52.5t-60.5 -131.5l-38 -278q-23 -167 -115 -240.5t-266 -73.5h-273z" />
<glyph unicode="~" d="M150 451q0 96 23.5 163.5t64 101.5t82.5 48t92 14q71 0 229 -41t219 -41q36 0 60 23.5t24 73.5h225q0 -92 -22 -159.5t-60 -103t-80 -51.5t-89 -16q-86 0 -245 41t-208 41q-41 0 -64 -20.5t-26 -73.5h-225z" />
<glyph unicode="&#xa1;" horiz-adv-x="796" d="M25 -428l200 1081h316l-88 -1046zM217 952q0 92 64 146.5t170 54.5q86 0 138 -44t52 -122q0 -98 -60.5 -153.5t-166.5 -55.5q-89 0 -143 45.5t-54 128.5z" />
<glyph unicode="&#xa2;" d="M104 604q0 159 43 298t124 247t207 177.5t284 86.5l72 270l292 -18l-67 -264q132 -24 239 -82l-108 -289q-55 31 -143 55.5t-168 24.5q-108 0 -186.5 -64.5t-115 -163.5t-36.5 -216q0 -256 250 -256q73 0 168 20.5t171 50.5l21 -284q-83 -40 -203 -66t-233 -31l-68 -264 l-297 19l72 280q-156 50 -237 168.5t-81 300.5z" />
<glyph unicode="&#xa3;" d="M16 0l25 178q112 27 181.5 91t82.5 163q0 4 1 13t1 14h-215l27 190h196v109h-180l27 192h164q0 9 4 33q15 110 56 198t100 146.5t135.5 97t159.5 55.5t175 17q199 0 342 -57l-96 -264q-43 15 -110.5 28t-120.5 13q-114 0 -175.5 -60t-80.5 -182l-4 -25h413l-26 -192h-398 q0 -74 -2 -109h383l-26 -190h-371q-12 -61 -44 -119t-75 -92h611l-35 -248h-1125z" />
<glyph unicode="&#xa4;" d="M2 313l182 160q-28 70 -28 152q0 179 100 331l-141 160l202 170l129 -145q124 73 287 73q162 0 268 -71l166 143l158 -166l-186 -162q30 -67 30 -157q0 -177 -100 -326l143 -158l-202 -170l-129 144q-126 -72 -287 -72t-270 70l-164 -142zM406 664q0 -99 61 -156t164 -57 q124 0 206.5 91.5t82.5 229.5q0 98 -60.5 154.5t-163.5 56.5q-126 0 -208 -91t-82 -228z" />
<glyph unicode="&#xa5;" d="M88 225l25 191h309l16 110h-309l27 191h258q-19 43 -92 204t-80 179q-43 88 -113 88l41 291q65 10 113 10q41 0 69 -5.5t61 -22.5t60.5 -55t52.5 -97q6 -12 71 -174.5t79 -194.5h10q141 208 342 535h365q-240 -367 -521 -758h271l-27 -191h-303l-16 -110h301l-25 -191 h-301l-31 -225h-374l30 225h-309z" />
<glyph unicode="&#xa6;" horiz-adv-x="827" d="M242 -307v803h331v-803h-331zM242 1044v799h331v-799h-331z" />
<glyph unicode="&#xa7;" horiz-adv-x="1325" d="M-43 -229l94 274q86 -41 210.5 -68.5t213.5 -27.5q72 0 119 30t47 89q0 28 -25.5 54t-67 46.5t-95 44t-108.5 46.5t-108.5 54.5t-95 67t-67 85t-25.5 107.5q0 143 91 231.5t239 127.5q-117 89 -117 215q0 101 51 182t135 130t184 74.5t204 25.5q117 0 248.5 -27.5 t234.5 -73.5l-94 -274q-84 40 -209 68t-213 28q-72 0 -119 -29t-47 -90q0 -32 32.5 -61t84.5 -53.5t115 -50t126 -58t115 -70t84.5 -93t32.5 -120.5q0 -74 -25.5 -134.5t-72.5 -103.5t-104 -73t-128 -49q117 -91 117 -213q0 -99 -52 -180t-136.5 -130t-184 -75.5 t-201.5 -26.5q-116 0 -247 27.5t-236 73.5zM438 616q0 -51 44 -88.5t130 -78.5q228 23 228 163q0 50 -45.5 88.5t-130.5 79.5q-226 -23 -226 -164z" />
<glyph unicode="&#xa8;" horiz-adv-x="1064" d="M170 1493q0 86 55.5 137t149.5 51q74 0 120 -41t46 -114q0 -94 -53 -145.5t-148 -51.5q-77 0 -123.5 42t-46.5 122zM739 1493q0 86 56 137t151 51q74 0 120 -41t46 -114q0 -93 -53.5 -145t-149.5 -52q-77 0 -123.5 42t-46.5 122z" />
<glyph unicode="&#xa9;" horiz-adv-x="1744" d="M86 772q0 171 63 318.5t170 250t252.5 160.5t307.5 58t307.5 -58.5t252.5 -161.5t169.5 -252t62.5 -321q0 -171 -62.5 -319.5t-169.5 -251t-252.5 -160.5t-307.5 -58t-307.5 58.5t-252.5 161.5t-170 252.5t-63 322.5zM195 768q0 -202 92.5 -361.5t248.5 -245t345 -85.5 q142 0 267 50.5t217 140t145 219.5t53 282q0 153 -53 283.5t-145 220t-217 140t-267 50.5q-189 0 -345 -86t-248.5 -246t-92.5 -362zM436 772q0 116 38 207t104.5 147t152.5 84.5t187 28.5q162 0 282 -65l-29 -191q-46 25 -106 40t-111 15q-122 0 -187 -71.5t-65 -192.5 q0 -126 70 -188t189 -62q56 0 121 13.5t108 33.5l16 -188q-113 -61 -284 -61q-98 0 -184 27t-154.5 80.5t-108 141.5t-39.5 201z" />
<glyph unicode="&#xaa;" horiz-adv-x="882" d="M127 1049q0 189 101 303t300 114q58 0 114 -16.5t93 -42.5l60 47h73l-67 -465q0 -5 -1 -12t-1 -10q0 -14 6 -20.5t22 -6.5l41 2l-14 -137q-75 -35 -166 -35q-57 0 -85 23.5t-38 70.5l-6 2q-52 -46 -99.5 -71t-113.5 -25q-105 0 -162 75t-57 204zM354 1073q0 -61 21.5 -97 t62.5 -36q70 0 133 70l35 260q-27 24 -86 24q-86 0 -126 -62.5t-40 -158.5z" />
<glyph unicode="&#xab;" horiz-adv-x="1376" d="M70 518l18 135l637 484l-47 -322l-305 -231l241 -232l-45 -321zM647 518l21 135l635 484l-46 -322l-307 -231l242 -232l-45 -321z" />
<glyph unicode="&#xac;" d="M121 729v248h1077v-637h-250v389h-827z" />
<glyph unicode="&#xad;" horiz-adv-x="876" d="M10 449l33 235l782 47l-32 -235z" />
<glyph unicode="&#xae;" horiz-adv-x="1073" d="M178 1149q0 179 120 294.5t306 115.5q185 0 305.5 -116t120.5 -294q0 -172 -122 -293t-304 -121q-91 0 -171 33t-135.5 89t-87.5 132t-32 160zM272 1155q0 -150 93 -242t245 -92q146 0 239 93t93 241q0 144 -93 229.5t-243 85.5q-151 0 -242.5 -85t-91.5 -230zM451 979 v381h153q70 0 114 -28.5t44 -90.5q0 -74 -66 -108q18 -32 52 -70q14 -19 45 -19v-65q-18 -6 -64 -6q-39 0 -68 33.5t-67 101.5h-35v-129h-108zM559 1186h33q65 0 65 45q0 43 -61 43h-37v-88z" />
<glyph unicode="&#xaf;" horiz-adv-x="1064" d="M248 1360l35 239h743l-33 -239h-745z" />
<glyph unicode="&#xb0;" horiz-adv-x="837" d="M176 1147q0 139 100 244.5t250 105.5q121 0 194 -69.5t73 -180.5q0 -145 -100 -248.5t-257 -103.5q-116 0 -188 71.5t-72 180.5zM330 1165q0 -61 35.5 -96t95.5 -35q77 0 127.5 58.5t50.5 136.5q0 61 -34 96t-99 35q-74 0 -125 -58t-51 -137z" />
<glyph unicode="&#xb1;" d="M137 55v250h1045v-250h-1045zM137 782v250h398v373h249v-373h398v-250h-398v-333h-249v333h-398z" />
<glyph unicode="&#xb2;" horiz-adv-x="811" d="M96 782l19 125q62 32 105.5 56.5t101.5 62t94 70.5t62 73t26 78q0 72 -78 72q-49 0 -114.5 -22t-112.5 -54l-31 156q58 36 143 62t176 26q55 0 101.5 -9.5t88 -30.5t65.5 -61.5t24 -97.5q0 -52 -20.5 -99t-62 -90t-80 -73.5t-97.5 -71.5l2 -6h237l-22 -166h-627z" />
<glyph unicode="&#xb3;" horiz-adv-x="811" d="M90 848l72 149q41 -29 101 -49t112 -20q58 0 95.5 20t37.5 60q0 24 -16 40t-48 23.5t-60.5 10t-70.5 3.5l13 93q190 38 190 104q0 47 -78 47q-51 0 -109.5 -17t-99.5 -42l-41 135q142 82 320 82q128 0 200 -39t72 -117q0 -62 -42.5 -105t-112.5 -65l-2 -6 q62 -15 99.5 -50t37.5 -93q0 -78 -56.5 -134.5t-140.5 -82t-182 -25.5q-85 0 -162 21t-129 57z" />
<glyph unicode="&#xb4;" horiz-adv-x="1064" d="M340 1343l362 521l244 -154l-469 -440z" />
<glyph unicode="&#xb5;" horiz-adv-x="1431" d="M18 -262q0 220 64 686l94 688h381l-94 -663q-4 -31 -4 -56q0 -70 35.5 -108.5t97.5 -38.5q59 0 122 33t103 81l105 752h378l-102 -741q-6 -38 -6 -60q0 -27 9 -40t32 -13q35 0 92 45l45 -172q-174 -154 -350 -154q-81 0 -139 40.5t-68 109.5l-16 4q-136 -154 -289 -154 q-81 0 -131 50q-8 -114 -8 -211q0 -123 12 -209l-352 -70q-11 115 -11 201z" />
<glyph unicode="&#xb6;" horiz-adv-x="1916" d="M100 911q0 153 57 273.5t157 196.5t231.5 115.5t285.5 39.5h1119l-41 -297h-195l-219 -1546h-391l219 1548h-152l-217 -1548h-387l111 782q-278 0 -428 113.5t-150 322.5zM475 961q0 -85 59 -137.5t185 -53.5l65 471q-131 -2 -220 -73t-89 -207z" />
<glyph unicode="&#xb7;" horiz-adv-x="602" d="M90 662q0 92 61 147t162 55q83 0 133 -44.5t50 -121.5q0 -99 -58.5 -155t-161.5 -56q-84 0 -135 46t-51 129z" />
<glyph unicode="&#xb8;" horiz-adv-x="1064" d="M115 -428l49 104q70 -38 155 -38q97 0 97 69q0 57 -123 57h-72l-20 66l209 170h229l-150 -113q158 -20 158 -141q0 -76 -47.5 -129t-115 -75.5t-144.5 -22.5q-134 0 -225 53z" />
<glyph unicode="&#xb9;" horiz-adv-x="811" d="M119 782l22 158h185l51 352l-189 -8l21 131q118 8 344 66h88l-76 -543h180l-22 -156h-604z" />
<glyph unicode="&#xba;" horiz-adv-x="839" d="M127 1051q0 193 102.5 304t302.5 111q148 0 225 -73.5t77 -204.5q0 -204 -105 -311t-293 -107q-145 0 -227 69.5t-82 211.5zM360 1065q0 -60 26 -93.5t73 -33.5q68 0 104.5 61.5t36.5 171.5q0 60 -24 94.5t-70 34.5q-69 0 -107.5 -59t-38.5 -176z" />
<glyph unicode="&#xbb;" horiz-adv-x="1413" d="M70 31l45 321l307 232l-244 231l47 322l498 -484l-18 -135zM647 31l45 321l307 232l-241 231l45 322l500 -484l-21 -135z" />
<glyph unicode="&#xbc;" horiz-adv-x="2023" d="M119 782l22 158h185l51 352l-189 -8l21 131q118 8 344 66h88l-76 -543h180l-22 -156h-604zM459 131l1036 1366l236 -149l-1041 -1371zM1167 133l17 115q25 25 479 457l182 -13l-59 -411h72l-35 -148h-58l-18 -133h-217l18 133h-381zM1425 287l2 -6h146l24 161h-6 q-96 -85 -166 -155z" />
<glyph unicode="&#xbd;" horiz-adv-x="2023" d="M119 782l22 158h185l51 352l-189 -8l21 131q118 8 344 66h88l-76 -543h180l-22 -156h-604zM377 131l1036 1366l236 -149l-1041 -1371zM1174 0l18 125q62 32 105.5 56.5t101.5 62t94 70.5t62 73t26 78q0 72 -78 72q-49 0 -114.5 -22t-112.5 -54l-31 155q58 37 143.5 63 t176.5 26q55 0 101 -9.5t88 -30.5t65.5 -61.5t23.5 -97.5q0 -52 -20.5 -99t-62 -90t-80 -73.5t-97.5 -71.5l2 -6h238l-23 -166h-626z" />
<glyph unicode="&#xbe;" horiz-adv-x="2023" d="M90 848l72 149q41 -29 101 -49t112 -20q58 0 95.5 20t37.5 60q0 24 -16 40t-48 23.5t-60.5 10t-70.5 3.5l13 93q190 38 190 104q0 47 -78 47q-51 0 -109.5 -17t-99.5 -42l-41 135q142 82 320 82q128 0 200 -39t72 -117q0 -62 -42.5 -105t-112.5 -65l-2 -6 q62 -15 99.5 -50t37.5 -93q0 -78 -56.5 -134.5t-140.5 -82t-182 -25.5q-85 0 -162 21t-129 57zM432 131l1036 1366l236 -149l-1040 -1371zM1167 133l17 115q25 25 479 457l182 -13l-59 -411h72l-35 -148h-58l-18 -133h-217l18 133h-381zM1425 287l2 -6h146l24 161h-6 q-96 -85 -166 -155z" />
<glyph unicode="&#xbf;" horiz-adv-x="1060" d="M-31 -82q0 71 25 134.5t64.5 112t87.5 93t95.5 84t87 78t64.5 82.5t25 90q0 58 -15 92h351q22 -60 22 -131q0 -59 -22 -111t-57 -90.5t-77.5 -74t-85.5 -66.5t-78 -61.5t-57 -66t-22 -73.5q0 -52 36.5 -79t100.5 -27q58 0 136 23t134 55l62 -269q-89 -49 -211 -80.5 t-236 -31.5q-204 0 -317 82t-113 235zM408 983q0 91 63.5 146t169.5 55q86 0 138 -44t52 -122q0 -99 -60.5 -154t-168.5 -55q-88 0 -141 45t-53 129z" />
<glyph unicode="&#xc0;" horiz-adv-x="1671" d="M-63 0q160 306 428 803.5t401 732.5h358q283 -1036 406 -1536h-408l-82 377h-522q-114 -235 -176 -377h-405zM627 1878l192 266l473 -315l-114 -139zM653 651h328q-26 118 -98 422h-13q-146 -281 -217 -422z" />
<glyph unicode="&#xc1;" horiz-adv-x="1671" d="M-63 0q160 306 428 803.5t401 732.5h358q283 -1036 406 -1536h-408l-82 377h-522q-114 -235 -176 -377h-405zM653 651h328q-26 118 -98 422h-13q-146 -281 -217 -422zM686 1829l563 315l115 -266l-606 -188z" />
<glyph unicode="&#xc2;" horiz-adv-x="1671" d="M-63 0q160 306 428 803.5t401 732.5h358q283 -1036 406 -1536h-408l-82 377h-522q-114 -235 -176 -377h-405zM455 1837l393 281h307l313 -281l-127 -147l-372 184l-430 -184zM653 651h328q-26 118 -98 422h-13q-146 -281 -217 -422z" />
<glyph unicode="&#xc3;" horiz-adv-x="1671" d="M-63 0q160 306 428 803.5t401 732.5h358q283 -1036 406 -1536h-408l-82 377h-522q-114 -235 -176 -377h-405zM514 1679q13 90 43 155.5t70 100t81 49.5t87 15q56 0 168.5 -30t158.5 -30q62 0 76 82h217q-13 -86 -42 -150.5t-67 -100t-78.5 -52t-84.5 -16.5 q-69 0 -182 29.5t-150 29.5q-31 0 -50.5 -18t-29.5 -64h-217zM653 651h328q-26 118 -98 422h-13q-146 -281 -217 -422z" />
<glyph unicode="&#xc4;" horiz-adv-x="1671" d="M-63 0q160 306 428 803.5t401 732.5h358q283 -1036 406 -1536h-408l-82 377h-522q-114 -235 -176 -377h-405zM500 1839q0 86 56 137.5t151 51.5q74 0 119.5 -41.5t45.5 -114.5q0 -94 -53.5 -145.5t-148.5 -51.5q-77 0 -123.5 42t-46.5 122zM653 651h328q-26 118 -98 422 h-13q-146 -281 -217 -422zM1069 1839q0 86 56 137.5t151 51.5q74 0 120 -41.5t46 -114.5q0 -94 -53 -145.5t-148 -51.5q-78 0 -125 42.5t-47 121.5z" />
<glyph unicode="&#xc5;" horiz-adv-x="1671" d="M-63 0q160 306 428 803.5t401 732.5h358q283 -1036 406 -1536h-408l-82 377h-522q-114 -235 -176 -377h-405zM653 651h328q-26 118 -98 422h-13q-146 -281 -217 -422zM678 1845q0 133 100 232.5t240 99.5q117 0 188.5 -67t71.5 -175q0 -137 -100.5 -236.5t-241.5 -99.5 q-115 0 -186.5 68.5t-71.5 177.5zM831 1864q0 -55 34.5 -88t90.5 -33q66 0 117 48.5t51 123.5q0 55 -35 89t-92 34q-68 0 -117 -50.5t-49 -123.5z" />
<glyph unicode="&#xc6;" horiz-adv-x="2127" d="M-111 0q266 326 686 817t629 719h948l-41 -293h-540l-47 -338h405l-71 -258h-371l-51 -352h551l-41 -295h-945l39 274h-491l-215 -274h-445zM768 549h309l62 440l-9 4q-193 -232 -362 -444z" />
<glyph unicode="&#xc7;" horiz-adv-x="1458" d="M74 610q0 201 65.5 375.5t184 301.5t293.5 199.5t384 72.5q123 0 251 -27.5t212 -81.5l-108 -291q-163 88 -338 88q-238 0 -380 -161.5t-142 -417.5q0 -186 111.5 -280.5t293.5 -94.5q199 0 381 82l4 -293q-178 -81 -393 -100l-125 -95q158 -20 158 -141q0 -76 -48 -129 t-115.5 -75.5t-144.5 -22.5q-134 0 -225 53l49 104q70 -38 156 -38q96 0 96 69q0 57 -123 57h-71l-21 66l189 154q-100 11 -186.5 40.5t-162.5 81t-129.5 121.5t-84.5 168t-31 215z" />
<glyph unicode="&#xc8;" horiz-adv-x="1155" d="M29 0l215 1536h936l-41 -293h-541l-49 -338h405l-69 -258h-371l-51 -352h551l-41 -295h-944zM377 1878l192 266l473 -315l-114 -139z" />
<glyph unicode="&#xc9;" horiz-adv-x="1155" d="M29 0l215 1536h936l-41 -293h-541l-49 -338h405l-69 -258h-371l-51 -352h551l-41 -295h-944zM395 1829l563 315l115 -266l-606 -188z" />
<glyph unicode="&#xca;" horiz-adv-x="1155" d="M29 0l215 1536h936l-41 -293h-541l-49 -338h405l-69 -258h-371l-51 -352h551l-41 -295h-944zM231 1837l394 281h307l313 -281l-127 -147l-373 184l-430 -184z" />
<glyph unicode="&#xcb;" horiz-adv-x="1155" d="M29 0l215 1536h936l-41 -293h-541l-49 -338h405l-69 -258h-371l-51 -352h551l-41 -295h-944zM266 1839q0 86 56 137.5t151 51.5q74 0 120 -41.5t46 -114.5q0 -93 -53.5 -145t-149.5 -52q-77 0 -123.5 42t-46.5 122zM836 1839q0 87 55.5 138t150.5 51q74 0 120 -41.5 t46 -114.5q0 -94 -52.5 -145.5t-147.5 -51.5q-78 0 -125 42.5t-47 121.5z" />
<glyph unicode="&#xcc;" horiz-adv-x="655" d="M29 0l215 1536h393l-215 -1536h-393zM127 1878l192 266l474 -315l-115 -139z" />
<glyph unicode="&#xcd;" horiz-adv-x="655" d="M29 0l215 1536h393l-215 -1536h-393zM172 1829l563 315l115 -266l-606 -188z" />
<glyph unicode="&#xce;" horiz-adv-x="655" d="M-25 1837l394 281h307l313 -281l-127 -147l-373 184l-430 -184zM29 0l215 1536h393l-215 -1536h-393z" />
<glyph unicode="&#xcf;" horiz-adv-x="655" d="M10 1839q0 86 56 137.5t151 51.5q74 0 120 -41.5t46 -114.5q0 -93 -53.5 -145t-149.5 -52q-77 0 -123.5 42t-46.5 122zM29 0l215 1536h393l-215 -1536h-393zM580 1839q0 87 55.5 138t150.5 51q74 0 120 -41.5t46 -114.5q0 -94 -52.5 -145.5t-147.5 -51.5q-78 0 -125 42.5 t-47 121.5z" />
<glyph unicode="&#xd0;" horiz-adv-x="1683" d="M18 647l37 266h154l88 623h629q343 0 515.5 -154t172.5 -448q0 -204 -58 -374.5t-168 -295.5t-280 -194.5t-385 -69.5h-641l90 647h-154zM516 293h193q118 0 212 49t152 133.5t88.5 192t30.5 229.5q0 181 -93 262.5t-268 81.5h-182l-47 -328h236l-37 -266h-236z" />
<glyph unicode="&#xd1;" horiz-adv-x="1712" d="M29 0l215 1536h331q111 -141 288.5 -392.5t312.5 -463.5l14 4l119 852h385l-215 -1536l-252 -23q-342 521 -670 977h-14l-133 -954h-381zM565 1679q13 90 43 155.5t70 100t81 49.5t87 15q56 0 169 -30t159 -30q61 0 75 82h217q-13 -86 -42 -150.5t-67 -100t-78.5 -52 t-84.5 -16.5q-69 0 -182 29.5t-150 29.5q-31 0 -50.5 -18t-29.5 -64h-217z" />
<glyph unicode="&#xd2;" horiz-adv-x="1726" d="M82 608q0 200 58.5 372.5t169.5 301.5t283.5 203t387.5 74q335 0 506.5 -163.5t171.5 -457.5q0 -205 -59.5 -380t-171 -304.5t-283.5 -203t-385 -73.5q-323 0 -500.5 164.5t-177.5 466.5zM492 621q0 -172 76 -264.5t229 -92.5q96 0 174.5 40.5t128.5 106t84 153t48.5 178 t14.5 184.5q0 350 -307 350q-80 0 -148 -28.5t-116 -78t-84.5 -113t-57.5 -138.5t-31.5 -149t-10.5 -148zM690 1878l193 266l473 -315l-115 -139z" />
<glyph unicode="&#xd3;" horiz-adv-x="1726" d="M82 608q0 200 58.5 372.5t169.5 301.5t283.5 203t387.5 74q335 0 506.5 -163.5t171.5 -457.5q0 -205 -59.5 -380t-171 -304.5t-283.5 -203t-385 -73.5q-323 0 -500.5 164.5t-177.5 466.5zM492 621q0 -172 76 -264.5t229 -92.5q96 0 174.5 40.5t128.5 106t84 153t48.5 178 t14.5 184.5q0 350 -307 350q-80 0 -148 -28.5t-116 -78t-84.5 -113t-57.5 -138.5t-31.5 -149t-10.5 -148zM684 1829l563 315l115 -266l-606 -188z" />
<glyph unicode="&#xd4;" horiz-adv-x="1726" d="M82 608q0 200 58.5 372.5t169.5 301.5t283.5 203t387.5 74q335 0 506.5 -163.5t171.5 -457.5q0 -205 -59.5 -380t-171 -304.5t-283.5 -203t-385 -73.5q-323 0 -500.5 164.5t-177.5 466.5zM492 621q0 -172 76 -264.5t229 -92.5q96 0 174.5 40.5t128.5 106t84 153t48.5 178 t14.5 184.5q0 350 -307 350q-80 0 -148 -28.5t-116 -78t-84.5 -113t-57.5 -138.5t-31.5 -149t-10.5 -148zM512 1837l393 281h307l314 -281l-127 -147l-373 184l-430 -184z" />
<glyph unicode="&#xd5;" horiz-adv-x="1726" d="M82 608q0 200 58.5 372.5t169.5 301.5t283.5 203t387.5 74q335 0 506.5 -163.5t171.5 -457.5q0 -205 -59.5 -380t-171 -304.5t-283.5 -203t-385 -73.5q-323 0 -500.5 164.5t-177.5 466.5zM492 621q0 -172 76 -264.5t229 -92.5q96 0 174.5 40.5t128.5 106t84 153t48.5 178 t14.5 184.5q0 350 -307 350q-80 0 -148 -28.5t-116 -78t-84.5 -113t-57.5 -138.5t-31.5 -149t-10.5 -148zM571 1679q13 90 43 155.5t70 100t81 49.5t87 15q56 0 169 -30t159 -30q61 0 75 82h218q-26 -166 -102 -242.5t-171 -76.5q-69 0 -182 29.5t-150 29.5q-31 0 -50.5 -18 t-29.5 -64h-217z" />
<glyph unicode="&#xd6;" horiz-adv-x="1726" d="M82 608q0 200 58.5 372.5t169.5 301.5t283.5 203t387.5 74q335 0 506.5 -163.5t171.5 -457.5q0 -205 -59.5 -380t-171 -304.5t-283.5 -203t-385 -73.5q-323 0 -500.5 164.5t-177.5 466.5zM492 621q0 -172 76 -264.5t229 -92.5q96 0 174.5 40.5t128.5 106t84 153t48.5 178 t14.5 184.5q0 350 -307 350q-80 0 -148 -28.5t-116 -78t-84.5 -113t-57.5 -138.5t-31.5 -149t-10.5 -148zM547 1839q0 86 56 137.5t151 51.5q74 0 120 -41.5t46 -114.5q0 -93 -53.5 -145t-149.5 -52q-77 0 -123.5 42t-46.5 122zM1116 1839q0 86 56 137.5t151 51.5 q74 0 120 -41.5t46 -114.5q0 -94 -53 -145.5t-148 -51.5q-78 0 -125 42.5t-47 121.5z" />
<glyph unicode="&#xd7;" d="M174 307l309 309l-309 310l176 174l309 -309l310 309l176 -174l-311 -310l311 -309l-176 -176l-310 309l-311 -309z" />
<glyph unicode="&#xd8;" horiz-adv-x="1726" d="M82 608q0 200 58.5 372.5t169.5 301.5t283.5 203t387.5 74q244 0 408 -93l104 125h143l-157 -190q180 -158 180 -463q0 -205 -59.5 -380t-171 -304.5t-283.5 -203t-385 -73.5q-230 0 -389 84l-86 -102h-144l138 166q-197 162 -197 483zM492 621q0 -125 34 -197l637 770 q-79 82 -223 82q-80 0 -148 -28.5t-116 -78t-84.5 -113t-57.5 -138.5t-31.5 -149t-10.5 -148zM592 330q75 -66 205 -66q96 0 174.5 40.5t128.5 106t84 153t48.5 178t14.5 184.5q0 96 -24 166z" />
<glyph unicode="&#xd9;" horiz-adv-x="1640" d="M98 514q0 76 11 154l122 868h396l-125 -885q-8 -70 -8 -94q0 -139 72 -206.5t194 -67.5q64 0 120 19.5t105.5 61t84 115t48.5 172.5l125 885h395l-127 -895q-48 -338 -256.5 -501t-539.5 -163q-142 0 -253.5 30t-194 93.5t-126 167.5t-43.5 246zM592 1878l192 266 l473 -315l-114 -139z" />
<glyph unicode="&#xda;" horiz-adv-x="1640" d="M98 514q0 76 11 154l122 868h396l-125 -885q-8 -70 -8 -94q0 -139 72 -206.5t194 -67.5q64 0 120 19.5t105.5 61t84 115t48.5 172.5l125 885h395l-127 -895q-48 -338 -256.5 -501t-539.5 -163q-142 0 -253.5 30t-194 93.5t-126 167.5t-43.5 246zM680 1829l563 315 l115 -266l-606 -188z" />
<glyph unicode="&#xdb;" horiz-adv-x="1640" d="M98 514q0 76 11 154l122 868h396l-125 -885q-8 -70 -8 -94q0 -139 72 -206.5t194 -67.5q64 0 120 19.5t105.5 61t84 115t48.5 172.5l125 885h395l-127 -895q-48 -338 -256.5 -501t-539.5 -163q-142 0 -253.5 30t-194 93.5t-126 167.5t-43.5 246zM469 1837l393 281h307 l314 -281l-127 -147l-373 184l-430 -184z" />
<glyph unicode="&#xdc;" horiz-adv-x="1640" d="M98 514q0 76 11 154l122 868h396l-125 -885q-8 -70 -8 -94q0 -139 72 -206.5t194 -67.5q64 0 120 19.5t105.5 61t84 115t48.5 172.5l125 885h395l-127 -895q-48 -338 -256.5 -501t-539.5 -163q-142 0 -253.5 30t-194 93.5t-126 167.5t-43.5 246zM506 1839q0 86 56 137.5 t151 51.5q74 0 120 -41.5t46 -114.5q0 -93 -53.5 -145t-149.5 -52q-77 0 -123.5 42t-46.5 122zM1075 1839q0 86 56 137.5t151 51.5q74 0 120 -41.5t46 -114.5q0 -94 -53 -145.5t-148 -51.5q-78 0 -125 42.5t-47 121.5z" />
<glyph unicode="&#xdd;" horiz-adv-x="1472" d="M113 1243l39 291q65 8 155 8q101 0 166.5 -38.5t114.5 -139.5q3 -6 42.5 -93t77.5 -170.5t44 -99.5h12q101 133 360 535h428q-232 -340 -649 -885l-90 -651h-391l90 647q-183 371 -264 504q-31 51 -61.5 71.5t-73.5 20.5zM598 1829l563 315l115 -266l-606 -188z" />
<glyph unicode="&#xde;" horiz-adv-x="1376" d="M29 0l215 1536h395l-37 -246h227q252 0 378 -103t126 -294q0 -153 -56 -276t-155.5 -202.5t-232.5 -122t-289 -42.5q-69 0 -143 4l-33 -254h-395zM500 555q46 -4 106 -4q326 0 326 285q0 88 -57.5 124.5t-169.5 36.5h-142z" />
<glyph unicode="&#xdf;" horiz-adv-x="1579" d="M45 -471l184 1331h-174l37 252h174l2 16q15 120 71 210.5t144 145.5t198.5 82t242.5 27q77 0 151 -9.5t146 -32t125.5 -56.5t86.5 -86.5t33 -118.5q0 -63 -20.5 -115.5t-53.5 -88t-73 -66t-80 -54.5t-73 -47t-53.5 -51t-20.5 -59q0 -27 21.5 -51t55.5 -43t75 -40 t82.5 -48t75.5 -60t55.5 -83.5t21.5 -112.5q0 -82 -30.5 -149.5t-81.5 -112t-120.5 -75t-144.5 -44t-156 -13.5q-104 0 -201.5 24.5t-162.5 64.5l77 239q61 -34 145.5 -57t153.5 -23q66 0 114 26t48 83q0 27 -23 49.5t-60 39.5t-81.5 34.5t-89 41t-81.5 53t-60 75.5t-23 104 t19 106.5t48.5 82t66 62.5t73 55t66 52t48.5 60t19 74q0 47 -38.5 73.5t-110.5 26.5q-57 0 -100.5 -16t-70 -40t-45.5 -61.5t-27.5 -71.5t-14.5 -79l-211 -1526h-379z" />
<glyph unicode="&#xe0;" horiz-adv-x="1411" d="M55 438q0 148 40 273.5t118.5 220.5t205 149t288.5 54q216 0 380 -93l89 70h116l-110 -786q-4 -28 -4 -41q0 -22 10.5 -32.5t36.5 -10.5l71 4l-28 -213q-131 -56 -258 -56q-97 0 -146 39.5t-63 118.5l-10 4q-174 -162 -383 -162q-171 0 -262 129t-91 332zM444 473 q0 -106 36 -167.5t110 -61.5q56 0 116.5 33t104.5 88l63 458q-65 45 -149 45q-76 0 -132.5 -35.5t-87.5 -94.5t-46 -125.5t-15 -139.5zM465 1708l285 154l219 -519l-158 -73z" />
<glyph unicode="&#xe1;" horiz-adv-x="1411" d="M55 438q0 148 40 273.5t118.5 220.5t205 149t288.5 54q216 0 380 -93l89 70h116l-110 -786q-4 -28 -4 -41q0 -22 10.5 -32.5t36.5 -10.5l71 4l-28 -213q-131 -56 -258 -56q-97 0 -146 39.5t-63 118.5l-10 4q-174 -162 -383 -162q-171 0 -262 129t-91 332zM444 473 q0 -106 36 -167.5t110 -61.5q56 0 116.5 33t104.5 88l63 458q-65 45 -149 45q-76 0 -132.5 -35.5t-87.5 -94.5t-46 -125.5t-15 -139.5zM516 1343l363 521l243 -154l-469 -440z" />
<glyph unicode="&#xe2;" horiz-adv-x="1411" d="M55 438q0 148 40 273.5t118.5 220.5t205 149t288.5 54q216 0 380 -93l89 70h116l-110 -786q-4 -28 -4 -41q0 -22 10.5 -32.5t36.5 -10.5l71 4l-28 -213q-131 -56 -258 -56q-97 0 -146 39.5t-63 118.5l-10 4q-174 -162 -383 -162q-171 0 -262 129t-91 332zM330 1372 l350 455h309l223 -455l-200 -102l-213 309l-297 -309zM444 473q0 -106 36 -167.5t110 -61.5q56 0 116.5 33t104.5 88l63 458q-65 45 -149 45q-76 0 -132.5 -35.5t-87.5 -94.5t-46 -125.5t-15 -139.5z" />
<glyph unicode="&#xe3;" horiz-adv-x="1411" d="M55 438q0 148 40 273.5t118.5 220.5t205 149t288.5 54q216 0 380 -93l89 70h116l-110 -786q-4 -28 -4 -41q0 -22 10.5 -32.5t36.5 -10.5l71 4l-28 -213q-131 -56 -258 -56q-97 0 -146 39.5t-63 118.5l-10 4q-174 -162 -383 -162q-171 0 -262 129t-91 332zM319 1317 q13 90 42.5 155.5t69.5 99.5t81 49t86 15q56 0 169 -29.5t159 -29.5q61 0 75 82h218q-26 -166 -102 -243t-169 -77q-69 0 -183 30t-149 30q-32 0 -51.5 -17t-27.5 -65h-218zM444 473q0 -106 36 -167.5t110 -61.5q56 0 116.5 33t104.5 88l63 458q-65 45 -149 45 q-76 0 -132.5 -35.5t-87.5 -94.5t-46 -125.5t-15 -139.5z" />
<glyph unicode="&#xe4;" horiz-adv-x="1411" d="M55 438q0 148 40 273.5t118.5 220.5t205 149t288.5 54q216 0 380 -93l89 70h116l-110 -786q-4 -28 -4 -41q0 -22 10.5 -32.5t36.5 -10.5l71 4l-28 -213q-131 -56 -258 -56q-97 0 -146 39.5t-63 118.5l-10 4q-174 -162 -383 -162q-171 0 -262 129t-91 332zM303 1493 q0 86 55.5 137t149.5 51q74 0 120 -41t46 -114q0 -94 -53 -145.5t-148 -51.5q-77 0 -123.5 42t-46.5 122zM444 473q0 -106 36 -167.5t110 -61.5q56 0 116.5 33t104.5 88l63 458q-65 45 -149 45q-76 0 -132.5 -35.5t-87.5 -94.5t-46 -125.5t-15 -139.5zM872 1493q0 86 56 137 t151 51q74 0 120 -41t46 -114q0 -93 -53.5 -145t-149.5 -52q-77 0 -123.5 42t-46.5 122z" />
<glyph unicode="&#xe5;" horiz-adv-x="1411" d="M55 438q0 148 40 273.5t118.5 220.5t205 149t288.5 54q216 0 380 -93l89 70h116l-110 -786q-4 -28 -4 -41q0 -22 10.5 -32.5t36.5 -10.5l71 4l-28 -213q-131 -56 -258 -56q-97 0 -146 39.5t-63 118.5l-10 4q-174 -162 -383 -162q-171 0 -262 129t-91 332zM444 473 q0 -106 36 -167.5t110 -61.5q56 0 116.5 33t104.5 88l63 458q-65 45 -149 45q-76 0 -132.5 -35.5t-87.5 -94.5t-46 -125.5t-15 -139.5zM467 1532q0 134 99.5 234t242.5 100q117 0 188.5 -67.5t71.5 -176.5q0 -137 -101 -235.5t-243 -98.5q-115 0 -186.5 68t-71.5 176z M623 1550q0 -54 34 -87t91 -33q66 0 115.5 48.5t49.5 123.5q0 56 -34.5 89t-92.5 33q-67 0 -115 -50.5t-48 -123.5z" />
<glyph unicode="&#xe6;" horiz-adv-x="1921" d="M2 254q0 126 82 205t219 110l461 107q10 51 10 80q0 58 -33.5 87t-119.5 29q-172 0 -390 -96l-75 228q127 67 267.5 99t264.5 32q232 0 328 -119q149 117 381 117q214 0 334 -96t120 -296q0 -106 -26 -202h-709q-6 -50 -6 -78q0 -105 59 -159t185 -54q159 0 370 69 l23 -254q-101 -41 -226.5 -63.5t-242.5 -22.5q-300 0 -434 185q-226 -185 -492 -185q-154 0 -252 72t-98 205zM397 322q0 -54 31 -81.5t88 -27.5q45 0 105.5 29t97.5 77l24 195q-133 -27 -237 -59q-47 -15 -78 -48.5t-31 -84.5zM1147 696h364q5 50 5 56q0 80 -35.5 115.5 t-104.5 35.5q-80 0 -141 -52.5t-88 -154.5z" />
<glyph unicode="&#xe7;" horiz-adv-x="1120" d="M55 451q0 111 22.5 209.5t73 186.5t124.5 151t183.5 100t243.5 37q91 0 195 -20t178 -56l-88 -275q-55 26 -128 44t-132 18q-62 0 -111.5 -21.5t-81 -56.5t-52.5 -82.5t-29.5 -96t-8.5 -100.5q0 -99 50 -159t157 -60q70 0 155.5 17.5t147.5 44.5l25 -266 q-124 -61 -295 -78l-131 -101q158 -20 158 -141q0 -76 -48 -129t-115.5 -75.5t-144.5 -22.5q-134 0 -225 53l49 104q70 -38 156 -38q96 0 96 69q0 57 -123 57h-71l-21 66l187 154q-190 22 -293 143t-103 324z" />
<glyph unicode="&#xe8;" horiz-adv-x="1251" d="M55 459q0 311 177.5 493.5t494.5 182.5q214 0 334.5 -97t120.5 -297q0 -102 -27 -202h-709q-6 -33 -6 -78q0 -213 242 -213q162 0 373 69l22 -254q-101 -41 -227.5 -63.5t-241.5 -22.5q-84 0 -160.5 14.5t-149.5 50.5t-126 89.5t-85 137.5t-32 190zM381 1708l285 154 l219 -519l-158 -73zM477 696h365q4 40 4 56q0 80 -35 115.5t-104 35.5q-80 0 -141.5 -52.5t-88.5 -154.5z" />
<glyph unicode="&#xe9;" horiz-adv-x="1251" d="M55 459q0 311 177.5 493.5t494.5 182.5q214 0 334.5 -97t120.5 -297q0 -102 -27 -202h-709q-6 -33 -6 -78q0 -213 242 -213q162 0 373 69l22 -254q-101 -41 -227.5 -63.5t-241.5 -22.5q-84 0 -160.5 14.5t-149.5 50.5t-126 89.5t-85 137.5t-32 190zM444 1343l363 521 l244 -154l-469 -440zM477 696h365q4 40 4 56q0 80 -35 115.5t-104 35.5q-80 0 -141.5 -52.5t-88.5 -154.5z" />
<glyph unicode="&#xea;" horiz-adv-x="1251" d="M55 459q0 311 177.5 493.5t494.5 182.5q214 0 334.5 -97t120.5 -297q0 -102 -27 -202h-709q-6 -33 -6 -78q0 -213 242 -213q162 0 373 69l22 -254q-101 -41 -227.5 -63.5t-241.5 -22.5q-84 0 -160.5 14.5t-149.5 50.5t-126 89.5t-85 137.5t-32 190zM293 1372l350 455h309 l224 -455l-201 -102l-213 309l-297 -309zM477 696h365q4 40 4 56q0 80 -35 115.5t-104 35.5q-80 0 -141.5 -52.5t-88.5 -154.5z" />
<glyph unicode="&#xeb;" horiz-adv-x="1251" d="M55 459q0 311 177.5 493.5t494.5 182.5q214 0 334.5 -97t120.5 -297q0 -102 -27 -202h-709q-6 -33 -6 -78q0 -213 242 -213q162 0 373 69l22 -254q-101 -41 -227.5 -63.5t-241.5 -22.5q-84 0 -160.5 14.5t-149.5 50.5t-126 89.5t-85 137.5t-32 190zM254 1493 q0 86 55.5 137t149.5 51q74 0 120 -41t46 -114q0 -94 -53 -145.5t-148 -51.5q-77 0 -123.5 42t-46.5 122zM477 696h365q4 40 4 56q0 80 -35 115.5t-104 35.5q-80 0 -141.5 -52.5t-88.5 -154.5zM823 1493q0 86 56 137t151 51q74 0 120 -41t46 -114q0 -93 -53.5 -145 t-149.5 -52q-77 0 -123.5 42t-46.5 122z" />
<glyph unicode="&#xec;" horiz-adv-x="614" d="M23 0l153 1112h379l-154 -1112h-378zM59 1708l285 154l219 -519l-157 -73z" />
<glyph unicode="&#xed;" horiz-adv-x="614" d="M23 0l153 1112h379l-154 -1112h-378zM184 1343l363 521l244 -154l-469 -440z" />
<glyph unicode="&#xee;" horiz-adv-x="614" d="M-39 1372l350 455h310l223 -455l-201 -102l-213 309l-297 -309zM23 0l153 1112h379l-154 -1112h-378z" />
<glyph unicode="&#xef;" horiz-adv-x="614" d="M-70 1493q0 86 55.5 137t149.5 51q74 0 120 -41t46 -114q0 -94 -53 -145.5t-148 -51.5q-77 0 -123.5 42t-46.5 122zM23 0l153 1112h379l-154 -1112h-378zM500 1493q0 86 56 137t151 51q74 0 119.5 -41t45.5 -114q0 -94 -53.5 -145.5t-148.5 -51.5q-77 0 -123.5 42 t-46.5 122z" />
<glyph unicode="&#xf0;" horiz-adv-x="1288" d="M53 375q0 176 79 302t215 187.5t315 61.5q66 0 153 -25l8 4q-28 123 -90 205l-319 -111l28 187l127 45q-68 53 -215 104l138 258q260 -65 438 -231l309 113l-27 -197l-159 -55q147 -213 147 -480q0 -157 -44.5 -294t-128.5 -243t-218 -167.5t-301 -61.5q-86 0 -165.5 24 t-145 71t-105 125t-39.5 178zM406 414q0 -83 43 -130.5t124 -47.5q58 0 104 28.5t74.5 72.5t48.5 104t28.5 116.5t11.5 116.5q-80 26 -164 26q-121 0 -195.5 -78t-74.5 -208z" />
<glyph unicode="&#xf1;" horiz-adv-x="1345" d="M23 0l155 1112h328l14 -147l15 -2q175 170 393 170q155 0 236 -81t81 -241q0 -45 -8 -115l-96 -696h-381l90 645q4 36 4 55q0 142 -123 142q-69 0 -129.5 -34.5t-99.5 -94.5l-101 -713h-378zM262 1317q13 90 42.5 155.5t69.5 99.5t81 49t86 15q56 0 168.5 -29.5 t158.5 -29.5q62 0 76 82h217q-26 -166 -101.5 -243t-168.5 -77q-69 0 -183 30t-149 30q-33 0 -52.5 -17t-27.5 -65h-217z" />
<glyph unicode="&#xf2;" horiz-adv-x="1335" d="M55 446q0 116 20 214t69.5 187.5t127 151.5t198.5 99t278 37q246 0 374.5 -130.5t128.5 -340.5q0 -115 -21.5 -214t-71.5 -187.5t-126.5 -151t-193.5 -98.5t-265 -36q-245 0 -381.5 118.5t-136.5 350.5zM403 1708l285 154l219 -519l-157 -73zM444 485q0 -118 45.5 -180.5 t131.5 -62.5q67 0 115 30t75 84.5t39 120t12 146.5q0 245 -174 245q-65 0 -113.5 -29.5t-76.5 -83t-41 -120.5t-13 -150z" />
<glyph unicode="&#xf3;" horiz-adv-x="1335" d="M55 446q0 116 20 214t69.5 187.5t127 151.5t198.5 99t278 37q246 0 374.5 -130.5t128.5 -340.5q0 -115 -21.5 -214t-71.5 -187.5t-126.5 -151t-193.5 -98.5t-265 -36q-245 0 -381.5 118.5t-136.5 350.5zM444 485q0 -118 45.5 -180.5t131.5 -62.5q67 0 115 30t75 84.5 t39 120t12 146.5q0 245 -174 245q-65 0 -113.5 -29.5t-76.5 -83t-41 -120.5t-13 -150zM459 1343l362 521l244 -154l-469 -440z" />
<glyph unicode="&#xf4;" horiz-adv-x="1335" d="M55 446q0 116 20 214t69.5 187.5t127 151.5t198.5 99t278 37q246 0 374.5 -130.5t128.5 -340.5q0 -115 -21.5 -214t-71.5 -187.5t-126.5 -151t-193.5 -98.5t-265 -36q-245 0 -381.5 118.5t-136.5 350.5zM279 1372l350 455h309l223 -455l-200 -102l-213 309l-297 -309z M444 485q0 -118 45.5 -180.5t131.5 -62.5q67 0 115 30t75 84.5t39 120t12 146.5q0 245 -174 245q-65 0 -113.5 -29.5t-76.5 -83t-41 -120.5t-13 -150z" />
<glyph unicode="&#xf5;" horiz-adv-x="1335" d="M55 446q0 116 20 214t69.5 187.5t127 151.5t198.5 99t278 37q246 0 374.5 -130.5t128.5 -340.5q0 -115 -21.5 -214t-71.5 -187.5t-126.5 -151t-193.5 -98.5t-265 -36q-245 0 -381.5 118.5t-136.5 350.5zM256 1317q13 90 42.5 155.5t69.5 99.5t81 49t86 15 q56 0 168.5 -29.5t158.5 -29.5q62 0 76 82h217q-26 -166 -101.5 -243t-168.5 -77q-69 0 -183 30t-149 30q-33 0 -52.5 -17t-27.5 -65h-217zM444 485q0 -118 45.5 -180.5t131.5 -62.5q67 0 115 30t75 84.5t39 120t12 146.5q0 245 -174 245q-65 0 -113.5 -29.5t-76.5 -83 t-41 -120.5t-13 -150z" />
<glyph unicode="&#xf6;" horiz-adv-x="1335" d="M55 446q0 116 20 214t69.5 187.5t127 151.5t198.5 99t278 37q246 0 374.5 -130.5t128.5 -340.5q0 -115 -21.5 -214t-71.5 -187.5t-126.5 -151t-193.5 -98.5t-265 -36q-245 0 -381.5 118.5t-136.5 350.5zM248 1493q0 86 55.5 137t149.5 51q74 0 119.5 -41t45.5 -114 q0 -94 -52.5 -145.5t-147.5 -51.5q-77 0 -123.5 42t-46.5 122zM444 485q0 -118 45.5 -180.5t131.5 -62.5q67 0 115 30t75 84.5t39 120t12 146.5q0 245 -174 245q-65 0 -113.5 -29.5t-76.5 -83t-41 -120.5t-13 -150zM817 1493q0 86 56 137t151 51q74 0 120 -41t46 -114 q0 -93 -53.5 -145t-149.5 -52q-77 0 -123.5 42t-46.5 122z" />
<glyph unicode="&#xf7;" d="M121 492v247h1077v-247h-1077zM508 225q0 64 41.5 104t109.5 40q69 0 110.5 -39.5t41.5 -104.5t-41 -102t-111 -37q-69 0 -110 37t-41 102zM508 1004q0 66 41 103.5t110 37.5t110.5 -37.5t41.5 -103.5q0 -64 -42 -103t-110 -39q-69 0 -110 39.5t-41 102.5z" />
<glyph unicode="&#xf8;" horiz-adv-x="1335" d="M55 446q0 116 20 213.5t69.5 187t127 151.5t198.5 98.5t278 36.5q150 0 260 -52l57 70h139l-104 -129q151 -124 151 -358q0 -115 -21.5 -214t-71.5 -187.5t-126.5 -151t-193.5 -98.5t-265 -36q-157 0 -272 50l-65 -80h-140l109 135q-150 122 -150 364zM444 485 q0 -53 9 -94l350 434q-43 43 -115 43q-65 0 -113.5 -29.5t-76.5 -83t-41 -120.5t-13 -150zM506 283q44 -41 115 -41q67 0 115 30t75 84.5t39 120t12 146.5q0 38 -8 92z" />
<glyph unicode="&#xf9;" horiz-adv-x="1339" d="M55 317q0 37 8 99l97 696h379l-90 -659q-7 -32 -7 -56q0 -74 32 -112.5t93 -38.5q63 0 126 33.5t104 82.5l104 750h379l-154 -1112h-313l-27 133l-14 2q-102 -95 -192 -126.5t-205 -31.5q-142 0 -231 87.5t-89 252.5zM428 1708l285 154l219 -519l-158 -73z" />
<glyph unicode="&#xfa;" horiz-adv-x="1339" d="M55 317q0 37 8 99l97 696h379l-90 -659q-7 -32 -7 -56q0 -74 32 -112.5t93 -38.5q63 0 126 33.5t104 82.5l104 750h379l-154 -1112h-313l-27 133l-14 2q-102 -95 -192 -126.5t-205 -31.5q-142 0 -231 87.5t-89 252.5zM537 1343l362 521l244 -154l-469 -440z" />
<glyph unicode="&#xfb;" horiz-adv-x="1339" d="M55 317q0 37 8 99l97 696h379l-90 -659q-7 -32 -7 -56q0 -74 32 -112.5t93 -38.5q63 0 126 33.5t104 82.5l104 750h379l-154 -1112h-313l-27 133l-14 2q-102 -95 -192 -126.5t-205 -31.5q-142 0 -231 87.5t-89 252.5zM311 1372l351 455h309l223 -455l-201 -102l-213 309 l-297 -309z" />
<glyph unicode="&#xfc;" horiz-adv-x="1339" d="M55 317q0 37 8 99l97 696h379l-90 -659q-7 -32 -7 -56q0 -74 32 -112.5t93 -38.5q63 0 126 33.5t104 82.5l104 750h379l-154 -1112h-313l-27 133l-14 2q-102 -95 -192 -126.5t-205 -31.5q-142 0 -231 87.5t-89 252.5zM285 1493q0 86 55 137t149 51q74 0 120 -41t46 -114 q0 -94 -52.5 -145.5t-147.5 -51.5q-77 0 -123.5 42t-46.5 122zM854 1493q0 86 56 137t151 51q74 0 120 -41t46 -114q0 -93 -53.5 -145t-149.5 -52q-77 0 -123.5 42t-46.5 122z" />
<glyph unicode="&#xfd;" horiz-adv-x="1398" d="M82 866l33 246q69 12 153 12q126 0 174.5 -38t75.5 -144q41 -156 119 -571h12q216 434 350 741h418q-200 -423 -837 -1583h-422q168 263 284 471h-82q-150 650 -190 793q-12 40 -30.5 56t-57.5 17zM561 1343l363 521l243 -154l-469 -440z" />
<glyph unicode="&#xfe;" horiz-adv-x="1347" d="M-45 -471l289 2048h379l-62 -444l-24 -158l10 -2q83 80 161.5 121t194.5 41q173 0 266 -122.5t93 -324.5q0 -151 -38.5 -279t-112.5 -225t-193 -152t-271 -55q-164 0 -252 48l-69 -496h-371zM442 287q23 -18 67.5 -30.5t94.5 -12.5q71 0 125 32.5t86 89t48 126t16 149.5 q0 103 -37 164t-115 61q-53 0 -112.5 -31.5t-108.5 -86.5z" />
<glyph unicode="&#xff;" horiz-adv-x="1398" d="M82 866l33 246q69 12 153 12q126 0 174.5 -38t75.5 -144q41 -156 119 -571h12q216 434 350 741h418q-200 -423 -837 -1583h-422q168 263 284 471h-82q-150 650 -190 793q-12 40 -30.5 56t-57.5 17zM334 1493q0 86 55.5 137t149.5 51q74 0 120 -41t46 -114 q0 -94 -53 -145.5t-148 -51.5q-77 0 -123.5 42t-46.5 122zM903 1493q0 86 56 137t151 51q74 0 120 -41t46 -114q0 -93 -53.5 -145t-149.5 -52q-77 0 -123.5 42t-46.5 122z" />
<glyph unicode="&#x152;" horiz-adv-x="2043" d="M82 604q0 273 104 482t310.5 329.5t490.5 120.5h1081l-40 -293h-541l-47 -338h405l-71 -258h-371l-49 -352h549l-41 -295h-1106q-325 0 -499.5 155t-174.5 449zM492 635q0 -165 81.5 -256.5t237.5 -91.5h145l136 966h-144q-112 0 -201.5 -55t-143.5 -145t-82.5 -197.5 t-28.5 -220.5z" />
<glyph unicode="&#x153;" horiz-adv-x="2045" d="M55 446q0 116 20 214t69.5 187.5t127 151.5t198.5 99t278 37q229 0 352 -150q163 150 422 150q214 0 333 -97t119 -297q0 -113 -24 -202h-711q-6 -43 -6 -78q0 -213 244 -213q163 0 370 69l25 -254q-101 -41 -227.5 -63.5t-241.5 -22.5q-258 0 -395 146 q-159 -146 -435 -146q-245 0 -381.5 118.5t-136.5 350.5zM444 485q0 -118 45.5 -180.5t131.5 -62.5q67 0 115 30t75 84.5t39 120t12 146.5q0 245 -174 245q-65 0 -113.5 -29.5t-76.5 -83t-41 -120.5t-13 -150zM1272 696h364q4 40 4 56q0 151 -139 151q-81 0 -141.5 -52 t-87.5 -155z" />
<glyph unicode="&#x178;" horiz-adv-x="1472" d="M113 1243l39 291q65 8 155 8q101 0 166.5 -38.5t114.5 -139.5q3 -6 42.5 -93t77.5 -170.5t44 -99.5h12q101 133 360 535h428q-232 -340 -649 -885l-90 -651h-391l90 647q-183 371 -264 504q-31 51 -61.5 71.5t-73.5 20.5zM403 1839q0 86 56 137.5t151 51.5 q74 0 120 -41.5t46 -114.5q0 -93 -53.5 -145t-149.5 -52q-77 0 -123.5 42t-46.5 122zM973 1839q0 86 56 137.5t151 51.5q74 0 120 -41.5t46 -114.5q0 -94 -53 -145.5t-148 -51.5q-78 0 -125 42.5t-47 121.5z" />
<glyph unicode="&#x2c6;" horiz-adv-x="1064" d="M180 1372l350 455h310l223 -455l-201 -102l-213 309l-297 -309z" />
<glyph unicode="&#x2dc;" horiz-adv-x="1064" d="M188 1317q13 90 42.5 155.5t69.5 99.5t81 49t86 15q56 0 169 -29.5t159 -29.5q61 0 75 82h217q-26 -166 -101.5 -243t-168.5 -77q-69 0 -183 30t-149 30q-32 0 -51.5 -17t-27.5 -65h-218z" />
<glyph unicode="&#x2000;" horiz-adv-x="1088" />
<glyph unicode="&#x2001;" horiz-adv-x="2177" />
<glyph unicode="&#x2002;" horiz-adv-x="1088" />
<glyph unicode="&#x2003;" horiz-adv-x="2177" />
<glyph unicode="&#x2004;" horiz-adv-x="725" />
<glyph unicode="&#x2005;" horiz-adv-x="544" />
<glyph unicode="&#x2006;" horiz-adv-x="362" />
<glyph unicode="&#x2007;" horiz-adv-x="362" />
<glyph unicode="&#x2008;" horiz-adv-x="272" />
<glyph unicode="&#x2009;" horiz-adv-x="435" />
<glyph unicode="&#x200a;" horiz-adv-x="120" />
<glyph unicode="&#x2010;" horiz-adv-x="876" d="M10 449l33 235l782 47l-32 -235z" />
<glyph unicode="&#x2011;" horiz-adv-x="876" d="M10 449l33 235l782 47l-32 -235z" />
<glyph unicode="&#x2012;" horiz-adv-x="876" d="M10 449l33 235l782 47l-32 -235z" />
<glyph unicode="&#x2013;" horiz-adv-x="1368" d="M10 473l35 238h1272l-35 -238h-1272z" />
<glyph unicode="&#x2014;" horiz-adv-x="1941" d="M10 473l35 238h1845l-35 -238h-1845z" />
<glyph unicode="&#x2018;" horiz-adv-x="544" d="M143 1206q0 180 226 377l202 -41q-59 -76 -94 -143.5t-35 -143.5q0 -84 60 -170l-299 -47q-60 78 -60 168z" />
<glyph unicode="&#x2019;" horiz-adv-x="544" d="M131 1059q40 52 62.5 86.5t44.5 90t22 107.5q0 87 -57 173l297 47q59 -76 59 -168q0 -180 -225 -377z" />
<glyph unicode="&#x201a;" horiz-adv-x="544" d="M-55 -186q40 51 63 85t45.5 90t22.5 109q0 79 -60 170l299 47q58 -79 58 -168q0 -178 -226 -376z" />
<glyph unicode="&#x201c;" horiz-adv-x="1005" d="M143 1206q0 180 226 377l202 -41q-59 -76 -94 -143.5t-35 -143.5q0 -84 60 -170l-299 -47q-60 78 -60 168zM606 1202q0 101 60 187.5t161 169.5l203 -39q-127 -155 -127 -269q0 -81 60 -164l-299 -45q-58 76 -58 160z" />
<glyph unicode="&#x201d;" horiz-adv-x="1005" d="M135 1081q127 155 127 269q0 78 -61 163l299 46q59 -73 59 -160q0 -100 -60 -186.5t-161 -170.5zM594 1059q39 52 61.5 86t45 90t22.5 108q0 88 -59 173l299 47q57 -74 57 -168q0 -183 -223 -377z" />
<glyph unicode="&#x201e;" horiz-adv-x="1005" d="M-51 -166q58 71 93.5 135.5t35.5 132.5q0 78 -62 164l299 47q58 -75 58 -161q0 -101 -59.5 -187.5t-159.5 -169.5zM408 -186q39 48 63 84t46 91.5t22 108.5q0 81 -62 170l301 47q58 -79 58 -168q0 -179 -226 -376z" />
<glyph unicode="&#x2022;" horiz-adv-x="1030" d="M170 653q0 156 103.5 253.5t271.5 97.5q136 0 217.5 -76t81.5 -207q0 -166 -100 -263.5t-267 -97.5q-136 0 -221.5 77t-85.5 216z" />
<glyph unicode="&#x2026;" horiz-adv-x="1732" d="M16 147q0 91 62.5 148t165.5 57q80 0 130 -44.5t50 -121.5q0 -97 -59.5 -153t-161.5 -56q-83 0 -135 44t-52 126zM582 147q0 91 62.5 148t164.5 57q81 0 130.5 -44.5t49.5 -121.5q0 -97 -59.5 -153t-161.5 -56q-83 0 -134.5 44t-51.5 126zM1149 147q0 91 61.5 148 t163.5 57q81 0 130.5 -44.5t49.5 -121.5q0 -97 -59 -153t-160 -56q-83 0 -134.5 44t-51.5 126z" />
<glyph unicode="&#x202f;" horiz-adv-x="435" />
<glyph unicode="&#x2039;" horiz-adv-x="798" d="M70 518l18 135l637 484l-47 -322l-305 -231l241 -232l-45 -321z" />
<glyph unicode="&#x203a;" horiz-adv-x="835" d="M70 31l45 321l307 232l-244 231l47 322l498 -484l-18 -135z" />
<glyph unicode="&#x205f;" horiz-adv-x="544" />
<glyph unicode="&#x20ac;" d="M59 496l27 188h131q8 74 14 111h-131l27 192h158q89 236 266.5 373t417.5 137q188 0 370 -90l-96 -268q-136 71 -252 71q-194 0 -289 -223h379l-26 -192h-408q-9 -55 -12 -111h405l-26 -188h-379q28 -217 231 -217q153 0 303 67l5 -278q-198 -91 -410 -91 q-119 0 -215.5 29.5t-170.5 90.5t-117 162t-50 237h-152z" />
<glyph unicode="&#x2122;" horiz-adv-x="1722" d="M160 1247v166h606v-166h-209v-465h-188v465h-209zM854 782l16 631h197q121 -222 180 -352h10q109 203 173 352h196l14 -631h-174l-6 357h-8q-28 -63 -65 -134t-65 -121t-32 -59q-40 -8 -80 -8q-133 264 -166 322h-8l-6 -357h-176z" />
<glyph unicode="&#x25fc;" horiz-adv-x="1116" d="M0 0v1116h1116v-1116h-1116z" />
<glyph unicode="&#xfb01;" horiz-adv-x="1382" d="M45 -471l184 1331h-174l35 252h178l6 57q10 97 48 172t93 122t128.5 77t148.5 41.5t160 11.5q209 0 373 -45l-82 -254q-95 29 -252 29q-223 0 -240 -149l-8 -62h680l-154 -1112h-381l119 860h-301l-184 -1331h-377z" />
<glyph unicode="&#xfb02;" horiz-adv-x="1456" d="M45 -471l184 1331h-174l35 252h176l8 57q14 100 53 176t94 122.5t131 75t154 39.5t173 11q138 0 299 -17.5t274 -43.5l-213 -1532h-381l182 1311q-79 18 -168 18q-199 0 -221 -153l-8 -64h256l-61 -252h-232l-184 -1331h-377z" />
</font>
</defs>
</svg>
