<?xml version="1.0" standalone="no"?>
<!DOCTYPE svg PUBLIC "-//W3C//DTD SVG 1.1//EN" "http://www.w3.org/Graphics/SVG/1.1/DTD/svg11.dtd" >
<svg xmlns="http://www.w3.org/2000/svg">
<metadata></metadata>
<defs>
<font id="soberana_sansultra_italic" horiz-adv-x="1536" >
<font-face units-per-em="2048" ascent="1577" descent="-471" />
<missing-glyph horiz-adv-x="532" />
<glyph horiz-adv-x="0" />
<glyph horiz-adv-x="682" />
<glyph unicode=" "  horiz-adv-x="532" />
<glyph unicode="&#x09;" horiz-adv-x="532" />
<glyph unicode="&#xa0;" horiz-adv-x="532" />
<glyph unicode="!" horiz-adv-x="907" d="M94 197q0 135 83 207.5t231 72.5q121 0 195.5 -60t74.5 -175q0 -125 -86.5 -198t-235.5 -73q-120 0 -191 59.5t-71 166.5zM199 547l65 969l602 49l-200 -1018h-467z" />
<glyph unicode="&#x22;" horiz-adv-x="1083" d="M201 993l12 533l424 39l-156 -572h-280zM723 993l12 533l424 39l-155 -572h-281z" />
<glyph unicode="#" horiz-adv-x="1331" d="M-29 279l45 325h199l43 162h-178l47 328h219l68 256h331l-69 -256h176l70 256h329l-67 -256h162l-48 -328h-202l-43 -162h182l-45 -325h-223l-68 -259h-332l68 259h-176l-68 -259h-330l68 259h-158zM547 604h176l43 162h-176z" />
<glyph unicode="$" d="M37 111l137 424q106 -62 253.5 -103t264.5 -41q135 0 135 51q0 20 -48.5 36t-143.5 39t-154 44q-305 106 -305 369q0 99 30.5 184.5t83.5 148.5t126.5 111t158 77t179.5 42l77 274l406 -36l-70 -254q155 -29 265 -78l-197 -408q-183 82 -354 82q-125 0 -125 -47 q0 -24 48.5 -43.5t157 -54t193.5 -72.5q221 -96 221 -311q0 -130 -47 -233t-131 -170.5t-190.5 -107.5t-233.5 -54l-74 -287l-411 33l71 272q-194 37 -323 113z" />
<glyph unicode="%" horiz-adv-x="2199" d="M102 1067q0 206 119 321t332 115q342 0 342 -284q0 -208 -115.5 -323.5t-328.5 -115.5q-349 0 -349 287zM420 197l989 1306l342 -219l-997 -1313zM426 1092q0 -82 55 -82q27 0 46.5 19.5t28 51t12 59t3.5 56.5q0 43 -13 60.5t-40 17.5q-28 0 -47 -18.5t-28.5 -48.5 t-13 -58t-3.5 -57zM1276 256q0 208 114.5 323t327.5 115q348 0 348 -286q0 -209 -117 -323t-331 -114q-342 0 -342 285zM1599 276q0 -41 13 -58t39 -17q28 0 47.5 18.5t28.5 49.5t12.5 58.5t3.5 57.5q0 80 -55 80q-26 0 -45 -19t-27.5 -50t-12.5 -60.5t-4 -59.5z" />
<glyph unicode="&#x26;" horiz-adv-x="1636" d="M-33 328q0 153 87 278t239 236q-31 98 -31 192q0 156 76 278t206 187.5t290 65.5q121 0 241.5 -37.5t196.5 -100.5l-185 -342q-46 34 -109.5 59t-123.5 25q-47 0 -80 -23.5t-33 -72.5q0 -73 70 -171.5t186 -203.5q19 29 56 89t45 73h467q-115 -207 -258 -397l10 -6 q101 -64 209 -64h61l-53 -393q-80 -29 -191 -29q-88 0 -179.5 28t-159.5 77q-20 12 -50 35q-229 -140 -514 -140q-137 0 -240.5 35.5t-168 117.5t-64.5 204zM465 412q0 -31 19.5 -51.5t54.5 -20.5q54 0 104 18q-77 70 -141 144q-37 -50 -37 -90z" />
<glyph unicode="'" horiz-adv-x="561" d="M201 993l12 533l424 39l-156 -572h-280z" />
<glyph unicode="(" horiz-adv-x="901" d="M53 526q0 266 103 485t302 367t470 199l-58 -403q-145 -98 -218.5 -260.5t-73.5 -358.5q0 -236 155 -365l-57 -403q-158 23 -279 90t-195 166t-111.5 221t-37.5 262z" />
<glyph unicode=")" horiz-adv-x="901" d="M-41 -213l57 403q146 100 219.5 263t73.5 360q0 236 -155 361l57 403q157 -23 278 -89.5t195.5 -165t112 -220t37.5 -260.5q0 -270 -103 -492t-302 -370.5t-470 -192.5z" />
<glyph unicode="*" horiz-adv-x="960" d="M100 1092l326 65l-307 66l157 256l213 -222l-51 308h318l-138 -308l271 220l88 -256l-324 -66l305 -65l-155 -256l-213 221l51 -307h-317l137 307l-271 -219z" />
<glyph unicode="+" horiz-adv-x="1331" d="M92 406v350h389v385h348v-385h390v-350h-390v-386h-348v386h-389z" />
<glyph unicode="," horiz-adv-x="688" d="M-80 -207q133 199 133 395q0 80 -24 156l479 59q18 -76 18 -159q0 -130 -62 -251.5t-173 -260.5z" />
<glyph unicode="-" horiz-adv-x="942" d="M-2 424l45 326l866 51l-45 -326z" />
<glyph unicode="." horiz-adv-x="688" d="M-4 205q0 124 81.5 196t223.5 72q111 0 178.5 -59t67.5 -164q0 -134 -78 -206.5t-219 -72.5q-114 0 -184 60t-70 174z" />
<glyph unicode="/" horiz-adv-x="1259" d="M-55 119l979 1519l387 -223l-981 -1517z" />
<glyph unicode="0" d="M94 541q0 104 13 202.5t42 195t72.5 180t107.5 155t143 122t183 79t224 28.5q283 0 425 -139t142 -410q0 -191 -40 -352t-112 -276.5t-170.5 -196t-215 -119.5t-246.5 -39q-134 0 -236 31t-178 97t-115 177t-39 265zM635 545q0 -172 84 -172q51 0 95.5 96.5t67.5 225.5 t23 243q0 83 -21.5 117.5t-64.5 34.5t-79.5 -57t-58.5 -143t-34 -177t-12 -168z" />
<glyph unicode="1" d="M47 0l57 416h381l80 573l-383 -14l51 356q352 32 748 144h213l-150 -1059h379l-57 -416h-1319z" />
<glyph unicode="2" d="M51 0l45 334q156 86 274 161t220 156t156.5 159t54.5 148q0 93 -115 93q-83 0 -193 -36t-186 -79l-110 399q129 72 304.5 120t362.5 48q86 0 162 -11t150 -39t127 -72t85.5 -115t32.5 -162q0 -105 -28.5 -198.5t-84 -173.5t-124 -146t-160.5 -133l2 -15h358l-61 -438 h-1272z" />
<glyph unicode="3" d="M25 131l188 397q73 -55 185 -96t206 -41q205 0 205 96q0 101 -340 101l35 252q37 8 55 12t54 13t55.5 16t48 17.5t44.5 21t32.5 23.5t24 28.5t7.5 32.5q0 67 -112 67q-87 0 -201 -35.5t-188 -85.5l-95 363q126 84 300 137t362 53q262 0 407.5 -87t145.5 -245 q0 -117 -80 -206t-211 -146l-2 -18q104 -39 172 -115t68 -194q0 -109 -48 -198.5t-125.5 -148t-180 -99t-207.5 -58t-212 -17.5q-178 0 -331 42t-262 118z" />
<glyph unicode="4" d="M39 233l41 304q219 237 907 966l436 -28l-118 -842h108l-84 -400h-80l-32 -233h-502l33 233h-709zM629 637l4 -12h178l33 219l-10 4q-22 -23 -64 -65.5t-77 -78.5t-64 -67z" />
<glyph unicode="5" d="M23 129l188 408q77 -52 217 -95t246 -43q70 0 110.5 19.5t40.5 70.5q0 22 -12.5 40.5t-37.5 32t-55 24.5t-74 19t-83.5 13.5t-94 10.5t-96.5 8.5t-100.5 8t-95.5 7.5q114 347 227 822h1078l-60 -414h-567q-7 -40 -27 -107q300 -36 434 -132t134 -290q0 -115 -43.5 -210 t-116.5 -159t-172 -108t-207.5 -64t-224.5 -20q-167 0 -326 40.5t-282 117.5z" />
<glyph unicode="6" d="M80 461q0 146 38.5 275t105.5 228t161.5 182.5t201.5 143t230.5 104t244.5 70.5t247 39l49 -391q-184 -24 -365 -90.5t-284 -173.5l8 -6q131 69 276 69q82 0 152.5 -19t128 -59t90.5 -109t33 -161q0 -124 -38.5 -224t-105 -168t-159 -113.5t-197.5 -66t-223 -20.5 q-87 0 -169.5 16.5t-160.5 54t-136 93t-93 139.5t-35 187zM604 498q0 -34 8 -68t35.5 -65t69.5 -31q65 0 110 45t45 115q0 51 -28 78.5t-78 27.5q-85 0 -162 -65v-37z" />
<glyph unicode="7" d="M70 0q138 194 265.5 376t197 283.5t158 230.5t114.5 167h-641l59 418h1235l55 -189q-130 -232 -757 -1286h-686z" />
<glyph unicode="8" d="M55 348q0 82 22.5 148.5t67.5 118.5t96.5 90.5t123.5 76.5q-168 107 -168 265q0 102 41 182.5t107 130.5t156.5 83.5t182.5 46.5t193 13q563 0 563 -342q0 -134 -68.5 -221.5t-202.5 -155.5q50 -28 81.5 -50.5t66.5 -59.5t52 -86.5t17 -112.5q0 -108 -44 -195.5 t-115.5 -143.5t-167.5 -94.5t-195.5 -54.5t-204.5 -16q-118 0 -221 20t-191.5 62t-140 117.5t-51.5 177.5zM592 410q0 -39 37.5 -56.5t79.5 -17.5q63 0 104 24.5t41 79.5q0 39 -30 61.5t-97 45.5q-33 -12 -48.5 -19.5t-40 -23.5t-35.5 -39.5t-11 -54.5zM696 1071 q0 -37 30.5 -67t72.5 -43q133 47 133 126q0 68 -105 68q-131 0 -131 -84z" />
<glyph unicode="9" d="M143 915q0 143 58.5 257t159.5 185t231 108.5t278 37.5q91 0 169.5 -12.5t157.5 -45.5t134.5 -86t90 -140t34.5 -201q0 -133 -37.5 -253.5t-103 -216.5t-158.5 -179.5t-199.5 -146.5t-230 -113t-247 -83.5t-253.5 -54.5l-49 394q49 4 162.5 34.5t262.5 96.5t224 141l-8 6 q-129 -70 -276 -70q-83 0 -152 17.5t-126.5 56t-89.5 107t-32 161.5zM664 983q0 -49 27.5 -73.5t78.5 -24.5q101 0 166 65q0 6 1 18.5t1 18.5q0 160 -121 160q-66 0 -109.5 -46t-43.5 -118z" />
<glyph unicode=":" horiz-adv-x="688" d="M-4 205q0 124 81.5 196t223.5 72q111 0 178.5 -59t67.5 -164q0 -134 -78 -206.5t-219 -72.5q-114 0 -184 60t-70 174zM92 879q0 124 81.5 196t223.5 72q111 0 178.5 -59t67.5 -164q0 -134 -78 -206.5t-219 -72.5q-114 0 -184 60t-70 174z" />
<glyph unicode=";" horiz-adv-x="688" d="M-80 -207q133 199 133 395q0 80 -24 156l479 59q18 -76 18 -159q0 -130 -62 -251.5t-173 -260.5zM92 879q0 124 81.5 196t223.5 72q111 0 178.5 -59t67.5 -164q0 -134 -78 -206.5t-219 -72.5q-114 0 -184 60t-70 174z" />
<glyph unicode="&#x3c;" horiz-adv-x="1331" d="M133 463v244l1045 491v-389l-484 -225l484 -222v-391z" />
<glyph unicode="=" horiz-adv-x="1331" d="M92 119v350h1127v-350h-1127zM92 692v350h1127v-350h-1127z" />
<glyph unicode="&#x3e;" horiz-adv-x="1331" d="M133 -29v391l483 222l-483 225v389l1045 -491v-244z" />
<glyph unicode="?" horiz-adv-x="1191" d="M147 1427q102 58 253.5 98t295.5 40q232 0 361 -81.5t129 -250.5q0 -66 -22.5 -127t-59 -107.5t-80.5 -89t-88 -79t-80.5 -70.5t-59 -71t-22.5 -73q0 -46 10 -73h-514q-20 55 -20 131q0 60 25 111.5t62 85.5t81 65.5t81 53.5t62 46.5t25 46.5q0 43 -76 43 q-58 0 -140.5 -25t-140.5 -57zM186 197q0 135 83 207.5t231 72.5q121 0 195.5 -60t74.5 -175q0 -125 -86 -198t-235 -73q-120 0 -191.5 59.5t-71.5 166.5z" />
<glyph unicode="@" horiz-adv-x="1622" d="M61 508q0 145 36 274.5t107.5 235t171.5 182.5t233.5 119t287.5 43q101 0 196.5 -21t185 -69.5t156 -119t106.5 -177t40 -236.5q0 -107 -33.5 -209.5t-94.5 -185t-155 -132.5t-206 -50q-81 0 -130.5 32t-72.5 101l-15 2q-127 -123 -258 -123q-118 0 -182.5 88.5 t-64.5 233.5q0 72 15 140t49.5 133t85 113t129 77.5t175.5 29.5q84 0 145.5 -20.5t129.5 -67.5l84 70h102q-74 -561 -74 -578q0 -19 8 -27t27 -8t44 12.5t54 42.5t53 72t40 109.5t16 146.5q0 106 -30.5 193t-83 146.5t-124.5 100.5t-153 60t-170 19q-216 -1 -380 -97 t-250.5 -265t-86.5 -386q0 -189 75.5 -338.5t220 -236.5t333.5 -87q139 0 290 58t242 143l62 -94q-123 -103 -278 -160t-312 -57q-148 0 -272.5 43.5t-211 117t-146.5 172.5t-88 209t-28 226zM717 535q0 -105 61 -105q44 0 90 59l29 218q-25 14 -59 14q-56 0 -88.5 -56 t-32.5 -130z" />
<glyph unicode="A" horiz-adv-x="1832" d="M-92 0q359 677 844 1536h546q58 -192 206 -722t216 -814h-587l-58 285h-454q-43 -90 -132 -285h-581zM805 666h192q-44 207 -53 243h-14q-63 -117 -125 -243z" />
<glyph unicode="B" horiz-adv-x="1566" d="M0 0l215 1536h782q59 0 106 -2.5t105 -10t102.5 -21t88.5 -38t72.5 -57t46.5 -81t18 -109.5q0 -144 -74 -247.5t-211 -150.5l-4 -18q53 -18 93.5 -40t78 -56.5t58 -86.5t20.5 -118q0 -107 -37 -193t-100.5 -142.5t-151.5 -94.5t-185 -54t-206 -16h-817zM614 340h101 q83 0 145 41t62 123q0 51 -38.5 79.5t-107.5 28.5h-123zM696 920h68q78 0 129 49t51 137q0 48 -28 70t-89 22h-92z" />
<glyph unicode="C" horiz-adv-x="1492" d="M53 610q0 213 69 390.5t194.5 302t307.5 193.5t402 69q317 0 498 -105l-154 -407q-147 69 -309 69q-182 0 -289.5 -112.5t-107.5 -311.5q0 -138 85.5 -209t231.5 -71q87 0 183.5 19t170.5 50l6 -411q-255 -105 -526 -105q-122 0 -231 21.5t-207.5 70.5t-169.5 121.5 t-112.5 181.5t-41.5 244z" />
<glyph unicode="D" horiz-adv-x="1705" d="M0 0l215 1536h754q336 0 514 -151t178 -455q0 -279 -103 -487t-310 -325.5t-496 -117.5h-752zM627 414h98q86 0 151.5 41.5t102 111t54.5 150t18 168.5q0 59 -13 102.5t-33.5 68.5t-52 40t-61.5 19.5t-70 4.5h-96z" />
<glyph unicode="E" horiz-adv-x="1228" d="M0 0l215 1536h1071l-57 -414h-500l-24 -168h364l-96 -356h-318l-26 -182h504l-58 -416h-1075z" />
<glyph unicode="F" horiz-adv-x="1257" d="M0 0l215 1536h1124l-57 -414h-553l-31 -209h451l-98 -358h-402l-78 -555h-571z" />
<glyph unicode="G" horiz-adv-x="1638" d="M53 604q0 230 72.5 411.5t206 302t323.5 184t424 63.5q322 0 543 -105l-154 -409q-166 71 -381 71q-206 0 -317 -116t-111 -324q0 -129 72 -196.5t205 -67.5q42 0 65 10l21 143h-76l45 328h588l-111 -795q-161 -74 -324.5 -103.5t-355.5 -29.5q-123 0 -231 22.5 t-201.5 71.5t-160 122t-104.5 179.5t-38 237.5z" />
<glyph unicode="H" horiz-adv-x="1773" d="M0 0l215 1536h569l-77 -551h430l77 551h570l-215 -1536h-570l80 569h-430l-80 -569h-569z" />
<glyph unicode="I" horiz-adv-x="774" d="M0 0l215 1536h569l-215 -1536h-569z" />
<glyph unicode="J" horiz-adv-x="968" d="M-20 4l24 416q40 -12 107 -12q81 0 114 38t45 119l78 553h-125l60 418h706l-153 -1090q-19 -132 -66 -225.5t-120.5 -147.5t-162 -78t-202.5 -24q-133 0 -305 33z" />
<glyph unicode="K" horiz-adv-x="1695" d="M0 0l215 1536h569l-77 -551h63q48 55 160 217.5t223 333.5h614q-94 -166 -524 -725q33 -95 91 -208t110 -175q21 -26 57.5 -36.5t100.5 -12.5l-54 -379q-145 -29 -266 -29q-137 0 -222 42t-151 157q-38 66 -97 192t-93 207h-70l-80 -569h-569z" />
<glyph unicode="L" horiz-adv-x="1269" d="M0 0l215 1536h571l-157 -1120h565l-57 -416h-1137z" />
<glyph unicode="M" horiz-adv-x="2187" d="M-20 0l278 1536h576q187 -479 262 -709h18q110 160 222.5 337.5t169.5 274.5l57 97h594l-154 -1536h-541l72 678h-14q-92 -138 -226.5 -331.5t-167.5 -235.5q-29 -6 -123 -16.5t-129 -12.5q-156 423 -235 610l-18 -2l-119 -690h-522z" />
<glyph unicode="N" horiz-adv-x="1802" d="M0 0l215 1536h487q235 -272 455 -594l17 4l83 590h555l-215 -1536l-374 -29q-105 149 -204 285t-150 202.5t-121 158t-80 104.5l-17 -2l-100 -719h-551z" />
<glyph unicode="O" horiz-adv-x="1787" d="M53 602q0 217 62 394t181.5 304t301 196t412.5 69q362 0 548.5 -154.5t186.5 -464.5q0 -221 -63.5 -401t-184 -307.5t-301.5 -197t-408 -69.5q-168 0 -301 37t-231 112.5t-150.5 197.5t-52.5 284zM643 618q0 -127 48.5 -186t150.5 -59q63 0 113.5 25t83.5 70t56.5 99 t35.5 119t17 122.5t5 117.5q0 134 -49 188.5t-148 54.5q-75 0 -133 -38t-91 -95t-54 -134.5t-28 -145.5t-7 -138z" />
<glyph unicode="P" horiz-adv-x="1556" d="M0 0l215 1536h789q284 0 421.5 -111t137.5 -317q0 -161 -62 -295t-170 -224t-253.5 -140t-311.5 -50q-94 0 -139 2l-56 -401h-571zM686 829q54 -4 86 -4q90 0 149.5 47t59.5 146q0 60 -41.5 82t-124.5 22h-86z" />
<glyph unicode="Q" horiz-adv-x="1789" d="M53 602q0 217 62 394t181.5 304t301 196t412.5 69q362 0 548.5 -154.5t186.5 -464.5q0 -320 -129.5 -549.5t-374.5 -337.5q152 -116 311 -116q44 0 90 4l-49 -344q-101 -35 -237 -35q-107 0 -229 39t-234.5 103.5t-211.5 139t-179 154.5q-214 56 -331.5 204.5 t-117.5 393.5zM643 618q0 -127 48.5 -186t150.5 -59q63 0 113.5 25t83.5 70t56.5 99t35.5 119t17 122.5t5 117.5q0 134 -49 188.5t-148 54.5q-75 0 -133 -38t-91 -95t-54 -134.5t-28 -145.5t-7 -138z" />
<glyph unicode="R" horiz-adv-x="1619" d="M0 0l215 1536h705q287 0 435 -101.5t148 -301.5q0 -327 -284 -510q73 -125 127 -189q44 -53 139 -53h33l-54 -381q-47 -11 -128 -20t-136 -9q-108 0 -176.5 21t-122.5 90q-88 114 -213 393h-53l-66 -475h-569zM692 874h56q74 0 126 38.5t52 117.5q0 53 -36 72.5 t-108 19.5h-55z" />
<glyph unicode="S" horiz-adv-x="1384" d="M-35 111l137 424q102 -57 236.5 -99.5t259.5 -42.5q158 0 158 53q0 28 -40.5 49.5t-136.5 55t-157 61.5q-57 26 -97 48t-83 56t-69 70.5t-43 88.5t-17 114q0 121 39 219t106 164t161 110t200 63.5t227 19.5q119 0 269.5 -28.5t254.5 -74.5l-145 -407q-74 31 -191 54.5 t-211 23.5q-131 0 -131 -52q0 -25 61 -49.5t171 -64t184 -82.5q98 -57 148.5 -127t50.5 -183q0 -122 -38.5 -223t-106 -170.5t-161 -117.5t-201.5 -70.5t-229 -22.5q-168 0 -329 36t-277 104z" />
<glyph unicode="T" horiz-adv-x="1517" d="M86 1122l57 414h1456l-57 -414h-442l-158 -1122h-571l157 1122h-442z" />
<glyph unicode="U" horiz-adv-x="1730" d="M74 522q0 90 14 185l117 829h571l-121 -852q-8 -74 -8 -98q0 -100 42.5 -141.5t133.5 -41.5q50 0 86 11t69.5 40t56 86t34.5 144l121 852h571l-123 -866q-53 -372 -268.5 -535.5t-609.5 -163.5q-170 0 -293.5 28.5t-213.5 92t-134.5 171t-44.5 259.5z" />
<glyph unicode="V" horiz-adv-x="1769" d="M113 1536h596q68 -517 151 -938h12q224 442 414 938h596q-137 -316 -412.5 -840.5t-379.5 -695.5h-615q-55 166 -182 687t-180 849z" />
<glyph unicode="W" horiz-adv-x="2498" d="M123 1536h596q21 -408 88 -905h12q135 208 268 426q-21 56 -42.5 73t-61.5 17l55 389q104 16 217 16q47 0 84.5 -3.5t79.5 -16.5t72 -35t53.5 -61t32.5 -93l113 -692h12q167 429 299 885h590q-133 -356 -354 -880t-293 -656h-611q-43 194 -96 453h-12 q-57 -101 -150.5 -256.5t-116.5 -196.5h-591q-41 157 -128.5 688t-115.5 848z" />
<glyph unicode="X" horiz-adv-x="1716" d="M-133 0q235 311 582 758q-25 42 -78 135t-84 145q-32 51 -68.5 67.5t-83.5 16.5l58 414q91 12 264 12q124 0 189.5 -36.5t129.5 -153.5q59 -114 119 -240h12q31 39 68.5 93t64 95t74.5 116.5t72 113.5h622q-316 -438 -555 -745q114 -231 185 -330q59 -82 194 -82 l-55 -381q-24 -7 -126.5 -17t-145.5 -10q-55 0 -89.5 2.5t-76 13.5t-71 31.5t-60.5 57.5t-58 90l-131 254h-16q-35 -49 -291 -420h-645z" />
<glyph unicode="Y" horiz-adv-x="1632" d="M84 1110l59 426q90 10 230 10q124 0 205 -43t137 -155l119 -238h12q39 50 80.5 113t106 168t89.5 145h623q-136 -196 -349 -483t-339 -449l-84 -604h-570l82 592q-180 322 -254 432q-35 50 -70 68t-77 18z" />
<glyph unicode="Z" horiz-adv-x="1556" d="M-61 0l30 231q145 184 764 873l-2 16h-581l59 416h1331l43 -223q-58 -66 -234.5 -263t-312.5 -352.5t-225 -265.5l4 -16h655l-57 -416h-1474z" />
<glyph unicode="[" horiz-adv-x="1034" d="M43 -201l248 1766h747l-55 -398h-231l-138 -970h232l-55 -398h-748z" />
<glyph unicode="\" horiz-adv-x="1259" d="M141 1444l459 194l553 -1519l-451 -221z" />
<glyph unicode="]" horiz-adv-x="1034" d="M-18 -201l55 398h231l138 970h-232l55 398h748l-248 -1766h-747z" />
<glyph unicode="^" horiz-adv-x="1331" d="M45 483l477 1053h266l478 -1053h-396l-215 482l-215 -482h-395z" />
<glyph unicode="_" horiz-adv-x="1331" d="M-188 -471l47 326h1370l-47 -326h-1370z" />
<glyph unicode="`" horiz-adv-x="1228" d="M420 1767l383 211l239 -600l-221 -102z" />
<glyph unicode="a" horiz-adv-x="1556" d="M29 428q0 158 45 288.5t132 227t224.5 150t314.5 53.5q259 0 441 -105l121 76h161l-98 -694q-4 -28 -4 -41q0 -20 9 -29.5t34 -9.5l66 4l-41 -307q-179 -70 -355 -70q-116 0 -179.5 40t-88.5 122l-8 4q-181 -166 -400 -166q-172 0 -273 122.5t-101 334.5zM594 485 q0 -143 100 -143q77 0 131 86l43 311q-42 33 -96 33q-39 0 -70.5 -18.5t-51.5 -47.5t-33 -68t-18 -76.5t-5 -76.5z" />
<glyph unicode="b" horiz-adv-x="1490" d="M-10 0l221 1577h551l-55 -393l-35 -178l10 -5q73 70 150.5 107t185.5 37q190 0 304 -123.5t114 -329.5q0 -336 -190.5 -528.5t-528.5 -192.5q-304 0 -492 113l-88 -84h-147zM592 377q42 -33 100 -33q52 0 88.5 26t54.5 70.5t25.5 90.5t7.5 98q0 143 -102 143 q-75 0 -129 -84z" />
<glyph unicode="c" horiz-adv-x="1177" d="M29 453q0 155 43.5 281t128.5 218.5t219.5 143.5t308.5 51q105 0 229.5 -22t198.5 -62l-125 -385q-52 25 -124.5 43t-127.5 18q-94 0 -140 -61.5t-46 -159.5q0 -57 34 -93t111 -36q146 0 281 49l29 -372q-82 -39 -214 -67t-266 -28q-258 0 -399 125.5t-141 356.5z" />
<glyph unicode="d" horiz-adv-x="1490" d="M29 426q0 152 37 275t99.5 204.5t149 136.5t181.5 79t200 24q131 0 224 -43l67 475h545l-221 -1577h-473l-37 127l-15 2q-77 -82 -156.5 -120t-193.5 -38q-187 0 -297 125t-110 330zM594 492q0 -70 25 -110t75 -40q34 0 70.5 22t60.5 62l43 311q-40 35 -96 35 q-48 0 -84.5 -26.5t-55.5 -70t-28.5 -90t-9.5 -93.5z" />
<glyph unicode="e" horiz-adv-x="1353" d="M29 469q0 333 198.5 505.5t550.5 172.5q87 0 161 -12t143 -42.5t117.5 -78.5t77 -123.5t28.5 -173.5q0 -116 -29 -211h-690q-2 -25 -2 -35q0 -49 43 -84t149 -35q181 0 406 60l28 -351q-232 -90 -551 -90q-88 0 -170.5 13t-168 48t-148.5 89t-103 143.5t-40 204.5z M623 702h200q2 14 2 37q0 50 -18.5 71t-56.5 21q-45 0 -78.5 -33t-48.5 -96z" />
<glyph unicode="f" horiz-adv-x="1026" d="M14 766l49 352h177l4 27q19 128 69 218.5t128 143t175 76t222 23.5q204 0 364 -50l-121 -346q-86 23 -153 23q-125 0 -137 -82l-7 -33h263l-84 -352h-230l-168 -1237h-549l172 1237h-174z" />
<glyph unicode="g" horiz-adv-x="1492" d="M14 -432l47 399q52 -15 157.5 -31t207.5 -16q348 0 348 223v9l-8 4q-74 -71 -172.5 -112.5t-198.5 -41.5q-75 0 -140.5 26t-116 76t-80 130t-29.5 182q0 163 44 296t131 230.5t223.5 151t313.5 53.5q129 0 236 -21.5t211 -81.5l119 74h166l-144 -995q-21 -145 -77 -256 t-132.5 -179.5t-180 -111.5t-208 -59.5t-227.5 -16.5q-106 0 -252.5 18t-237.5 50zM582 492q0 -68 26 -108t76 -40q35 0 72 22.5t67 61.5l43 311q-35 27 -102 27q-47 0 -84 -25.5t-57.5 -67t-30.5 -88t-10 -93.5z" />
<glyph unicode="h" horiz-adv-x="1478" d="M-10 0l221 1577h551l-57 -403l-37 -207l16 -2q78 81 180.5 130.5t212.5 49.5q180 0 258 -82t78 -262q0 -52 -14 -152l-90 -649h-551l82 588q6 38 6 63q0 44 -18.5 62t-59.5 18q-80 0 -139 -94l-88 -637h-551z" />
<glyph unicode="i" horiz-adv-x="720" d="M-10 0l155 1118h551l-155 -1118h-551zM197 1542q0 129 83.5 204t235.5 75q119 0 185.5 -61t66.5 -171q0 -142 -78 -216.5t-229 -74.5q-122 0 -193 62t-71 182z" />
<glyph unicode="j" horiz-adv-x="837" d="M-125 -449l14 400q40 -12 101 -12t90.5 32t40.5 107l92 661h-139l53 379h686l-166 -1188q-29 -209 -173.5 -305t-426.5 -96q-115 0 -172 22zM317 1542q0 129 84 204t236 75q119 0 185.5 -61t66.5 -171q0 -142 -78 -216.5t-229 -74.5q-122 0 -193.5 62t-71.5 182z" />
<glyph unicode="k" horiz-adv-x="1509" d="M-10 0l221 1577h551l-109 -774h31q70 90 205 315h600q-56 -84 -179 -247t-198 -255q27 -42 113 -163q47 -68 114 -68q58 0 76 2l-53 -377q-83 -39 -221 -39q-109 0 -194 44.5t-165 156.5q-47 64 -149 225h-37l-55 -397h-551z" />
<glyph unicode="l" horiz-adv-x="714" d="M-10 0l221 1577h545l-221 -1577h-545z" />
<glyph unicode="m" horiz-adv-x="2224" d="M-10 0l155 1118h492l18 -151l19 -2q175 180 399 180q252 0 313 -187l19 -4q94 103 203.5 147t214.5 44q160 0 248 -82t88 -250q0 -47 -9 -106l-98 -707h-551l84 602q4 36 4 47q0 44 -16.5 63t-50.5 19q-91 0 -140 -98q-1 -11 -2.5 -22.5l-3 -23t-2.5 -16.5l-80 -571h-546 l83 602q5 45 5 49q0 42 -16 61t-50 19q-92 0 -141 -98l-88 -633h-551z" />
<glyph unicode="n" horiz-adv-x="1480" d="M-10 0l155 1118h492l18 -151l19 -2q90 94 197.5 137t211.5 43q332 0 332 -326q0 -55 -10 -127l-96 -692h-551l86 612q2 12 2 35q0 84 -70 84q-98 0 -147 -98l-88 -633h-551z" />
<glyph unicode="o" horiz-adv-x="1462" d="M29 449q0 118 23 217t80.5 190t146.5 154t228.5 100t319.5 37q144 0 256 -36.5t182 -101.5t106 -151.5t36 -189.5q0 -117 -24.5 -217t-82 -190t-145.5 -153t-222.5 -100t-305.5 -37q-283 0 -440.5 120.5t-157.5 357.5zM592 510q0 -168 106 -168q146 0 146 262 q0 168 -105 168q-77 0 -112 -71t-35 -191z" />
<glyph unicode="p" horiz-adv-x="1484" d="M-78 -471l223 1587h473l35 -127l15 -2q78 82 158.5 121t193.5 39q187 0 298.5 -127t111.5 -332q0 -150 -44.5 -279t-128 -227.5t-214 -154.5t-293.5 -56q-122 0 -215 43l-68 -485h-545zM588 379q14 -13 44 -24t62 -11q48 0 83 27t52.5 71.5t25 90.5t7.5 96 q0 67 -25.5 106t-74.5 39q-34 0 -70.5 -22t-60.5 -62z" />
<glyph unicode="q" horiz-adv-x="1492" d="M29 444q0 344 186.5 522.5t536.5 178.5q61 0 99.5 -2t104 -10t129.5 -29.5t125 -56.5l113 71h145l-223 -1589h-563l68 399l41 183l-15 4q-71 -70 -148.5 -107t-185.5 -37q-193 0 -303 125.5t-110 347.5zM594 485q0 -143 100 -143q77 0 131 86l43 311q-42 33 -96 33 q-39 0 -70.5 -18.5t-51.5 -47.5t-33 -68t-18 -76.5t-5 -76.5z" />
<glyph unicode="r" horiz-adv-x="1179" d="M-10 0l155 1118h463l21 -227l16 -2q136 141 225.5 199.5t167.5 58.5q41 0 83.5 -21.5t68.5 -62.5l-141 -418q-65 25 -121 25q-40 0 -84.5 -19t-92 -56t-76 -62.5t-71.5 -67.5l-63 -465h-551z" />
<glyph unicode="s" horiz-adv-x="1196" d="M-53 68l106 335q97 -35 226 -60.5t239 -25.5q46 0 69 6t23 25q0 16 -29 22.5t-108.5 18.5t-155.5 33q-55 16 -97 36t-81.5 52.5t-60.5 82t-21 114.5q0 440 650 440q133 0 262.5 -21.5t191.5 -48.5l-117 -329q-66 25 -172 42t-196 17q-49 0 -71.5 -5t-22.5 -22 q0 -13 22.5 -19t104.5 -22t168 -39q117 -33 174 -101t57 -179q0 -89 -27 -160.5t-77 -119.5t-111.5 -82t-138.5 -52.5t-150.5 -26.5t-154.5 -8q-127 0 -282.5 29.5t-219.5 67.5z" />
<glyph unicode="t" horiz-adv-x="1150" d="M10 766l49 352h181l153 328h430l-45 -328h332l-76 -352h-303l-31 -223q-4 -36 -4 -56q0 -36 18.5 -60t55.5 -24q40 0 102.5 10.5t108.5 28.5l66 -372q-98 -40 -249 -69.5t-268 -29.5q-89 0 -159.5 22t-114 57t-72.5 82.5t-40 95t-11 98.5q0 81 12 166l39 274h-174z" />
<glyph unicode="u" horiz-adv-x="1470" d="M20 305q0 49 9 105l98 708h551l-88 -643q-4 -28 -4 -41q0 -48 18 -68t53 -20q39 0 78.5 22.5t63.5 55.5l96 694h551l-156 -1118h-467l-37 129l-16 2q-43 -45 -90 -76.5t-84.5 -47.5t-85.5 -24.5t-78 -10t-78 -1.5q-158 0 -246 83.5t-88 250.5z" />
<glyph unicode="v" horiz-adv-x="1480" d="M53 1118h551l94 -469h19q43 83 231 469h586q-325 -630 -637 -1118h-518q-205 615 -326 1118z" />
<glyph unicode="w" horiz-adv-x="2086" d="M53 1118h531q21 -140 39 -241.5t38.5 -205t22.5 -116.5h18q28 35 127 190q-13 37 -25.5 46.5t-41.5 11.5l43 315q99 15 203 15q132 0 196.5 -34t87.5 -136l86 -375h17q87 199 188 530h557q-99 -253 -242 -584t-241 -534h-557q-65 203 -101 322h-12q-48 -76 -84 -130.5 t-77 -113.5t-54 -78h-493q-149 649 -226 1118z" />
<glyph unicode="x" horiz-adv-x="1490" d="M-92 0q216 296 405 537q-21 39 -92 155q-43 67 -135 72l49 356q92 10 209 10q138 0 202 -29t113 -118q32 -57 84 -168h15q66 98 188 303h567q-153 -236 -368 -524q56 -99 98 -150q48 -62 152 -67l-52 -377q-115 -14 -202 -14q-121 0 -189 31.5t-123 115.5 q-36 53 -110 186h-14q-103 -154 -205 -319h-592z" />
<glyph unicode="y" horiz-adv-x="1581" d="M61 764l50 356q123 17 213 17q114 0 177 -20.5t94 -62t54 -124.5q24 -84 88 -416h15q187 383 280 604h602q-56 -117 -122.5 -247t-141 -269.5t-134 -250t-141 -256t-121.5 -216.5t-114.5 -203t-83.5 -147h-612q231 357 297 471h-131q-116 469 -176 690q-11 43 -32.5 57.5 t-60.5 16.5z" />
<glyph unicode="z" horiz-adv-x="1294" d="M-51 0l28 213q291 315 519 537l-2 16h-414l49 352h1104l20 -217q-300 -283 -532 -528l4 -13h463l-49 -360h-1190z" />
<glyph unicode="{" horiz-adv-x="1085" d="M23 539l40 284q97 8 140 37t53 101l37 258q48 346 407 346h390l-56 -398h-73q-88 0 -127 -22t-50 -98l-16 -117q-12 -88 -73 -154.5t-140 -89.5l-2 -10q64 -21 105.5 -75.5t41.5 -129.5q0 -27 -2 -39l-16 -113q-2 -12 -2 -32q0 -55 33 -72.5t110 -17.5h74l-55 -398h-389 q-318 0 -318 271q0 34 6 75l37 256q2 12 2 31q0 54 -36.5 77.5t-120.5 29.5z" />
<glyph unicode="|" horiz-adv-x="915" d="M209 -307v2150h477v-2150h-477z" />
<glyph unicode="}" horiz-adv-x="1085" d="M-18 -201l55 398h74q88 0 126 22.5t48 99.5l16 113q13 89 74.5 155t140.5 89l2 10q-65 21 -107 77t-42 132q0 23 2 35l16 117q4 28 4 36q0 53 -32.5 68.5t-110.5 15.5h-74l55 398h389q316 0 316 -269q0 -36 -6 -77l-37 -258q-2 -10 -2 -31q0 -54 37.5 -77.5t120.5 -29.5 l-41 -284q-96 -8 -139.5 -37.5t-53.5 -100.5l-37 -256q-48 -346 -405 -346h-389z" />
<glyph unicode="~" horiz-adv-x="1331" d="M119 373q0 97 19 170.5t47.5 114.5t68.5 66.5t75 33.5t74 8q61 0 215 -24.5t209 -24.5q22 0 37 17t15 54h313q-1 -113 -26.5 -194.5t-67.5 -122.5t-85.5 -58.5t-90.5 -17.5q-83 0 -238.5 24.5t-191.5 24.5q-27 0 -42 -14t-18 -57h-313z" />
<glyph unicode="&#xa1;" horiz-adv-x="907" d="M-8 -446l201 1017h466l-65 -968zM180 877q0 125 86.5 197.5t235.5 72.5q120 0 191 -59t71 -166q0 -135 -82.5 -208t-230.5 -73q-121 0 -196 60.5t-75 175.5z" />
<glyph unicode="&#xa2;" d="M119 604q0 347 175 557.5t499 257.5l73 277l418 -27l-67 -258q134 -26 260 -94l-156 -406q-56 31 -140.5 55.5t-166.5 24.5q-117 0 -184.5 -80t-67.5 -215q0 -90 46.5 -129t141.5 -39q169 0 346 68l37 -403q-87 -41 -214 -68t-247 -33l-65 -268l-422 24l72 281 q-338 107 -338 475z" />
<glyph unicode="&#xa3;" d="M23 0l34 256q201 52 238 174h-213l35 252h194v63h-184l35 254h168q18 95 56 173t91 132t116 93.5t137 62t148 33t154 10.5q229 0 430 -67l-135 -381q-45 16 -122 32.5t-134 16.5q-71 0 -111.5 -24.5t-60.5 -80.5h387l-35 -254h-379q0 -47 -2 -63h371l-35 -252h-377 q-26 -50 -69 -90h596l-47 -340h-1286z" />
<glyph unicode="&#xa4;" d="M74 367l174 153q-10 55 -10 105q0 143 69 284l-137 154l281 235l118 -131q123 60 269 60q144 0 254 -58l149 129l217 -231l-178 -154q12 -52 12 -112q0 -138 -71 -277l139 -153l-279 -236l-118 131q-118 -59 -269 -59q-152 0 -256 55l-147 -127zM575 676 q0 -73 48.5 -111.5t124.5 -38.5q89 0 147.5 67t58.5 167q0 72 -47.5 109.5t-122.5 37.5q-88 0 -148.5 -66t-60.5 -165z" />
<glyph unicode="&#xa5;" d="M121 170l35 250h280l10 65h-280l35 252h227l-109 232q-22 44 -49.5 62t-70.5 18l61 426q93 14 156 14q42 0 68 -2t62.5 -12.5t62 -31t53.5 -60t49 -95.5l75 -205h15q91 143 235 392h510q-288 -443 -497 -738h233l-35 -252h-260l-10 -65h260l-35 -250h-260l-22 -170h-541 l22 170h-280z" />
<glyph unicode="&#xa6;" horiz-adv-x="915" d="M209 -307v819h477v-819h-477zM209 1030v813h477v-813h-477z" />
<glyph unicode="&#xa7;" horiz-adv-x="1472" d="M-82 -209l133 389q109 -52 263.5 -85.5t256.5 -33.5q95 0 95 43q0 21 -48 43.5t-120 42.5t-156 53t-156 72t-120 102.5t-48 141.5q0 133 81.5 223t217.5 138q-94 81 -94 192q0 92 43.5 169t113 128.5t159.5 87.5t181.5 52t180.5 16q317 0 608 -127l-133 -389 q-107 52 -261.5 85t-256.5 33q-94 0 -94 -45q0 -21 48 -43.5t119.5 -42t155 -52t155 -71t119.5 -102t48 -141.5q0 -133 -81 -223t-216 -138q92 -82 92 -192q0 -92 -43 -169t-113 -128.5t-159.5 -87.5t-181.5 -52t-181 -16q-314 0 -608 127zM584 616q0 -34 32 -60t95 -54 q66 10 100.5 38.5t34.5 71.5q0 33 -33 60.5t-94 54.5q-66 -10 -100.5 -39t-34.5 -72z" />
<glyph unicode="&#xa8;" horiz-adv-x="1228" d="M137 1552q0 119 75 188.5t208 69.5q102 0 163.5 -56.5t61.5 -158.5q0 -128 -71.5 -197t-202.5 -69q-106 0 -170 56.5t-64 166.5zM817 1552q0 119 75 188.5t208 69.5q102 0 163.5 -56.5t61.5 -158.5q0 -128 -71.5 -197t-202.5 -69q-106 0 -170 56.5t-64 166.5z" />
<glyph unicode="&#xa9;" horiz-adv-x="1699" d="M61 772q0 178 63.5 328.5t172 251.5t254 157t309.5 56t309.5 -56.5t254 -158t172 -253.5t63.5 -333q0 -178 -63.5 -328.5t-172 -251.5t-254 -157t-309.5 -56t-309.5 56.5t-254 158t-172 253.5t-63.5 333zM176 770q0 -158 53.5 -290t146.5 -219.5t217.5 -136t266.5 -48.5 t266.5 48t217.5 135t146.5 219t53.5 292t-53.5 292t-146.5 219t-217.5 135t-266.5 48t-266.5 -48.5t-217.5 -136t-146.5 -219.5t-53.5 -290zM401 776q0 121 39.5 213.5t108.5 147.5t156.5 82.5t191.5 27.5q159 0 295 -65l-37 -252q-92 45 -197 45q-95 0 -140.5 -55 t-45.5 -142q0 -94 52 -138t143 -44q100 0 207 39l22 -256q-146 -60 -293 -60q-77 0 -148 15.5t-136.5 50.5t-113 87t-76 130t-28.5 174z" />
<glyph unicode="&#xaa;" horiz-adv-x="976" d="M123 1049q0 199 112 318.5t326 119.5q66 0 131 -18.5t107 -45.5l73 47h101l-60 -421q-2 -12 -2 -25q0 -23 27 -23l39 3l-25 -191q-96 -43 -219 -43q-69 0 -103 24t-50 74l-7 2q-51 -48 -102 -74t-119 -26q-106 0 -167.5 75t-61.5 204zM440 1087q0 -40 16 -65t46 -25 q44 0 86 52l24 188q-16 16 -61 16q-57 0 -84 -49t-27 -117z" />
<glyph unicode="&#xab;" horiz-adv-x="1478" d="M41 516l25 176l704 541l-63 -451l-236 -180l184 -180l-61 -451zM717 516l24 176l705 541l-64 -451l-235 -180l184 -180l-61 -451z" />
<glyph unicode="&#xac;" horiz-adv-x="1331" d="M92 692v350h1127v-735h-353v385h-774z" />
<glyph unicode="&#xad;" horiz-adv-x="942" d="M-2 424l45 326l866 51l-45 -326z" />
<glyph unicode="&#xae;" horiz-adv-x="1036" d="M154 1147q0 182 123 300t313 118q189 0 312.5 -118.5t123.5 -299.5q0 -177 -125 -302.5t-311 -125.5q-124 0 -224.5 58.5t-156 156t-55.5 213.5zM260 1151q0 -148 92.5 -242t241.5 -94q145 0 237.5 94t92.5 242q0 143 -92 227t-240 84q-149 0 -240.5 -84t-91.5 -227z M418 973v391h176q76 0 124 -31.5t48 -97.5q0 -73 -61 -113l30 -41q15 -20 49 -20v-88q-28 -8 -69 -8q-48 0 -74 25t-68 100h-18v-117h-137zM555 1184h29q49 0 49 37q0 32 -45 32h-33v-69z" />
<glyph unicode="&#xaf;" horiz-adv-x="1228" d="M287 1360l45 323h831l-45 -323h-831z" />
<glyph unicode="&#xb0;" horiz-adv-x="819" d="M150 1139q0 93 45.5 175.5t131 135.5t191.5 53q124 0 202.5 -71t78.5 -191q0 -152 -103.5 -260.5t-271.5 -108.5q-119 0 -196.5 76t-77.5 191zM344 1161q0 -52 30 -81t81 -29q65 0 107 51.5t42 114.5q0 110 -110 110q-61 0 -105.5 -49t-44.5 -117z" />
<glyph unicode="&#xb1;" horiz-adv-x="1331" d="M92 0v350h1127v-350h-1127zM92 768v350h389v357h348v-357h390v-350h-390v-291h-348v291h-389z" />
<glyph unicode="&#xb2;" horiz-adv-x="860" d="M76 782l26 170q86 38 143 66.5t113 62.5t83.5 67.5t27.5 65.5q0 43 -55 43q-49 0 -118.5 -23t-117.5 -54l-43 206q168 101 381 101q65 0 119 -10t102 -33t75.5 -65.5t27.5 -102.5q0 -83 -54.5 -142.5t-158.5 -121.5l2 -8h198l-30 -222h-721z" />
<glyph unicode="&#xb3;" horiz-adv-x="860" d="M61 848l105 199q42 -26 105.5 -46t115.5 -20q102 0 102 39q0 41 -184 41l17 119q170 30 170 73q0 21 -64 21q-114 0 -207 -51l-61 174q172 90 379 90q152 0 236.5 -42.5t84.5 -117.5q0 -63 -44 -107.5t-114 -60.5l-2 -8q64 -14 101 -43t37 -86q0 -83 -66.5 -142 t-163 -84.5t-209.5 -25.5q-205 0 -338 78z" />
<glyph unicode="&#xb4;" horiz-adv-x="1228" d="M365 1378l407 600l326 -211l-541 -491z" />
<glyph unicode="&#xb5;" horiz-adv-x="1572" d="M-12 -262q0 256 61 686l96 694h551l-94 -667q-2 -8 -2 -23q0 -41 21.5 -61.5t54.5 -20.5q39 0 80 22.5t61 57.5l96 692h551l-92 -657q-4 -40 -4 -49q0 -24 8 -33.5t29 -9.5q31 0 90 34l47 -256q-239 -176 -463 -176q-95 0 -169.5 42t-92.5 114l-18 4q-32 -63 -100 -111.5 t-146 -48.5q-26 0 -53 9q-6 -74 -6 -158q0 -112 12 -203l-508 -90q-10 105 -10 209z" />
<glyph unicode="&#xb6;" horiz-adv-x="2234" d="M66 868q0 133 38 243t106.5 188t166 132t215 79.5t254.5 25.5h1450l-60 -418h-194l-201 -1425h-559l201 1425h-135l-201 -1425h-559l100 708q-141 0 -253.5 27.5t-195.5 83.5t-128 146t-45 210zM604 942q0 -120 144 -123l40 299q-82 -2 -133 -44t-51 -132z" />
<glyph unicode="&#xb7;" horiz-adv-x="688" d="M61 666q0 123 82 195.5t222 72.5q114 0 180.5 -58.5t66.5 -164.5q0 -134 -79 -206.5t-218 -72.5q-113 0 -183.5 60t-70.5 174z" />
<glyph unicode="&#xb8;" horiz-adv-x="1228" d="M160 -430l63 129q86 -39 156 -39q72 0 72 47q0 39 -117 39h-62l-26 84l211 170h311l-137 -98q135 -34 135 -146q0 -65 -31 -114t-82.5 -76.5t-110.5 -41t-122 -13.5q-155 0 -260 59z" />
<glyph unicode="&#xb9;" horiz-adv-x="860" d="M86 782l31 211h192l33 238l-195 -8l27 180q39 3 79.5 8.5t67 9.5t72 14t60 13.5t68.5 17t63 15.5h127l-68 -488h193l-31 -211h-719z" />
<glyph unicode="&#xba;" horiz-adv-x="905" d="M123 1053q0 212 118 323t332 111q342 0 342 -283q0 -94 -23 -168.5t-62.5 -123.5t-96 -81.5t-121.5 -46.5t-141 -14q-348 0 -348 283zM446 1077q0 -78 56 -78q38 0 64 46t26 137q0 80 -53 80q-38 0 -65.5 -42.5t-27.5 -142.5z" />
<glyph unicode="&#xbb;" horiz-adv-x="1540" d="M57 -29l62 451l237 180l-186 180l63 451l553 -541l-24 -176zM733 -29l62 451l237 180l-186 180l63 451l553 -541l-24 -176z" />
<glyph unicode="&#xbc;" horiz-adv-x="2281" d="M86 782l31 211h192l33 238l-195 -8l27 180q39 3 79.5 8.5t67 9.5t72 14t60 13.5t68.5 17t63 15.5h127l-68 -488h193l-31 -211h-719zM569 197l990 1306l342 -219l-998 -1313zM1341 100l21 152q105 98 275.5 255.5t213.5 197.5l265 -15l-56 -393h56l-45 -197h-39l-15 -100 h-299l15 100h-392zM1683 303l5 -6h77l11 76l-9 2z" />
<glyph unicode="&#xbd;" horiz-adv-x="2281" d="M86 782l31 211h192l33 238l-195 -8l27 180q39 3 79.5 8.5t67 9.5t72 14t60 13.5t68.5 17t63 15.5h127l-68 -488h193l-31 -211h-719zM473 197l989 1306l342 -219l-997 -1313zM1346 0l26 170q86 38 143 66.5t113 62.5t83.5 67.5t27.5 65.5q0 43 -56 43q-49 0 -118 -23.5 t-117 -54.5l-43 207q168 101 381 101q65 0 119 -10t102 -33t75 -65.5t27 -102.5q0 -44 -16 -82t-47.5 -70.5t-65.5 -57.5t-84 -55l2 -8h199l-31 -221h-720z" />
<glyph unicode="&#xbe;" horiz-adv-x="2281" d="M61 848l105 199q42 -26 105.5 -46t115.5 -20q102 0 102 39q0 41 -184 41l17 119q170 30 170 73q0 21 -64 21q-114 0 -207 -51l-61 174q172 90 379 90q152 0 236.5 -42.5t84.5 -117.5q0 -63 -44 -107.5t-114 -60.5l-2 -8q64 -14 101 -43t37 -86q0 -83 -66.5 -142 t-163 -84.5t-209.5 -25.5q-205 0 -338 78zM532 197l990 1306l342 -219l-998 -1313zM1341 100l21 152q105 98 275.5 255.5t213.5 197.5l265 -15l-56 -393h56l-45 -197h-39l-15 -100h-299l15 100h-392zM1683 303l5 -6h77l11 76l-9 2z" />
<glyph unicode="&#xbf;" horiz-adv-x="1171" d="M-55 -66q0 76 30.5 146t76 119.5t99 98.5t99 86.5t76 81.5t30.5 85q0 47 -10 74h514q21 -58 21 -131q0 -60 -25 -111.5t-62 -86t-81 -66t-81 -53.5t-62 -46.5t-25 -46.5q0 -43 76 -43q58 0 140 25t140 57l82 -383q-101 -58 -253 -97.5t-296 -39.5q-232 0 -360.5 81 t-128.5 250zM360 926q0 125 86.5 197.5t235.5 72.5q120 0 191 -59t71 -166q0 -135 -82.5 -208t-230.5 -73q-121 0 -196 60.5t-75 175.5z" />
<glyph unicode="&#xc0;" horiz-adv-x="1832" d="M-92 0q359 677 844 1536h546q58 -192 206 -722t216 -814h-587l-58 285h-454q-43 -90 -132 -285h-581zM684 1898l254 361l537 -377l-158 -192zM805 666h192q-44 207 -53 243h-14q-63 -117 -125 -243z" />
<glyph unicode="&#xc1;" horiz-adv-x="1832" d="M-92 0q359 677 844 1536h546q58 -192 206 -722t216 -814h-587l-58 285h-454q-43 -90 -132 -285h-581zM682 1882l643 377l152 -361l-695 -208zM805 666h192q-44 207 -53 243h-14q-63 -117 -125 -243z" />
<glyph unicode="&#xc2;" horiz-adv-x="1832" d="M-92 0q359 677 844 1536h546q58 -192 206 -722t216 -814h-587l-58 285h-454q-43 -90 -132 -285h-581zM426 1901l434 325h453l342 -325l-185 -211l-428 208l-493 -208zM805 666h192q-44 207 -53 243h-14q-63 -117 -125 -243z" />
<glyph unicode="&#xc3;" horiz-adv-x="1832" d="M-92 0q359 677 844 1536h546q58 -192 206 -722t216 -814h-587l-58 285h-454q-43 -90 -132 -285h-581zM512 1669q13 97 42.5 170.5t64 114.5t78 66.5t80 33.5t75.5 8q60 0 169 -24.5t163 -24.5q22 0 39.5 17.5t21.5 54.5h314q-17 -113 -54 -194.5t-85 -122.5t-94 -58.5 t-93 -17.5q-83 0 -192.5 24.5t-145.5 24.5q-27 0 -44.5 -14.5t-25.5 -57.5h-313zM805 666h192q-44 207 -53 243h-14q-63 -117 -125 -243z" />
<glyph unicode="&#xc4;" horiz-adv-x="1832" d="M-92 0q359 677 844 1536h546q58 -192 206 -722t216 -814h-587l-58 285h-454q-43 -90 -132 -285h-581zM455 1870q0 119 74.5 188.5t207.5 69.5q102 0 164 -56.5t62 -158.5q0 -128 -72 -197t-203 -69q-106 0 -169.5 56.5t-63.5 166.5zM805 666h192q-44 207 -53 243h-14 q-63 -117 -125 -243zM1135 1870q0 119 74.5 188.5t207.5 69.5q102 0 163.5 -56.5t61.5 -158.5q0 -128 -71.5 -197t-202.5 -69q-106 0 -169.5 56.5t-63.5 166.5z" />
<glyph unicode="&#xc5;" horiz-adv-x="1832" d="M-92 0q359 677 844 1536h546q58 -192 206 -722t216 -814h-587l-58 285h-454q-43 -90 -132 -285h-581zM705 1884q0 159 115.5 273t281.5 114q137 0 221 -77.5t84 -204.5q0 -161 -115.5 -275.5t-283.5 -114.5q-136 0 -219.5 78.5t-83.5 206.5zM805 666h192q-44 207 -53 243 h-14q-63 -117 -125 -243zM905 1911q0 -54 35.5 -88.5t93.5 -34.5q68 0 119 48.5t51 123.5q0 54 -35.5 88.5t-93.5 34.5q-68 0 -119 -48.5t-51 -123.5z" />
<glyph unicode="&#xc6;" horiz-adv-x="2256" d="M-143 0q346 401 769 879.5t597 656.5h1091l-57 -414h-500l-24 -168h364l-96 -356h-318l-26 -182h504l-58 -416h-1075l25 182h-408l-147 -182h-641zM952 563h154l31 213l-9 4z" />
<glyph unicode="&#xc7;" horiz-adv-x="1492" d="M53 610q0 213 69 390.5t194.5 302t307.5 193.5t402 69q317 0 498 -105l-154 -407q-147 69 -309 69q-182 0 -289.5 -112.5t-107.5 -311.5q0 -138 85.5 -209t231.5 -71q87 0 183.5 19t170.5 50l6 -411q-181 -75 -387 -96l-106 -78q135 -34 135 -146q0 -65 -31 -114 t-82.5 -76.5t-110.5 -41t-122 -13.5q-155 0 -260 59l63 129q86 -39 156 -39q72 0 72 47q0 39 -117 39h-62l-26 84l188 152q-101 13 -188.5 43t-163.5 82t-130 122t-85 167t-31 214z" />
<glyph unicode="&#xc8;" horiz-adv-x="1228" d="M0 0l215 1536h1071l-57 -414h-500l-24 -168h364l-96 -356h-318l-26 -182h504l-58 -416h-1075zM340 1898l254 361l536 -377l-157 -192z" />
<glyph unicode="&#xc9;" horiz-adv-x="1228" d="M0 0l215 1536h1071l-57 -414h-500l-24 -168h364l-96 -356h-318l-26 -182h504l-58 -416h-1075zM379 1882l643 377l152 -361l-695 -208z" />
<glyph unicode="&#xca;" horiz-adv-x="1228" d="M0 0l215 1536h1071l-57 -414h-500l-24 -168h364l-96 -356h-318l-26 -182h504l-58 -416h-1075zM164 1901l434 325h453l342 -325l-185 -211l-428 208l-493 -208z" />
<glyph unicode="&#xcb;" horiz-adv-x="1228" d="M0 0l215 1536h1071l-57 -414h-500l-24 -168h364l-96 -356h-318l-26 -182h504l-58 -416h-1075zM180 1870q0 119 75 188.5t208 69.5q102 0 163.5 -56.5t61.5 -158.5q0 -128 -71.5 -197t-202.5 -69q-106 0 -170 56.5t-64 166.5zM860 1870q0 119 75 188.5t208 69.5 q102 0 163.5 -56.5t61.5 -158.5q0 -128 -71.5 -197t-202.5 -69q-106 0 -170 56.5t-64 166.5z" />
<glyph unicode="&#xcc;" horiz-adv-x="774" d="M0 0l215 1536h569l-215 -1536h-569zM156 1898l254 361l536 -377l-158 -192z" />
<glyph unicode="&#xcd;" horiz-adv-x="774" d="M0 0l215 1536h569l-215 -1536h-569zM154 1882l643 377l151 -361l-694 -208z" />
<glyph unicode="&#xce;" horiz-adv-x="774" d="M-63 1901l434 325h452l342 -325l-184 -211l-428 208l-494 -208zM0 0l215 1536h569l-215 -1536h-569z" />
<glyph unicode="&#xcf;" horiz-adv-x="774" d="M-47 1870q0 119 75 188.5t208 69.5q102 0 163.5 -56.5t61.5 -158.5q0 -128 -72 -197t-203 -69q-106 0 -169.5 56.5t-63.5 166.5zM0 0l215 1536h569l-215 -1536h-569zM633 1870q0 119 74.5 188.5t207.5 69.5q102 0 164 -56.5t62 -158.5q0 -128 -72 -197t-203 -69 q-106 0 -169.5 56.5t-63.5 166.5z" />
<glyph unicode="&#xd0;" horiz-adv-x="1746" d="M0 573l51 371h121l84 592h754q336 0 514 -151t178 -455q0 -279 -103 -487t-310 -325.5t-496 -117.5h-752l80 573h-121zM668 414h98q86 0 151.5 41.5t102 111t54.5 150t18 168.5q0 59 -13 102.5t-33.5 68.5t-52 40t-61.5 19.5t-70 4.5h-96l-25 -176h166l-51 -371h-166z " />
<glyph unicode="&#xd1;" horiz-adv-x="1802" d="M0 0l215 1536h487q235 -272 455 -594l17 4l83 590h555l-215 -1536l-374 -29q-105 149 -204 285t-150 202.5t-121 158t-80 104.5l-17 -2l-100 -719h-551zM537 1669q13 97 42.5 170.5t64 114.5t78 66.5t80 33.5t75.5 8q61 0 168.5 -24.5t162.5 -24.5q22 0 40 17.5t22 54.5 h313q-17 -113 -54 -194.5t-85 -122.5t-94 -58.5t-93 -17.5q-83 0 -192 24.5t-145 24.5q-27 0 -44.5 -14.5t-25.5 -57.5h-313z" />
<glyph unicode="&#xd2;" horiz-adv-x="1787" d="M53 602q0 217 62 394t181.5 304t301 196t412.5 69q362 0 548.5 -154.5t186.5 -464.5q0 -221 -63.5 -401t-184 -307.5t-301.5 -197t-408 -69.5q-168 0 -301 37t-231 112.5t-150.5 197.5t-52.5 284zM643 618q0 -127 48.5 -186t150.5 -59q63 0 113.5 25t83.5 70t56.5 99 t35.5 119t17 122.5t5 117.5q0 134 -49 188.5t-148 54.5q-75 0 -133 -38t-91 -95t-54 -134.5t-28 -145.5t-7 -138zM662 1898l253 361l537 -377l-158 -192z" />
<glyph unicode="&#xd3;" horiz-adv-x="1787" d="M53 602q0 217 62 394t181.5 304t301 196t412.5 69q362 0 548.5 -154.5t186.5 -464.5q0 -221 -63.5 -401t-184 -307.5t-301.5 -197t-408 -69.5q-168 0 -301 37t-231 112.5t-150.5 197.5t-52.5 284zM643 618q0 -127 48.5 -186t150.5 -59q63 0 113.5 25t83.5 70t56.5 99 t35.5 119t17 122.5t5 117.5q0 134 -49 188.5t-148 54.5q-75 0 -133 -38t-91 -95t-54 -134.5t-28 -145.5t-7 -138zM659 1882l644 377l151 -361l-694 -208z" />
<glyph unicode="&#xd4;" horiz-adv-x="1787" d="M53 602q0 217 62 394t181.5 304t301 196t412.5 69q362 0 548.5 -154.5t186.5 -464.5q0 -221 -63.5 -401t-184 -307.5t-301.5 -197t-408 -69.5q-168 0 -301 37t-231 112.5t-150.5 197.5t-52.5 284zM442 1901l435 325h452l342 -325l-184 -211l-428 208l-494 -208zM643 618 q0 -127 48.5 -186t150.5 -59q63 0 113.5 25t83.5 70t56.5 99t35.5 119t17 122.5t5 117.5q0 134 -49 188.5t-148 54.5q-75 0 -133 -38t-91 -95t-54 -134.5t-28 -145.5t-7 -138z" />
<glyph unicode="&#xd5;" horiz-adv-x="1787" d="M53 602q0 217 62 394t181.5 304t301 196t412.5 69q362 0 548.5 -154.5t186.5 -464.5q0 -221 -63.5 -401t-184 -307.5t-301.5 -197t-408 -69.5q-168 0 -301 37t-231 112.5t-150.5 197.5t-52.5 284zM530 1669q13 97 42.5 170.5t64 114.5t78 66.5t80 33.5t75.5 8 q60 0 169 -24.5t163 -24.5q22 0 40 17.5t22 54.5h313q-17 -113 -54 -194.5t-85 -122.5t-94 -58.5t-93 -17.5q-83 0 -192.5 24.5t-145.5 24.5q-27 0 -44 -14.5t-25 -57.5h-314zM643 618q0 -127 48.5 -186t150.5 -59q63 0 113.5 25t83.5 70t56.5 99t35.5 119t17 122.5t5 117.5 q0 134 -49 188.5t-148 54.5q-75 0 -133 -38t-91 -95t-54 -134.5t-28 -145.5t-7 -138z" />
<glyph unicode="&#xd6;" horiz-adv-x="1787" d="M53 602q0 217 62 394t181.5 304t301 196t412.5 69q362 0 548.5 -154.5t186.5 -464.5q0 -221 -63.5 -401t-184 -307.5t-301.5 -197t-408 -69.5q-168 0 -301 37t-231 112.5t-150.5 197.5t-52.5 284zM459 1870q0 119 74.5 188.5t207.5 69.5q102 0 164 -56.5t62 -158.5 q0 -128 -72 -197t-203 -69q-106 0 -169.5 56.5t-63.5 166.5zM643 618q0 -127 48.5 -186t150.5 -59q63 0 113.5 25t83.5 70t56.5 99t35.5 119t17 122.5t5 117.5q0 134 -49 188.5t-148 54.5q-75 0 -133 -38t-91 -95t-54 -134.5t-28 -145.5t-7 -138zM1139 1870 q0 119 74.5 188.5t207.5 69.5q102 0 164 -56.5t62 -158.5q0 -128 -72 -197t-203 -69q-106 0 -169.5 56.5t-63.5 166.5z" />
<glyph unicode="&#xd7;" horiz-adv-x="1331" d="M135 307l273 275l-271 272l246 246l272 -273l273 273l246 -246l-273 -272l275 -275l-248 -246l-273 273l-274 -273z" />
<glyph unicode="&#xd8;" horiz-adv-x="1787" d="M53 602q0 217 62 394t181.5 304t301 196t412.5 69q269 0 444 -88l121 141h156l-177 -205q191 -156 191 -467q0 -221 -63.5 -401t-184 -307.5t-301.5 -197t-408 -69.5q-241 0 -409 76l-90 -104h-156l141 163q-221 160 -221 496zM643 618q0 -31 4 -77l473 549 q-46 79 -164 79q-75 0 -133 -38t-91 -95t-54 -134.5t-28 -145.5t-7 -138zM700 420q47 -47 142 -47q63 0 113.5 25t83.5 70t56.5 99t35.5 119t17 122.5t5 117.5v20z" />
<glyph unicode="&#xd9;" horiz-adv-x="1730" d="M74 522q0 90 14 185l117 829h571l-121 -852q-8 -74 -8 -98q0 -100 42.5 -141.5t133.5 -41.5q50 0 86 11t69.5 40t56 86t34.5 144l121 852h571l-123 -866q-53 -372 -268.5 -535.5t-609.5 -163.5q-170 0 -293.5 28.5t-213.5 92t-134.5 171t-44.5 259.5zM575 1898l254 361 l537 -377l-158 -192z" />
<glyph unicode="&#xda;" horiz-adv-x="1730" d="M74 522q0 90 14 185l117 829h571l-121 -852q-8 -74 -8 -98q0 -100 42.5 -141.5t133.5 -41.5q50 0 86 11t69.5 40t56 86t34.5 144l121 852h571l-123 -866q-53 -372 -268.5 -535.5t-609.5 -163.5q-170 0 -293.5 28.5t-213.5 92t-134.5 171t-44.5 259.5zM676 1882l643 377 l151 -361l-694 -208z" />
<glyph unicode="&#xdb;" horiz-adv-x="1730" d="M74 522q0 90 14 185l117 829h571l-121 -852q-8 -74 -8 -98q0 -100 42.5 -141.5t133.5 -41.5q50 0 86 11t69.5 40t56 86t34.5 144l121 852h571l-123 -866q-53 -372 -268.5 -535.5t-609.5 -163.5q-170 0 -293.5 28.5t-213.5 92t-134.5 171t-44.5 259.5zM420 1901l434 325 h453l342 -325l-185 -211l-428 208l-493 -208z" />
<glyph unicode="&#xdc;" horiz-adv-x="1730" d="M74 522q0 90 14 185l117 829h571l-121 -852q-8 -74 -8 -98q0 -100 42.5 -141.5t133.5 -41.5q50 0 86 11t69.5 40t56 86t34.5 144l121 852h571l-123 -866q-53 -372 -268.5 -535.5t-609.5 -163.5q-170 0 -293.5 28.5t-213.5 92t-134.5 171t-44.5 259.5zM436 1870 q0 119 75 188.5t208 69.5q102 0 163.5 -56.5t61.5 -158.5q0 -128 -71.5 -197t-202.5 -69q-106 0 -170 56.5t-64 166.5zM1116 1870q0 119 75 188.5t208 69.5q102 0 163.5 -56.5t61.5 -158.5q0 -128 -71.5 -197t-202.5 -69q-106 0 -170 56.5t-64 166.5z" />
<glyph unicode="&#xdd;" horiz-adv-x="1632" d="M84 1110l59 426q90 10 230 10q124 0 205 -43t137 -155l119 -238h12q39 50 80.5 113t106 168t89.5 145h623q-136 -196 -349 -483t-339 -449l-84 -604h-570l82 592q-180 322 -254 432q-35 50 -70 68t-77 18zM610 1882l643 377l152 -361l-694 -208z" />
<glyph unicode="&#xde;" horiz-adv-x="1546" d="M0 0l215 1536h571l-28 -201h217q284 0 421.5 -111t137.5 -317q0 -163 -62 -297.5t-170 -223.5t-253 -138t-312 -49q-94 0 -139 2l-27 -201h-571zM659 629q50 -4 84 -4q91 0 150 46.5t59 145.5q0 60 -41.5 82.5t-124.5 22.5h-86z" />
<glyph unicode="&#xdf;" horiz-adv-x="1787" d="M14 766l49 352h177l2 15q15 106 67 189t125.5 135.5t171 86.5t197 48t209.5 14q57 0 111 -2.5t124.5 -11t130.5 -22.5t120 -39t102 -58.5t68 -83.5t26 -111q0 -60 -18 -110.5t-47.5 -86t-64.5 -65.5t-70 -53t-64.5 -43.5t-47.5 -43t-18 -45.5q0 -26 25.5 -51t63.5 -44.5 t83 -49.5t83 -64t63.5 -90.5t25.5 -125.5q0 -91 -34.5 -165.5t-92.5 -123.5t-136.5 -82t-163 -47.5t-175.5 -14.5q-121 0 -233.5 26t-188.5 69l107 333q68 -37 156.5 -61.5t158.5 -24.5q92 0 92 33q0 13 -22 26t-58 25.5t-79 28t-85.5 39.5t-78.5 54.5t-58 77t-22 103.5 q0 65 20.5 121t50.5 92t66 70t66 58.5t50.5 55t20.5 62.5q0 30 -29 47t-73 17q-96 0 -140 -52.5t-57 -154.5l-205 -1489h-549l172 1237h-174z" />
<glyph unicode="&#xe0;" horiz-adv-x="1556" d="M29 428q0 158 45 288.5t132 227t224.5 150t314.5 53.5q259 0 441 -105l121 76h161l-98 -694q-4 -28 -4 -41q0 -20 9 -29.5t34 -9.5l66 4l-41 -307q-179 -70 -355 -70q-116 0 -179.5 40t-88.5 122l-8 4q-181 -166 -400 -166q-172 0 -273 122.5t-101 334.5zM438 1767 l383 211l240 -600l-221 -102zM594 485q0 -143 100 -143q77 0 131 86l43 311q-42 33 -96 33q-39 0 -70.5 -18.5t-51.5 -47.5t-33 -68t-18 -76.5t-5 -76.5z" />
<glyph unicode="&#xe1;" horiz-adv-x="1556" d="M29 428q0 158 45 288.5t132 227t224.5 150t314.5 53.5q259 0 441 -105l121 76h161l-98 -694q-4 -28 -4 -41q0 -20 9 -29.5t34 -9.5l66 4l-41 -307q-179 -70 -355 -70q-116 0 -179.5 40t-88.5 122l-8 4q-181 -166 -400 -166q-172 0 -273 122.5t-101 334.5zM485 1378 l408 600l326 -211l-541 -491zM594 485q0 -143 100 -143q77 0 131 86l43 311q-42 33 -96 33q-39 0 -70.5 -18.5t-51.5 -47.5t-33 -68t-18 -76.5t-5 -76.5z" />
<glyph unicode="&#xe2;" horiz-adv-x="1556" d="M29 428q0 158 45 288.5t132 227t224.5 150t314.5 53.5q259 0 441 -105l121 76h161l-98 -694q-4 -28 -4 -41q0 -20 9 -29.5t34 -9.5l66 4l-41 -307q-179 -70 -355 -70q-116 0 -179.5 40t-88.5 122l-8 4q-181 -166 -400 -166q-172 0 -273 122.5t-101 334.5zM299 1425 l377 510h452l236 -510l-297 -149l-211 332l-303 -332zM594 485q0 -143 100 -143q77 0 131 86l43 311q-42 33 -96 33q-39 0 -70.5 -18.5t-51.5 -47.5t-33 -68t-18 -76.5t-5 -76.5z" />
<glyph unicode="&#xe3;" horiz-adv-x="1556" d="M29 428q0 158 45 288.5t132 227t224.5 150t314.5 53.5q259 0 441 -105l121 76h161l-98 -694q-4 -28 -4 -41q0 -20 9 -29.5t34 -9.5l66 4l-41 -307q-179 -70 -355 -70q-116 0 -179.5 40t-88.5 122l-8 4q-181 -166 -400 -166q-172 0 -273 122.5t-101 334.5zM289 1329 q13 97 42.5 170.5t64 114.5t78 66.5t80 33.5t75.5 8q61 0 169 -24.5t163 -24.5q21 0 39 17.5t22 54.5h313q-14 -92 -41.5 -163t-60.5 -113.5t-73.5 -69.5t-76.5 -37t-73 -10q-83 0 -192.5 24.5t-145.5 24.5q-27 0 -44.5 -14.5t-25.5 -57.5h-313zM594 485q0 -143 100 -143 q77 0 131 86l43 311q-42 33 -96 33q-39 0 -70.5 -18.5t-51.5 -47.5t-33 -68t-18 -76.5t-5 -76.5z" />
<glyph unicode="&#xe4;" horiz-adv-x="1556" d="M29 428q0 158 45 288.5t132 227t224.5 150t314.5 53.5q259 0 441 -105l121 76h161l-98 -694q-4 -28 -4 -41q0 -20 9 -29.5t34 -9.5l66 4l-41 -307q-179 -70 -355 -70q-116 0 -179.5 40t-88.5 122l-8 4q-181 -166 -400 -166q-172 0 -273 122.5t-101 334.5zM231 1552 q0 119 75 188.5t208 69.5q102 0 163.5 -56.5t61.5 -158.5q0 -128 -71.5 -197t-202.5 -69q-106 0 -170 56.5t-64 166.5zM594 485q0 -143 100 -143q77 0 131 86l43 311q-42 33 -96 33q-39 0 -70.5 -18.5t-51.5 -47.5t-33 -68t-18 -76.5t-5 -76.5zM911 1552q0 119 75 188.5 t208 69.5q102 0 163.5 -56.5t61.5 -158.5q0 -128 -71.5 -197t-202.5 -69q-106 0 -170 56.5t-64 166.5z" />
<glyph unicode="&#xe5;" horiz-adv-x="1556" d="M29 428q0 158 45 288.5t132 227t224.5 150t314.5 53.5q259 0 441 -105l121 76h161l-98 -694q-4 -28 -4 -41q0 -20 9 -29.5t34 -9.5l66 4l-41 -307q-179 -70 -355 -70q-116 0 -179.5 40t-88.5 122l-8 4q-181 -166 -400 -166q-172 0 -273 122.5t-101 334.5zM461 1591 q0 159 115.5 273t281.5 114q137 0 221 -77.5t84 -204.5q0 -161 -115.5 -275t-283.5 -114q-136 0 -219.5 78t-83.5 206zM594 485q0 -143 100 -143q77 0 131 86l43 311q-42 33 -96 33q-39 0 -70.5 -18.5t-51.5 -47.5t-33 -68t-18 -76.5t-5 -76.5zM662 1618q0 -54 35.5 -88.5 t93.5 -34.5q68 0 119 48.5t51 123.5q0 54 -36 88.5t-94 34.5q-67 0 -118 -48.5t-51 -123.5z" />
<glyph unicode="&#xe6;" horiz-adv-x="2033" d="M-31 254q0 237 301 311q114 29 486 111q4 25 4 35q0 69 -117 69q-181 0 -416 -94l-104 313q155 77 320.5 112.5t306.5 35.5q223 0 340 -74q150 72 368 72q87 0 161 -12t143 -42t117 -77.5t77 -123t29 -173.5q0 -116 -29 -211h-690q-2 -25 -2 -35q0 -49 43 -84t149 -35 q181 0 406 60l28 -351q-232 -90 -551 -90q-314 0 -471 160q-100 -75 -236.5 -117.5t-269.5 -42.5q-171 0 -282 71.5t-111 211.5zM545 362q0 -71 78 -71q19 0 44 13t44 36l18 139q-76 -19 -127 -37q-22 -6 -39.5 -29.5t-17.5 -50.5zM1303 702h200q2 14 2 37q0 50 -18.5 71 t-56.5 21q-45 0 -78.5 -33t-48.5 -96z" />
<glyph unicode="&#xe7;" horiz-adv-x="1177" d="M29 453q0 155 43.5 281t128.5 218.5t219.5 143.5t308.5 51q105 0 229.5 -22t198.5 -62l-125 -385q-52 25 -124.5 43t-127.5 18q-94 0 -140 -61.5t-46 -159.5q0 -57 34 -93t111 -36q146 0 281 49l29 -372q-113 -56 -283 -80l-117 -84q135 -34 135 -146q0 -65 -31 -114 t-82.5 -76.5t-110.5 -41t-122 -13.5q-155 0 -260 59l64 129q86 -39 155 -39q72 0 72 47q0 39 -117 39h-61l-27 84l185 150q-202 28 -311 149t-109 324z" />
<glyph unicode="&#xe8;" horiz-adv-x="1353" d="M29 469q0 333 198.5 505.5t550.5 172.5q87 0 161 -12t143 -42.5t117.5 -78.5t77 -123.5t28.5 -173.5q0 -116 -29 -211h-690q-2 -25 -2 -35q0 -49 43 -84t149 -35q181 0 406 60l28 -351q-232 -90 -551 -90q-88 0 -170.5 13t-168 48t-148.5 89t-103 143.5t-40 204.5z M332 1767l383 211l239 -600l-221 -102zM623 702h200q2 14 2 37q0 50 -18.5 71t-56.5 21q-45 0 -78.5 -33t-48.5 -96z" />
<glyph unicode="&#xe9;" horiz-adv-x="1353" d="M29 469q0 333 198.5 505.5t550.5 172.5q87 0 161 -12t143 -42.5t117.5 -78.5t77 -123.5t28.5 -173.5q0 -116 -29 -211h-690q-2 -25 -2 -35q0 -49 43 -84t149 -35q181 0 406 60l28 -351q-232 -90 -551 -90q-88 0 -170.5 13t-168 48t-148.5 89t-103 143.5t-40 204.5z M399 1378l408 600l326 -211l-541 -491zM623 702h200q2 14 2 37q0 50 -18.5 71t-56.5 21q-45 0 -78.5 -33t-48.5 -96z" />
<glyph unicode="&#xea;" horiz-adv-x="1353" d="M29 469q0 333 198.5 505.5t550.5 172.5q87 0 161 -12t143 -42.5t117.5 -78.5t77 -123.5t28.5 -173.5q0 -116 -29 -211h-690q-2 -25 -2 -35q0 -49 43 -84t149 -35q181 0 406 60l28 -351q-232 -90 -551 -90q-88 0 -170.5 13t-168 48t-148.5 89t-103 143.5t-40 204.5z M240 1425l376 510h453l236 -510l-297 -149l-211 332l-303 -332zM623 702h200q2 14 2 37q0 50 -18.5 71t-56.5 21q-45 0 -78.5 -33t-48.5 -96z" />
<glyph unicode="&#xeb;" horiz-adv-x="1353" d="M29 469q0 333 198.5 505.5t550.5 172.5q87 0 161 -12t143 -42.5t117.5 -78.5t77 -123.5t28.5 -173.5q0 -116 -29 -211h-690q-2 -25 -2 -35q0 -49 43 -84t149 -35q181 0 406 60l28 -351q-232 -90 -551 -90q-88 0 -170.5 13t-168 48t-148.5 89t-103 143.5t-40 204.5z M152 1552q0 119 74.5 188.5t207.5 69.5q102 0 163.5 -56.5t61.5 -158.5q0 -128 -71.5 -197t-202.5 -69q-106 0 -169.5 56.5t-63.5 166.5zM623 702h200q2 14 2 37q0 50 -18.5 71t-56.5 21q-45 0 -78.5 -33t-48.5 -96zM831 1552q0 119 75 188.5t208 69.5q102 0 163.5 -56.5 t61.5 -158.5q0 -128 -71.5 -197t-202.5 -69q-106 0 -170 56.5t-64 166.5z" />
<glyph unicode="&#xec;" horiz-adv-x="720" d="M-10 0l155 1118h551l-155 -1118h-551zM57 1767l383 211l240 -600l-221 -102z" />
<glyph unicode="&#xed;" horiz-adv-x="720" d="M-10 0l155 1118h551l-155 -1118h-551zM156 1378l407 600l326 -211l-541 -491z" />
<glyph unicode="&#xee;" horiz-adv-x="720" d="M-68 1425l377 510h453l235 -510l-297 -149l-211 332l-303 -332zM-10 0l155 1118h551l-155 -1118h-551z" />
<glyph unicode="&#xef;" horiz-adv-x="720" d="M-145 1552q0 119 74.5 188.5t207.5 69.5q102 0 163.5 -56.5t61.5 -158.5q0 -128 -71.5 -197t-202.5 -69q-106 0 -169.5 56.5t-63.5 166.5zM-10 0l155 1118h551l-155 -1118h-551zM535 1552q0 119 74.5 188.5t207.5 69.5q102 0 163.5 -56.5t61.5 -158.5q0 -128 -71.5 -197 t-202.5 -69q-106 0 -169.5 56.5t-63.5 166.5z" />
<glyph unicode="&#xf0;" horiz-adv-x="1382" d="M29 369q0 113 32.5 203.5t90 153t139.5 104t178.5 60.5t208.5 19q37 0 92 -10l14 8q-25 77 -53 117l-356 -117l39 244l71 25q-71 35 -161 63l196 367q311 -73 516 -242l326 111l-37 -258l-121 -39q121 -188 121 -424q0 -232 -92.5 -408t-272.5 -275.5t-425 -99.5 q-76 0 -147.5 14.5t-137 46t-114.5 77t-78 112.5t-29 148zM532 434q0 -46 25.5 -74t75.5 -28q144 0 170 266q-58 8 -98 8q-74 0 -123.5 -45.5t-49.5 -126.5z" />
<glyph unicode="&#xf1;" horiz-adv-x="1480" d="M-10 0l155 1118h492l18 -151l19 -2q90 94 197.5 137t211.5 43q332 0 332 -326q0 -55 -10 -127l-96 -692h-551l86 612q2 12 2 35q0 84 -70 84q-98 0 -147 -98l-88 -633h-551zM217 1329q13 97 42.5 170.5t64 114.5t78 66.5t80 33.5t75.5 8q61 0 169 -24.5t163 -24.5 q21 0 39 17.5t22 54.5h314q-17 -113 -54 -194.5t-85 -122.5t-94 -58.5t-93 -17.5q-83 0 -192.5 24.5t-145.5 24.5q-27 0 -44.5 -14.5t-25.5 -57.5h-313z" />
<glyph unicode="&#xf2;" horiz-adv-x="1462" d="M29 449q0 118 23 217t80.5 190t146.5 154t228.5 100t319.5 37q144 0 256 -36.5t182 -101.5t106 -151.5t36 -189.5q0 -117 -24.5 -217t-82 -190t-145.5 -153t-222.5 -100t-305.5 -37q-283 0 -440.5 120.5t-157.5 357.5zM371 1767l383 211l239 -600l-221 -102zM592 510 q0 -168 106 -168q146 0 146 262q0 168 -105 168q-77 0 -112 -71t-35 -191z" />
<glyph unicode="&#xf3;" horiz-adv-x="1462" d="M29 449q0 118 23 217t80.5 190t146.5 154t228.5 100t319.5 37q144 0 256 -36.5t182 -101.5t106 -151.5t36 -189.5q0 -117 -24.5 -217t-82 -190t-145.5 -153t-222.5 -100t-305.5 -37q-283 0 -440.5 120.5t-157.5 357.5zM438 1378l408 600l325 -211l-540 -491zM592 510 q0 -168 106 -168q146 0 146 262q0 168 -105 168q-77 0 -112 -71t-35 -191z" />
<glyph unicode="&#xf4;" horiz-adv-x="1462" d="M29 449q0 118 23 217t80.5 190t146.5 154t228.5 100t319.5 37q144 0 256 -36.5t182 -101.5t106 -151.5t36 -189.5q0 -117 -24.5 -217t-82 -190t-145.5 -153t-222.5 -100t-305.5 -37q-283 0 -440.5 120.5t-157.5 357.5zM242 1425l376 510h453l236 -510l-297 -149l-211 332 l-303 -332zM592 510q0 -168 106 -168q146 0 146 262q0 168 -105 168q-77 0 -112 -71t-35 -191z" />
<glyph unicode="&#xf5;" horiz-adv-x="1462" d="M29 449q0 118 23 217t80.5 190t146.5 154t228.5 100t319.5 37q144 0 256 -36.5t182 -101.5t106 -151.5t36 -189.5q0 -117 -24.5 -217t-82 -190t-145.5 -153t-222.5 -100t-305.5 -37q-283 0 -440.5 120.5t-157.5 357.5zM219 1329q13 97 42.5 170.5t64 114.5t78 66.5 t80 33.5t75.5 8q61 0 169 -24.5t163 -24.5q21 0 39 17.5t22 54.5h314q-17 -113 -54 -194.5t-85 -122.5t-94 -58.5t-93 -17.5q-83 0 -192.5 24.5t-145.5 24.5q-27 0 -44.5 -14.5t-25.5 -57.5h-313zM592 510q0 -168 106 -168q146 0 146 262q0 168 -105 168q-77 0 -112 -71 t-35 -191z" />
<glyph unicode="&#xf6;" horiz-adv-x="1462" d="M29 449q0 118 23 217t80.5 190t146.5 154t228.5 100t319.5 37q144 0 256 -36.5t182 -101.5t106 -151.5t36 -189.5q0 -117 -24.5 -217t-82 -190t-145.5 -153t-222.5 -100t-305.5 -37q-283 0 -440.5 120.5t-157.5 357.5zM170 1552q0 119 75 188.5t208 69.5 q102 0 163.5 -56.5t61.5 -158.5q0 -128 -72 -197t-203 -69q-106 0 -169.5 56.5t-63.5 166.5zM592 510q0 -168 106 -168q146 0 146 262q0 168 -105 168q-77 0 -112 -71t-35 -191zM850 1552q0 119 75 188.5t208 69.5q102 0 163.5 -56.5t61.5 -158.5q0 -128 -72 -197t-203 -69 q-106 0 -169.5 56.5t-63.5 166.5z" />
<glyph unicode="&#xf7;" horiz-adv-x="1331" d="M92 406v350h1127v-350h-1127zM461 150q0 83 52.5 131.5t141.5 48.5q91 0 143 -48.5t52 -131.5q0 -86 -51 -132.5t-144 -46.5q-91 0 -142.5 46.5t-51.5 132.5zM461 1012q0 86 50.5 132t143.5 46q91 0 143 -46t52 -132q0 -83 -53 -132t-142 -49q-91 0 -142.5 49t-51.5 132z " />
<glyph unicode="&#xf8;" horiz-adv-x="1462" d="M29 449q0 118 23 217t80.5 189.5t146.5 153t228.5 99.5t319.5 37q155 0 267 -41l43 51h157l-86 -104q98 -62 148.5 -161.5t50.5 -221.5q0 -117 -24.5 -217t-82 -190t-145.5 -153t-222.5 -100t-305.5 -37q-156 0 -281 39l-55 -67h-158l98 118q-202 120 -202 388zM592 498 l209 252q-22 22 -62 22q-77 0 -112 -71t-35 -191v-12zM639 362q23 -20 59 -20q146 0 146 262v6z" />
<glyph unicode="&#xf9;" horiz-adv-x="1470" d="M20 305q0 49 9 105l98 708h551l-88 -643q-4 -28 -4 -41q0 -48 18 -68t53 -20q39 0 78.5 22.5t63.5 55.5l96 694h551l-156 -1118h-467l-37 129l-16 2q-43 -45 -90 -76.5t-84.5 -47.5t-85.5 -24.5t-78 -10t-78 -1.5q-158 0 -246 83.5t-88 250.5zM432 1767l383 211l240 -600 l-221 -102z" />
<glyph unicode="&#xfa;" horiz-adv-x="1470" d="M20 305q0 49 9 105l98 708h551l-88 -643q-4 -28 -4 -41q0 -48 18 -68t53 -20q39 0 78.5 22.5t63.5 55.5l96 694h551l-156 -1118h-467l-37 129l-16 2q-43 -45 -90 -76.5t-84.5 -47.5t-85.5 -24.5t-78 -10t-78 -1.5q-158 0 -246 83.5t-88 250.5zM541 1378l407 600l326 -211 l-541 -491z" />
<glyph unicode="&#xfb;" horiz-adv-x="1470" d="M20 305q0 49 9 105l98 708h551l-88 -643q-4 -28 -4 -41q0 -48 18 -68t53 -20q39 0 78.5 22.5t63.5 55.5l96 694h551l-156 -1118h-467l-37 129l-16 2q-43 -45 -90 -76.5t-84.5 -47.5t-85.5 -24.5t-78 -10t-78 -1.5q-158 0 -246 83.5t-88 250.5zM293 1425l377 510h452 l236 -510l-297 -149l-211 332l-303 -332z" />
<glyph unicode="&#xfc;" horiz-adv-x="1470" d="M20 305q0 49 9 105l98 708h551l-88 -643q-4 -28 -4 -41q0 -48 18 -68t53 -20q39 0 78.5 22.5t63.5 55.5l96 694h551l-156 -1118h-467l-37 129l-16 2q-43 -45 -90 -76.5t-84.5 -47.5t-85.5 -24.5t-78 -10t-78 -1.5q-158 0 -246 83.5t-88 250.5zM223 1552q0 119 75 188.5 t208 69.5q102 0 163.5 -56.5t61.5 -158.5q0 -128 -71.5 -197t-202.5 -69q-106 0 -170 56.5t-64 166.5zM903 1552q0 119 75 188.5t208 69.5q102 0 163.5 -56.5t61.5 -158.5q0 -128 -71.5 -197t-202.5 -69q-106 0 -170 56.5t-64 166.5z" />
<glyph unicode="&#xfd;" horiz-adv-x="1581" d="M61 764l50 356q123 17 213 17q114 0 177 -20.5t94 -62t54 -124.5q24 -84 88 -416h15q187 383 280 604h602q-56 -117 -122.5 -247t-141 -269.5t-134 -250t-141 -256t-121.5 -216.5t-114.5 -203t-83.5 -147h-612q231 357 297 471h-131q-116 469 -176 690q-11 43 -32.5 57.5 t-60.5 16.5zM565 1378l408 600l325 -211l-540 -491z" />
<glyph unicode="&#xfe;" horiz-adv-x="1484" d="M-78 -471l289 2048h553l-64 -444l-20 -150l14 -2q54 56 97.5 88.5t111 55t152.5 22.5q173 0 274 -119t101 -323q0 -149 -40.5 -280t-118.5 -233t-203 -161.5t-282 -59.5q-181 0 -260 43l-67 -485h-537zM594 377q33 -29 113 -29q60 0 100.5 44.5t56 105t15.5 129.5 t-27 107t-78 38q-32 0 -69.5 -22.5t-65.5 -59.5z" />
<glyph unicode="&#xff;" horiz-adv-x="1581" d="M61 764l50 356q123 17 213 17q114 0 177 -20.5t94 -62t54 -124.5q24 -84 88 -416h15q187 383 280 604h602q-56 -117 -122.5 -247t-141 -269.5t-134 -250t-141 -256t-121.5 -216.5t-114.5 -203t-83.5 -147h-612q231 357 297 471h-131q-116 469 -176 690q-11 43 -32.5 57.5 t-60.5 16.5zM297 1552q0 119 75 188.5t208 69.5q102 0 163.5 -56.5t61.5 -158.5q0 -128 -72 -197t-203 -69q-106 0 -169.5 56.5t-63.5 166.5zM977 1552q0 119 75 188.5t208 69.5q102 0 163.5 -56.5t61.5 -158.5q0 -128 -72 -197t-203 -69q-106 0 -169.5 56.5t-63.5 166.5z " />
<glyph unicode="&#x152;" horiz-adv-x="2154" d="M53 604q0 445 254 688.5t715 243.5h1190l-58 -414h-499l-25 -168h365l-97 -356h-317l-27 -182h504l-57 -416h-1221q-168 0 -299.5 35t-228.5 107t-148 188.5t-51 273.5zM645 653q0 -120 53.5 -186t157.5 -66h125l104 740h-120q-83 0 -147.5 -45t-100.5 -118.5t-54 -156 t-18 -168.5z" />
<glyph unicode="&#x153;" horiz-adv-x="2162" d="M29 449q0 118 23 217t80.5 190t146.5 154t228.5 100t319.5 37q212 0 355 -78q173 78 405 78q87 0 161 -12t143 -42.5t117.5 -78.5t77 -123.5t28.5 -173.5q0 -116 -29 -211h-690q-2 -16 -2 -35q0 -49 43 -84t149 -35q181 0 406 60l28 -351q-233 -90 -551 -90 q-238 0 -399 88q-181 -88 -442 -88q-283 0 -440.5 120.5t-157.5 357.5zM592 510q0 -168 106 -168q146 0 146 262q0 168 -105 168q-77 0 -112 -71t-35 -191zM1432 702h200q2 14 2 37q0 50 -18.5 71t-56.5 21q-45 0 -78.5 -33t-48.5 -96z" />
<glyph unicode="&#x178;" horiz-adv-x="1632" d="M84 1110l59 426q90 10 230 10q124 0 205 -43t137 -155l119 -238h12q39 50 80.5 113t106 168t89.5 145h623q-136 -196 -349 -483t-339 -449l-84 -604h-570l82 592q-180 322 -254 432q-35 50 -70 68t-77 18zM350 1870q0 119 75 188.5t208 69.5q102 0 163.5 -56.5 t61.5 -158.5q0 -128 -71.5 -197t-202.5 -69q-106 0 -170 56.5t-64 166.5zM1030 1870q0 119 75 188.5t208 69.5q102 0 163.5 -56.5t61.5 -158.5q0 -128 -71.5 -197t-202.5 -69q-106 0 -170 56.5t-64 166.5z" />
<glyph unicode="&#x2c6;" horiz-adv-x="1228" d="M178 1425l377 510h453l235 -510l-297 -149l-211 332l-303 -332z" />
<glyph unicode="&#x2dc;" horiz-adv-x="1228" d="M203 1329q13 97 42.5 170.5t64 114.5t78 66.5t80 33.5t75.5 8q61 0 169 -24.5t162 -24.5q22 0 40 17.5t22 54.5h313q-14 -92 -41.5 -163t-60.5 -113.5t-73.5 -69.5t-76.5 -37t-73 -10q-83 0 -192.5 24.5t-145.5 24.5q-27 0 -44.5 -14.5t-25.5 -57.5h-313z" />
<glyph unicode="&#x2000;" horiz-adv-x="1135" />
<glyph unicode="&#x2001;" horiz-adv-x="2271" />
<glyph unicode="&#x2002;" horiz-adv-x="1135" />
<glyph unicode="&#x2003;" horiz-adv-x="2271" />
<glyph unicode="&#x2004;" horiz-adv-x="757" />
<glyph unicode="&#x2005;" horiz-adv-x="567" />
<glyph unicode="&#x2006;" horiz-adv-x="378" />
<glyph unicode="&#x2007;" horiz-adv-x="378" />
<glyph unicode="&#x2008;" horiz-adv-x="283" />
<glyph unicode="&#x2009;" horiz-adv-x="454" />
<glyph unicode="&#x200a;" horiz-adv-x="126" />
<glyph unicode="&#x2010;" horiz-adv-x="942" d="M-2 424l45 326l866 51l-45 -326z" />
<glyph unicode="&#x2011;" horiz-adv-x="942" d="M-2 424l45 326l866 51l-45 -326z" />
<glyph unicode="&#x2012;" horiz-adv-x="942" d="M-2 424l45 326l866 51l-45 -326z" />
<glyph unicode="&#x2013;" horiz-adv-x="1433" d="M0 451l47 325h1352l-47 -325h-1352z" />
<glyph unicode="&#x2014;" horiz-adv-x="2007" d="M0 451l47 325h1925l-47 -325h-1925z" />
<glyph unicode="&#x2018;" horiz-adv-x="606" d="M125 1167q0 202 229 439l295 -56q-35 -63 -54.5 -103t-38.5 -104t-19 -120q0 -86 41 -172l-416 -56q-37 84 -37 172z" />
<glyph unicode="&#x2019;" horiz-adv-x="606" d="M111 1016q36 67 54.5 105t38 102t19.5 120q0 85 -39 173l414 55q37 -84 37 -172q0 -114 -60 -219t-169 -219z" />
<glyph unicode="&#x201a;" horiz-adv-x="606" d="M-66 -166q28 52 41.5 78.5t33.5 74t29 90t9 85.5q0 84 -39 172l414 55q37 -84 37 -172q0 -113 -60.5 -218.5t-169.5 -219.5z" />
<glyph unicode="&#x201c;" horiz-adv-x="1171" d="M125 1167q0 202 229 439l295 -56q-35 -63 -54.5 -103t-38.5 -104t-19 -120q0 -86 41 -172l-416 -56q-37 84 -37 172zM690 1159q0 78 33 154t77.5 131t112.5 121l295 -52q-108 -182 -108 -299q0 -74 43 -161l-416 -52q-37 78 -37 158z" />
<glyph unicode="&#x201d;" horiz-adv-x="1171" d="M117 1053q108 182 108 299q0 74 -43 161l416 52q37 -78 37 -158q0 -78 -33 -154t-77.5 -131t-112.5 -121zM676 1016q35 63 54.5 103t38.5 104t19 120q0 89 -40 173l415 55q37 -84 37 -172q0 -114 -62 -221.5t-167 -216.5z" />
<glyph unicode="&#x201e;" horiz-adv-x="1171" d="M-59 -129q108 182 108 299q0 75 -43 162l416 51q37 -78 37 -158q0 -112 -58.5 -207.5t-164.5 -197.5zM500 -166q35 62 54.5 103t38.5 105t19 120q0 86 -41 172l416 55q37 -84 37 -172q0 -114 -62 -221.5t-167 -216.5z" />
<glyph unicode="&#x2022;" horiz-adv-x="1132" d="M141 657q0 194 124 307t337 113q172 0 273.5 -92t101.5 -258q0 -210 -118.5 -323t-330.5 -113q-172 0 -279.5 93.5t-107.5 272.5z" />
<glyph unicode="&#x2026;" horiz-adv-x="2023" d="M-4 205q0 124 81.5 196t223.5 72q111 0 178.5 -59t67.5 -164q0 -134 -78 -206.5t-219 -72.5q-114 0 -184 60t-70 174zM664 205q0 124 81.5 196t223.5 72q111 0 178 -59t67 -164q0 -134 -78 -206.5t-218 -72.5q-114 0 -184 60t-70 174zM1331 205q0 124 81.5 196t223.5 72 q111 0 178.5 -59t67.5 -164q0 -134 -78 -206.5t-219 -72.5q-114 0 -184 60t-70 174z" />
<glyph unicode="&#x202f;" horiz-adv-x="454" />
<glyph unicode="&#x2039;" horiz-adv-x="802" d="M41 516l25 176l704 541l-63 -451l-236 -180l184 -180l-61 -451z" />
<glyph unicode="&#x203a;" horiz-adv-x="864" d="M57 -29l62 451l237 180l-186 180l63 451l553 -541l-24 -176z" />
<glyph unicode="&#x205f;" horiz-adv-x="567" />
<glyph unicode="&#x20ac;" d="M90 467l35 250h113q3 38 8 65h-113l35 252h156q98 215 282 342t449 127q213 0 424 -94l-131 -373q-145 64 -246 64q-93 0 -156 -66h262l-34 -252h-328q-5 -27 -8 -65h327l-35 -250h-270q40 -70 156 -70q136 0 293 58l6 -396q-218 -88 -457 -88q-583 0 -627 496h-141z" />
<glyph unicode="&#x2122;" horiz-adv-x="1755" d="M143 1186v227h645v-227h-194v-404h-256v404h-195zM840 782l26 631h262q133 -248 148 -280h10q36 65 72 135t54 108l18 37h260l24 -631h-237l-9 277h-8q-10 -20 -129 -232q-12 -3 -50.5 -7.5t-51.5 -4.5l-131 248h-11l-8 -281h-239z" />
<glyph unicode="&#x25fc;" horiz-adv-x="1126" d="M0 0v1126h1126v-1126h-1126z" />
<glyph unicode="&#xfb01;" horiz-adv-x="1570" d="M14 766l49 352h179l2 27q15 106 60 187.5t108.5 132.5t148.5 83.5t171 45t186 12.5q203 0 442 -50l-111 -350q-7 1 -41 5t-63.5 7t-72.5 6t-79 3q-92 0 -148 -16.5t-59 -63.5l-2 -29h762l-155 -1118h-553l106 766h-211l-168 -1237h-549l172 1237h-174z" />
<glyph unicode="&#xfb02;" horiz-adv-x="1689" d="M14 766l49 352h177l4 27q15 108 60.5 189.5t110 132.5t154.5 83t184 44t208 12q309 0 763 -70l-215 -1536h-553l170 1219q-97 18 -163 18q-162 0 -175 -86l-4 -33h242l-86 -352h-207l-170 -1237h-547l172 1237h-174z" />
</font>
</defs>
</svg>
