<?xml version="1.0" standalone="no"?>
<!DOCTYPE svg PUBLIC "-//W3C//DTD SVG 1.1//EN" "http://www.w3.org/Graphics/SVG/1.1/DTD/svg11.dtd" >
<svg xmlns="http://www.w3.org/2000/svg">
<metadata></metadata>
<defs>
<font id="soberana_textobold" horiz-adv-x="1187" >
<font-face units-per-em="2048" ascent="1536" descent="-512" />
<missing-glyph horiz-adv-x="532" />
<glyph horiz-adv-x="0" />
<glyph horiz-adv-x="682" />
<glyph unicode=" "  horiz-adv-x="532" />
<glyph unicode="&#x09;" horiz-adv-x="532" />
<glyph unicode="&#xa0;" horiz-adv-x="532" />
<glyph unicode="!" horiz-adv-x="614" d="M139 1425l324 33q10 -39 10 -108q0 -95 -16 -213l-103 -742h-80q-7 70 -15 140.5t-14 122.5t-16.5 130t-15 114.5t-17.5 127.5t-17 118.5t-20 138t-20 138.5zM158 123q0 62 41.5 106.5t111.5 44.5q62 0 107 -43t45 -104q0 -70 -44 -114t-112 -44q-67 0 -108 45.5 t-41 108.5z" />
<glyph unicode="&#x22;" horiz-adv-x="829" d="M92 1438l252 24q8 -32 8 -59q0 -40 -18 -137l-70 -355h-84zM467 1438l252 24q8 -32 8 -59q0 -40 -18 -137l-68 -355h-86z" />
<glyph unicode="#" d="M39 403v129h278l31 207h-268v129h285l47 346h137l-49 -346h250l49 346h135l-49 -344h264v-129h-281l-28 -206h268v-129h-287l-47 -345h-135l47 345h-250l-47 -345h-135l45 342h-260zM453 532h249l31 209h-252z" />
<glyph unicode="$" d="M131 371h74q30 -130 90.5 -201.5t163.5 -91.5l67 504l-102 67q-126 82 -190 169.5t-64 203.5q0 101 37 177t103.5 121t148.5 67t180 24l37 279q66 0 112 -15l-36 -270q49 -6 137.5 -26t136.5 -21q0 -198 -35 -359h-76q-18 255 -178 306l-63 -484l106 -67 q169 -111 231 -197.5t62 -204.5q0 -177 -141.5 -280t-372.5 -103l-33 -250q-73 0 -112 15l32 243q-45 6 -146 24t-142 19q-11 55 -19 161t-8 190zM434 1096q0 -57 30 -103.5t105 -101.5l56 422q-86 -11 -138.5 -67t-52.5 -150zM573 70q99 5 160.5 60t61.5 159q0 68 -39 117 t-123 108z" />
<glyph unicode="%" horiz-adv-x="1738" d="M78 1047q0 90 29 161t80.5 114.5t117.5 66t144 22.5q160 0 256 -96t96 -246q0 -122 -51 -206.5t-132.5 -122.5t-187.5 -38q-161 0 -256.5 97.5t-95.5 247.5zM287 1069q0 -118 40 -192t126 -74q46 0 79 40.5t46.5 94.5t13.5 111q0 109 -40 185.5t-120 76.5q-40 0 -70 -25 t-45.5 -64t-22.5 -77.5t-7 -75.5zM334 51l956 1360q23 -1 69 -33t58 -49l-956 -1360q-23 1 -69 33t-58 49zM938 315q0 178 104 270.5t267 92.5q160 0 256 -96t96 -246q0 -180 -104.5 -273.5t-266.5 -93.5q-161 0 -256.5 97.5t-95.5 248.5zM1147 336q0 -117 40.5 -191.5 t125.5 -74.5q45 0 78 39.5t47 93.5t14 112q0 71 -15.5 128t-52.5 96t-92 39q-40 0 -70 -25t-45.5 -64.5t-22.5 -78t-7 -74.5z" />
<glyph unicode="&#x26;" horiz-adv-x="1701" d="M76 377q0 146 84.5 244.5t234.5 152.5q-121 178 -121 322q0 177 123 271.5t342 94.5q89 0 198.5 -28t149.5 -29q0 -175 -34 -350h-76q-8 142 -71.5 223.5t-176.5 81.5q-87 0 -137.5 -54t-50.5 -151q0 -75 51.5 -175.5t137 -203.5t180 -198t196.5 -181q115 153 115 252 q0 46 -35 71t-127 32v67h547v-67l-52 -7q-36 -4 -65 -20.5t-61.5 -56t-58.5 -77.5t-78.5 -116.5t-98.5 -142.5q182 -142 286 -203.5t197 -65.5v-65q-295 -23 -346 -23q-49 0 -124.5 42t-188.5 122q-201 -170 -463 -170q-217 0 -347 114t-130 294zM346 420q0 -154 85 -236 t214 -82q73 0 148 28.5t131 78.5q-277 222 -475 487q-50 -53 -76.5 -129t-26.5 -147z" />
<glyph unicode="'" horiz-adv-x="454" d="M92 1438l252 24q8 -32 8 -59q0 -40 -18 -137l-70 -355h-84z" />
<glyph unicode="(" horiz-adv-x="868" d="M129 680q0 136 36 259.5t96 218t143 176t170.5 138.5t185.5 101v-74q-340 -258 -340 -819q0 -559 340 -817v-76q-100 45 -186 99.5t-170 134.5t-143 173.5t-95.5 218.5t-36.5 267z" />
<glyph unicode=")" horiz-adv-x="868" d="M109 -137q340 258 340 817q0 561 -340 819v74q99 -44 185.5 -99.5t170 -136.5t143 -174.5t95.5 -218.5t36 -264q0 -138 -36 -262t-95.5 -218t-143 -175t-170.5 -137.5t-185 -100.5v76z" />
<glyph unicode="*" horiz-adv-x="864" d="M88 1016l254 92l-254 92q8 37 36.5 85.5t59.5 76.5l205 -174l-51 262q45 10 96 10q50 0 92 -10l-47 -260l201 172q31 -28 60.5 -77t35.5 -85l-254 -92l254 -92q-8 -37 -36.5 -85.5t-59.5 -76.5l-201 172l47 -262q-42 -10 -96 -10q-47 0 -92 10l51 262l-205 -172 q-30 27 -58.5 75.5t-37.5 86.5z" />
<glyph unicode="+" d="M80 508v186h418v441h186v-437h424v-186h-418v-438h-186v434h-424z" />
<glyph unicode="," horiz-adv-x="585" d="M90 -276q215 34 215 161q0 39 -29.5 75t-64.5 58t-64.5 49t-29.5 50q0 61 40.5 112.5t86.5 51.5q84 0 156.5 -78t72.5 -199q0 -141 -106.5 -237.5t-276.5 -100.5v58z" />
<glyph unicode="-" horiz-adv-x="757" d="M31 479v187l696 51v-187z" />
<glyph unicode="." horiz-adv-x="585" d="M139 119q0 70 44.5 113.5t111.5 43.5q66 0 108.5 -45.5t42.5 -109.5q0 -63 -43 -107.5t-112 -44.5q-63 0 -107.5 44t-44.5 106z" />
<glyph unicode="/" horiz-adv-x="1103" d="M61 -6l813 1624q26 0 91 -30.5t77 -47.5l-817 -1622q-26 0 -89 29.5t-75 46.5z" />
<glyph unicode="0" d="M68 666q0 186 40.5 330t114 234t172 135.5t217.5 45.5q159 0 275.5 -90t174.5 -245t58 -355q0 -190 -42 -336t-117 -236t-173 -135t-215 -45q-159 0 -274.5 91t-173 247t-57.5 359zM340 721q0 -200 29.5 -344.5t91.5 -226.5t153 -82q73 0 126 77t79.5 210.5t26.5 308.5 q0 304 -68.5 476.5t-197.5 172.5q-63 0 -110.5 -49.5t-75 -134.5t-41 -187.5t-13.5 -220.5z" />
<glyph unicode="1" d="M193 1239v57l493 111l62 -25v-956q0 -85 1 -136.5t5.5 -95t11 -64.5t20 -36t29 -19t41.5 -5l160 -7v-63h-815v63l172 7q27 1 43 5t29.5 20t19.5 36t10 65t5 94t1 136v639q0 99 -24 136.5t-107 37.5h-157z" />
<glyph unicode="2" d="M20 0v80q283 233 394 341q238 228 304 418q30 86 30 173q0 142 -69.5 216.5t-186.5 74.5q-132 0 -190 -79.5t-79 -271.5h-73q-18 80 -27.5 194t-9.5 191q266 74 419 74q227 0 359.5 -97.5t132.5 -285.5q0 -103 -38.5 -201.5t-93.5 -170t-137.5 -145t-146.5 -118 t-145.5 -99t-112.5 -77.5v-10h219q81 0 132 0.5t100 5.5t76 9t53.5 17t38.5 24t26.5 36.5t21.5 46.5t19 62h74q-18 -262 -55 -408h-1035z" />
<glyph unicode="3" d="M78 43q0 87 4 212t10 163h70q30 -176 104 -258t213 -82q144 0 232 80t88 211q0 156 -99.5 236.5t-287.5 101.5v71q167 30 254.5 102.5t87.5 209.5q0 100 -60 157.5t-172 57.5q-128 0 -193 -83.5t-75 -279.5h-76q-14 59 -25.5 188t-11.5 220q11 2 94 21t156 29.5t148 10.5 q495 0 495 -295q0 -66 -27 -119.5t-77.5 -91t-108.5 -63t-133 -45.5v-9q85 -14 154 -40t127 -69.5t90.5 -110.5t32.5 -154q0 -133 -88.5 -236t-235 -156t-324.5 -53q-95 0 -199.5 22t-166.5 52z" />
<glyph unicode="4" d="M37 483q601 729 780 910l90 -13v-862h58q56 0 80 25.5t63 115.5h51q-16 -224 -43 -313h-209v-31q0 -70 3 -110.5t8.5 -69.5t20.5 -41.5t32.5 -18t50.5 -7.5l94 -7v-61h-719v61l138 7q27 1 41 3t28 12t19.5 24.5t10.5 46t6 70.5t1 104v18h-571q-10 23 -21.5 67t-11.5 70z M225 518h416v510h-14q-151 -174 -402 -493v-17z" />
<glyph unicode="5" d="M94 43q0 203 15 375h71q11 -82 28.5 -138.5t50.5 -105t88 -72.5t134 -24q138 0 215.5 81t77.5 212q0 305 -606 305l63 704h777q0 -109 -12 -228.5t-31 -186.5h-72q0 112 -29.5 160.5t-115.5 48.5h-422l-23 -277q369 -8 565.5 -117t196.5 -338q0 -109 -49.5 -200 t-133 -150t-190 -91t-223.5 -32q-104 0 -207 21t-168 53z" />
<glyph unicode="6" d="M94 496q0 162 58.5 309t162 262t240.5 203t299 141l33 -61q-188 -99 -310.5 -260.5t-164.5 -372.5q131 88 288 88q193 0 299.5 -95.5t106.5 -267.5q0 -200 -144 -336.5t-360 -136.5q-231 0 -369.5 141t-138.5 386zM385 496q0 -207 58 -315.5t173 -108.5q83 0 141 82.5 t58 218.5q0 131 -55 213t-174 82q-105 0 -195 -68q-6 -53 -6 -104z" />
<glyph unicode="7" d="M80 918q10 169 49 462h987l27 -32q-13 -31 -113.5 -236.5t-264.5 -542.5t-290 -600q-70 14 -129 43t-88 56q83 128 250.5 397.5t293.5 474.5l126 205l-10 12h-447q-60 0 -98 -3t-70.5 -13.5t-51 -25t-36.5 -44t-29.5 -63t-27.5 -90.5h-78z" />
<glyph unicode="8" d="M92 313q0 78 26 140.5t73.5 107t102.5 75t126 54.5q-63 39 -105 72t-79.5 76t-55.5 94t-18 112q0 160 117.5 263.5t334.5 103.5q191 0 306.5 -79t115.5 -230q0 -112 -77.5 -190.5t-200.5 -114.5q46 -27 72.5 -43t67 -44t65 -50t53 -54.5t44 -63.5t26 -71t10.5 -84 q0 -120 -68.5 -216t-188.5 -149t-268 -53q-206 0 -342.5 95t-136.5 249zM373 322q0 -105 61 -173.5t168 -68.5q97 0 159 60t62 161q0 53 -20.5 97.5t-63.5 85t-91 72.5t-122 73q-153 -129 -153 -307zM434 1116q0 -81 51.5 -137.5t176.5 -130.5q116 108 116 246 q0 89 -48 147.5t-126 58.5q-79 0 -124.5 -53.5t-45.5 -130.5z" />
<glyph unicode="9" d="M86 942q0 199 144 334t360 135q232 0 370 -140.5t138 -385.5q0 -164 -58.5 -312.5t-162.5 -263.5t-243 -201.5t-304 -138.5l-33 64q400 203 483 631q-131 -86 -284 -86q-198 0 -304 95t-106 269zM377 1014q0 -301 227 -301q108 0 197 67q6 52 6 105q0 208 -59.5 317 t-176.5 109q-84 0 -139 -76.5t-55 -220.5z" />
<glyph unicode=":" horiz-adv-x="585" d="M139 119q0 70 44.5 113.5t111.5 43.5q66 0 108.5 -45.5t42.5 -109.5q0 -63 -43 -107.5t-112 -44.5q-63 0 -107.5 44t-44.5 106zM139 868q0 70 44.5 114t111.5 44q66 0 108.5 -45.5t42.5 -110.5q0 -63 -43 -107t-112 -44q-63 0 -107.5 43.5t-44.5 105.5z" />
<glyph unicode=";" horiz-adv-x="585" d="M90 -276q215 34 215 161q0 39 -29.5 75t-64.5 58t-64.5 49t-29.5 50q0 61 40.5 112.5t86.5 51.5q84 0 156.5 -78t72.5 -199q0 -141 -106.5 -237.5t-276.5 -100.5v58zM131 868q0 70 44.5 114t111.5 44q66 0 108.5 -45.5t42.5 -110.5q0 -63 -43 -107t-112 -44 q-63 0 -107.5 43.5t-44.5 105.5z" />
<glyph unicode="&#x3c;" d="M109 541v159l950 426v-196l-719 -309l719 -310v-196z" />
<glyph unicode="=" d="M80 340v178h1026v-178h-1026zM80 705v178h1026v-178h-1026z" />
<glyph unicode="&#x3e;" d="M129 115v196l719 310l-719 309v196l950 -426v-159z" />
<glyph unicode="?" horiz-adv-x="1009" d="M129 1393q39 5 105.5 23t139.5 32t150 14q197 0 307.5 -75.5t110.5 -215.5q0 -82 -36.5 -155t-112.5 -154q-50 -53 -118 -119t-98 -96.5t-53.5 -70.5t-23.5 -80q0 -59 28 -99h-90q-116 103 -116 209q0 55 24 105t86 110q140 135 195 211.5t55 155.5q0 77 -52.5 123.5 t-140.5 46.5q-111 0 -174.5 -92.5t-74.5 -261.5h-74q-16 64 -26.5 185.5t-10.5 203.5zM326 123q0 61 41.5 105t111.5 44q62 0 107 -43t45 -104q0 -69 -44 -113.5t-112 -44.5q-67 0 -108 46t-41 110z" />
<glyph unicode="@" horiz-adv-x="1734" d="M109 356q0 162 44.5 297t122 229.5t181.5 160t222.5 96t246.5 30.5q148 0 275.5 -38.5t222.5 -111.5t149.5 -186t54.5 -253q0 -242 -135.5 -390.5t-343.5 -148.5q-110 0 -152.5 53.5t-42.5 149.5h-16q-57 -101 -126 -151t-124 -50q-102 0 -162.5 69.5t-60.5 213.5 q0 80 15 151.5t48 135t81.5 109.5t120 72.5t159.5 26.5q107 0 174 -65l92 65h64l-70 -469q-12 -82 -12 -125q0 -49 17 -70.5t54 -21.5q80 0 140 62.5t88 158t28 207.5q0 127 -42 225.5t-117 159.5t-174.5 92t-219.5 31q-125 0 -237.5 -44t-202.5 -128.5t-143.5 -221.5 t-53.5 -308q0 -151 49.5 -272t135 -196.5t194.5 -115t232 -39.5q133 0 264.5 44.5t241.5 131.5l45 -61q-115 -100 -267 -152.5t-313 -52.5q-118 0 -227 27.5t-204 85t-165 139t-110.5 197t-40.5 251.5zM672 340q0 -174 86 -174q52 0 113.5 77t93.5 165l32 233 q-14 40 -46.5 68t-71.5 28q-57 0 -100 -41t-65 -105.5t-32 -128t-10 -122.5z" />
<glyph unicode="A" horiz-adv-x="1544" d="M-4 0v63q98 20 141.5 52.5t85.5 130.5l516 1200q55 8 101 8q3 -7 78.5 -198.5t129 -324t128 -316t126 -301t72.5 -152.5q33 -56 65 -74t89 -25v-63h-641v63l43 5q68 6 94.5 21.5t26.5 49.5q0 41 -58 191l-59 151q-35 0 -235 -2t-224 -2l-55 -131q-66 -154 -66 -203 q0 -38 40.5 -53.5t158.5 -26.5v-63h-557zM516 582l381 -7l-180 469h-10q-82 -189 -191 -462z" />
<glyph unicode="B" horiz-adv-x="1323" d="M68 0v63l92 9q48 4 68.5 29t29 91t8.5 214v626q0 88 -2.5 141.5t-8.5 92.5t-19 57.5t-30 27t-46 11.5l-92 8v57q301 11 581 11q246 0 378 -77t132 -247q0 -125 -85.5 -208.5t-211.5 -117.5v-10q88 -12 155.5 -35.5t123 -63.5t85 -103.5t29.5 -147.5q0 -134 -80.5 -232.5 t-216 -147t-309.5 -48.5h-581zM551 399q0 -82 6 -137t16.5 -89t30 -52t41.5 -23.5t57 -5.5q57 0 105 14t89.5 46t65 92t23.5 143q0 153 -81 241.5t-214 90.5l-139 2v-322zM551 807l119 6q101 5 163 77.5t62 190.5q0 126 -59 189t-150 63q-68 0 -135 -20v-506z" />
<glyph unicode="C" horiz-adv-x="1585" d="M78 680q0 157 42 285.5t118.5 220t184 154t237.5 92.5t280 30q106 0 292 -29.5t222 -29.5q12 -87 12 -133q0 -77 -11 -191.5t-19 -150.5h-76q-3 432 -430 432q-269 0 -410 -167t-141 -472q0 -160 41.5 -283.5t117 -201t177 -117t225.5 -39.5q94 0 170.5 27.5t128.5 76 t85.5 109t49.5 131.5h74q0 -70 -17.5 -175t-44.5 -171q-92 -46 -218 -77.5t-265 -31.5q-132 0 -249.5 23t-224.5 76.5t-183.5 133.5t-122 202.5t-45.5 275.5z" />
<glyph unicode="D" horiz-adv-x="1728" d="M68 0v63l92 9q30 3 47 11.5t30 27t18.5 59t8 94.5t2.5 146v616q0 150 -8.5 216.5t-29 91.5t-68.5 28l-92 6v62q140 1 394 4.5t345 3.5q148 0 273 -23.5t231.5 -75.5t181 -131t116.5 -195.5t42 -262.5q0 -354 -243 -552t-665 -198h-675zM551 293q0 -110 43 -149.5 t162 -39.5q268 0 431 160t163 457q0 300 -148 453t-416 153q-149 0 -235 -22v-1012z" />
<glyph unicode="E" horiz-adv-x="1255" d="M68 0v63l92 9q29 3 46 12t30 28t19 59t8.5 94.5t2.5 144.5v614q0 149 -8.5 216t-29.5 92.5t-68 29.5l-92 8v64h1048q6 -44 6 -95q0 -125 -28 -258h-72q-8 139 -53 195.5t-164 56.5q-148 0 -254 -18v-524h123q64 0 99.5 3t63.5 9t42 22.5t23 36.5t18 58h45v-412h-62 l-14 76q-9 46 -26.5 67t-62 31t-136.5 10h-113v-278q0 -88 4.5 -142.5t13.5 -90t29.5 -52t44 -22t64.5 -5.5h127q63 0 108.5 16t77.5 51.5t54 81.5t42 116h72q-1 -84 -18 -187.5t-40 -179.5h-1062z" />
<glyph unicode="F" horiz-adv-x="1161" d="M68 0v63l92 9q29 3 46.5 11.5t30.5 26.5t18.5 58t8 92.5t2.5 142.5v627q0 147 -8.5 212.5t-29 90.5t-68.5 29l-92 8v64h1017q7 -51 7 -95q0 -113 -31 -249h-68q-9 136 -54.5 189.5t-160.5 53.5q-113 0 -227 -20v-555h133q99 0 145 10t68 36t35 85h41v-420h-60l-10 76 q-9 69 -49 89.5t-172 20.5h-131v-252q0 -90 2.5 -142.5t8 -92.5t19 -58.5t31 -27t47.5 -10.5l117 -9v-63h-708z" />
<glyph unicode="G" horiz-adv-x="1718" d="M78 700q0 239 111 413t303 261.5t442 87.5q123 0 316 -29.5t227 -29.5q12 -87 12 -129q0 -76 -9.5 -172t-19.5 -129h-74q-7 110 -44.5 187.5t-101 120t-140 61t-174.5 18.5q-262 0 -403.5 -169t-141.5 -472q0 -310 150.5 -474.5t402.5 -164.5q146 0 203 55t57 176 q0 137 -10 198t-29.5 78.5t-67.5 20.5l-116 8v66h688v-66l-80 -6q-47 -3 -67 -21.5t-28.5 -71.5t-8.5 -173q0 -164 12 -258q-91 -55 -258.5 -86t-327.5 -31q-133 0 -250 23t-224 77.5t-183 137t-121 208.5t-45 285z" />
<glyph unicode="H" horiz-adv-x="1810" d="M68 0v63l92 9q49 4 69.5 27t28.5 87t8 215v629q0 150 -8.5 216t-29 89t-68.5 27l-92 8v64h682v-64l-93 -8q-49 -4 -69.5 -27.5t-28.5 -88t-8 -216.5v-227h709v227q0 150 -9 216t-29.5 89t-68.5 27l-92 8v64h682v-64l-92 -8q-50 -4 -71 -27.5t-29.5 -88.5t-8.5 -216v-629 q0 -77 1 -124t6 -86.5t11.5 -59t20 -34t29 -19t41.5 -6.5l92 -9v-63h-682v63l92 9q49 4 69.5 27t29 87.5t8.5 214.5v304q-257 0 -709 -9v-295q0 -151 8 -215t28.5 -87t69.5 -27l93 -9v-63h-682z" />
<glyph unicode="I" horiz-adv-x="817" d="M68 0v63l92 9q24 2 40 8t28.5 22t19 39t11 66t6 94.5t1.5 132.5v574q0 160 -8.5 230t-29 95t-68.5 29l-92 8v64h682v-64l-93 -8q-49 -4 -69.5 -30t-28.5 -95t-8 -229v-574q0 -81 1.5 -132.5t6 -94.5t11 -66t19 -39t28.5 -22t40 -8l93 -9v-63h-682z" />
<glyph unicode="J" horiz-adv-x="978" d="M61 340h72q13 -59 26 -102.5t34.5 -86.5t52 -65.5t69.5 -22.5q80 0 114 68.5t34 230.5v650q0 80 -1 130t-6 91.5t-11.5 63t-19.5 37t-28.5 21t-40.5 7.5l-92 8v64h682v-64l-90 -8q-51 -4 -72.5 -30.5t-30 -95t-8.5 -224.5v-604q0 -212 -118.5 -325.5t-325.5 -113.5 q-112 0 -223 33q-10 94 -17 338z" />
<glyph unicode="K" horiz-adv-x="1660" d="M68 0v63l92 9q49 4 69.5 29t28.5 90t8 215v624q0 147 -8.5 212.5t-29 90.5t-68.5 29l-92 8v64h682v-64l-86 -8q-51 -5 -73 -31t-31 -95.5t-9 -225.5v-205l121 -2q218 216 328 339t110 169q0 24 -23 35.5t-81 17.5l-58 6v64h606v-64q-59 -11 -82.5 -16.5t-70 -27 t-78 -47.5t-100.5 -88t-142.5 -138t-199.5 -207q207 -298 381.5 -510.5t250.5 -247.5q45 -22 103 -22v-66q-58 -7 -175 -13.5t-153 -6.5q-59 0 -94 24q-57 38 -224 261t-300 437l-119 -6v-290q0 -150 8.5 -215t30.5 -90t74 -29l86 -9v-63h-682z" />
<glyph unicode="L" horiz-adv-x="1265" d="M68 0v63l92 9q24 2 39 7.5t28 21.5t20 38.5t11.5 64.5t6 94t1.5 132v574q0 159 -8.5 230t-29 97.5t-68.5 30.5l-92 8v64h682v-64l-93 -8q-49 -4 -69.5 -31t-28.5 -96.5t-8 -230.5v-558q0 -84 1.5 -135.5t7.5 -93.5t14 -62t25.5 -33.5t37 -16.5t53.5 -3h160 q111 0 181 69.5t110 234.5h73q-2 -106 -17.5 -221t-39.5 -185h-1089z" />
<glyph unicode="M" horiz-adv-x="2066" d="M27 0v63l92 7q67 4 98 47.5t45 148.5q5 39 23 230.5t40.5 434.5t30.5 329q-54 89 -131 100l-86 10v64h410q51 0 191 -295.5t309 -778.5h10q7 16 55 129t81.5 191.5t87.5 207.5t90.5 220.5t71.5 183.5t50 142h428v-64l-65 -10q-58 -9 -84.5 -35.5t-26.5 -83.5 q0 -64 37 -472.5t49 -504.5q13 -101 37 -145.5t80 -48.5l80 -7v-63h-664v63l90 7q65 4 79.5 24t14.5 82q0 70 -19 337.5t-42 510.5h-14q-59 -141 -210 -477t-218 -500q-18 -4 -71 -11t-69 -7q-261 675 -422 1003h-14q-23 -210 -42 -494t-19 -362q0 -63 23 -84t99 -24l82 -5 v-63h-587z" />
<glyph unicode="N" horiz-adv-x="1794" d="M37 1368v66h391q29 0 61.5 -25t83.5 -76q134 -137 395 -419.5t412 -454.5l15 4l-2 579q-1 136 -14 202.5t-37 89t-74 26.5l-94 8v66h583v-66l-92 -8q-28 -3 -45 -8t-30.5 -21.5t-20 -34.5t-10.5 -61.5t-4.5 -86t-0.5 -122.5v-1020q-77 -23 -112 -26q-712 774 -1018 1085 l-14 -4l2 -653q0 -82 1 -128t5 -88t9.5 -60t19 -33t28.5 -19t41 -6l105 -8v-66h-574v66l100 8q31 3 48 11t29.5 24t17 58.5t6.5 92.5t2 148l2 784q0 84 -34 123.5t-118 46.5z" />
<glyph unicode="O" horiz-adv-x="1716" d="M78 705q0 166 62 308.5t168.5 240.5t251 153t306.5 55q230 0 405.5 -92t271 -259.5t95.5 -385.5q0 -171 -62 -314.5t-169 -239.5t-251.5 -149t-309.5 -53q-171 0 -314.5 54t-243 150t-155 233t-55.5 299zM379 709q0 -98 16.5 -187.5t55 -171.5t94.5 -141.5t141.5 -95 t190.5 -35.5q122 0 212.5 50t143 139.5t77.5 201.5t25 248q0 102 -15.5 192.5t-52.5 173.5t-92.5 142.5t-141 95t-193.5 35.5q-98 0 -176.5 -35t-131 -95t-87.5 -143.5t-50.5 -176t-15.5 -197.5z" />
<glyph unicode="P" horiz-adv-x="1292" d="M68 0v63l92 9q29 3 46.5 11.5t30.5 27t18.5 58.5t8 93.5t2.5 143.5v628q0 146 -8.5 210.5t-29 89t-68.5 28.5l-92 8v57q250 11 639 11q266 0 407 -100.5t141 -293.5q0 -89 -31.5 -164t-85 -127.5t-125.5 -89t-152.5 -54t-166.5 -17.5q-99 0 -143 8v-203q0 -149 8 -212.5 t28.5 -86.5t69.5 -26l119 -9v-63h-708zM551 700q39 -8 106 -8q146 0 235 89t89 237q0 151 -79 234t-195 83q-82 0 -156 -12v-623z" />
<glyph unicode="Q" horiz-adv-x="1716" d="M78 705q0 166 62 308.5t168.5 240.5t251 153t306.5 55q230 0 405.5 -92t271 -259.5t95.5 -385.5q0 -288 -163 -482t-426 -251q181 -116 304.5 -169.5t219.5 -53.5q49 0 137 10v-70q-200 -53 -358 -53q-121 0 -285.5 80.5t-392.5 247.5q-273 50 -434.5 243.5t-161.5 477.5 zM379 709q0 -98 16.5 -187.5t55 -171.5t94.5 -141.5t141.5 -95t190.5 -35.5q122 0 212.5 50t143 139.5t77.5 201.5t25 248q0 102 -15.5 192.5t-52.5 173.5t-92.5 142.5t-141 95t-193.5 35.5q-98 0 -176.5 -35t-131 -95t-87.5 -143.5t-50.5 -176t-15.5 -197.5z" />
<glyph unicode="R" horiz-adv-x="1566" d="M68 0v63l92 9q29 3 46.5 11.5t30.5 27t18.5 59t8 94t2.5 144.5v626q0 146 -8.5 210.5t-29 89t-68.5 28.5l-92 8v57q354 11 643 11q277 0 413 -95.5t136 -273.5q0 -70 -21.5 -129.5t-61.5 -103.5t-84 -76t-100 -60q77 -132 132.5 -221.5t108 -165t92 -120t80.5 -75.5 t77.5 -43t79.5 -12v-65q-279 -25 -322 -25q-22 0 -42.5 5t-41.5 19.5t-38.5 27.5t-40 41t-39 48.5t-41.5 61.5t-41 68t-44.5 80t-45.5 85t-50 95q-34 65 -57.5 85.5t-71.5 20.5h-137v-221q0 -145 8 -207t28.5 -84t69.5 -26l99 -9v-63h-688zM551 711h217q80 0 138.5 89.5 t58.5 221.5q0 145 -72.5 229t-196.5 84q-83 0 -145 -20v-604z" />
<glyph unicode="S" horiz-adv-x="1169" d="M68 373h71q73 -303 381 -303q55 0 101 11.5t85.5 36t62 70t22.5 107.5q0 47 -15.5 86t-51 74.5t-68 59t-89.5 60.5l-174 111q-66 42 -112.5 79t-89 85t-64 105t-21.5 122q0 86 29 153.5t77 110.5t115.5 71t138.5 39t152 11q98 0 232 -25.5t178 -27.5q0 -211 -35 -369h-73 q-10 161 -86 243.5t-201 82.5q-104 0 -171 -50.5t-67 -146.5q0 -46 15 -83t49.5 -71t71.5 -60.5t100 -65.5l151 -94q166 -103 229.5 -200.5t63.5 -221.5q0 -127 -74 -220t-196 -138.5t-275 -45.5q-87 0 -242 25t-194 26q-11 54 -18.5 161t-7.5 192z" />
<glyph unicode="T" horiz-adv-x="1449" d="M51 1018q2 82 13.5 215.5t23.5 200.5h1274q13 -64 24 -196.5t13 -219.5h-74q-44 170 -93 240.5t-142 70.5q-147 0 -224 -14v-914q0 -78 1.5 -126.5t6.5 -87.5t11.5 -58.5t21.5 -33t30.5 -17.5t43.5 -6l98 -9v-63h-710v63l98 9q32 3 50 10.5t33 25t21.5 55.5t9.5 93t3 145 v914q-83 14 -222 14q-97 0 -146 -70t-91 -241h-74z" />
<glyph unicode="U" horiz-adv-x="1695" d="M37 1370v64h676v-64l-90 -8q-27 -3 -43 -7.5t-29.5 -20.5t-19.5 -36t-10.5 -63.5t-5.5 -92t-1 -132.5v-351q0 -303 97 -442t304 -139q385 0 385 526v410q0 161 -9 230t-31 93t-76 27l-99 6v64h572v-64l-80 -6q-51 -4 -73 -29.5t-31 -95t-9 -227.5v-432q0 -180 -64 -316 t-196 -215.5t-319 -79.5q-323 0 -489.5 164t-166.5 492v385q0 159 -9 230t-28.5 94.5t-64.5 27.5z" />
<glyph unicode="V" horiz-adv-x="1531" d="M-4 1370v64h661v-64l-45 -4q-73 -6 -100 -21t-27 -51q0 -28 62 -190l262 -701h12q83 194 266 670q68 178 68 217t-36 54t-144 26v64h551v-64q-101 -20 -146.5 -53t-87.5 -133l-499 -1194q-62 -10 -99 -10q-16 38 -150.5 377.5t-242 598t-141.5 314.5q-35 57 -69 75 t-95 25z" />
<glyph unicode="W" horiz-adv-x="2347" d="M-4 1370v64h663v-64l-69 -4q-52 -3 -75 -18.5t-23 -47.5q0 -50 86 -310t217 -603h8q22 52 167 377.5t165 374.5q-33 82 -51.5 121t-45 65.5t-53.5 33.5t-78 9v66h353q62 0 156.5 -223t295.5 -799h8q99 266 180.5 532.5t81.5 335.5q0 41 -32.5 55.5t-124.5 26.5l-68 8v64 h584v-64q-92 -16 -133.5 -47t-73.5 -123l-426 -1206q-56 -14 -96 -14q-19 47 -93.5 233.5t-112.5 279t-96.5 231.5t-101.5 232h-12l-420 -964q-68 -15 -110 -15q-23 59 -143.5 381.5t-224 589t-140.5 336.5q-15 28 -31 44.5t-39 25t-40 11t-52 5.5z" />
<glyph unicode="X" horiz-adv-x="1566" d="M14 0v63l76 13q34 5 59.5 16t59.5 41t66 69.5t85.5 118t110 168.5t147.5 238q-146 263 -323 533q-63 91 -152 102l-71 8v64h381q33 0 74 -43t112.5 -160.5t189.5 -337.5h13q110 182 155 271.5t45 129.5q0 29 -18 45.5t-72 22.5l-80 8v64h596v-64l-67 -8 q-58 -7 -107.5 -48.5t-134 -159.5t-250.5 -382q204 -375 319 -529t216 -167l90 -13v-63q-326 -29 -358 -29q-59 0 -115 49t-139 180.5t-222 393.5h-12q-231 -373 -231 -455q0 -26 22 -41.5t78 -21.5l92 -10v-66h-635z" />
<glyph unicode="Y" horiz-adv-x="1474" d="M18 1370v64h365q64 0 162.5 -166.5t238.5 -493.5h13q221 392 221 508q0 35 -18.5 54.5t-67.5 23.5l-107 10v64h619v-64q-82 -8 -126 -25t-79 -59q-80 -97 -373 -639v-254q0 -79 1 -125.5t5.5 -85.5t10.5 -57t20 -31t28.5 -16.5t41.5 -5.5l96 -9v-63h-692v63l98 9 q27 2 42 5.5t29 17.5t19.5 31.5t10 57.5t5.5 85t1 124v228q-225 467 -332 620q-52 73 -99.5 101t-132.5 28z" />
<glyph unicode="Z" horiz-adv-x="1312" d="M49 41q118 194 398.5 642.5t392.5 631.5l-6 8h-406q-109 0 -162.5 -57.5t-95.5 -214.5h-78q2 83 12 201t23 182h1079l19 -39q-435 -680 -785 -1270l6 -12h422q117 0 184 68.5t113 234.5h72q-2 -95 -15.5 -217.5t-31.5 -198.5h-1124z" />
<glyph unicode="[" horiz-adv-x="798" d="M190 -205q15 620 15 916q0 516 -15 860h500v-62l-110 -12q-50 -5 -71 -22.5t-29.5 -61.5t-10.5 -147q-6 -528 -6 -555q0 -85 6 -619q2 -75 5.5 -113t16.5 -64t32 -34t57 -12l108 -12v-62h-498z" />
<glyph unicode="\" horiz-adv-x="1103" d="M61 1540q12 18 75 48t89 30l817 -1622q-12 -17 -77 -47.5t-91 -30.5z" />
<glyph unicode="]" horiz-adv-x="798" d="M109 1509v62h499q-14 -321 -14 -860q0 -337 14 -916h-497v62l108 12q38 4 57 12t32 34t16.5 64t5.5 113q6 534 6 619q0 27 -6 555q-2 103 -10.5 147t-29.5 61.5t-71 22.5z" />
<glyph unicode="^" d="M121 487l393 795h158l393 -795h-199l-272 566l-272 -566h-201z" />
<glyph unicode="_" d="M-20 -276h1228v-187h-1228v187z" />
<glyph unicode="`" horiz-adv-x="819" d="M152 1444q0 25 57 68.5t90 54.5l12 -2q52 -74 163.5 -186t191.5 -167l-23 -53q-75 18 -190.5 71t-208 115.5t-92.5 98.5z" />
<glyph unicode="a" horiz-adv-x="1040" d="M66 238q0 22 6 40.5t24.5 37t37 32.5t59 32t74.5 31.5t99 35t117 37.5t144 44v99q0 102 -59.5 168.5t-155.5 66.5q-99 0 -99 -69q0 -41 56 -97v-43q-23 -17 -46 -33t-40 -26.5t-30.5 -18.5t-22 -12.5t-9.5 -5.5q-26 9 -72.5 59t-46.5 105q0 58 82.5 121t189 102t183.5 39 q134 0 224.5 -89.5t90.5 -238.5v-481q0 -16 1 -26t8.5 -25.5t21.5 -25t42.5 -16.5t68.5 -7v-56q-116 -49 -258 -49q-64 0 -90.5 38t-36.5 116h-13q-182 -154 -297 -154q-90 0 -171.5 93.5t-81.5 175.5zM309 319q2 -29 21 -72t56 -81.5t77 -38.5q73 0 164 82v244 q-24 -8 -145 -58t-173 -76z" />
<glyph unicode="b" horiz-adv-x="1140" d="M-4 1380v52l358 118q11 -3 19.5 -9t12.5 -11l5 -4v-684l12 -4q41 48 84 80t83 44.5t66.5 16.5t57.5 4q52 0 102.5 -15.5t100 -52t87 -90t60.5 -136t23 -183.5q0 -86 -14.5 -160.5t-51 -145.5t-93 -121t-146.5 -80t-205 -30q-92 0 -179.5 25t-152.5 69l-30 -63h-50v1176 q0 31 -1 53.5t-2 41.5t-6 32t-7.5 23.5t-11.5 17t-14 11t-20 8t-23.5 5.5t-29.5 5.5t-34 6.5zM391 158q29 -36 76 -57t98 -21q106 0 175 93t69 290q0 103 -19 177.5t-52.5 114.5t-72 58t-83.5 18q-60 0 -110 -25.5t-81 -66.5v-581z" />
<glyph unicode="c" horiz-adv-x="952" d="M78 463q0 229 133.5 374.5t366.5 145.5q92 0 180.5 -21t134.5 -55q-10 -122 -33 -221h-57q-68 188 -223 188q-83 0 -139.5 -53.5t-81.5 -139.5t-25 -198q0 -165 73.5 -271t202.5 -106q161 0 281 138l39 -31q-61 -120 -172 -182t-228 -62q-206 0 -329 132.5t-123 361.5z " />
<glyph unicode="d" horiz-adv-x="1183" d="M74 457q0 245 127 385.5t377 140.5q103 0 172 -31v230q0 35 -0.5 57t-4 43t-6 32t-13 22.5t-17.5 16t-27.5 10.5t-35 9t-46.5 8v52l358 118q11 -2 20.5 -7.5t13.5 -10.5l3 -4v-1342q0 -58 20.5 -85t80.5 -27h41v-56q-12 -6 -41 -16t-92.5 -21.5t-124.5 -11.5 q-29 0 -51 9.5t-34.5 23t-21.5 36.5t-12.5 41t-7.5 46h-9q-55 -78 -132 -117t-148 -39q-59 0 -113.5 15.5t-105.5 52.5t-88 91.5t-59.5 139t-22.5 189.5zM330 492q0 -74 11.5 -136.5t37 -116.5t72 -85t110.5 -31q54 0 107.5 24.5t81.5 65.5v584q-27 35 -73.5 55t-98.5 20 q-115 0 -181.5 -100t-66.5 -280z" />
<glyph unicode="e" horiz-adv-x="1026" d="M74 459q0 239 129 381.5t356 142.5q196 0 298.5 -109.5t105.5 -322.5h-633q-2 -18 -2 -49q0 -185 75.5 -291.5t221.5 -106.5q78 0 155.5 37t137.5 113l43 -27q-20 -44 -51.5 -84.5t-81.5 -82t-125 -66.5t-164 -25q-97 0 -180.5 31.5t-147.5 91t-100.5 154t-36.5 213.5z M338 625l383 10q-2 123 -41.5 184.5t-124.5 61.5q-87 0 -142 -71.5t-75 -184.5z" />
<glyph unicode="f" horiz-adv-x="763" d="M47 0v57l74 6q70 6 83 49.5t13 247.5v502h-154v90h154v82q0 98 7.5 169.5t29.5 140.5t60 111.5t102 68.5t153 26q174 0 279 -59q0 -7 -5 -38t-16.5 -80t-25.5 -85h-58q-78 160 -186 160q-34 0 -57 -14.5t-33.5 -43t-14 -58t-3.5 -70.5q0 -105 14 -310h246l-9 -90h-237 v-495q0 -205 15 -252.5t91 -51.5l103 -6v-57h-625z" />
<glyph unicode="g" horiz-adv-x="1112" d="M18 -252q0 161 201 221v15q-66 7 -103.5 46.5t-37.5 96.5q0 138 207 223v19q-88 38 -141.5 106.5t-53.5 167.5q0 157 111 248.5t293 91.5q218 0 329 -121h11q2 18 3.5 29.5t9 31t18 31t31.5 20.5t50 9q94 0 150 -27q-4 -78 -27 -172h-37q-54 54 -108 54q-44 0 -58 -39 q33 -59 33 -131q0 -147 -107 -244.5t-294 -97.5q-80 0 -140 16q-61 -48 -61 -100q0 -40 31 -54t92 -14h282q166 0 264.5 -66.5t98.5 -197.5q0 -119 -81.5 -209t-216 -136t-298.5 -46q-213 0 -332 55.5t-119 173.5zM250 -178q0 -205 287 -205q130 0 218.5 57t88.5 150 q0 68 -43.5 102.5t-151.5 34.5h-360q-39 -63 -39 -139zM350 645q0 -235 148 -235q141 0 141 239q0 248 -145 248q-70 0 -107 -65.5t-37 -186.5z" />
<glyph unicode="h" horiz-adv-x="1269" d="M31 0v57l69 6q72 6 85.5 50t13.5 252v821q0 32 -1 56t-5.5 43t-7.5 31.5t-13 22t-15 15t-21 10t-24 6t-30 5t-33 5.5v52l359 118q11 -2 20 -7.5t12 -10.5l4 -4l-2 -701l15 -2q73 75 163.5 116.5t170.5 41.5q130 0 213 -93.5t83 -264.5v-267v-78.5t1.5 -62.5t2 -50 t5 -36.5t7 -27.5t11 -18t13.5 -12.5t19 -6t23 -4t29 -1.5l59 -4v-57h-557v57l41 4q74 7 87.5 47t13.5 230v244q0 135 -49.5 190t-141.5 55q-99 0 -207 -92v-370q0 -207 14.5 -253.5t90.5 -50.5l61 -4v-57h-579z" />
<glyph unicode="i" horiz-adv-x="653" d="M61 0v57l68 4q27 2 40.5 4t27.5 14.5t18.5 28t9.5 54.5t5.5 83t0.5 124v252q0 47 -1 72t-7.5 49t-13.5 34t-27 19.5t-40.5 13t-59.5 8.5v51l356 121q17 -4 37 -24v-607q0 -202 13.5 -245t82.5 -50l54 -6v-57h-564zM201 1319q0 67 43 110.5t108 43.5q64 0 105 -44t41 -108 q0 -59 -41.5 -102t-108.5 -43q-60 0 -103.5 42.5t-43.5 100.5z" />
<glyph unicode="j" horiz-adv-x="595" d="M-57 -260l45 16q23 -45 60.5 -88t76.5 -43q26 0 42 10t23 32.5t9 43.5t2 58v839q0 92 -10 129.5t-28 49t-75 22.5q-24 5 -37 8v51l344 121q36 -9 51 -24v-1024q0 -42 -2 -75t-9.5 -79t-21 -81t-38.5 -71.5t-59 -60.5t-86 -39.5t-117 -15.5q-21 0 -63 5.5t-60 14.5 q0 1 -4 13t-9.5 30t-11.5 42t-12 54.5t-10 61.5zM170 1319q0 67 43.5 110.5t108.5 43.5q63 0 104 -44t41 -108q0 -59 -41.5 -102t-108.5 -43q-60 0 -103.5 42.5t-43.5 100.5z" />
<glyph unicode="k" horiz-adv-x="1212" d="M31 0v57l69 6q72 6 85.5 50t13.5 252v827q0 36 -2 61t-4 43.5t-10.5 30.5t-13.5 19.5t-20.5 12.5t-25 7t-34 6.5t-40.5 7.5v52l361 118q10 -2 18.5 -7.5t11.5 -10.5l4 -4v-987h82q58 50 87 76t85 79.5t83.5 89.5t27.5 56q0 19 -18.5 31.5t-49.5 15.5l-47 4v59h449v-59 q-70 -12 -110 -28.5t-91 -61.5l-221 -201q59 -97 93.5 -153t75.5 -120.5t65 -97t54 -68.5t50 -51.5t46 -30t49 -18.5t52 -4v-59q-271 -31 -282 -31q-85 0 -160.5 97.5t-237.5 406.5h-82v-108q0 -205 15.5 -252.5t91.5 -51.5l61 -4v-57h-581z" />
<glyph unicode="l" horiz-adv-x="649" d="M31 0v57l69 6q72 6 85.5 50t13.5 252v827q0 107 -10 134.5t-58 37.5l-82 18v50l361 118q14 -2 34 -22v-1163q0 -205 15.5 -252.5t91.5 -51.5l61 -4v-57h-581z" />
<glyph unicode="m" horiz-adv-x="1904" d="M61 0v57l64 4q28 2 42.5 4.5t28.5 15.5t19 29.5t10 56.5t5.5 84.5t0.5 125.5v231v6q0 112 -9.5 143t-57.5 42l-82 18v51l346 121q36 -9 51 -24l-6 -138l14 -2q75 75 160.5 116.5t163.5 41.5q177 0 248 -158h12q72 73 171 115.5t181 42.5q132 0 216.5 -91.5t84.5 -266.5 v-269q0 -57 0.5 -93.5t3.5 -70t5 -51.5t10 -34.5t14 -23t21 -12t27 -7t36 -3.5l51 -4v-57h-553v57l41 4q26 3 41 6t27.5 15.5t17.5 25t8.5 46.5t4 66t0.5 97v265q0 64 -12.5 111t-30.5 72t-46 39.5t-51.5 18.5t-54.5 4q-49 0 -108 -19t-93 -44q17 -70 17 -139v-267 q0 -215 15 -255.5t95 -43.5l43 -2v-57h-542v57l45 4q73 6 86.5 46.5t13.5 230.5v244q0 245 -182 245q-49 0 -107 -27.5t-92 -62.5v-385q0 -73 1 -114t5.5 -77t10 -51t19 -27.5t28 -15.5t41.5 -6l38 -4v-57h-557z" />
<glyph unicode="n" horiz-adv-x="1300" d="M61 0v57l64 4q77 4 91.5 49t14.5 267v231v6q0 112 -9.5 143t-57.5 42l-82 18v51l346 121q32 -8 51 -24l-6 -138l14 -2q73 74 165 116t173 42q129 0 212 -93.5t83 -260.5v-289q0 -101 3.5 -155t16 -81t26 -32.5t44.5 -8.5l78 -6v-57h-555v57l41 4q72 7 86 47.5t14 229.5 v246q0 73 -15.5 123.5t-43.5 75.5t-57.5 34.5t-67.5 9.5q-108 0 -215 -92v-383q0 -86 2 -131.5t7 -81.5t18 -49.5t29.5 -20t48.5 -8.5l63 -4v-57h-582z" />
<glyph unicode="o" horiz-adv-x="1138" d="M74 469q0 227 135.5 370.5t372.5 143.5q235 0 359 -138t124 -366q0 -102 -36 -194.5t-100 -162.5t-160 -111.5t-210 -41.5q-118 0 -212 40.5t-152.5 110t-89.5 159t-31 190.5zM338 481q0 -197 60 -311.5t171 -114.5q110 0 170 113.5t60 316.5q0 197 -56.5 304.5 t-167.5 107.5q-110 0 -173.5 -105.5t-63.5 -310.5z" />
<glyph unicode="p" horiz-adv-x="1179" d="M16 -393l70 6q72 6 85 49.5t13 251.5v711q0 106 -10.5 135t-56.5 39l-82 18v51l350 123q9 -4 20.5 -10.5t19 -11.5t7.5 -6l-6 -129l20 -5q54 78 126.5 116t144.5 38q59 0 113.5 -15.5t105.5 -52t88 -91t59.5 -139t22.5 -189.5q0 -245 -128 -386t-378 -141 q-33 0 -83.5 9.5t-86.5 23.5v-88q0 -205 15.5 -252.5t91.5 -50.5l98 -4v-58h-619v58zM430 147q67 -67 172 -67q113 0 180.5 104t67.5 277q0 58 -6.5 109.5t-23.5 100t-42.5 83.5t-66.5 56t-93 21q-51 0 -104 -28t-84 -66v-590z" />
<glyph unicode="q" horiz-adv-x="1150" d="M74 446q0 82 15 156t51.5 145t91.5 122.5t142 82.5t197 31q97 0 167.5 -18.5t138.5 -67.5l77 102h41v-1081q0 -209 15 -255t92 -52l53 -4v-58h-616v58l112 6q71 3 85 46.5t14 246.5v203l-13 4q-125 -144 -293 -144q-52 0 -102.5 15.5t-99.5 52t-86 90t-59.5 136 t-22.5 183.5zM330 487q0 -364 229 -364q60 0 110 25t81 65v584q-29 35 -77.5 55t-99.5 20q-47 0 -88 -20.5t-77 -63t-57 -120t-21 -181.5z" />
<glyph unicode="r" horiz-adv-x="897" d="M61 0v57l66 4q73 4 87.5 51t14.5 265v231v6q0 112 -9.5 143t-57.5 42l-82 18v51l334 121q11 -3 23.5 -9t20 -11t7.5 -6l-6 -183l14 -4q89 113 156 160t129 47q73 0 112 -59q-5 -62 -21.5 -136.5t-23.5 -87.5h-53q-29 31 -53 44.5t-60 13.5q-51 0 -101.5 -22.5 t-82.5 -55.5v-328q0 -72 1 -113.5t5.5 -78t10 -52.5t19 -28t28.5 -15t41 -4l100 -4v-57h-619z" />
<glyph unicode="s" horiz-adv-x="839" d="M66 301h61q53 -240 256 -240q74 0 119 36t45 96q0 55 -36.5 91.5t-156.5 98.5q-137 70 -199.5 135t-62.5 168q0 135 99 216t276 81q54 0 109 -12t105 -28.5t71 -20.5q-3 -118 -41 -252h-54q-42 217 -208 217q-61 0 -98.5 -34.5t-37.5 -88.5q0 -50 35.5 -84t145.5 -92 q81 -42 127.5 -71.5t84.5 -67t53 -80t15 -99.5q0 -137 -105.5 -219t-273.5 -82q-65 0 -166 19t-129 20q-3 10 -10.5 49.5t-15.5 110.5t-8 133z" />
<glyph unicode="t" horiz-adv-x="745" d="M37 862v80q73 26 138 70.5t103.5 88t61 75.5t27.5 47q2 0 13 -1.5t27 -5.5t25 -8v-256h260l-10 -90h-250v-596q0 -30 2 -51.5t8.5 -45t18 -38t32.5 -24t50 -9.5q27 0 65 15.5t70 44.5l31 -43q-57 -68 -135.5 -107t-165.5 -39q-109 0 -165.5 68.5t-56.5 161.5v663h-149z " />
<glyph unicode="u" horiz-adv-x="1212" d="M6 817v51l344 121q11 -3 23.5 -9.5t18.5 -11.5l7 -5v-586q0 -72 17 -123t46.5 -78t63.5 -39t74 -12q50 0 104 20t87 50v413q0 117 -9.5 148.5t-58.5 42.5l-78 18v51l338 121q12 -3 25.5 -9.5t20.5 -11.5l7 -5v-770q0 -73 23.5 -96t89.5 -23h29v-56q-11 -6 -41 -16 t-90 -21.5t-115 -11.5q-71 0 -101 37.5t-36 114.5h-15q-159 -152 -323 -152q-133 0 -217 91.5t-84 263.5v290q0 112 -10.5 143.5t-57.5 41.5z" />
<glyph unicode="v" horiz-adv-x="1085" d="M4 895v57h283q44 0 77 -40t68 -124q100 -247 170 -436h14q74 152 130.5 296.5t56.5 189.5q0 23 -17.5 36t-64.5 17l-47 4v57h407v-57q-67 -3 -95.5 -21.5t-53.5 -74.5l-375 -817q-23 -13 -59 -13q-241 609 -357 840q-22 43 -50.5 62.5t-86.5 23.5z" />
<glyph unicode="w" horiz-adv-x="1615" d="M4 895v57h285q17 0 34.5 -12.5t36 -39t35 -54.5t36 -73.5t34.5 -81.5t34.5 -92t32 -91t32 -93t28.5 -85h14l166 383q-4 12 -13 38.5t-14 41t-18.5 35.5t-30 33t-44 22t-64.5 12v57h299q20 0 42.5 -24t45.5 -70t44.5 -99.5t45 -126t42 -134t40.5 -138.5h12 q172 413 172 465q0 29 -19 45.5t-71 20.5l-45 4v57h416v-57q-63 -3 -99 -22t-61 -78l-342 -813q-9 -4 -24 -7.5t-26 -4.5l-11 -1q-132 378 -224 617l-276 -602q-8 -4 -24 -8t-28 -6l-12 -1q-35 86 -111.5 285t-132 330.5t-112.5 240.5q-18 33 -43 49.5t-82 20.5z" />
<glyph unicode="x" horiz-adv-x="1146" d="M16 0v57q56 4 97.5 18t70 32t60 56.5t55 73.5t69.5 102.5t89 125.5q-185 265 -254 350q-36 43 -67.5 58.5t-90.5 21.5v57h248q97 0 149 -75l193 -283h14q113 183 113 240q0 23 -14.5 35t-49.5 18l-51 8v57h430v-57q-40 -2 -70 -9t-56.5 -24.5t-45 -35t-44 -54.5 t-44 -67.5t-54.5 -89.5t-67 -107l262 -369q36 -49 72 -69q35 -20 94 -19h6v-49q-6 -3 -39 -10.5t-87 -15t-95 -7.5q-96 0 -141 51q-20 21 -107.5 148t-142.5 211h-12q-150 -216 -150 -264q0 -28 14 -40.5t52 -13.5l63 -4v-57h-469z" />
<glyph unicode="y" horiz-adv-x="1120" d="M6 895v57h283q23 0 48 -20t54 -68.5t52.5 -92t59.5 -130t57.5 -140.5t64.5 -163h20q199 439 199 487q0 30 -15.5 44t-64.5 20l-49 6v57h403v-57q-59 -3 -90 -21.5t-57 -74.5l-465 -1004q-45 -95 -45 -127t24.5 -43.5t71.5 -13.5l72 -4v-58h-504v58l43 4q65 5 105.5 25.5 t68.5 76.5l158 314q-254 591 -353 780q-25 44 -52.5 62.5t-88.5 25.5z" />
<glyph unicode="z" horiz-adv-x="1024" d="M57 61q3 4 61 87.5t121.5 174t140.5 198.5t146 201t109 142h-287q-32 0 -50 -3t-40 -14.5t-39.5 -36.5t-39 -66.5t-48.5 -106.5h-47q0 105 35 315h807q7 -10 12 -24.5t7 -24t3 -10.5q-132 -176 -356 -483t-238 -330h334q24 0 45.5 4.5t38 11t32 20t26 23.5t22.5 30.5 t18.5 32.5t16.5 37.5t14 37.5t14 40h52q-5 -190 -45 -317h-848q-17 49 -17 61z" />
<glyph unicode="{" horiz-adv-x="858" d="M111 653v62q43 1 66 5t44 18t29 42t8 76q0 40 -1 184.5t-1 167.5q0 92 38.5 163.5t105 114.5t150 65t179.5 22v-57q-115 -15 -153.5 -61t-38.5 -159v-254q0 -46 -3.5 -81.5t-16.5 -79.5t-35.5 -77.5t-63 -65.5t-96.5 -54q56 -22 96.5 -54t63 -64.5t35.5 -75.5t16.5 -78.5 t3.5 -81.5v-258q0 -113 38.5 -158.5t153.5 -60.5v-58q-96 0 -179.5 22t-150 65t-105 114.5t-38.5 163.5q0 23 1 167.5t1 184.5q0 48 -8 76t-29 42t-44 18t-66 5z" />
<glyph unicode="|" horiz-adv-x="741" d="M276 -307v2150h189v-2150h-189z" />
<glyph unicode="}" horiz-adv-x="858" d="M129 -147q115 15 154 61t39 158v258q0 46 3.5 81.5t16.5 78.5t35.5 75.5t63 64.5t96.5 54q-56 22 -96.5 54t-63 65.5t-35.5 77.5t-16.5 79.5t-3.5 81.5v254q0 113 -39 159t-154 61v57q97 0 180.5 -22t150 -65t104.5 -114.5t38 -163.5q0 -23 -1 -167.5t-1 -184.5 q0 -48 8 -76t29.5 -42t44.5 -18t66 -5v-62q-43 -1 -66 -5t-44.5 -18t-29.5 -42t-8 -76q0 -40 1 -184.5t1 -167.5q0 -92 -38 -163.5t-104.5 -114.5t-150 -65t-180.5 -22v58z" />
<glyph unicode="~" d="M80 475v82q0 114 77.5 182t188.5 68q62 0 135.5 -22.5t128 -49t113.5 -49t96 -22.5q117 0 117 141h170v-80q0 -116 -77.5 -184t-188.5 -68q-62 0 -134.5 22.5t-126.5 49t-113.5 49t-98.5 22.5q-117 0 -117 -141h-170z" />
<glyph unicode="&#xa1;" horiz-adv-x="614" d="M141 -303q0 87 17 213l102 741h80q39 -384 133 -1030l-321 -35q-11 43 -11 111zM152 920q0 69 43.5 113t111.5 44q67 0 108.5 -45.5t41.5 -109.5q0 -60 -42.5 -105t-111.5 -45q-62 0 -106.5 43.5t-44.5 104.5z" />
<glyph unicode="&#xa2;" d="M115 666q0 192 72 341.5t210.5 236t323.5 89.5l35 273q57 0 108 -15l-35 -272q22 -4 66.5 -13.5t71 -13.5t49.5 -4q37 0 67 6q0 -220 -34 -426h-62q-23 290 -172 351l-139 -1078q18 -6 45 -6q109 3 174.5 90t99.5 246h68q0 -67 -18 -174.5t-41 -181.5q-45 -33 -124 -56.5 t-157 -23.5q-41 0 -59 2l-31 -248q-68 0 -109 14l33 250q-200 52 -321 209t-121 404zM412 651q0 -343 161 -465l134 1047q-146 -13 -220.5 -166.5t-74.5 -415.5z" />
<glyph unicode="&#xa3;" d="M45 0v63q78 11 127.5 34t72.5 61t30.5 76.5t7.5 99.5q0 52 -15 151l-205 -2q0 73 5 109l182 -6q-17 114 -23 180l-166 -2q0 71 5 100h157v37q0 238 132 374t358 136q77 0 190 -23t127 -24q0 -88 -10 -195.5t-27 -173.5h-71q-9 318 -209 318q-195 0 -195 -369v-80l404 6 q0 -77 -4 -106l-396 4q4 -122 4 -182l398 6q0 -80 -4 -109l-390 4h-2q-1 -63 -14.5 -117.5t-39 -97t-47 -69.5t-50.5 -56h416q66 0 114 17.5t80.5 54.5t53.5 82.5t40 114.5h70q0 -79 -17.5 -219.5t-39.5 -214.5q-243 18 -435 18h-614z" />
<glyph unicode="&#xa4;" d="M18 236l160 159q-72 122 -72 281q0 158 78 285l-164 161q26 33 64.5 71t69.5 60l157 -159q129 82 285 82q160 0 281 -80l157 159q24 -15 49.5 -39.5t40 -40.5t45.5 -53l-161 -159q75 -133 75 -287q0 -153 -75 -283l161 -157q-38 -58 -133 -134l-157 158 q-115 -84 -283 -84q-170 0 -289 82l-153 -156q-96 76 -136 134zM305 678q0 -141 81 -232.5t208 -91.5q132 0 208.5 91t76.5 241q0 139 -79 226t-204 87q-135 0 -213 -88.5t-78 -232.5z" />
<glyph unicode="&#xa5;" d="M-18 1311v69h327q48 0 85.5 -36.5t90.5 -147.5q78 -162 185 -436h12q70 147 121 283t51 180q0 34 -19.5 53.5t-66.5 23.5l-106 11v69h544v-69q-84 -6 -118 -21t-62 -63q-126 -217 -274 -563l266 2q0 -78 -4 -107l-291 2v-117l295 2q0 -77 -4 -106l-291 2q0 -76 3 -120.5 t8 -75.5t19 -44t30 -18.5t46 -7.5l99 -6v-70h-692v70l96 6q50 3 70 21t28.5 69.5t9.5 175.5l-303 -2q0 77 4 102h299v119l-303 -2q0 78 4 107l271 -4q-130 322 -248 526q-70 123 -182 123z" />
<glyph unicode="&#xa6;" horiz-adv-x="741" d="M276 -307v778h189v-778h-189zM276 1065v778h189v-778h-189z" />
<glyph unicode="&#xa7;" horiz-adv-x="1144" d="M109 586q0 106 64.5 181.5t174.5 117.5q-139 126 -139 268q0 99 64 171t166 106t227 34q86 0 204 -23t152 -24q0 -186 -33 -327h-65q-9 139 -73.5 212.5t-174.5 73.5q-90 0 -147.5 -45.5t-57.5 -122.5q0 -45 26.5 -83.5t52.5 -59t99 -67.5q12 -9 19 -13l131 -86 q140 -92 195 -174.5t55 -183.5q0 -106 -65.5 -183t-178.5 -120q143 -120 143 -267q0 -102 -64.5 -173.5t-165 -103.5t-226.5 -32q-86 0 -204.5 23t-154.5 24q0 188 35 334h65q9 -138 74 -215.5t174 -77.5q90 0 147.5 43t57.5 119q0 35 -12.5 64t-44 58.5t-58.5 50t-82 56.5 l-131 88q-139 93 -194 174.5t-55 182.5zM371 647q0 -68 47 -120.5t139 -112.5l141 -92q88 55 88 157q0 68 -46.5 119t-139.5 113l-143 92q-86 -54 -86 -156z" />
<glyph unicode="&#xa8;" horiz-adv-x="819" d="M59 1364q0 50 35 89.5t96 39.5q56 0 92.5 -34.5t36.5 -92.5q0 -54 -37 -92.5t-94 -38.5q-61 0 -95 37t-34 92zM500 1364q0 50 35 89.5t94 39.5q57 0 94 -34.5t37 -90.5q0 -55 -37.5 -94t-93.5 -39q-61 0 -95 37t-34 92z" />
<glyph unicode="&#xa9;" horiz-adv-x="1673" d="M78 715q0 206 101 377.5t276 270.5t385 99q160 0 300 -56.5t240 -154.5t157.5 -237.5t57.5 -298.5q0 -153 -59.5 -291.5t-160 -238t-240.5 -158t-295 -58.5q-162 0 -303.5 56.5t-242 155t-158.5 237t-58 297.5zM201 719q0 -145 50.5 -267.5t137.5 -205t203.5 -128.5 t247.5 -46q133 0 251.5 50t203.5 135.5t134.5 206t49.5 255.5q0 180 -86 328.5t-232.5 232.5t-320.5 84q-133 0 -251.5 -49.5t-203.5 -134.5t-134.5 -205t-49.5 -256zM397 725q0 194 125.5 312t335.5 118q73 0 166 -16t143 -17q0 -179 -24 -293h-39q-8 124 -59 181t-173 57 q-136 0 -206 -89t-70 -253q0 -152 78 -244t207 -92q187 0 233 158h37q-2 -28 -14 -97t-23 -104q-108 -53 -252 -53q-93 0 -176 27.5t-148 80t-103 136.5t-38 188z" />
<glyph unicode="&#xaa;" horiz-adv-x="811" d="M68 944q0 54 89.5 97.5t317.5 107.5v65q0 71 -38.5 115.5t-104.5 44.5q-68 0 -68 -49q0 -24 39 -76v-18q-22 -14 -47 -27.5t-41 -21.5t-31 -14.5t-16 -6.5q-15 4 -44.5 42t-29.5 73q0 44 61.5 89t140 71t136.5 26q103 0 172.5 -62t69.5 -167v-332q0 -16 2 -25.5 t10.5 -23.5t31.5 -21.5t60 -7.5v-39q-39 -13 -103.5 -21.5t-111.5 -8.5q-49 0 -66 24.5t-20 79.5h-12q-129 -104 -215 -104q-65 0 -123.5 66t-58.5 124zM264 999q4 -35 35 -81t72 -46q44 0 104 60v155q-145 -54 -211 -88z" />
<glyph unicode="&#xab;" horiz-adv-x="1171" d="M98 569v54l508 434v-84l-237 -371l237 -377v-82zM537 569v54l505 434v-84l-235 -371l235 -377v-82z" />
<glyph unicode="&#xac;" d="M61 686v178h1045v-493h-184v315h-861z" />
<glyph unicode="&#xad;" horiz-adv-x="757" d="M31 479v187l696 51v-187z" />
<glyph unicode="&#xae;" horiz-adv-x="1040" d="M98 1065q0 175 119.5 290t302.5 115t302.5 -115t119.5 -290q0 -169 -120 -284t-302 -115t-302 115t-120 284zM178 1073q0 -152 96.5 -244t253.5 -92q149 0 243.5 92.5t94.5 243.5q0 148 -95 237t-249 89t-249 -89t-95 -237zM315 895v25l27 2q19 2 24 17t5 75v137 q0 60 -5 75t-24 17l-27 2v25q74 4 197 4q72 0 122 -26t50 -81q0 -75 -78 -106q50 -77 79 -109t56 -32h19v-25q-57 -8 -109 -8q-65 0 -141 157h-41v-30q0 -60 5 -75t24 -17l22 -2v-25h-205zM469 1085h57q22 0 35.5 20.5t13.5 55.5q0 31 -15 54.5t-48 23.5q-27 0 -43 -8v-146z " />
<glyph unicode="&#xaf;" horiz-adv-x="819" d="M84 1260v159h651v-159h-651z" />
<glyph unicode="&#xb0;" horiz-adv-x="757" d="M86 1098q0 126 85 211.5t210 85.5q132 0 210.5 -83t78.5 -202q0 -127 -87.5 -211t-207.5 -84q-127 0 -208 83.5t-81 199.5zM223 1102q0 -71 44.5 -117.5t109.5 -46.5q70 0 114 46.5t44 117.5q0 73 -43 122.5t-117 49.5q-67 0 -109.5 -51t-42.5 -121z" />
<glyph unicode="&#xb1;" d="M119 57v176h950v-176h-950zM119 719v180h381v363h182v-359h387v-184l-381 4v-361h-182v357h-387z" />
<glyph unicode="&#xb2;" horiz-adv-x="655" d="M49 760v45q162 129 216 183q125 125 126 237q0 64 -31 97.5t-86 33.5q-59 0 -85 -38t-35 -132h-39q-21 96 -21 192q118 33 207 33q109 0 172.5 -46.5t63.5 -137.5q0 -49 -19 -95t-44.5 -78t-65.5 -64.5t-67.5 -49t-65 -38t-44.5 -25.5v-5h95q52 0 81.5 0.5t54.5 5.5 t35.5 8t20.5 17t13 23t10 35h41q-10 -128 -27 -201h-506z" />
<glyph unicode="&#xb3;" horiz-adv-x="655" d="M82 780q0 138 6 178h37q14 -80 49 -118.5t98 -38.5q68 0 107 37.5t39 95.5q0 70 -43 104t-127 45v39q73 12 111 42t38 96q0 45 -24.5 70.5t-75.5 25.5q-117 0 -123 -174h-41q-16 59 -16 202q8 1 41 8.5t70.5 13t72.5 5.5q125 0 186.5 -33t61.5 -106q0 -110 -172 -146v-4 q92 -14 145 -52.5t53 -119.5q0 -94 -91 -149.5t-228 -55.5q-93 0 -174 35z" />
<glyph unicode="&#xb4;" horiz-adv-x="821" d="M154 1212q80 55 191 167t163 186l12 2q33 -11 90.5 -54.5t57.5 -68.5q0 -36 -92.5 -98.5t-208.5 -115.5t-191 -71z" />
<glyph unicode="&#xb5;" horiz-adv-x="1230" d="M109 -299q0 48 14 265.5t14 389.5v596h244v-575q0 -137 56.5 -194.5t144.5 -57.5q49 0 102 20t86 50v757h246v-764q0 -78 24 -105.5t90 -27.5h39v-43q-9 -4 -46 -13.5t-102 -19.5t-120 -10q-70 0 -94 35.5t-31 116.5h-12q-150 -150 -299 -150q-118 0 -201 80l-12 -4 q3 -48 10.5 -90t25.5 -90.5t26 -68.5t36 -78t31 -64q-33 -26 -110 -53t-134 -37q-28 51 -28 135z" />
<glyph unicode="&#xb6;" horiz-adv-x="1406" d="M72 932q0 106 38 197t108 159t176.5 107t236.5 39h704v-58l-100 -8q-50 -4 -71 -31.5t-29.5 -99t-8.5 -233.5v-1311h-149v1634h-137v-1634h-150v778q-25 -4 -74 -4q-102 0 -197.5 30t-173.5 86.5t-125.5 147t-47.5 201.5zM334 940q0 -178 86 -278.5t223 -100.5h47v766 h-39q-137 0 -227 -101.5t-90 -285.5z" />
<glyph unicode="&#xb7;" horiz-adv-x="585" d="M139 670q0 71 44.5 114t111.5 43q66 0 108.5 -44.5t42.5 -110.5q0 -62 -43 -106t-112 -44q-63 0 -107.5 43.5t-44.5 104.5z" />
<glyph unicode="&#xb8;" horiz-adv-x="819" d="M172 -180q70 68 260 180h215q-165 -62 -241 -125v-10h28q95 0 142 -47t47 -115q0 -91 -79.5 -141.5t-195.5 -50.5q-77 0 -153 28v66q67 -13 102 -13q127 0 127 89q0 40 -40.5 65t-113.5 25h-71z" />
<glyph unicode="&#xb9;" horiz-adv-x="655" d="M154 760v31l57 4q38 3 45.5 28t7.5 144v262q0 50 -11.5 68t-53.5 18h-45v26l221 54l35 -13v-415q0 -83 4 -115.5t14 -43.5t37 -13l47 -4v-31h-358z" />
<glyph unicode="&#xba;" horiz-adv-x="878" d="M78 1102q0 158 99 259t272 101q174 0 263 -96t89 -256q0 -148 -102 -252t-267 -104q-170 0 -262 100.5t-92 247.5zM297 1108q0 -135 37.5 -212t105.5 -77q69 0 105.5 75t36.5 216q0 279 -138 279q-70 0 -108.5 -69.5t-38.5 -211.5z" />
<glyph unicode="&#xbb;" horiz-adv-x="1171" d="M129 143v82l238 377l-238 371v84l508 -434v-54zM567 143v82l236 377l-236 371v84l506 -434v-54z" />
<glyph unicode="&#xbc;" horiz-adv-x="1576" d="M154 760v31l57 4q38 3 45.5 28t7.5 144v262q0 50 -11.5 68t-53.5 18h-45v26l221 54l35 -13v-415q0 -83 4 -115.5t14 -43.5t37 -13l47 -4v-31h-358zM297 51l956 1360q23 0 68 -31.5t57 -50.5l-956 -1360q-22 0 -67.5 31.5t-57.5 50.5zM983 221q84 104 197 233.5t176 190.5 l51 -8v-393h20q15 0 23.5 2t17 12t13 18.5t16.5 32.5h25q-4 -96 -19 -155h-96v-19q0 -67 9 -83t46 -19l45 -4v-29h-364v29l67 4q36 3 43 18.5t7 91.5v11h-259q-18 36 -18 67zM1083 244h177v213h-5q-75 -83 -172 -205v-8z" />
<glyph unicode="&#xbd;" horiz-adv-x="1576" d="M154 760v31l57 4q38 3 45.5 28t7.5 144v262q0 50 -11.5 68t-53.5 18h-45v26l221 54l35 -13v-415q0 -83 4 -115.5t14 -43.5t37 -13l47 -4v-31h-358zM215 51l956 1360q23 0 68 -31.5t57 -50.5l-956 -1360q-22 0 -67.5 31.5t-57.5 50.5zM971 0v45q162 129 216 183 q126 125 126 237q0 64 -31 97.5t-86 33.5q-59 0 -85.5 -38t-35.5 -132h-39q-20 92 -20 192q118 33 207 33q109 0 172 -46.5t63 -137.5q0 -49 -19 -95t-44.5 -78t-65.5 -64.5t-67 -49t-64.5 -38t-44.5 -25.5v-4h94h64t48 3t35 3.5t24 8t16.5 10.5t11 16t8.5 20t8 27h41 q-10 -134 -26 -201h-506z" />
<glyph unicode="&#xbe;" horiz-adv-x="1576" d="M82 780q0 138 6 178h37q14 -80 49 -118.5t98 -38.5q68 0 107 37.5t39 95.5q0 70 -43 104t-127 45v39q73 12 111 42t38 96q0 45 -24.5 70.5t-75.5 25.5q-117 0 -123 -174h-41q-16 59 -16 202q8 1 41 8.5t70.5 13t72.5 5.5q125 0 186.5 -33t61.5 -106q0 -110 -172 -146v-4 q92 -14 145 -52.5t53 -119.5q0 -94 -91 -149.5t-228 -55.5q-93 0 -174 35zM281 51l956 1360q23 0 68 -31.5t57 -50.5l-956 -1360q-22 0 -67.5 31.5t-57.5 50.5zM983 221q84 104 197 233.5t176 190.5l51 -8v-393h20q15 0 23.5 2t17 12t13 18.5t16.5 32.5h25q-4 -96 -19 -155 h-96v-19q0 -67 9 -83t46 -19l45 -4v-29h-364v29l67 4q36 3 43 18.5t7 91.5v11h-259q-18 36 -18 67zM1083 244h177v213h-5q-75 -83 -172 -205v-8z" />
<glyph unicode="&#xbf;" horiz-adv-x="989" d="M68 -127q0 108 72.5 211.5t226.5 239.5q78 69 110.5 120t32.5 105q0 57 -29 98h90q117 -102 117 -209q0 -55 -24 -105t-86 -110q-141 -137 -195.5 -213t-54.5 -153t52.5 -123.5t141.5 -46.5q110 0 174.5 93t73.5 261h74q16 -64 26.5 -185.5t10.5 -203.5 q-39 -5 -105.5 -23.5t-140 -32.5t-150.5 -14q-196 0 -306.5 75.5t-110.5 215.5zM379 920q0 68 44.5 112.5t111.5 44.5t108 -45.5t41 -109.5q0 -60 -41.5 -105t-110.5 -45q-62 0 -107.5 43.5t-45.5 104.5z" />
<glyph unicode="&#xc0;" horiz-adv-x="1544" d="M-4 0v63q98 20 141.5 52.5t85.5 130.5l516 1200q55 8 101 8q3 -7 78.5 -198.5t129 -324t128 -316t126 -301t72.5 -152.5q33 -56 65 -74t89 -25v-63h-641v63l43 5q68 6 94.5 21.5t26.5 49.5q0 41 -58 191l-59 151q-35 0 -235 -2t-224 -2l-55 -131q-66 -154 -66 -203 q0 -38 40.5 -53.5t158.5 -26.5v-63h-557zM516 582l381 -7l-180 469h-10q-82 -189 -191 -462zM518 1735q0 28 41 76t68 65h14q56 -56 185.5 -129.5t232.5 -114.5l-2 -55q-80 5 -200.5 25.5t-229.5 57.5t-109 75z" />
<glyph unicode="&#xc1;" horiz-adv-x="1544" d="M-4 0v63q98 20 141.5 52.5t85.5 130.5l516 1200q55 8 101 8q3 -7 78.5 -198.5t129 -324t128 -316t126 -301t72.5 -152.5q33 -56 65 -74t89 -25v-63h-641v63l43 5q68 6 94.5 21.5t26.5 49.5q0 41 -58 191l-59 151q-35 0 -235 -2t-224 -2l-55 -131q-66 -154 -66 -203 q0 -38 40.5 -53.5t158.5 -26.5v-63h-557zM516 582l381 -7l-180 469h-10q-82 -189 -191 -462zM567 1632q103 41 232.5 114.5t185.5 129.5h14q27 -17 68 -65t41 -76q0 -38 -109 -75t-229.5 -57.5t-200.5 -25.5z" />
<glyph unicode="&#xc2;" horiz-adv-x="1544" d="M-4 0v63q98 20 141.5 52.5t85.5 130.5l516 1200q55 8 101 8q3 -7 78.5 -198.5t129 -324t128 -316t126 -301t72.5 -152.5q33 -56 65 -74t89 -25v-63h-641v63l43 5q68 6 94.5 21.5t26.5 49.5q0 41 -58 191l-59 151q-35 0 -235 -2t-224 -2l-55 -131q-66 -154 -66 -203 q0 -38 40.5 -53.5t158.5 -26.5v-63h-557zM473 1575v59q186 126 281 240h61q92 -114 281 -240v-59l-312 82zM516 582l381 -7l-180 469h-10q-82 -189 -191 -462z" />
<glyph unicode="&#xc3;" horiz-adv-x="1544" d="M-4 0v63q98 20 141.5 52.5t85.5 130.5l516 1200q55 8 101 8q3 -7 78.5 -198.5t129 -324t128 -316t126 -301t72.5 -152.5q33 -56 65 -74t89 -25v-63h-641v63l43 5q68 6 94.5 21.5t26.5 49.5q0 41 -58 191l-59 151q-35 0 -235 -2t-224 -2l-55 -131q-66 -154 -66 -203 q0 -38 40.5 -53.5t158.5 -26.5v-63h-557zM467 1589q0 120 49 187t135 67q67 0 180 -31.5t160 -31.5q39 0 58.5 16.5t31.5 63.5h66q0 -121 -49.5 -188.5t-134.5 -67.5q-69 0 -182.5 32.5t-157.5 32.5q-40 0 -61 -16.5t-30 -63.5h-65zM516 582l381 -7l-180 469h-10 q-82 -189 -191 -462z" />
<glyph unicode="&#xc4;" horiz-adv-x="1544" d="M-4 0v63q98 20 141.5 52.5t85.5 130.5l516 1200q55 8 101 8q3 -7 78.5 -198.5t129 -324t128 -316t126 -301t72.5 -152.5q33 -56 65 -74t89 -25v-63h-641v63l43 5q68 6 94.5 21.5t26.5 49.5q0 41 -58 191l-59 151q-35 0 -235 -2t-224 -2l-55 -131q-66 -154 -66 -203 q0 -38 40.5 -53.5t158.5 -26.5v-63h-557zM438 1733q0 50 35 89.5t96 39.5q56 0 92.5 -34.5t36.5 -92.5q0 -54 -37 -92.5t-94 -38.5q-61 0 -95 37t-34 92zM516 582l381 -7l-180 469h-10q-82 -189 -191 -462zM879 1733q0 50 35 89.5t94 39.5q57 0 94 -34.5t37 -90.5 q0 -55 -37.5 -94t-93.5 -39q-61 0 -95 37t-34 92z" />
<glyph unicode="&#xc5;" horiz-adv-x="1544" d="M-4 0v63q98 20 141.5 52.5t85.5 130.5l516 1200q55 8 101 8q3 -7 78.5 -198.5t129 -324t128 -316t126 -301t72.5 -152.5q33 -56 65 -74t89 -25v-63h-641v63l43 5q68 6 94.5 21.5t26.5 49.5q0 41 -58 191l-59 151q-35 0 -235 -2t-224 -2l-55 -131q-66 -154 -66 -203 q0 -38 40.5 -53.5t158.5 -26.5v-63h-557zM516 582l381 -7l-180 469h-10q-82 -189 -191 -462zM543 1765q0 101 68.5 169.5t168.5 68.5q103 0 169.5 -66t66.5 -163q0 -101 -70 -169.5t-170 -68.5q-99 0 -166 66.5t-67 162.5zM672 1769q0 -50 30.5 -81t77.5 -31q49 0 79 32.5 t30 84.5q0 49 -30 81.5t-81 32.5q-49 0 -77.5 -34.5t-28.5 -84.5z" />
<glyph unicode="&#xc6;" horiz-adv-x="2015" d="M-14 0v63q97 18 154 54t114 127l698 1097q-30 18 -67 21l-99 8v64h1090q6 -44 6 -95q0 -127 -31 -258h-71q-8 139 -53 195.5t-164 56.5q-146 0 -252 -18v-524h123q64 0 99.5 3t63.5 9t42 22.5t22.5 36.5t17.5 58h45v-412h-61l-14 76q-12 67 -52.5 87.5t-173.5 20.5h-112 v-278q0 -89 4.5 -143.5t13.5 -90t29 -51.5t43 -21.5t65 -5.5h123q122 0 183 62t102 203h74q-3 -87 -19 -190.5t-39 -176.5h-1071v63l99 11q49 5 70 30.5t29.5 95.5t8.5 230v74q-42 0 -228 -2t-223 -2l-73 -123q-36 -62 -65 -129.5t-29 -97.5q0 -42 29.5 -58.5t133.5 -28.5 v-63h-585zM637 602h389v633h-10z" />
<glyph unicode="&#xc7;" horiz-adv-x="1585" d="M78 680q0 157 42 285.5t118.5 220t184 154t237.5 92.5t280 30q106 0 292 -29.5t222 -29.5q12 -87 12 -133q0 -77 -11 -191.5t-19 -150.5h-76q-3 432 -430 432q-269 0 -410 -167t-141 -472q0 -160 41.5 -283.5t117 -201t177 -117t225.5 -39.5q94 0 170.5 27.5t128.5 76 t85.5 109t49.5 131.5h74q0 -70 -17.5 -175t-44.5 -171q-167 -85 -391 -105q-113 -49 -170 -98v-10h29q95 0 141.5 -47t46.5 -115q0 -91 -79 -141.5t-195 -50.5q-78 0 -154 28v66q67 -13 103 -13q127 0 127 89q0 40 -40.5 65t-113.5 25h-72l-26 49q61 61 215 153 q-121 8 -225.5 36.5t-198.5 84t-160.5 134.5t-105.5 194.5t-39 257.5z" />
<glyph unicode="&#xc8;" horiz-adv-x="1255" d="M68 0v63l92 9q29 3 46 12t30 28t19 59t8.5 94.5t2.5 144.5v614q0 149 -8.5 216t-29.5 92.5t-68 29.5l-92 8v64h1048q6 -44 6 -95q0 -125 -28 -258h-72q-8 139 -53 195.5t-164 56.5q-148 0 -254 -18v-524h123q64 0 99.5 3t63.5 9t42 22.5t23 36.5t18 58h45v-412h-62 l-14 76q-9 46 -26.5 67t-62 31t-136.5 10h-113v-278q0 -88 4.5 -142.5t13.5 -90t29.5 -52t44 -22t64.5 -5.5h127q63 0 108.5 16t77.5 51.5t54 81.5t42 116h72q-1 -84 -18 -187.5t-40 -179.5h-1062zM346 1735q0 28 41 76t68 65h14q56 -56 185.5 -129.5t232.5 -114.5l-2 -55 q-80 5 -200.5 25.5t-229.5 57.5t-109 75z" />
<glyph unicode="&#xc9;" horiz-adv-x="1255" d="M68 0v63l92 9q29 3 46 12t30 28t19 59t8.5 94.5t2.5 144.5v614q0 149 -8.5 216t-29.5 92.5t-68 29.5l-92 8v64h1048q6 -44 6 -95q0 -125 -28 -258h-72q-8 139 -53 195.5t-164 56.5q-148 0 -254 -18v-524h123q64 0 99.5 3t63.5 9t42 22.5t23 36.5t18 58h45v-412h-62 l-14 76q-9 46 -26.5 67t-62 31t-136.5 10h-113v-278q0 -88 4.5 -142.5t13.5 -90t29.5 -52t44 -22t64.5 -5.5h127q63 0 108.5 16t77.5 51.5t54 81.5t42 116h72q-1 -84 -18 -187.5t-40 -179.5h-1062zM408 1632q102 41 231.5 114.5t185.5 129.5h15q27 -17 67.5 -65t40.5 -76 q0 -38 -109 -75t-229 -57.5t-200 -25.5z" />
<glyph unicode="&#xca;" horiz-adv-x="1255" d="M68 0v63l92 9q29 3 46 12t30 28t19 59t8.5 94.5t2.5 144.5v614q0 149 -8.5 216t-29.5 92.5t-68 29.5l-92 8v64h1048q6 -44 6 -95q0 -125 -28 -258h-72q-8 139 -53 195.5t-164 56.5q-148 0 -254 -18v-524h123q64 0 99.5 3t63.5 9t42 22.5t23 36.5t18 58h45v-412h-62 l-14 76q-9 46 -26.5 67t-62 31t-136.5 10h-113v-278q0 -88 4.5 -142.5t13.5 -90t29.5 -52t44 -22t64.5 -5.5h127q63 0 108.5 16t77.5 51.5t54 81.5t42 116h72q-1 -84 -18 -187.5t-40 -179.5h-1062zM317 1575v59q186 126 281 240h61q92 -114 281 -240v-59l-311 82z" />
<glyph unicode="&#xcb;" horiz-adv-x="1255" d="M68 0v63l92 9q29 3 46 12t30 28t19 59t8.5 94.5t2.5 144.5v614q0 149 -8.5 216t-29.5 92.5t-68 29.5l-92 8v64h1048q6 -44 6 -95q0 -125 -28 -258h-72q-8 139 -53 195.5t-164 56.5q-148 0 -254 -18v-524h123q64 0 99.5 3t63.5 9t42 22.5t23 36.5t18 58h45v-412h-62 l-14 76q-9 46 -26.5 67t-62 31t-136.5 10h-113v-278q0 -88 4.5 -142.5t13.5 -90t29.5 -52t44 -22t64.5 -5.5h127q63 0 108.5 16t77.5 51.5t54 81.5t42 116h72q-1 -84 -18 -187.5t-40 -179.5h-1062zM283 1733q0 50 35 89.5t96 39.5q56 0 92.5 -34.5t36.5 -92.5 q0 -54 -37 -92.5t-94 -38.5q-61 0 -95 37t-34 92zM723 1733q0 50 35 89.5t94 39.5q57 0 94 -34.5t37 -90.5q0 -55 -37.5 -94t-93.5 -39q-61 0 -95 37t-34 92z" />
<glyph unicode="&#xcc;" horiz-adv-x="817" d="M68 0v63l92 9q24 2 40 8t28.5 22t19 39t11 66t6 94.5t1.5 132.5v574q0 160 -8.5 230t-29 95t-68.5 29l-92 8v64h682v-64l-93 -8q-49 -4 -69.5 -30t-28.5 -95t-8 -229v-574q0 -81 1.5 -132.5t6 -94.5t11 -66t19 -39t28.5 -22t40 -8l93 -9v-63h-682zM125 1735q0 28 40.5 76 t67.5 65h15q56 -56 185.5 -129.5t232.5 -114.5l-2 -55q-80 5 -200.5 25.5t-229.5 57.5t-109 75z" />
<glyph unicode="&#xcd;" horiz-adv-x="817" d="M68 0v63l92 9q24 2 40 8t28.5 22t19 39t11 66t6 94.5t1.5 132.5v574q0 160 -8.5 230t-29 95t-68.5 29l-92 8v64h682v-64l-93 -8q-49 -4 -69.5 -30t-28.5 -95t-8 -229v-574q0 -81 1.5 -132.5t6 -94.5t11 -66t19 -39t28.5 -22t40 -8l93 -9v-63h-682zM125 1632 q103 41 232.5 114.5t185.5 129.5h14q27 -17 68 -65t41 -76q0 -38 -109 -75t-229.5 -57.5t-200.5 -25.5z" />
<glyph unicode="&#xce;" horiz-adv-x="817" d="M68 0v63l92 9q24 2 40 8t28.5 22t19 39t11 66t6 94.5t1.5 132.5v574q0 160 -8.5 230t-29 95t-68.5 29l-92 8v64h682v-64l-93 -8q-49 -4 -69.5 -30t-28.5 -95t-8 -229v-574q0 -81 1.5 -132.5t6 -94.5t11 -66t19 -39t28.5 -22t40 -8l93 -9v-63h-682zM100 1575v59 q186 126 281 240h61q92 -114 281 -240v-59l-311 82z" />
<glyph unicode="&#xcf;" horiz-adv-x="817" d="M61 1733q0 50 35.5 89.5t96.5 39.5q56 0 92.5 -34.5t36.5 -92.5q0 -54 -37.5 -92.5t-94.5 -38.5q-61 0 -95 37t-34 92zM68 0v63l92 9q24 2 40 8t28.5 22t19 39t11 66t6 94.5t1.5 132.5v574q0 160 -8.5 230t-29 95t-68.5 29l-92 8v64h682v-64l-93 -8q-49 -4 -69.5 -30 t-28.5 -95t-8 -229v-574q0 -81 1.5 -132.5t6 -94.5t11 -66t19 -39t28.5 -22t40 -8l93 -9v-63h-682zM502 1733q0 50 35 89.5t94 39.5q57 0 94 -34.5t37 -90.5q0 -55 -37.5 -94t-93.5 -39q-61 0 -95 37t-34 92z" />
<glyph unicode="&#xd0;" horiz-adv-x="1736" d="M68 0v63l92 9q30 3 47 11.5t30 27t18.5 59t8 94.5t2.5 146v264h-196v139h196v213q0 150 -8.5 216.5t-29 91.5t-68.5 28l-92 6v62q140 1 394 4.5t345 3.5q148 0 273.5 -23.5t233.5 -75.5t184 -131t118.5 -195.5t42.5 -262.5q0 -353 -246.5 -551.5t-669.5 -198.5h-675z M551 293q0 -110 43 -149.5t162 -39.5q131 0 240.5 39.5t190.5 115.5t126 194t45 268q0 299 -151.5 452.5t-420.5 153.5q-149 0 -235 -22v-492h383v-139h-383v-381z" />
<glyph unicode="&#xd1;" horiz-adv-x="1794" d="M37 1368v66h391q29 0 61.5 -25t83.5 -76q134 -137 395 -419.5t412 -454.5l15 4l-2 579q-1 136 -14 202.5t-37 89t-74 26.5l-94 8v66h583v-66l-92 -8q-28 -3 -45 -8t-30.5 -21.5t-20 -34.5t-10.5 -61.5t-4.5 -86t-0.5 -122.5v-1020q-77 -23 -112 -26q-712 774 -1018 1085 l-14 -4l2 -653q0 -82 1 -128t5 -88t9.5 -60t19 -33t28.5 -19t41 -6l105 -8v-66h-574v66l100 8q31 3 48 11t29.5 24t17 58.5t6.5 92.5t2 148l2 784q0 84 -34 123.5t-118 46.5zM569 1589q0 120 49.5 187t135.5 67q67 0 180 -31.5t160 -31.5q39 0 58.5 16.5t31.5 63.5h65 q0 -121 -49.5 -188.5t-134.5 -67.5q-69 0 -182.5 32.5t-157.5 32.5q-40 0 -60.5 -16.5t-29.5 -63.5h-66z" />
<glyph unicode="&#xd2;" horiz-adv-x="1716" d="M78 705q0 166 62 308.5t168.5 240.5t251 153t306.5 55q230 0 405.5 -92t271 -259.5t95.5 -385.5q0 -171 -62 -314.5t-169 -239.5t-251.5 -149t-309.5 -53q-171 0 -314.5 54t-243 150t-155 233t-55.5 299zM379 709q0 -98 16.5 -187.5t55 -171.5t94.5 -141.5t141.5 -95 t190.5 -35.5q122 0 212.5 50t143 139.5t77.5 201.5t25 248q0 102 -15.5 192.5t-52.5 173.5t-92.5 142.5t-141 95t-193.5 35.5q-98 0 -176.5 -35t-131 -95t-87.5 -143.5t-50.5 -176t-15.5 -197.5zM659 1735q0 28 41 76t68 65h14q56 -56 185.5 -129.5t232.5 -114.5l-2 -55 q-80 5 -200.5 25.5t-229.5 57.5t-109 75z" />
<glyph unicode="&#xd3;" horiz-adv-x="1716" d="M78 705q0 166 62 308.5t168.5 240.5t251 153t306.5 55q230 0 405.5 -92t271 -259.5t95.5 -385.5q0 -171 -62 -314.5t-169 -239.5t-251.5 -149t-309.5 -53q-171 0 -314.5 54t-243 150t-155 233t-55.5 299zM379 709q0 -98 16.5 -187.5t55 -171.5t94.5 -141.5t141.5 -95 t190.5 -35.5q122 0 212.5 50t143 139.5t77.5 201.5t25 248q0 102 -15.5 192.5t-52.5 173.5t-92.5 142.5t-141 95t-193.5 35.5q-98 0 -176.5 -35t-131 -95t-87.5 -143.5t-50.5 -176t-15.5 -197.5zM610 1632q103 41 232.5 114.5t185.5 129.5h14q27 -17 68 -65t41 -76 q0 -38 -109 -75t-229.5 -57.5t-200.5 -25.5z" />
<glyph unicode="&#xd4;" horiz-adv-x="1716" d="M78 705q0 166 62 308.5t168.5 240.5t251 153t306.5 55q230 0 405.5 -92t271 -259.5t95.5 -385.5q0 -171 -62 -314.5t-169 -239.5t-251.5 -149t-309.5 -53q-171 0 -314.5 54t-243 150t-155 233t-55.5 299zM379 709q0 -98 16.5 -187.5t55 -171.5t94.5 -141.5t141.5 -95 t190.5 -35.5q122 0 212.5 50t143 139.5t77.5 201.5t25 248q0 102 -15.5 192.5t-52.5 173.5t-92.5 142.5t-141 95t-193.5 35.5q-98 0 -176.5 -35t-131 -95t-87.5 -143.5t-50.5 -176t-15.5 -197.5zM547 1575v59q184 125 280 240h62q94 -116 280 -240v-59l-311 82z" />
<glyph unicode="&#xd5;" horiz-adv-x="1716" d="M78 705q0 166 62 308.5t168.5 240.5t251 153t306.5 55q230 0 405.5 -92t271 -259.5t95.5 -385.5q0 -171 -62 -314.5t-169 -239.5t-251.5 -149t-309.5 -53q-171 0 -314.5 54t-243 150t-155 233t-55.5 299zM379 709q0 -98 16.5 -187.5t55 -171.5t94.5 -141.5t141.5 -95 t190.5 -35.5q122 0 212.5 50t143 139.5t77.5 201.5t25 248q0 102 -15.5 192.5t-52.5 173.5t-92.5 142.5t-141 95t-193.5 35.5q-98 0 -176.5 -35t-131 -95t-87.5 -143.5t-50.5 -176t-15.5 -197.5zM530 1589q0 120 49.5 187t135.5 67q67 0 180 -31.5t160 -31.5q39 0 58.5 16.5 t31.5 63.5h65q0 -121 -49.5 -188.5t-134.5 -67.5q-69 0 -182.5 32.5t-157.5 32.5q-40 0 -60.5 -16.5t-29.5 -63.5h-66z" />
<glyph unicode="&#xd6;" horiz-adv-x="1716" d="M78 705q0 166 62 308.5t168.5 240.5t251 153t306.5 55q230 0 405.5 -92t271 -259.5t95.5 -385.5q0 -171 -62 -314.5t-169 -239.5t-251.5 -149t-309.5 -53q-171 0 -314.5 54t-243 150t-155 233t-55.5 299zM379 709q0 -98 16.5 -187.5t55 -171.5t94.5 -141.5t141.5 -95 t190.5 -35.5q122 0 212.5 50t143 139.5t77.5 201.5t25 248q0 102 -15.5 192.5t-52.5 173.5t-92.5 142.5t-141 95t-193.5 35.5q-98 0 -176.5 -35t-131 -95t-87.5 -143.5t-50.5 -176t-15.5 -197.5zM506 1733q0 50 35 89.5t96 39.5q56 0 92.5 -34.5t36.5 -92.5q0 -54 -37 -92.5 t-94 -38.5q-61 0 -95 37t-34 92zM946 1733q0 50 35 89.5t94 39.5q57 0 94 -34.5t37 -90.5q0 -55 -37.5 -94t-93.5 -39q-61 0 -95 37t-34 92z" />
<glyph unicode="&#xd7;" d="M111 983l141 143l344 -352l340 352l141 -143l-352 -342l352 -342l-141 -141l-342 352l-342 -352l-139 141l352 342z" />
<glyph unicode="&#xd8;" horiz-adv-x="1716" d="M78 705q0 166 62 308.5t168.5 240.5t251 153t306.5 55q220 0 398 -90l110 148q25 -4 66.5 -34.5t50.5 -49.5l-107 -142q123 -98 188.5 -243.5t65.5 -325.5q0 -171 -62 -314.5t-169 -239.5t-251.5 -149t-309.5 -53q-221 0 -395 88l-109 -145q-25 5 -66.5 33.5t-50.5 48.5 l107 141q-122 98 -188 244t-66 326zM379 709q0 -233 88 -396l694 924q-122 119 -321 119q-98 0 -176.5 -35t-131 -95t-87.5 -143.5t-50.5 -176t-15.5 -197.5zM557 197q122 -119 320 -119q122 0 212.5 50t143 139.5t77.5 201.5t25 248q0 238 -84 399z" />
<glyph unicode="&#xd9;" horiz-adv-x="1695" d="M37 1370v64h676v-64l-90 -8q-27 -3 -43 -7.5t-29.5 -20.5t-19.5 -36t-10.5 -63.5t-5.5 -92t-1 -132.5v-351q0 -303 97 -442t304 -139q385 0 385 526v410q0 161 -9 230t-31 93t-76 27l-99 6v64h572v-64l-80 -6q-51 -4 -73 -29.5t-31 -95t-9 -227.5v-432q0 -180 -64 -316 t-196 -215.5t-319 -79.5q-323 0 -489.5 164t-166.5 492v385q0 159 -9 230t-28.5 94.5t-64.5 27.5zM586 1735q0 28 40.5 76t67.5 65h15q56 -56 185.5 -129.5t231.5 -114.5l-2 -55q-80 5 -200 25.5t-229 57.5t-109 75z" />
<glyph unicode="&#xda;" horiz-adv-x="1695" d="M37 1370v64h676v-64l-90 -8q-27 -3 -43 -7.5t-29.5 -20.5t-19.5 -36t-10.5 -63.5t-5.5 -92t-1 -132.5v-351q0 -303 97 -442t304 -139q385 0 385 526v410q0 161 -9 230t-31 93t-76 27l-99 6v64h572v-64l-80 -6q-51 -4 -73 -29.5t-31 -95t-9 -227.5v-432q0 -180 -64 -316 t-196 -215.5t-319 -79.5q-323 0 -489.5 164t-166.5 492v385q0 159 -9 230t-28.5 94.5t-64.5 27.5zM680 1632q103 41 232.5 114.5t185.5 129.5h14q27 -17 68 -65t41 -76q0 -38 -109 -75t-229.5 -57.5t-200.5 -25.5z" />
<glyph unicode="&#xdb;" horiz-adv-x="1695" d="M37 1370v64h676v-64l-90 -8q-27 -3 -43 -7.5t-29.5 -20.5t-19.5 -36t-10.5 -63.5t-5.5 -92t-1 -132.5v-351q0 -303 97 -442t304 -139q385 0 385 526v410q0 161 -9 230t-31 93t-76 27l-99 6v64h572v-64l-80 -6q-51 -4 -73 -29.5t-31 -95t-9 -227.5v-432q0 -180 -64 -316 t-196 -215.5t-319 -79.5q-323 0 -489.5 164t-166.5 492v385q0 159 -9 230t-28.5 94.5t-64.5 27.5zM580 1575v59q184 125 280 240h62q94 -116 280 -240v-59l-311 82z" />
<glyph unicode="&#xdc;" horiz-adv-x="1695" d="M37 1370v64h676v-64l-90 -8q-27 -3 -43 -7.5t-29.5 -20.5t-19.5 -36t-10.5 -63.5t-5.5 -92t-1 -132.5v-351q0 -303 97 -442t304 -139q385 0 385 526v410q0 161 -9 230t-31 93t-76 27l-99 6v64h572v-64l-80 -6q-51 -4 -73 -29.5t-31 -95t-9 -227.5v-432q0 -180 -64 -316 t-196 -215.5t-319 -79.5q-323 0 -489.5 164t-166.5 492v385q0 159 -9 230t-28.5 94.5t-64.5 27.5zM532 1733q0 50 35.5 89.5t96.5 39.5q56 0 92.5 -34.5t36.5 -92.5q0 -54 -37 -92.5t-94 -38.5q-61 0 -95.5 37t-34.5 92zM973 1733q0 50 35 89.5t94 39.5q57 0 94 -34.5 t37 -90.5q0 -55 -37.5 -94t-93.5 -39q-61 0 -95 37t-34 92z" />
<glyph unicode="&#xdd;" horiz-adv-x="1474" d="M18 1370v64h365q64 0 162.5 -166.5t238.5 -493.5h13q221 392 221 508q0 35 -18.5 54.5t-67.5 23.5l-107 10v64h619v-64q-82 -8 -126 -25t-79 -59q-80 -97 -373 -639v-254q0 -79 1 -125.5t5.5 -85.5t10.5 -57t20 -31t28.5 -16.5t41.5 -5.5l96 -9v-63h-692v63l98 9 q27 2 42 5.5t29 17.5t19.5 31.5t10 57.5t5.5 85t1 124v228q-225 467 -332 620q-52 73 -99.5 101t-132.5 28zM535 1632q102 41 231.5 114.5t185.5 129.5h15q27 -17 67.5 -65t40.5 -76q0 -38 -109 -75t-229 -57.5t-200 -25.5z" />
<glyph unicode="&#xde;" horiz-adv-x="1302" d="M68 0v63l100 9q24 2 39 7t27 21t17.5 34.5t9.5 62t4.5 88t0.5 125.5v620q0 78 -1 123.5t-4.5 86.5t-9.5 60.5t-18 34.5t-26.5 20t-38.5 7l-100 8v64h665v-64l-82 -8q-46 -4 -66 -20t-29 -60t-9 -141q59 2 160 2q262 0 404 -96.5t142 -288.5q0 -112 -49 -199t-131.5 -139 t-183 -78.5t-211.5 -26.5q-61 0 -127 4q0 -144 18 -193.5t82 -53.5l107 -9v-63h-690zM549 420q33 -4 121 -4q145 0 227 93t82 224q0 151 -74.5 231t-204.5 80q-77 0 -151 -12v-612z" />
<glyph unicode="&#xdf;" horiz-adv-x="1325" d="M47 0v57l74 6q70 6 83 49.5t13 247.5v502h-154v90h154v95q0 120 41 217t111 158.5t159 94.5t189 33q185 0 301.5 -82.5t116.5 -214.5q0 -62 -34 -119.5t-83 -100.5t-98 -82t-83 -79.5t-34 -78.5q0 -62 35 -95.5t151 -95.5q151 -79 219 -153.5t68 -178.5q0 -137 -106 -219 t-275 -82q-139 0 -279 39q-3 10 -10.5 49.5t-15.5 110.5t-8 133h51q53 -240 252 -240q73 0 118.5 37.5t45.5 98.5q0 54 -34.5 90t-148.5 96q-56 29 -92 50t-73 49.5t-58 56.5t-34 65.5t-13 81.5q0 49 24 95t60.5 81t78.5 77t78.5 82t60.5 97t24 121q0 97 -53.5 153 t-155.5 56q-130 0 -190 -110.5t-60 -356.5v-981h-416z" />
<glyph unicode="&#xe0;" horiz-adv-x="1040" d="M66 238q0 22 6 40.5t24.5 37t37 32.5t59 32t74.5 31.5t99 35t117 37.5t144 44v99q0 102 -59.5 168.5t-155.5 66.5q-99 0 -99 -69q0 -41 56 -97v-43q-23 -17 -46 -33t-40 -26.5t-30.5 -18.5t-22 -12.5t-9.5 -5.5q-26 9 -72.5 59t-46.5 105q0 58 82.5 121t189 102t183.5 39 q134 0 224.5 -89.5t90.5 -238.5v-481q0 -16 1 -26t8.5 -25.5t21.5 -25t42.5 -16.5t68.5 -7v-56q-116 -49 -258 -49q-64 0 -90.5 38t-36.5 116h-13q-182 -154 -297 -154q-90 0 -171.5 93.5t-81.5 175.5zM225 1444q0 25 57.5 68.5t90.5 54.5l12 -2q52 -74 163 -186t191 -167 l-22 -53q-75 18 -191 71t-208.5 115.5t-92.5 98.5zM309 319q2 -29 21 -72t56 -81.5t77 -38.5q73 0 164 82v244q-24 -8 -145 -58t-173 -76z" />
<glyph unicode="&#xe1;" horiz-adv-x="1040" d="M66 238q0 22 6 40.5t24.5 37t37 32.5t59 32t74.5 31.5t99 35t117 37.5t144 44v99q0 102 -59.5 168.5t-155.5 66.5q-99 0 -99 -69q0 -41 56 -97v-43q-23 -17 -46 -33t-40 -26.5t-30.5 -18.5t-22 -12.5t-9.5 -5.5q-26 9 -72.5 59t-46.5 105q0 58 82.5 121t189 102t183.5 39 q134 0 224.5 -89.5t90.5 -238.5v-481q0 -16 1 -26t8.5 -25.5t21.5 -25t42.5 -16.5t68.5 -7v-56q-116 -49 -258 -49q-64 0 -90.5 38t-36.5 116h-13q-182 -154 -297 -154q-90 0 -171.5 93.5t-81.5 175.5zM266 1212q80 55 191.5 167t163.5 186l12 2q33 -11 90 -54.5t57 -68.5 q0 -36 -92.5 -98.5t-208 -115.5t-190.5 -71zM309 319q2 -29 21 -72t56 -81.5t77 -38.5q73 0 164 82v244q-24 -8 -145 -58t-173 -76z" />
<glyph unicode="&#xe2;" horiz-adv-x="1040" d="M66 238q0 22 6 40.5t24.5 37t37 32.5t59 32t74.5 31.5t99 35t117 37.5t144 44v99q0 102 -59.5 168.5t-155.5 66.5q-99 0 -99 -69q0 -41 56 -97v-43q-23 -17 -46 -33t-40 -26.5t-30.5 -18.5t-22 -12.5t-9.5 -5.5q-26 9 -72.5 59t-46.5 105q0 58 82.5 121t189 102t183.5 39 q134 0 224.5 -89.5t90.5 -238.5v-481q0 -16 1 -26t8.5 -25.5t21.5 -25t42.5 -16.5t68.5 -7v-56q-116 -49 -258 -49q-64 0 -90.5 38t-36.5 116h-13q-182 -154 -297 -154q-90 0 -171.5 93.5t-81.5 175.5zM211 1196v59q128 97 281 281h61q145 -179 281 -281v-59l-312 119z M309 319q2 -29 21 -72t56 -81.5t77 -38.5q73 0 164 82v244q-24 -8 -145 -58t-173 -76z" />
<glyph unicode="&#xe3;" horiz-adv-x="1040" d="M66 238q0 22 6 40.5t24.5 37t37 32.5t59 32t74.5 31.5t99 35t117 37.5t144 44v99q0 102 -59.5 168.5t-155.5 66.5q-99 0 -99 -69q0 -41 56 -97v-43q-23 -17 -46 -33t-40 -26.5t-30.5 -18.5t-22 -12.5t-9.5 -5.5q-26 9 -72.5 59t-46.5 105q0 58 82.5 121t189 102t183.5 39 q134 0 224.5 -89.5t90.5 -238.5v-481q0 -16 1 -26t8.5 -25.5t21.5 -25t42.5 -16.5t68.5 -7v-56q-116 -49 -258 -49q-64 0 -90.5 38t-36.5 116h-13q-182 -154 -297 -154q-90 0 -171.5 93.5t-81.5 175.5zM174 1221q0 120 49 187t135 67q67 0 180 -32t160 -32q39 0 58.5 16.5 t31.5 63.5h66q0 -121 -49.5 -188.5t-134.5 -67.5q-69 0 -182.5 32.5t-157.5 32.5q-40 0 -60.5 -16t-29.5 -63h-66zM309 319q2 -29 21 -72t56 -81.5t77 -38.5q73 0 164 82v244q-24 -8 -145 -58t-173 -76z" />
<glyph unicode="&#xe4;" horiz-adv-x="1040" d="M66 238q0 22 6 40.5t24.5 37t37 32.5t59 32t74.5 31.5t99 35t117 37.5t144 44v99q0 102 -59.5 168.5t-155.5 66.5q-99 0 -99 -69q0 -41 56 -97v-43q-23 -17 -46 -33t-40 -26.5t-30.5 -18.5t-22 -12.5t-9.5 -5.5q-26 9 -72.5 59t-46.5 105q0 58 82.5 121t189 102t183.5 39 q134 0 224.5 -89.5t90.5 -238.5v-481q0 -16 1 -26t8.5 -25.5t21.5 -25t42.5 -16.5t68.5 -7v-56q-116 -49 -258 -49q-64 0 -90.5 38t-36.5 116h-13q-182 -154 -297 -154q-90 0 -171.5 93.5t-81.5 175.5zM174 1364q0 50 35 89.5t96 39.5q56 0 92.5 -34.5t36.5 -92.5 q0 -54 -37 -92.5t-94 -38.5q-61 0 -95 37t-34 92zM309 319q2 -29 21 -72t56 -81.5t77 -38.5q73 0 164 82v244q-24 -8 -145 -58t-173 -76zM614 1364q0 50 35 89.5t94 39.5q57 0 94 -34.5t37 -90.5q0 -55 -37.5 -94t-93.5 -39q-61 0 -95 37t-34 92z" />
<glyph unicode="&#xe5;" horiz-adv-x="1040" d="M66 238q0 22 6 40.5t24.5 37t37 32.5t59 32t74.5 31.5t99 35t117 37.5t144 44v99q0 102 -59.5 168.5t-155.5 66.5q-99 0 -99 -69q0 -41 56 -97v-43q-23 -17 -46 -33t-40 -26.5t-30.5 -18.5t-22 -12.5t-9.5 -5.5q-26 9 -72.5 59t-46.5 105q0 58 82.5 121t189 102t183.5 39 q134 0 224.5 -89.5t90.5 -238.5v-481q0 -16 1 -26t8.5 -25.5t21.5 -25t42.5 -16.5t68.5 -7v-56q-116 -49 -258 -49q-64 0 -90.5 38t-36.5 116h-13q-182 -154 -297 -154q-90 0 -171.5 93.5t-81.5 175.5zM285 1386q0 101 68.5 169.5t168.5 68.5q103 0 169.5 -66t66.5 -163 q0 -101 -70 -169.5t-170 -68.5q-99 0 -166 66.5t-67 162.5zM309 319q2 -29 21 -72t56 -81.5t77 -38.5q73 0 164 82v244q-24 -8 -145 -58t-173 -76zM414 1391q0 -50 31 -81.5t77 -31.5q49 0 79 32.5t30 84.5q0 49 -30 81.5t-81 32.5q-49 0 -77.5 -34t-28.5 -84z" />
<glyph unicode="&#xe6;" horiz-adv-x="1570" d="M66 236q0 22 6 41t24.5 37.5t37 33t59 32.5t74.5 31.5t99 35t117 37.5t144 44v99q0 102 -59.5 168.5t-155.5 66.5q-99 0 -99 -69q0 -20 11.5 -40.5t27.5 -38.5l17 -18v-43q-90 -66 -150 -96q-25 8 -71 59t-46 105q0 58 82.5 121t189 102t183.5 39q68 0 130.5 -28 t105.5 -76q119 104 311 104q196 0 298 -109.5t105 -322.5h-633q-2 -18 -2 -51q0 -185 75.5 -290.5t221.5 -105.5q78 0 155.5 37t137.5 113l43 -27q-20 -43 -51.5 -83.5t-81.5 -82t-125 -67t-164 -25.5q-126 0 -226 49.5t-157 145.5h-22q-88 -77 -189 -136t-172 -59 q-60 0 -120 46t-95.5 108.5t-35.5 112.5zM309 319q2 -29 21 -72t56 -81.5t77 -38.5q73 0 164 82v244q-24 -8 -145 -58t-173 -76zM883 625l383 10q-2 123 -41.5 184.5t-124.5 61.5q-87 0 -142 -71.5t-75 -184.5z" />
<glyph unicode="&#xe7;" horiz-adv-x="952" d="M78 463q0 229 133.5 374.5t366.5 145.5q92 0 180.5 -21t134.5 -55q-10 -122 -33 -221h-57q-68 188 -223 188q-83 0 -139.5 -53.5t-81.5 -139.5t-25 -198q0 -165 73.5 -271t202.5 -106q161 0 281 138l39 -31q-43 -65 -86.5 -107t-85.5 -65t-82.5 -41t-92.5 -49.5 t-100 -75.5v-10h29q93 0 140.5 -47t47.5 -115q0 -91 -79 -141.5t-195 -50.5q-78 0 -154 28v66q67 -13 103 -13q127 0 127 89q0 40 -40.5 65t-113.5 25h-74l-24 49q67 67 221 157q-184 10 -288.5 144t-104.5 342z" />
<glyph unicode="&#xe8;" horiz-adv-x="1026" d="M74 459q0 239 129 381.5t356 142.5q196 0 298.5 -109.5t105.5 -322.5h-633q-2 -18 -2 -49q0 -185 75.5 -291.5t221.5 -106.5q78 0 155.5 37t137.5 113l43 -27q-20 -44 -51.5 -84.5t-81.5 -82t-125 -66.5t-164 -25q-97 0 -180.5 31.5t-147.5 91t-100.5 154t-36.5 213.5z M246 1444q0 25 57 68.5t90 54.5l13 -2q52 -74 163 -186t191 -167l-23 -53q-75 18 -190.5 71t-208 115.5t-92.5 98.5zM338 625l383 10q-2 123 -41.5 184.5t-124.5 61.5q-87 0 -142 -71.5t-75 -184.5z" />
<glyph unicode="&#xe9;" horiz-adv-x="1026" d="M74 459q0 239 129 381.5t356 142.5q196 0 298.5 -109.5t105.5 -322.5h-633q-2 -18 -2 -49q0 -185 75.5 -291.5t221.5 -106.5q78 0 155.5 37t137.5 113l43 -27q-20 -44 -51.5 -84.5t-81.5 -82t-125 -66.5t-164 -25q-97 0 -180.5 31.5t-147.5 91t-100.5 154t-36.5 213.5z M242 1212q80 55 191 167t163 186l12 2q33 -11 90.5 -54.5t57.5 -68.5q0 -36 -92.5 -98.5t-208.5 -115.5t-191 -71zM338 625l383 10q-2 123 -41.5 184.5t-124.5 61.5q-87 0 -142 -71.5t-75 -184.5z" />
<glyph unicode="&#xea;" horiz-adv-x="1026" d="M74 459q0 239 129 381.5t356 142.5q196 0 298.5 -109.5t105.5 -322.5h-633q-2 -18 -2 -49q0 -185 75.5 -291.5t221.5 -106.5q78 0 155.5 37t137.5 113l43 -27q-20 -44 -51.5 -84.5t-81.5 -82t-125 -66.5t-164 -25q-97 0 -180.5 31.5t-147.5 91t-100.5 154t-36.5 213.5z M231 1196v59q128 97 281 281h61q145 -179 281 -281v-59l-311 119zM338 625l383 10q-2 123 -41.5 184.5t-124.5 61.5q-87 0 -142 -71.5t-75 -184.5z" />
<glyph unicode="&#xeb;" horiz-adv-x="1026" d="M74 459q0 239 129 381.5t356 142.5q196 0 298.5 -109.5t105.5 -322.5h-633q-2 -18 -2 -49q0 -185 75.5 -291.5t221.5 -106.5q78 0 155.5 37t137.5 113l43 -27q-20 -44 -51.5 -84.5t-81.5 -82t-125 -66.5t-164 -25q-97 0 -180.5 31.5t-147.5 91t-100.5 154t-36.5 213.5z M190 1364q0 50 35.5 89.5t96.5 39.5q56 0 92.5 -34.5t36.5 -92.5q0 -54 -37.5 -92.5t-94.5 -38.5q-61 0 -95 37t-34 92zM338 625l383 10q-2 123 -41.5 184.5t-124.5 61.5q-87 0 -142 -71.5t-75 -184.5zM631 1364q0 50 35 89.5t94 39.5q57 0 94 -34.5t37 -90.5 q0 -55 -37.5 -94t-93.5 -39q-61 0 -95 37t-34 92z" />
<glyph unicode="&#xec;" horiz-adv-x="653" d="M18 1444q0 25 57.5 68.5t90.5 54.5l12 -2q52 -74 163 -186t191 -167l-22 -53q-75 18 -191 71t-208.5 115.5t-92.5 98.5zM61 0v57l68 4q27 2 40.5 4t27.5 14.5t18.5 28t9.5 54.5t5.5 83t0.5 124v252q0 47 -1 72t-7.5 49t-13.5 34t-27 19.5t-40.5 13t-59.5 8.5v51l356 121 q17 -4 37 -24v-607q0 -202 13.5 -245t82.5 -50l54 -6v-57h-564z" />
<glyph unicode="&#xed;" horiz-adv-x="653" d="M61 0v57l68 4q27 2 40.5 4t27.5 14.5t18.5 28t9.5 54.5t5.5 83t0.5 124v252q0 47 -1 72t-7.5 49t-13.5 34t-27 19.5t-40.5 13t-59.5 8.5v51l356 121q17 -4 37 -24v-607q0 -202 13.5 -245t82.5 -50l54 -6v-57h-564zM80 1212q80 55 191 167t163 186l12 2q33 -11 90.5 -54.5 t57.5 -68.5q0 -36 -92.5 -98.5t-208.5 -115.5t-191 -71z" />
<glyph unicode="&#xee;" horiz-adv-x="653" d="M25 1196v59q125 95 280 281h62q147 -181 280 -281v-59l-311 119zM61 0v57l68 4q27 2 40.5 4t27.5 14.5t18.5 28t9.5 54.5t5.5 83t0.5 124v252q0 47 -1 72t-7.5 49t-13.5 34t-27 19.5t-40.5 13t-59.5 8.5v51l356 121q17 -4 37 -24v-607q0 -202 13.5 -245t82.5 -50l54 -6 v-57h-564z" />
<glyph unicode="&#xef;" horiz-adv-x="653" d="M-18 1364q0 50 35 89.5t96 39.5q56 0 92.5 -34.5t36.5 -92.5q0 -54 -37 -92.5t-94 -38.5q-61 0 -95 37t-34 92zM61 0v57l68 4q27 2 40.5 4t27.5 14.5t18.5 28t9.5 54.5t5.5 83t0.5 124v252q0 47 -1 72t-7.5 49t-13.5 34t-27 19.5t-40.5 13t-59.5 8.5v51l356 121 q17 -4 37 -24v-607q0 -202 13.5 -245t82.5 -50l54 -6v-57h-564zM422 1364q0 50 35 89.5t94 39.5q57 0 94 -34.5t37 -90.5q0 -55 -37.5 -94t-93.5 -39q-61 0 -95 37t-34 92z" />
<glyph unicode="&#xf0;" horiz-adv-x="1169" d="M84 449q0 193 121.5 312.5t314.5 119.5q151 0 264 -72l15 10q-34 211 -133 367l-289 -121l-10 133l219 92q-148 158 -385 207l24 70q322 -29 535 -201l282 121l11 -137l-191 -80q223 -256 223 -647q0 -193 -64.5 -340.5t-187 -230.5t-286.5 -83q-197 0 -330 134t-133 346 zM344 440q0 -172 60 -272t163 -100q122 0 188 123.5t66 338.5q0 101 -10 170q-90 76 -215 76q-112 0 -182 -94.5t-70 -241.5z" />
<glyph unicode="&#xf1;" horiz-adv-x="1300" d="M61 0v57l64 4q77 4 91.5 49t14.5 267v231v6q0 112 -9.5 143t-57.5 42l-82 18v51l346 121q32 -8 51 -24l-6 -138l14 -2q73 74 165 116t173 42q129 0 212 -93.5t83 -260.5v-289q0 -101 3.5 -155t16 -81t26 -32.5t44.5 -8.5l78 -6v-57h-555v57l41 4q72 7 86 47.5t14 229.5 v246q0 73 -15.5 123.5t-43.5 75.5t-57.5 34.5t-67.5 9.5q-108 0 -215 -92v-383q0 -86 2 -131.5t7 -81.5t18 -49.5t29.5 -20t48.5 -8.5l63 -4v-57h-582zM311 1221q0 120 49.5 187t135.5 67q67 0 180 -32t160 -32q39 0 58.5 16.5t31.5 63.5h65q0 -121 -49.5 -188.5 t-134.5 -67.5q-69 0 -182.5 32.5t-157.5 32.5q-40 0 -60.5 -16t-29.5 -63h-66z" />
<glyph unicode="&#xf2;" horiz-adv-x="1138" d="M74 469q0 227 135.5 370.5t372.5 143.5q235 0 359 -138t124 -366q0 -102 -36 -194.5t-100 -162.5t-160 -111.5t-210 -41.5q-118 0 -212 40.5t-152.5 110t-89.5 159t-31 190.5zM307 1444q0 25 57.5 68.5t90.5 54.5l12 -2q52 -74 163 -186t191 -167l-22 -53q-75 18 -191 71 t-208.5 115.5t-92.5 98.5zM338 481q0 -197 60 -311.5t171 -114.5q110 0 170 113.5t60 316.5q0 197 -56.5 304.5t-167.5 107.5q-110 0 -173.5 -105.5t-63.5 -310.5z" />
<glyph unicode="&#xf3;" horiz-adv-x="1138" d="M74 469q0 227 135.5 370.5t372.5 143.5q235 0 359 -138t124 -366q0 -102 -36 -194.5t-100 -162.5t-160 -111.5t-210 -41.5q-118 0 -212 40.5t-152.5 110t-89.5 159t-31 190.5zM309 1212q80 55 191.5 167t163.5 186l12 2q33 -11 90 -54.5t57 -68.5q0 -36 -92.5 -98.5 t-208 -115.5t-190.5 -71zM338 481q0 -197 60 -311.5t171 -114.5q110 0 170 113.5t60 316.5q0 197 -56.5 304.5t-167.5 107.5q-110 0 -173.5 -105.5t-63.5 -310.5z" />
<glyph unicode="&#xf4;" horiz-adv-x="1138" d="M74 469q0 227 135.5 370.5t372.5 143.5q235 0 359 -138t124 -366q0 -102 -36 -194.5t-100 -162.5t-160 -111.5t-210 -41.5q-118 0 -212 40.5t-152.5 110t-89.5 159t-31 190.5zM254 1196v59q128 97 281 281h61q145 -179 281 -281v-59l-312 119zM338 481q0 -197 60 -311.5 t171 -114.5q110 0 170 113.5t60 316.5q0 197 -56.5 304.5t-167.5 107.5q-110 0 -173.5 -105.5t-63.5 -310.5z" />
<glyph unicode="&#xf5;" horiz-adv-x="1138" d="M74 469q0 227 135.5 370.5t372.5 143.5q235 0 359 -138t124 -366q0 -102 -36 -194.5t-100 -162.5t-160 -111.5t-210 -41.5q-118 0 -212 40.5t-152.5 110t-89.5 159t-31 190.5zM240 1221q0 120 49 187t135 67q67 0 180 -32t160 -32q39 0 58.5 16.5t31.5 63.5h66 q0 -120 -50 -188t-135 -68q-69 0 -182.5 32.5t-157.5 32.5q-40 0 -60.5 -16t-29.5 -63h-65zM338 481q0 -197 60 -311.5t171 -114.5q110 0 170 113.5t60 316.5q0 197 -56.5 304.5t-167.5 107.5q-110 0 -173.5 -105.5t-63.5 -310.5z" />
<glyph unicode="&#xf6;" horiz-adv-x="1138" d="M74 469q0 227 135.5 370.5t372.5 143.5q235 0 359 -138t124 -366q0 -102 -36 -194.5t-100 -162.5t-160 -111.5t-210 -41.5q-118 0 -212 40.5t-152.5 110t-89.5 159t-31 190.5zM213 1364q0 50 35 89.5t96 39.5q56 0 92.5 -34.5t36.5 -92.5q0 -54 -37 -92.5t-94 -38.5 q-61 0 -95 37t-34 92zM338 481q0 -197 60 -311.5t171 -114.5q110 0 170 113.5t60 316.5q0 197 -56.5 304.5t-167.5 107.5q-110 0 -173.5 -105.5t-63.5 -310.5zM653 1364q0 50 35 89.5t94 39.5q57 0 94 -34.5t37 -90.5q0 -55 -37.5 -94t-93.5 -39q-61 0 -95 37t-34 92z" />
<glyph unicode="&#xf7;" d="M80 530v179h1028v-179h-1028zM457 272q0 60 37.5 99t99.5 39q56 0 94.5 -40t38.5 -96q0 -55 -38.5 -94t-98.5 -39q-56 0 -94.5 38.5t-38.5 92.5zM457 963q0 61 37.5 100t99.5 39q57 0 95 -39t38 -98q0 -54 -38.5 -94t-98.5 -40q-56 0 -94.5 39.5t-38.5 92.5z" />
<glyph unicode="&#xf8;" horiz-adv-x="1138" d="M74 469q0 227 135.5 370.5t372.5 143.5q127 0 225 -45l92 131q27 -6 65 -31.5t52 -46.5l-92 -131q141 -135 141 -381q0 -102 -36 -194.5t-100 -162.5t-160 -111.5t-210 -41.5q-125 0 -227 47l-92 -133q-27 6 -65 31.5t-50 46.5l92 133q-71 69 -107 166.5t-36 208.5z M338 481q0 -105 18 -188l367 524q-55 80 -148 80q-110 0 -173.5 -105.5t-63.5 -310.5zM418 137q57 -82 151 -82q110 0 170 113.5t60 316.5q0 81 -15 177z" />
<glyph unicode="&#xf9;" horiz-adv-x="1212" d="M6 817v51l344 121q11 -3 23.5 -9.5t18.5 -11.5l7 -5v-586q0 -72 17 -123t46.5 -78t63.5 -39t74 -12q50 0 104 20t87 50v413q0 117 -9.5 148.5t-58.5 42.5l-78 18v51l338 121q12 -3 25.5 -9.5t20.5 -11.5l7 -5v-770q0 -73 23.5 -96t89.5 -23h29v-56q-11 -6 -41 -16 t-90 -21.5t-115 -11.5q-71 0 -101 37.5t-36 114.5h-15q-159 -152 -323 -152q-133 0 -217 91.5t-84 263.5v290q0 112 -10.5 143.5t-57.5 41.5zM252 1444q0 25 57 68.5t90 54.5l13 -2q52 -74 163 -186t191 -167l-23 -53q-75 18 -190.5 71t-208 115.5t-92.5 98.5z" />
<glyph unicode="&#xfa;" horiz-adv-x="1212" d="M6 817v51l344 121q11 -3 23.5 -9.5t18.5 -11.5l7 -5v-586q0 -72 17 -123t46.5 -78t63.5 -39t74 -12q50 0 104 20t87 50v413q0 117 -9.5 148.5t-58.5 42.5l-78 18v51l338 121q12 -3 25.5 -9.5t20.5 -11.5l7 -5v-770q0 -73 23.5 -96t89.5 -23h29v-56q-11 -6 -41 -16 t-90 -21.5t-115 -11.5q-71 0 -101 37.5t-36 114.5h-15q-159 -152 -323 -152q-133 0 -217 91.5t-84 263.5v290q0 112 -10.5 143.5t-57.5 41.5zM399 1212q80 55 191.5 167t163.5 186l12 2q33 -11 90 -54.5t57 -68.5q0 -36 -92.5 -98.5t-208 -115.5t-190.5 -71z" />
<glyph unicode="&#xfb;" horiz-adv-x="1212" d="M6 817v51l344 121q11 -3 23.5 -9.5t18.5 -11.5l7 -5v-586q0 -72 17 -123t46.5 -78t63.5 -39t74 -12q50 0 104 20t87 50v413q0 117 -9.5 148.5t-58.5 42.5l-78 18v51l338 121q12 -3 25.5 -9.5t20.5 -11.5l7 -5v-770q0 -73 23.5 -96t89.5 -23h29v-56q-11 -6 -41 -16 t-90 -21.5t-115 -11.5q-71 0 -101 37.5t-36 114.5h-15q-159 -152 -323 -152q-133 0 -217 91.5t-84 263.5v290q0 112 -10.5 143.5t-57.5 41.5zM260 1196v59q128 97 281 281h61q145 -179 281 -281v-59l-312 119z" />
<glyph unicode="&#xfc;" horiz-adv-x="1212" d="M6 817v51l344 121q11 -3 23.5 -9.5t18.5 -11.5l7 -5v-586q0 -72 17 -123t46.5 -78t63.5 -39t74 -12q50 0 104 20t87 50v413q0 117 -9.5 148.5t-58.5 42.5l-78 18v51l338 121q12 -3 25.5 -9.5t20.5 -11.5l7 -5v-770q0 -73 23.5 -96t89.5 -23h29v-56q-11 -6 -41 -16 t-90 -21.5t-115 -11.5q-71 0 -101 37.5t-36 114.5h-15q-159 -152 -323 -152q-133 0 -217 91.5t-84 263.5v290q0 112 -10.5 143.5t-57.5 41.5zM201 1364q0 50 35 89.5t96 39.5q56 0 92.5 -34.5t36.5 -92.5q0 -54 -37 -92.5t-94 -38.5q-61 0 -95 37t-34 92zM641 1364 q0 50 35 89.5t94 39.5q57 0 94 -34.5t37 -90.5q0 -55 -37.5 -94t-93.5 -39q-61 0 -95 37t-34 92z" />
<glyph unicode="&#xfd;" horiz-adv-x="1118" d="M4 895v57h283q23 0 48 -20t54 -68.5t52.5 -92t59.5 -130t57.5 -140.5t64.5 -163h20q199 439 199 487q0 30 -15.5 44t-64.5 20l-49 6v57h403v-57q-59 -3 -90 -21.5t-57 -74.5l-465 -1004q-45 -95 -45 -127t24.5 -43.5t71.5 -13.5l72 -4v-58h-504v58l43 4q65 5 105.5 25.5 t68.5 76.5l158 314q-254 591 -353 780q-25 44 -52.5 62.5t-88.5 25.5zM360 1212q80 55 191.5 167t163.5 186l12 2q33 -11 90 -54.5t57 -68.5q0 -36 -92.5 -98.5t-208 -115.5t-190.5 -71z" />
<glyph unicode="&#xfe;" horiz-adv-x="1159" d="M-4 -393l70 6q72 6 85 49.5t13 251.5v1264q0 34 -0.5 57.5t-4 43.5t-5 31.5t-10 22.5t-13.5 15.5t-20.5 10.5t-24.5 8t-33 7.5t-39 9.5v48l359 118q12 -3 21.5 -9t12.5 -11l3 -4v-547l-2 -143l18 -7q56 80 129 117t145 37q75 0 141 -27t122 -82t89 -152.5t33 -225.5 q0 -245 -127.5 -386t-377.5 -141q-101 0 -170 31v-86q0 -208 14.5 -254t89.5 -49l100 -4v-58h-618v58zM410 147q67 -67 172 -67q113 0 180 104t67 277q0 73 -11.5 135t-37 116.5t-72.5 85.5t-112 31q-50 0 -101.5 -27t-84.5 -65v-590z" />
<glyph unicode="&#xff;" horiz-adv-x="1118" d="M4 895v57h283q23 0 48 -20t54 -68.5t52.5 -92t59.5 -130t57.5 -140.5t64.5 -163h20q199 439 199 487q0 30 -15.5 44t-64.5 20l-49 6v57h403v-57q-59 -3 -90 -21.5t-57 -74.5l-465 -1004q-45 -95 -45 -127t24.5 -43.5t71.5 -13.5l72 -4v-58h-504v58l43 4q65 5 105.5 25.5 t68.5 76.5l158 314q-254 591 -353 780q-25 44 -52.5 62.5t-88.5 25.5zM240 1364q0 50 35 89.5t96 39.5q56 0 92.5 -34.5t36.5 -92.5q0 -54 -37 -92.5t-94 -38.5q-61 0 -95 37t-34 92zM680 1364q0 50 35 89.5t94 39.5q57 0 94 -34.5t37 -90.5q0 -55 -37.5 -94t-93.5 -39 q-61 0 -95 37t-34 92z" />
<glyph unicode="&#x152;" horiz-adv-x="2045" d="M78 705q0 215 110.5 382.5t299.5 257t423 89.5h996q6 -44 6 -95q0 -127 -31 -258h-72q-7 148 -56 200t-173 52q-134 0 -240 -18v-524h123q64 0 99.5 3t63.5 9t42 22.5t23 36.5t18 58h45v-412h-63l-13 76q-7 46 -25 67t-63 31t-137 10h-113v-278q0 -88 4.5 -142.5 t13.5 -90t29 -52t43 -22t64 -5.5h115q127 0 193.5 60t101.5 205h73q-3 -88 -18.5 -191t-38.5 -176h-1042q-233 0 -414.5 86t-284 246.5t-102.5 372.5zM379 713q0 -125 31.5 -232t94 -191.5t166 -132.5t238.5 -48q37 0 58.5 5t41 21t29 50t14.5 87.5t5 137.5v893 q-77 24 -187 24q-128 0 -224.5 -49t-153.5 -135t-85 -194t-28 -236z" />
<glyph unicode="&#x153;" horiz-adv-x="1755" d="M74 469q0 227 135.5 370.5t372.5 143.5q225 0 356 -141q125 141 350 141q196 0 298.5 -109.5t105.5 -322.5h-633q-2 -18 -2 -49q0 -186 74.5 -292t220.5 -106q173 0 295 150l41 -27q-15 -33 -36.5 -65.5t-58.5 -68.5t-81 -62.5t-108 -44t-136 -17.5q-221 0 -346 146 q-67 -69 -161.5 -107.5t-201.5 -38.5q-118 0 -212 40.5t-152.5 110t-89.5 159t-31 190.5zM338 477q0 -198 60 -312t171 -114q110 0 170 112.5t60 317.5q0 197 -56.5 304.5t-167.5 107.5q-110 0 -173.5 -105.5t-63.5 -310.5zM1067 625l383 10q-2 123 -42 184.5t-126 61.5 q-87 0 -141 -71t-74 -185z" />
<glyph unicode="&#x178;" horiz-adv-x="1474" d="M18 1370v64h365q64 0 162.5 -166.5t238.5 -493.5h13q221 392 221 508q0 35 -18.5 54.5t-67.5 23.5l-107 10v64h619v-64q-82 -8 -126 -25t-79 -59q-80 -97 -373 -639v-254q0 -79 1 -125.5t5.5 -85.5t10.5 -57t20 -31t28.5 -16.5t41.5 -5.5l96 -9v-63h-692v63l98 9 q27 2 42 5.5t29 17.5t19.5 31.5t10 57.5t5.5 85t1 124v228q-225 467 -332 620q-52 73 -99.5 101t-132.5 28zM391 1733q0 50 35 89.5t96 39.5q56 0 92.5 -34.5t36.5 -92.5q0 -54 -37 -92.5t-94 -38.5q-61 0 -95 37t-34 92zM831 1733q0 50 35.5 89.5t94.5 39.5q57 0 94 -34.5 t37 -90.5q0 -55 -37.5 -94t-93.5 -39q-61 0 -95.5 37t-34.5 92z" />
<glyph unicode="&#x2c6;" horiz-adv-x="819" d="M98 1196v59q128 97 281 281h61q145 -179 281 -281v-59l-311 119z" />
<glyph unicode="&#x2dc;" horiz-adv-x="819" d="M70 1221q0 120 49 187t135 67q67 0 180 -32t160 -32q39 0 58.5 16.5t31.5 63.5h66q0 -120 -50 -188t-135 -68q-69 0 -182.5 32.5t-157.5 32.5q-40 0 -60.5 -16t-29.5 -63h-65z" />
<glyph unicode="&#x2000;" horiz-adv-x="1001" />
<glyph unicode="&#x2001;" horiz-adv-x="2003" />
<glyph unicode="&#x2002;" horiz-adv-x="1001" />
<glyph unicode="&#x2003;" horiz-adv-x="2003" />
<glyph unicode="&#x2004;" horiz-adv-x="667" />
<glyph unicode="&#x2005;" horiz-adv-x="500" />
<glyph unicode="&#x2006;" horiz-adv-x="333" />
<glyph unicode="&#x2007;" horiz-adv-x="333" />
<glyph unicode="&#x2008;" horiz-adv-x="250" />
<glyph unicode="&#x2009;" horiz-adv-x="400" />
<glyph unicode="&#x200a;" horiz-adv-x="111" />
<glyph unicode="&#x2010;" horiz-adv-x="757" d="M31 479v187l696 51v-187z" />
<glyph unicode="&#x2011;" horiz-adv-x="757" d="M31 479v187l696 51v-187z" />
<glyph unicode="&#x2012;" horiz-adv-x="757" d="M31 479v187l696 51v-187z" />
<glyph unicode="&#x2013;" horiz-adv-x="1208" d="M31 508v186h1147v-186h-1147z" />
<glyph unicode="&#x2014;" horiz-adv-x="1781" d="M31 508v186h1720v-186h-1720z" />
<glyph unicode="&#x2018;" horiz-adv-x="589" d="M104 1163q0 130 107 216.5t276 90.5v-55q-217 -32 -217 -143q0 -36 29.5 -68.5t65 -52.5t65 -43.5t29.5 -44.5q0 -58 -40.5 -105t-86.5 -47q-84 0 -156 70.5t-72 181.5z" />
<glyph unicode="&#x2019;" horiz-adv-x="589" d="M104 911v56q218 32 218 143q0 36 -29.5 68.5t-65 52.5t-65 43.5t-29.5 44.5q0 58 40 104.5t87 46.5q84 0 155.5 -70t71.5 -181q0 -130 -106.5 -217t-276.5 -91z" />
<glyph unicode="&#x201a;" horiz-adv-x="589" d="M104 -242q218 32 218 144q0 36 -29.5 68.5t-65 52.5t-65 43.5t-29.5 44.5q0 58 40 104.5t87 46.5q84 0 155.5 -70.5t71.5 -181.5q0 -130 -106.5 -216.5t-276.5 -90.5v55z" />
<glyph unicode="&#x201c;" horiz-adv-x="1036" d="M104 1163q0 130 107 216.5t276 90.5v-55q-217 -32 -217 -143q0 -36 29.5 -68.5t65 -52.5t65 -43.5t29.5 -44.5q0 -58 -40.5 -105t-86.5 -47q-84 0 -156 70.5t-72 181.5zM549 1163q0 130 107 216.5t278 90.5v-55q-217 -32 -217 -143q0 -36 29.5 -68.5t64.5 -52.5 t64.5 -43.5t29.5 -44.5q0 -58 -40.5 -105t-86.5 -47q-84 0 -156.5 70.5t-72.5 181.5z" />
<glyph unicode="&#x201d;" horiz-adv-x="1036" d="M104 911v56q218 32 218 143q0 36 -29.5 68.5t-65 52.5t-65 43.5t-29.5 44.5q0 58 40 104.5t87 46.5q84 0 155.5 -70t71.5 -181q0 -130 -106.5 -217t-276.5 -91zM549 911v56q217 32 217 143q0 36 -29.5 68.5t-64.5 52.5t-64.5 43.5t-29.5 44.5q0 58 40 104.5t87 46.5 q84 0 156.5 -70t72.5 -181q0 -130 -107 -217t-278 -91z" />
<glyph unicode="&#x201e;" horiz-adv-x="1036" d="M104 -242q218 32 218 144q0 36 -29.5 68.5t-65 52.5t-65 43.5t-29.5 44.5q0 58 40 104.5t87 46.5q84 0 155.5 -70.5t71.5 -181.5q0 -130 -106.5 -216.5t-276.5 -90.5v55zM549 -242q217 32 217 144q0 36 -29.5 68.5t-64.5 52.5t-64.5 43.5t-29.5 44.5q0 58 40 104.5 t87 46.5q84 0 156.5 -70.5t72.5 -181.5q0 -130 -107 -216.5t-278 -90.5v55z" />
<glyph unicode="&#x2022;" horiz-adv-x="698" d="M113 649q0 38 14 76.5t40.5 73t73 56.5t105.5 22q102 0 171 -61t69 -159q0 -101 -67 -170t-175 -69q-112 0 -171.5 70.5t-59.5 160.5z" />
<glyph unicode="&#x2026;" horiz-adv-x="1753" d="M139 119q0 70 44.5 113.5t111.5 43.5q66 0 108.5 -45.5t42.5 -109.5q0 -63 -43 -107.5t-112 -44.5q-63 0 -107.5 44t-44.5 106zM723 119q0 70 44.5 113.5t111.5 43.5q66 0 108.5 -45.5t42.5 -109.5q0 -63 -43.5 -107.5t-112.5 -44.5q-63 0 -107 44t-44 106zM1307 119 q0 70 44 113.5t111 43.5q66 0 109 -45.5t43 -109.5q0 -63 -43.5 -107.5t-112.5 -44.5q-63 0 -107 44t-44 106z" />
<glyph unicode="&#x202f;" horiz-adv-x="400" />
<glyph unicode="&#x2039;" horiz-adv-x="735" d="M98 569v54l508 434v-84l-237 -371l237 -377v-82z" />
<glyph unicode="&#x203a;" horiz-adv-x="735" d="M129 143v82l238 377l-238 371v84l508 -434v-54z" />
<glyph unicode="&#x205f;" horiz-adv-x="500" />
<glyph unicode="&#x20ac;" d="M33 512q0 77 4 100h160q-2 23 -2 72q0 46 6 111l-150 -4q0 77 4 106l160 -6q15 76 39.5 143.5t70.5 138.5t107.5 122t155 83.5t207.5 32.5q77 0 180.5 -26.5t128.5 -26.5q27 0 57 6q0 -206 -35 -418h-73q-15 173 -79.5 270t-170.5 97q-112 0 -180.5 -111t-90.5 -311 l463 6q0 -77 -4 -106l-469 2q-2 -39 -2 -119v-62l457 6q0 -77 -4 -106l-447 2q9 -106 32 -187t50 -127.5t61 -76t61.5 -39.5t55.5 -10q49 0 89 19t67 48t50 74t37 87.5t28 98.5h78q-2 -65 -20.5 -172t-41.5 -180q-45 -32 -127 -56t-162 -24q-228 0 -384 141t-195 406z" />
<glyph unicode="&#x2122;" horiz-adv-x="1810" d="M78 1237q0 31 7 101t13 96h654q12 -42 12 -197h-33q-21 74 -40.5 105.5t-53.5 31.5q-95 0 -141 -4v-393q0 -67 4 -97.5t14 -42t33 -12.5l59 -4v-37h-364v37l61 4q34 1 40.5 25.5t6.5 126.5v393q-50 4 -129 4q-43 0 -64 -30.5t-44 -106.5h-35zM825 784v33l49 6q31 4 43 35 t25 121l49 348q-34 63 -76 66l-43 2v39h203q15 0 42.5 -43t70.5 -139t94 -234h10q103 300 135 416h250v-39l-53 -2q-21 -1 -29 -17t-8 -49q0 -69 45 -407q8 -59 20 -77.5t46 -19.5l35 -2v-37h-342v37l41 2q65 3 65 68q0 15 -7 71.5t-17.5 140.5t-16.5 142h-8 q-27 -86 -88 -244t-64 -167q-45 -5 -82 -5q-26 70 -52.5 134.5t-38.5 92.5t-40.5 88.5t-31.5 67.5h-9q-28 -278 -28 -319q0 -37 13 -50.5t50 -19.5l33 -6v-33h-285z" />
<glyph unicode="&#x25fc;" horiz-adv-x="952" d="M0 0v952h952v-952h-952z" />
<glyph unicode="&#xfb01;" horiz-adv-x="1349" d="M47 0v57l74 6q70 6 83 49.5t13 247.5v502h-154v90h154v82q0 246 121.5 381t376.5 135q104 0 213.5 -30.5t158.5 -61.5q-31 -196 -61 -280h-59q-3 8 -16 40t-19 46t-22.5 43.5t-30 44.5t-37 36.5t-49 32.5t-61.5 19t-77 8q-97 0 -149.5 -64t-52.5 -176q0 -48 2.5 -109.5 t5 -103.5t2.5 -43h530l142 37q8 -1 19.5 -9t16.5 -15v-613q0 -72 1 -113t5.5 -77t10 -52t19 -28t28 -15.5t41.5 -5.5l47 -4v-57h-567v57l65 4q78 4 92.5 48.5t14.5 267.5v485h-465v-495q0 -205 15 -252.5t91 -51.5l101 -6v-57h-623z" />
<glyph unicode="&#xfb02;" horiz-adv-x="1382" d="M47 0v57l74 6q70 6 83 49.5t13 247.5v502h-154v90h154v82q0 235 114.5 375.5t332.5 140.5q180 0 321 -67l158 67q11 -2 20 -7.5t12 -10.5l3 -4v-1163q0 -206 15 -253t91 -51l62 -4v-57h-580v57l70 6q72 6 85 49.5t13 252.5v925q-42 63 -124.5 108.5t-158.5 45.5 q-92 0 -145 -58.5t-53 -175.5q0 -49 2.5 -111t4.5 -105l3 -42h254l-8 -90h-246v-495q0 -205 15 -251.5t91 -52.5l84 -6v-57h-606z" />
</font>
</defs>
</svg>
